<?xml version="1.0" standalone="no"?>
 <!DOCTYPE svg PUBLIC "-//W3C//DTD SVG 1.1//EN" 
 "http://www.w3.org/Graphics/SVG/1.1/DTD/svg11.dtd"> 
<svg
  xmlns:svg="http://www.w3.org/2000/svg"
  xmlns="http://www.w3.org/2000/svg"
  xmlns:xlink="http://www.w3.org/1999/xlink"
  version="1.1"
  width="73.3298mm" height="44.1198mm" viewBox="0.0000 0.0000 73.3298 44.1198">
<title>SVG Image created as auto_irrigator-brd.svg date 2025/04/26 23:19:09 </title>
  <desc>Image generated by PCBNEW </desc>
<g style="fill:#000000; fill-opacity:1.0000;stroke:#000000; stroke-opacity:1.0000;
stroke-linecap:round; stroke-linejoin:round;"
 transform="translate(0 0) scale(1 1)">
</g>
<g style="fill:#000000; fill-opacity:0.0; 
stroke:#000000; stroke-width:0.0000; stroke-opacity:1; 
stroke-linecap:round; stroke-linejoin:round;">
<g >
</g>
<g style="fill:#D864FF; fill-opacity:0.0; 
stroke:#D864FF; stroke-width:0.0000; stroke-opacity:1; 
stroke-linecap:round; stroke-linejoin:round;">
</g>
<g style="fill:#D864FF; fill-opacity:0.0; 
stroke:#D864FF; stroke-width:1.7000; stroke-opacity:1; 
stroke-linecap:round; stroke-linejoin:round;">
<path d="M65.8460 20.5030
L65.8460 20.7530
" />
<path d="M63.3460 20.5030
L63.3460 20.7530
" />
</g>
<g style="fill:#D864FF; fill-opacity:0.0; 
stroke:#D864FF; stroke-width:0.0000; stroke-opacity:1; 
stroke-linecap:round; stroke-linejoin:round;">
</g>
<g style="fill:#D864FF; fill-opacity:0.4000; 
stroke:#D864FF; stroke-width:0.0000; stroke-opacity:1; 
stroke-linecap:round; stroke-linejoin:round;">
<path style="fill:#D864FF; fill-opacity:0.4000; 
stroke:#D864FF; stroke-width:0.0000; stroke-opacity:1; 
stroke-linecap:round; stroke-linejoin:round;fill-rule:evenodd;"
d="M 59.9960,19.9030
60.0150,19.8073
60.0692,19.7262
60.1503,19.6720
60.2460,19.6530
61.4460,19.6530
61.5417,19.6720
61.6228,19.7262
61.6770,19.8073
61.6960,19.9030
61.6960,21.3530
61.6770,21.4487
61.6228,21.5298
61.5417,21.5840
61.4460,21.6030
60.2460,21.6030
60.1503,21.5840
60.0692,21.5298
60.0150,21.4487
59.9960,21.3530
Z" /> 
</g>
<g >
</g>
<g style="fill:#D864FF; fill-opacity:0.4000; 
stroke:#D864FF; stroke-width:0.0000; stroke-opacity:1; 
stroke-linecap:round; stroke-linejoin:round;">
<path style="fill:#D864FF; fill-opacity:0.4000; 
stroke:#D864FF; stroke-width:0.0000; stroke-opacity:1; 
stroke-linecap:round; stroke-linejoin:round;fill-rule:evenodd;"
d="M 13.6465,18.5980
13.7422,18.6170
13.8233,18.6712
13.8775,18.7523
13.8965,18.8480
13.8965,20.8480
13.8775,20.9437
13.8233,21.0248
13.7422,21.0790
13.6465,21.0980
12.3465,21.0980
12.2508,21.0790
12.1697,21.0248
12.1155,20.9437
12.0965,20.8480
12.0965,18.8480
12.1155,18.7523
12.1697,18.6712
12.2508,18.6170
12.3465,18.5980
Z" /> 
<path style="fill:#D864FF; fill-opacity:0.4000; 
stroke:#D864FF; stroke-width:0.0000; stroke-opacity:1; 
stroke-linecap:round; stroke-linejoin:round;fill-rule:evenodd;"
d="M 13.6465,14.5980
13.7422,14.6170
13.8233,14.6712
13.8775,14.7523
13.8965,14.8480
13.8965,16.8480
13.8775,16.9437
13.8233,17.0248
13.7422,17.0790
13.6465,17.0980
12.3465,17.0980
12.2508,17.0790
12.1697,17.0248
12.1155,16.9437
12.0965,16.8480
12.0965,14.8480
12.1155,14.7523
12.1697,14.6712
12.2508,14.6170
12.3465,14.5980
Z" /> 
</g>
<g >
</g>
<g style="fill:#D864FF; fill-opacity:0.4000; 
stroke:#D864FF; stroke-width:0.0000; stroke-opacity:1; 
stroke-linecap:round; stroke-linejoin:round;">
<circle cx="6.1385" cy="10.9440" r="0.9525" /> 
</g>
<g style="fill:#D864FF; fill-opacity:0.4000; 
stroke:#D864FF; stroke-width:0.0212; stroke-opacity:1; 
stroke-linecap:round; stroke-linejoin:round;">
</g>
<g style="fill:#D864FF; fill-opacity:0.4000; 
stroke:#D864FF; stroke-width:0.0000; stroke-opacity:1; 
stroke-linecap:round; stroke-linejoin:round;">
<circle cx="6.1385" cy="7.5440" r="0.9525" /> 
</g>
<g style="fill:#D864FF; fill-opacity:0.4000; 
stroke:#D864FF; stroke-width:0.0212; stroke-opacity:1; 
stroke-linecap:round; stroke-linejoin:round;">
</g>
<g >
</g>
<g style="fill:#D864FF; fill-opacity:0.4000; 
stroke:#D864FF; stroke-width:0.0212; stroke-opacity:1; 
stroke-linecap:round; stroke-linejoin:round;">
</g>
<g style="fill:#D864FF; fill-opacity:0.4000; 
stroke:#D864FF; stroke-width:0.0000; stroke-opacity:1; 
stroke-linecap:round; stroke-linejoin:round;">
<circle cx="41.7560" cy="18.3880" r="0.7620" /> 
</g>
<g style="fill:#D864FF; fill-opacity:0.4000; 
stroke:#D864FF; stroke-width:0.0212; stroke-opacity:1; 
stroke-linecap:round; stroke-linejoin:round;">
</g>
<g style="fill:#D864FF; fill-opacity:0.4000; 
stroke:#D864FF; stroke-width:0.0000; stroke-opacity:1; 
stroke-linecap:round; stroke-linejoin:round;">
<circle cx="39.2160" cy="18.3880" r="0.7620" /> 
</g>
<g style="fill:#D864FF; fill-opacity:0.4000; 
stroke:#D864FF; stroke-width:0.0212; stroke-opacity:1; 
stroke-linecap:round; stroke-linejoin:round;">
</g>
<g style="fill:#D864FF; fill-opacity:0.4000; 
stroke:#D864FF; stroke-width:0.0000; stroke-opacity:1; 
stroke-linecap:round; stroke-linejoin:round;">
<circle cx="36.6760" cy="18.3880" r="0.7620" /> 
</g>
<g style="fill:#D864FF; fill-opacity:0.4000; 
stroke:#D864FF; stroke-width:0.0212; stroke-opacity:1; 
stroke-linecap:round; stroke-linejoin:round;">
</g>
<g style="fill:#D864FF; fill-opacity:0.4000; 
stroke:#D864FF; stroke-width:0.0000; stroke-opacity:1; 
stroke-linecap:round; stroke-linejoin:round;">
<circle cx="34.1360" cy="18.3880" r="0.7620" /> 
</g>
<g style="fill:#D864FF; fill-opacity:0.4000; 
stroke:#D864FF; stroke-width:0.0212; stroke-opacity:1; 
stroke-linecap:round; stroke-linejoin:round;">
</g>
<g style="fill:#D864FF; fill-opacity:0.4000; 
stroke:#D864FF; stroke-width:0.0000; stroke-opacity:1; 
stroke-linecap:round; stroke-linejoin:round;">
<circle cx="31.5960" cy="18.3880" r="0.7620" /> 
</g>
<g style="fill:#D864FF; fill-opacity:0.4000; 
stroke:#D864FF; stroke-width:0.0212; stroke-opacity:1; 
stroke-linecap:round; stroke-linejoin:round;">
</g>
<g >
</g>
<g style="fill:#D864FF; fill-opacity:0.4000; 
stroke:#D864FF; stroke-width:0.0212; stroke-opacity:1; 
stroke-linecap:round; stroke-linejoin:round;">
</g>
<g style="fill:#D864FF; fill-opacity:0.4000; 
stroke:#D864FF; stroke-width:1.7000; stroke-opacity:1; 
stroke-linecap:round; stroke-linejoin:round;">
</g>
<g style="fill:#D864FF; fill-opacity:0.0; 
stroke:#D864FF; stroke-width:1.7000; stroke-opacity:1; 
stroke-linecap:round; stroke-linejoin:round;">
<path d="M65.8460 26.1370
L65.8460 26.3870
" />
<path d="M63.3460 26.1370
L63.3460 26.3870
" />
</g>
<g style="fill:#D864FF; fill-opacity:0.0; 
stroke:#D864FF; stroke-width:0.0000; stroke-opacity:1; 
stroke-linecap:round; stroke-linejoin:round;">
</g>
<g style="fill:#D864FF; fill-opacity:0.4000; 
stroke:#D864FF; stroke-width:0.0000; stroke-opacity:1; 
stroke-linecap:round; stroke-linejoin:round;">
<path style="fill:#D864FF; fill-opacity:0.4000; 
stroke:#D864FF; stroke-width:0.0000; stroke-opacity:1; 
stroke-linecap:round; stroke-linejoin:round;fill-rule:evenodd;"
d="M 59.9960,25.5370
60.0150,25.4413
60.0692,25.3602
60.1503,25.3060
60.2460,25.2870
61.4460,25.2870
61.5417,25.3060
61.6228,25.3602
61.6770,25.4413
61.6960,25.5370
61.6960,26.9870
61.6770,27.0827
61.6228,27.1638
61.5417,27.2180
61.4460,27.2370
60.2460,27.2370
60.1503,27.2180
60.0692,27.1638
60.0150,27.0827
59.9960,26.9870
Z" /> 
</g>
<g >
</g>
<g style="fill:#D864FF; fill-opacity:0.4000; 
stroke:#D864FF; stroke-width:0.0000; stroke-opacity:1; 
stroke-linecap:round; stroke-linejoin:round;">
<path style="fill:#D864FF; fill-opacity:0.4000; 
stroke:#D864FF; stroke-width:0.0000; stroke-opacity:1; 
stroke-linecap:round; stroke-linejoin:round;fill-rule:evenodd;"
d="M 56.2380,32.6540
56.1519,32.6369
56.0789,32.5881
56.0301,32.5151
56.0130,32.4290
56.0130,31.9790
56.0301,31.8929
56.0789,31.8199
56.1519,31.7711
56.2380,31.7540
56.7380,31.7540
56.8241,31.7711
56.8971,31.8199
56.9459,31.8929
56.9630,31.9790
56.9630,32.4290
56.9459,32.5151
56.8971,32.5881
56.8241,32.6369
56.7380,32.6540
Z" /> 
<path style="fill:#D864FF; fill-opacity:0.4000; 
stroke:#D864FF; stroke-width:0.0000; stroke-opacity:1; 
stroke-linecap:round; stroke-linejoin:round;fill-rule:evenodd;"
d="M 56.2380,34.2040
56.1519,34.1869
56.0789,34.1381
56.0301,34.0651
56.0130,33.9790
56.0130,33.5290
56.0301,33.4429
56.0789,33.3699
56.1519,33.3211
56.2380,33.3040
56.7380,33.3040
56.8241,33.3211
56.8971,33.3699
56.9459,33.4429
56.9630,33.5290
56.9630,33.9790
56.9459,34.0651
56.8971,34.1381
56.8241,34.1869
56.7380,34.2040
Z" /> 
</g>
<g >
</g>
<g style="fill:#D864FF; fill-opacity:0.4000; 
stroke:#D864FF; stroke-width:0.0000; stroke-opacity:1; 
stroke-linecap:round; stroke-linejoin:round;">
<circle cx="6.1385" cy="28.1380" r="0.9525" /> 
</g>
<g style="fill:#D864FF; fill-opacity:0.4000; 
stroke:#D864FF; stroke-width:0.0212; stroke-opacity:1; 
stroke-linecap:round; stroke-linejoin:round;">
</g>
<g style="fill:#D864FF; fill-opacity:0.4000; 
stroke:#D864FF; stroke-width:0.0000; stroke-opacity:1; 
stroke-linecap:round; stroke-linejoin:round;">
<circle cx="6.1385" cy="24.7380" r="0.9525" /> 
</g>
<g style="fill:#D864FF; fill-opacity:0.4000; 
stroke:#D864FF; stroke-width:0.0212; stroke-opacity:1; 
stroke-linecap:round; stroke-linejoin:round;">
</g>
<g >
</g>
<g style="fill:#D864FF; fill-opacity:0.4000; 
stroke:#D864FF; stroke-width:0.0212; stroke-opacity:1; 
stroke-linecap:round; stroke-linejoin:round;">
</g>
<g style="fill:#D864FF; fill-opacity:0.4000; 
stroke:#D864FF; stroke-width:0.0000; stroke-opacity:1; 
stroke-linecap:round; stroke-linejoin:round;">
<path style="fill:#D864FF; fill-opacity:0.4000; 
stroke:#D864FF; stroke-width:0.0000; stroke-opacity:1; 
stroke-linecap:round; stroke-linejoin:round;fill-rule:evenodd;"
d="M 20.0790,19.2370
20.0638,19.3135
20.0204,19.3784
19.9555,19.4218
19.8790,19.4370
19.4790,19.4370
19.4025,19.4218
19.3376,19.3784
19.2942,19.3135
19.2790,19.2370
19.2790,18.6870
19.2942,18.6105
19.3376,18.5456
19.4025,18.5022
19.4790,18.4870
19.8790,18.4870
19.9555,18.5022
20.0204,18.5456
20.0638,18.6105
20.0790,18.6870
Z" /> 
<path style="fill:#D864FF; fill-opacity:0.4000; 
stroke:#D864FF; stroke-width:0.0000; stroke-opacity:1; 
stroke-linecap:round; stroke-linejoin:round;fill-rule:evenodd;"
d="M 21.7290,19.2370
21.7138,19.3135
21.6704,19.3784
21.6055,19.4218
21.5290,19.4370
21.1290,19.4370
21.0525,19.4218
20.9876,19.3784
20.9442,19.3135
20.9290,19.2370
20.9290,18.6870
20.9442,18.6105
20.9876,18.5456
21.0525,18.5022
21.1290,18.4870
21.5290,18.4870
21.6055,18.5022
21.6704,18.5456
21.7138,18.6105
21.7290,18.6870
Z" /> 
</g>
<g >
</g>
<g style="fill:#D864FF; fill-opacity:0.4000; 
stroke:#D864FF; stroke-width:0.0000; stroke-opacity:1; 
stroke-linecap:round; stroke-linejoin:round;">
</g>
<g style="fill:#D864FF; fill-opacity:0.4000; 
stroke:#D864FF; stroke-width:1.7000; stroke-opacity:1; 
stroke-linecap:round; stroke-linejoin:round;">
</g>
<g style="fill:#D864FF; fill-opacity:0.0; 
stroke:#D864FF; stroke-width:1.7000; stroke-opacity:1; 
stroke-linecap:round; stroke-linejoin:round;">
<path d="M40.1920 8.6110
L40.1920 8.8610
" />
<path d="M37.6920 8.6110
L37.6920 8.8610
" />
<path d="M35.1920 8.6110
L35.1920 8.8610
" />
</g>
<g style="fill:#D864FF; fill-opacity:0.0; 
stroke:#D864FF; stroke-width:0.0000; stroke-opacity:1; 
stroke-linecap:round; stroke-linejoin:round;">
</g>
<g style="fill:#D864FF; fill-opacity:0.4000; 
stroke:#D864FF; stroke-width:0.0000; stroke-opacity:1; 
stroke-linecap:round; stroke-linejoin:round;">
<path style="fill:#D864FF; fill-opacity:0.4000; 
stroke:#D864FF; stroke-width:0.0000; stroke-opacity:1; 
stroke-linecap:round; stroke-linejoin:round;fill-rule:evenodd;"
d="M 31.8420,8.0110
31.8610,7.9153
31.9152,7.8342
31.9963,7.7800
32.0920,7.7610
33.2920,7.7610
33.3877,7.7800
33.4688,7.8342
33.5230,7.9153
33.5420,8.0110
33.5420,9.4610
33.5230,9.5567
33.4688,9.6378
33.3877,9.6920
33.2920,9.7110
32.0920,9.7110
31.9963,9.6920
31.9152,9.6378
31.8610,9.5567
31.8420,9.4610
Z" /> 
</g>
<g >
</g>
<g style="fill:#D864FF; fill-opacity:0.4000; 
stroke:#D864FF; stroke-width:0.0000; stroke-opacity:1; 
stroke-linecap:round; stroke-linejoin:round;">
<path style="fill:#D864FF; fill-opacity:0.4000; 
stroke:#D864FF; stroke-width:0.0000; stroke-opacity:1; 
stroke-linecap:round; stroke-linejoin:round;fill-rule:evenodd;"
d="M 20.0700,34.6462
20.0533,34.7300
20.0059,34.8009
19.9350,34.8483
19.8513,34.8650
19.4138,34.8650
19.3300,34.8483
19.2591,34.8009
19.2117,34.7300
19.1950,34.6462
19.1950,34.1337
19.2117,34.0500
19.2591,33.9791
19.3300,33.9317
19.4138,33.9150
19.8513,33.9150
19.9350,33.9317
20.0059,33.9791
20.0533,34.0500
20.0700,34.1337
Z" /> 
<path style="fill:#D864FF; fill-opacity:0.4000; 
stroke:#D864FF; stroke-width:0.0000; stroke-opacity:1; 
stroke-linecap:round; stroke-linejoin:round;fill-rule:evenodd;"
d="M 21.6450,34.6462
21.6283,34.7300
21.5809,34.8009
21.5100,34.8483
21.4262,34.8650
20.9887,34.8650
20.9050,34.8483
20.8341,34.8009
20.7867,34.7300
20.7700,34.6462
20.7700,34.1337
20.7867,34.0500
20.8341,33.9791
20.9050,33.9317
20.9887,33.9150
21.4262,33.9150
21.5100,33.9317
21.5809,33.9791
21.6283,34.0500
21.6450,34.1337
Z" /> 
</g>
<g >
</g>
<g style="fill:#D864FF; fill-opacity:0.4000; 
stroke:#D864FF; stroke-width:0.0000; stroke-opacity:1; 
stroke-linecap:round; stroke-linejoin:round;">
<path style="fill:#D864FF; fill-opacity:0.4000; 
stroke:#D864FF; stroke-width:0.0000; stroke-opacity:1; 
stroke-linecap:round; stroke-linejoin:round;fill-rule:evenodd;"
d="M 20.0030,28.0610
19.9878,28.1375
19.9444,28.2024
19.8795,28.2458
19.8030,28.2610
19.4030,28.2610
19.3265,28.2458
19.2616,28.2024
19.2182,28.1375
19.2030,28.0610
19.2030,27.5110
19.2182,27.4345
19.2616,27.3696
19.3265,27.3262
19.4030,27.3110
19.8030,27.3110
19.8795,27.3262
19.9444,27.3696
19.9878,27.4345
20.0030,27.5110
Z" /> 
<path style="fill:#D864FF; fill-opacity:0.4000; 
stroke:#D864FF; stroke-width:0.0000; stroke-opacity:1; 
stroke-linecap:round; stroke-linejoin:round;fill-rule:evenodd;"
d="M 21.6530,28.0610
21.6378,28.1375
21.5944,28.2024
21.5295,28.2458
21.4530,28.2610
21.0530,28.2610
20.9765,28.2458
20.9116,28.2024
20.8682,28.1375
20.8530,28.0610
20.8530,27.5110
20.8682,27.4345
20.9116,27.3696
20.9765,27.3262
21.0530,27.3110
21.4530,27.3110
21.5295,27.3262
21.5944,27.3696
21.6378,27.4345
21.6530,27.5110
Z" /> 
</g>
<g >
</g>
<g style="fill:#D864FF; fill-opacity:0.4000; 
stroke:#D864FF; stroke-width:0.0000; stroke-opacity:1; 
stroke-linecap:round; stroke-linejoin:round;">
<path style="fill:#D864FF; fill-opacity:0.4000; 
stroke:#D864FF; stroke-width:0.0000; stroke-opacity:1; 
stroke-linecap:round; stroke-linejoin:round;fill-rule:evenodd;"
d="M 16.6850,9.6480
16.6736,9.7054
16.6411,9.7541
16.5924,9.7866
16.5350,9.7980
15.3600,9.7980
15.3026,9.7866
15.2539,9.7541
15.2214,9.7054
15.2100,9.6480
15.2100,9.3480
15.2214,9.2906
15.2539,9.2419
15.3026,9.2094
15.3600,9.1980
16.5350,9.1980
16.5924,9.2094
16.6411,9.2419
16.6736,9.2906
16.6850,9.3480
Z" /> 
<path style="fill:#D864FF; fill-opacity:0.4000; 
stroke:#D864FF; stroke-width:0.0000; stroke-opacity:1; 
stroke-linecap:round; stroke-linejoin:round;fill-rule:evenodd;"
d="M 18.5600,8.6980
18.5486,8.7554
18.5161,8.8041
18.4674,8.8366
18.4100,8.8480
17.2350,8.8480
17.1776,8.8366
17.1289,8.8041
17.0964,8.7554
17.0850,8.6980
17.0850,8.3980
17.0964,8.3406
17.1289,8.2919
17.1776,8.2594
17.2350,8.2480
18.4100,8.2480
18.4674,8.2594
18.5161,8.2919
18.5486,8.3406
18.5600,8.3980
Z" /> 
<path style="fill:#D864FF; fill-opacity:0.4000; 
stroke:#D864FF; stroke-width:0.0000; stroke-opacity:1; 
stroke-linecap:round; stroke-linejoin:round;fill-rule:evenodd;"
d="M 18.5600,10.5980
18.5486,10.6554
18.5161,10.7041
18.4674,10.7366
18.4100,10.7480
17.2350,10.7480
17.1776,10.7366
17.1289,10.7041
17.0964,10.6554
17.0850,10.5980
17.0850,10.2980
17.0964,10.2406
17.1289,10.1919
17.1776,10.1594
17.2350,10.1480
18.4100,10.1480
18.4674,10.1594
18.5161,10.1919
18.5486,10.2406
18.5600,10.2980
Z" /> 
</g>
<g >
</g>
<g style="fill:#D864FF; fill-opacity:0.4000; 
stroke:#D864FF; stroke-width:0.0000; stroke-opacity:1; 
stroke-linecap:round; stroke-linejoin:round;">
<circle cx="54.0460" cy="38.7080" r="0.9525" /> 
</g>
<g style="fill:#D864FF; fill-opacity:0.4000; 
stroke:#D864FF; stroke-width:0.0212; stroke-opacity:1; 
stroke-linecap:round; stroke-linejoin:round;">
</g>
<g style="fill:#D864FF; fill-opacity:0.4000; 
stroke:#D864FF; stroke-width:0.0000; stroke-opacity:1; 
stroke-linecap:round; stroke-linejoin:round;">
<circle cx="50.6460" cy="38.7080" r="0.9525" /> 
</g>
<g style="fill:#D864FF; fill-opacity:0.4000; 
stroke:#D864FF; stroke-width:0.0212; stroke-opacity:1; 
stroke-linecap:round; stroke-linejoin:round;">
</g>
<g >
</g>
<g style="fill:#D864FF; fill-opacity:0.4000; 
stroke:#D864FF; stroke-width:0.0212; stroke-opacity:1; 
stroke-linecap:round; stroke-linejoin:round;">
</g>
<g style="fill:#D864FF; fill-opacity:0.4000; 
stroke:#D864FF; stroke-width:0.0000; stroke-opacity:1; 
stroke-linecap:round; stroke-linejoin:round;">
<path style="fill:#D864FF; fill-opacity:0.4000; 
stroke:#D864FF; stroke-width:0.0000; stroke-opacity:1; 
stroke-linecap:round; stroke-linejoin:round;fill-rule:evenodd;"
d="M 38.8010,21.4590
38.8086,21.4207
38.8303,21.3883
38.8627,21.3666
38.9010,21.3590
40.1760,21.3590
40.2143,21.3666
40.2467,21.3883
40.2684,21.4207
40.2760,21.4590
40.2760,21.6590
40.2684,21.6973
40.2467,21.7297
40.2143,21.7514
40.1760,21.7590
38.9010,21.7590
38.8627,21.7514
38.8303,21.7297
38.8086,21.6973
38.8010,21.6590
Z" /> 
<path style="fill:#D864FF; fill-opacity:0.4000; 
stroke:#D864FF; stroke-width:0.0000; stroke-opacity:1; 
stroke-linecap:round; stroke-linejoin:round;fill-rule:evenodd;"
d="M 38.8010,22.1090
38.8086,22.0707
38.8303,22.0383
38.8627,22.0166
38.9010,22.0090
40.1760,22.0090
40.2143,22.0166
40.2467,22.0383
40.2684,22.0707
40.2760,22.1090
40.2760,22.3090
40.2684,22.3473
40.2467,22.3797
40.2143,22.4014
40.1760,22.4090
38.9010,22.4090
38.8627,22.4014
38.8303,22.3797
38.8086,22.3473
38.8010,22.3090
Z" /> 
<path style="fill:#D864FF; fill-opacity:0.4000; 
stroke:#D864FF; stroke-width:0.0000; stroke-opacity:1; 
stroke-linecap:round; stroke-linejoin:round;fill-rule:evenodd;"
d="M 38.8010,22.7590
38.8086,22.7207
38.8303,22.6883
38.8627,22.6666
38.9010,22.6590
40.1760,22.6590
40.2143,22.6666
40.2467,22.6883
40.2684,22.7207
40.2760,22.7590
40.2760,22.9590
40.2684,22.9973
40.2467,23.0297
40.2143,23.0514
40.1760,23.0590
38.9010,23.0590
38.8627,23.0514
38.8303,23.0297
38.8086,22.9973
38.8010,22.9590
Z" /> 
<path style="fill:#D864FF; fill-opacity:0.4000; 
stroke:#D864FF; stroke-width:0.0000; stroke-opacity:1; 
stroke-linecap:round; stroke-linejoin:round;fill-rule:evenodd;"
d="M 38.8010,23.4090
38.8086,23.3707
38.8303,23.3383
38.8627,23.3166
38.9010,23.3090
40.1760,23.3090
40.2143,23.3166
40.2467,23.3383
40.2684,23.3707
40.2760,23.4090
40.2760,23.6090
40.2684,23.6473
40.2467,23.6797
40.2143,23.7014
40.1760,23.7090
38.9010,23.7090
38.8627,23.7014
38.8303,23.6797
38.8086,23.6473
38.8010,23.6090
Z" /> 
<path style="fill:#D864FF; fill-opacity:0.4000; 
stroke:#D864FF; stroke-width:0.0000; stroke-opacity:1; 
stroke-linecap:round; stroke-linejoin:round;fill-rule:evenodd;"
d="M 38.8010,24.0590
38.8086,24.0207
38.8303,23.9883
38.8627,23.9666
38.9010,23.9590
40.1760,23.9590
40.2143,23.9666
40.2467,23.9883
40.2684,24.0207
40.2760,24.0590
40.2760,24.2590
40.2684,24.2973
40.2467,24.3297
40.2143,24.3514
40.1760,24.3590
38.9010,24.3590
38.8627,24.3514
38.8303,24.3297
38.8086,24.2973
38.8010,24.2590
Z" /> 
<path style="fill:#D864FF; fill-opacity:0.4000; 
stroke:#D864FF; stroke-width:0.0000; stroke-opacity:1; 
stroke-linecap:round; stroke-linejoin:round;fill-rule:evenodd;"
d="M 38.8010,24.7090
38.8086,24.6707
38.8303,24.6383
38.8627,24.6166
38.9010,24.6090
40.1760,24.6090
40.2143,24.6166
40.2467,24.6383
40.2684,24.6707
40.2760,24.7090
40.2760,24.9090
40.2684,24.9473
40.2467,24.9797
40.2143,25.0014
40.1760,25.0090
38.9010,25.0090
38.8627,25.0014
38.8303,24.9797
38.8086,24.9473
38.8010,24.9090
Z" /> 
<path style="fill:#D864FF; fill-opacity:0.4000; 
stroke:#D864FF; stroke-width:0.0000; stroke-opacity:1; 
stroke-linecap:round; stroke-linejoin:round;fill-rule:evenodd;"
d="M 38.8010,25.3590
38.8086,25.3207
38.8303,25.2883
38.8627,25.2666
38.9010,25.2590
40.1760,25.2590
40.2143,25.2666
40.2467,25.2883
40.2684,25.3207
40.2760,25.3590
40.2760,25.5590
40.2684,25.5973
40.2467,25.6297
40.2143,25.6514
40.1760,25.6590
38.9010,25.6590
38.8627,25.6514
38.8303,25.6297
38.8086,25.5973
38.8010,25.5590
Z" /> 
<path style="fill:#D864FF; fill-opacity:0.4000; 
stroke:#D864FF; stroke-width:0.0000; stroke-opacity:1; 
stroke-linecap:round; stroke-linejoin:round;fill-rule:evenodd;"
d="M 38.8010,26.0090
38.8086,25.9707
38.8303,25.9383
38.8627,25.9166
38.9010,25.9090
40.1760,25.9090
40.2143,25.9166
40.2467,25.9383
40.2684,25.9707
40.2760,26.0090
40.2760,26.2090
40.2684,26.2473
40.2467,26.2797
40.2143,26.3014
40.1760,26.3090
38.9010,26.3090
38.8627,26.3014
38.8303,26.2797
38.8086,26.2473
38.8010,26.2090
Z" /> 
<path style="fill:#D864FF; fill-opacity:0.4000; 
stroke:#D864FF; stroke-width:0.0000; stroke-opacity:1; 
stroke-linecap:round; stroke-linejoin:round;fill-rule:evenodd;"
d="M 38.8010,26.6590
38.8086,26.6207
38.8303,26.5883
38.8627,26.5666
38.9010,26.5590
40.1760,26.5590
40.2143,26.5666
40.2467,26.5883
40.2684,26.6207
40.2760,26.6590
40.2760,26.8590
40.2684,26.8973
40.2467,26.9297
40.2143,26.9514
40.1760,26.9590
38.9010,26.9590
38.8627,26.9514
38.8303,26.9297
38.8086,26.8973
38.8010,26.8590
Z" /> 
<path style="fill:#D864FF; fill-opacity:0.4000; 
stroke:#D864FF; stroke-width:0.0000; stroke-opacity:1; 
stroke-linecap:round; stroke-linejoin:round;fill-rule:evenodd;"
d="M 38.8010,27.3090
38.8086,27.2707
38.8303,27.2383
38.8627,27.2166
38.9010,27.2090
40.1760,27.2090
40.2143,27.2166
40.2467,27.2383
40.2684,27.2707
40.2760,27.3090
40.2760,27.5090
40.2684,27.5473
40.2467,27.5797
40.2143,27.6014
40.1760,27.6090
38.9010,27.6090
38.8627,27.6014
38.8303,27.5797
38.8086,27.5473
38.8010,27.5090
Z" /> 
<path style="fill:#D864FF; fill-opacity:0.4000; 
stroke:#D864FF; stroke-width:0.0000; stroke-opacity:1; 
stroke-linecap:round; stroke-linejoin:round;fill-rule:evenodd;"
d="M 33.0760,27.3090
33.0836,27.2707
33.1053,27.2383
33.1377,27.2166
33.1760,27.2090
34.4510,27.2090
34.4893,27.2166
34.5217,27.2383
34.5434,27.2707
34.5510,27.3090
34.5510,27.5090
34.5434,27.5473
34.5217,27.5797
34.4893,27.6014
34.4510,27.6090
33.1760,27.6090
33.1377,27.6014
33.1053,27.5797
33.0836,27.5473
33.0760,27.5090
Z" /> 
<path style="fill:#D864FF; fill-opacity:0.4000; 
stroke:#D864FF; stroke-width:0.0000; stroke-opacity:1; 
stroke-linecap:round; stroke-linejoin:round;fill-rule:evenodd;"
d="M 33.0760,26.6590
33.0836,26.6207
33.1053,26.5883
33.1377,26.5666
33.1760,26.5590
34.4510,26.5590
34.4893,26.5666
34.5217,26.5883
34.5434,26.6207
34.5510,26.6590
34.5510,26.8590
34.5434,26.8973
34.5217,26.9297
34.4893,26.9514
34.4510,26.9590
33.1760,26.9590
33.1377,26.9514
33.1053,26.9297
33.0836,26.8973
33.0760,26.8590
Z" /> 
<path style="fill:#D864FF; fill-opacity:0.4000; 
stroke:#D864FF; stroke-width:0.0000; stroke-opacity:1; 
stroke-linecap:round; stroke-linejoin:round;fill-rule:evenodd;"
d="M 33.0760,26.0090
33.0836,25.9707
33.1053,25.9383
33.1377,25.9166
33.1760,25.9090
34.4510,25.9090
34.4893,25.9166
34.5217,25.9383
34.5434,25.9707
34.5510,26.0090
34.5510,26.2090
34.5434,26.2473
34.5217,26.2797
34.4893,26.3014
34.4510,26.3090
33.1760,26.3090
33.1377,26.3014
33.1053,26.2797
33.0836,26.2473
33.0760,26.2090
Z" /> 
<path style="fill:#D864FF; fill-opacity:0.4000; 
stroke:#D864FF; stroke-width:0.0000; stroke-opacity:1; 
stroke-linecap:round; stroke-linejoin:round;fill-rule:evenodd;"
d="M 33.0760,25.3590
33.0836,25.3207
33.1053,25.2883
33.1377,25.2666
33.1760,25.2590
34.4510,25.2590
34.4893,25.2666
34.5217,25.2883
34.5434,25.3207
34.5510,25.3590
34.5510,25.5590
34.5434,25.5973
34.5217,25.6297
34.4893,25.6514
34.4510,25.6590
33.1760,25.6590
33.1377,25.6514
33.1053,25.6297
33.0836,25.5973
33.0760,25.5590
Z" /> 
<path style="fill:#D864FF; fill-opacity:0.4000; 
stroke:#D864FF; stroke-width:0.0000; stroke-opacity:1; 
stroke-linecap:round; stroke-linejoin:round;fill-rule:evenodd;"
d="M 33.0760,24.7090
33.0836,24.6707
33.1053,24.6383
33.1377,24.6166
33.1760,24.6090
34.4510,24.6090
34.4893,24.6166
34.5217,24.6383
34.5434,24.6707
34.5510,24.7090
34.5510,24.9090
34.5434,24.9473
34.5217,24.9797
34.4893,25.0014
34.4510,25.0090
33.1760,25.0090
33.1377,25.0014
33.1053,24.9797
33.0836,24.9473
33.0760,24.9090
Z" /> 
<path style="fill:#D864FF; fill-opacity:0.4000; 
stroke:#D864FF; stroke-width:0.0000; stroke-opacity:1; 
stroke-linecap:round; stroke-linejoin:round;fill-rule:evenodd;"
d="M 33.0760,24.0590
33.0836,24.0207
33.1053,23.9883
33.1377,23.9666
33.1760,23.9590
34.4510,23.9590
34.4893,23.9666
34.5217,23.9883
34.5434,24.0207
34.5510,24.0590
34.5510,24.2590
34.5434,24.2973
34.5217,24.3297
34.4893,24.3514
34.4510,24.3590
33.1760,24.3590
33.1377,24.3514
33.1053,24.3297
33.0836,24.2973
33.0760,24.2590
Z" /> 
<path style="fill:#D864FF; fill-opacity:0.4000; 
stroke:#D864FF; stroke-width:0.0000; stroke-opacity:1; 
stroke-linecap:round; stroke-linejoin:round;fill-rule:evenodd;"
d="M 33.0760,23.4090
33.0836,23.3707
33.1053,23.3383
33.1377,23.3166
33.1760,23.3090
34.4510,23.3090
34.4893,23.3166
34.5217,23.3383
34.5434,23.3707
34.5510,23.4090
34.5510,23.6090
34.5434,23.6473
34.5217,23.6797
34.4893,23.7014
34.4510,23.7090
33.1760,23.7090
33.1377,23.7014
33.1053,23.6797
33.0836,23.6473
33.0760,23.6090
Z" /> 
<path style="fill:#D864FF; fill-opacity:0.4000; 
stroke:#D864FF; stroke-width:0.0000; stroke-opacity:1; 
stroke-linecap:round; stroke-linejoin:round;fill-rule:evenodd;"
d="M 33.0760,22.7590
33.0836,22.7207
33.1053,22.6883
33.1377,22.6666
33.1760,22.6590
34.4510,22.6590
34.4893,22.6666
34.5217,22.6883
34.5434,22.7207
34.5510,22.7590
34.5510,22.9590
34.5434,22.9973
34.5217,23.0297
34.4893,23.0514
34.4510,23.0590
33.1760,23.0590
33.1377,23.0514
33.1053,23.0297
33.0836,22.9973
33.0760,22.9590
Z" /> 
<path style="fill:#D864FF; fill-opacity:0.4000; 
stroke:#D864FF; stroke-width:0.0000; stroke-opacity:1; 
stroke-linecap:round; stroke-linejoin:round;fill-rule:evenodd;"
d="M 33.0760,22.1090
33.0836,22.0707
33.1053,22.0383
33.1377,22.0166
33.1760,22.0090
34.4510,22.0090
34.4893,22.0166
34.5217,22.0383
34.5434,22.0707
34.5510,22.1090
34.5510,22.3090
34.5434,22.3473
34.5217,22.3797
34.4893,22.4014
34.4510,22.4090
33.1760,22.4090
33.1377,22.4014
33.1053,22.3797
33.0836,22.3473
33.0760,22.3090
Z" /> 
<path style="fill:#D864FF; fill-opacity:0.4000; 
stroke:#D864FF; stroke-width:0.0000; stroke-opacity:1; 
stroke-linecap:round; stroke-linejoin:round;fill-rule:evenodd;"
d="M 33.0760,21.4590
33.0836,21.4207
33.1053,21.3883
33.1377,21.3666
33.1760,21.3590
34.4510,21.3590
34.4893,21.3666
34.5217,21.3883
34.5434,21.4207
34.5510,21.4590
34.5510,21.6590
34.5434,21.6973
34.5217,21.7297
34.4893,21.7514
34.4510,21.7590
33.1760,21.7590
33.1377,21.7514
33.1053,21.7297
33.0836,21.6973
33.0760,21.6590
Z" /> 
</g>
<g >
</g>
<g style="fill:#D864FF; fill-opacity:0.4000; 
stroke:#D864FF; stroke-width:0.0000; stroke-opacity:1; 
stroke-linecap:round; stroke-linejoin:round;">
<path style="fill:#D864FF; fill-opacity:0.4000; 
stroke:#D864FF; stroke-width:0.0000; stroke-opacity:1; 
stroke-linecap:round; stroke-linejoin:round;fill-rule:evenodd;"
d="M 13.6465,9.9940
13.7422,10.0130
13.8233,10.0672
13.8775,10.1483
13.8965,10.2440
13.8965,12.2440
13.8775,12.3397
13.8233,12.4208
13.7422,12.4750
13.6465,12.4940
12.3465,12.4940
12.2508,12.4750
12.1697,12.4208
12.1155,12.3397
12.0965,12.2440
12.0965,10.2440
12.1155,10.1483
12.1697,10.0672
12.2508,10.0130
12.3465,9.9940
Z" /> 
<path style="fill:#D864FF; fill-opacity:0.4000; 
stroke:#D864FF; stroke-width:0.0000; stroke-opacity:1; 
stroke-linecap:round; stroke-linejoin:round;fill-rule:evenodd;"
d="M 13.6465,5.9940
13.7422,6.0130
13.8233,6.0672
13.8775,6.1483
13.8965,6.2440
13.8965,8.2440
13.8775,8.3397
13.8233,8.4208
13.7422,8.4750
13.6465,8.4940
12.3465,8.4940
12.2508,8.4750
12.1697,8.4208
12.1155,8.3397
12.0965,8.2440
12.0965,6.2440
12.1155,6.1483
12.1697,6.0672
12.2508,6.0130
12.3465,5.9940
Z" /> 
</g>
<g >
</g>
<g style="fill:#D864FF; fill-opacity:0.4000; 
stroke:#D864FF; stroke-width:0.0000; stroke-opacity:1; 
stroke-linecap:round; stroke-linejoin:round;">
<path style="fill:#D864FF; fill-opacity:0.4000; 
stroke:#D864FF; stroke-width:0.0000; stroke-opacity:1; 
stroke-linecap:round; stroke-linejoin:round;fill-rule:evenodd;"
d="M 20.0790,10.7890
20.0638,10.8655
20.0204,10.9304
19.9555,10.9738
19.8790,10.9890
19.4790,10.9890
19.4025,10.9738
19.3376,10.9304
19.2942,10.8655
19.2790,10.7890
19.2790,10.2390
19.2942,10.1625
19.3376,10.0976
19.4025,10.0542
19.4790,10.0390
19.8790,10.0390
19.9555,10.0542
20.0204,10.0976
20.0638,10.1625
20.0790,10.2390
Z" /> 
<path style="fill:#D864FF; fill-opacity:0.4000; 
stroke:#D864FF; stroke-width:0.0000; stroke-opacity:1; 
stroke-linecap:round; stroke-linejoin:round;fill-rule:evenodd;"
d="M 21.7290,10.7890
21.7138,10.8655
21.6704,10.9304
21.6055,10.9738
21.5290,10.9890
21.1290,10.9890
21.0525,10.9738
20.9876,10.9304
20.9442,10.8655
20.9290,10.7890
20.9290,10.2390
20.9442,10.1625
20.9876,10.0976
21.0525,10.0542
21.1290,10.0390
21.5290,10.0390
21.6055,10.0542
21.6704,10.0976
21.7138,10.1625
21.7290,10.2390
Z" /> 
</g>
<g >
</g>
<g style="fill:#D864FF; fill-opacity:0.4000; 
stroke:#D864FF; stroke-width:0.0000; stroke-opacity:1; 
stroke-linecap:round; stroke-linejoin:round;">
</g>
<g style="fill:#D864FF; fill-opacity:0.4000; 
stroke:#D864FF; stroke-width:1.7000; stroke-opacity:1; 
stroke-linecap:round; stroke-linejoin:round;">
</g>
<g style="fill:#D864FF; fill-opacity:0.0; 
stroke:#D864FF; stroke-width:1.7000; stroke-opacity:1; 
stroke-linecap:round; stroke-linejoin:round;">
<path d="M65.8460 9.0730
L65.8460 9.3230
" />
<path d="M63.3460 9.0730
L63.3460 9.3230
" />
</g>
<g style="fill:#D864FF; fill-opacity:0.0; 
stroke:#D864FF; stroke-width:0.0000; stroke-opacity:1; 
stroke-linecap:round; stroke-linejoin:round;">
</g>
<g style="fill:#D864FF; fill-opacity:0.4000; 
stroke:#D864FF; stroke-width:0.0000; stroke-opacity:1; 
stroke-linecap:round; stroke-linejoin:round;">
<path style="fill:#D864FF; fill-opacity:0.4000; 
stroke:#D864FF; stroke-width:0.0000; stroke-opacity:1; 
stroke-linecap:round; stroke-linejoin:round;fill-rule:evenodd;"
d="M 59.9960,8.4730
60.0150,8.3773
60.0692,8.2962
60.1503,8.2420
60.2460,8.2230
61.4460,8.2230
61.5417,8.2420
61.6228,8.2962
61.6770,8.3773
61.6960,8.4730
61.6960,9.9230
61.6770,10.0187
61.6228,10.0998
61.5417,10.1540
61.4460,10.1730
60.2460,10.1730
60.1503,10.1540
60.0692,10.0998
60.0150,10.0187
59.9960,9.9230
Z" /> 
</g>
<g >
</g>
<g style="fill:#D864FF; fill-opacity:0.4000; 
stroke:#D864FF; stroke-width:0.0000; stroke-opacity:1; 
stroke-linecap:round; stroke-linejoin:round;">
<path style="fill:#D864FF; fill-opacity:0.4000; 
stroke:#D864FF; stroke-width:0.0000; stroke-opacity:1; 
stroke-linecap:round; stroke-linejoin:round;fill-rule:evenodd;"
d="M 55.1155,15.1980
55.0390,15.1828
54.9741,15.1394
54.9307,15.0745
54.9155,14.9980
54.9155,14.5980
54.9307,14.5215
54.9741,14.4566
55.0390,14.4132
55.1155,14.3980
55.6655,14.3980
55.7420,14.4132
55.8069,14.4566
55.8503,14.5215
55.8655,14.5980
55.8655,14.9980
55.8503,15.0745
55.8069,15.1394
55.7420,15.1828
55.6655,15.1980
Z" /> 
<path style="fill:#D864FF; fill-opacity:0.4000; 
stroke:#D864FF; stroke-width:0.0000; stroke-opacity:1; 
stroke-linecap:round; stroke-linejoin:round;fill-rule:evenodd;"
d="M 55.1155,16.8480
55.0390,16.8328
54.9741,16.7894
54.9307,16.7245
54.9155,16.6480
54.9155,16.2480
54.9307,16.1715
54.9741,16.1066
55.0390,16.0632
55.1155,16.0480
55.6655,16.0480
55.7420,16.0632
55.8069,16.1066
55.8503,16.1715
55.8655,16.2480
55.8655,16.6480
55.8503,16.7245
55.8069,16.7894
55.7420,16.8328
55.6655,16.8480
Z" /> 
</g>
<g >
</g>
<g style="fill:#D864FF; fill-opacity:0.4000; 
stroke:#D864FF; stroke-width:0.0000; stroke-opacity:1; 
stroke-linecap:round; stroke-linejoin:round;">
<circle cx="6.1385" cy="36.5980" r="0.9525" /> 
</g>
<g style="fill:#D864FF; fill-opacity:0.4000; 
stroke:#D864FF; stroke-width:0.0212; stroke-opacity:1; 
stroke-linecap:round; stroke-linejoin:round;">
</g>
<g style="fill:#D864FF; fill-opacity:0.4000; 
stroke:#D864FF; stroke-width:0.0000; stroke-opacity:1; 
stroke-linecap:round; stroke-linejoin:round;">
<circle cx="6.1385" cy="33.1980" r="0.9525" /> 
</g>
<g style="fill:#D864FF; fill-opacity:0.4000; 
stroke:#D864FF; stroke-width:0.0212; stroke-opacity:1; 
stroke-linecap:round; stroke-linejoin:round;">
</g>
<g >
</g>
<g style="fill:#D864FF; fill-opacity:0.4000; 
stroke:#D864FF; stroke-width:0.0212; stroke-opacity:1; 
stroke-linecap:round; stroke-linejoin:round;">
</g>
<g style="fill:#D864FF; fill-opacity:0.4000; 
stroke:#D864FF; stroke-width:0.0000; stroke-opacity:1; 
stroke-linecap:round; stroke-linejoin:round;">
<path style="fill:#D864FF; fill-opacity:0.4000; 
stroke:#D864FF; stroke-width:0.0000; stroke-opacity:1; 
stroke-linecap:round; stroke-linejoin:round;fill-rule:evenodd;"
d="M 13.6465,35.6480
13.7422,35.6670
13.8233,35.7212
13.8775,35.8023
13.8965,35.8980
13.8965,37.8980
13.8775,37.9937
13.8233,38.0748
13.7422,38.1290
13.6465,38.1480
12.3465,38.1480
12.2508,38.1290
12.1697,38.0748
12.1155,37.9937
12.0965,37.8980
12.0965,35.8980
12.1155,35.8023
12.1697,35.7212
12.2508,35.6670
12.3465,35.6480
Z" /> 
<path style="fill:#D864FF; fill-opacity:0.4000; 
stroke:#D864FF; stroke-width:0.0000; stroke-opacity:1; 
stroke-linecap:round; stroke-linejoin:round;fill-rule:evenodd;"
d="M 13.6465,31.6480
13.7422,31.6670
13.8233,31.7212
13.8775,31.8023
13.8965,31.8980
13.8965,33.8980
13.8775,33.9937
13.8233,34.0748
13.7422,34.1290
13.6465,34.1480
12.3465,34.1480
12.2508,34.1290
12.1697,34.0748
12.1155,33.9937
12.0965,33.8980
12.0965,31.8980
12.1155,31.8023
12.1697,31.7212
12.2508,31.6670
12.3465,31.6480
Z" /> 
</g>
<g >
</g>
<g style="fill:#D864FF; fill-opacity:0.4000; 
stroke:#D864FF; stroke-width:0.0000; stroke-opacity:1; 
stroke-linecap:round; stroke-linejoin:round;">
<path style="fill:#D864FF; fill-opacity:0.4000; 
stroke:#D864FF; stroke-width:0.0000; stroke-opacity:1; 
stroke-linecap:round; stroke-linejoin:round;fill-rule:evenodd;"
d="M 55.1310,10.4880
55.0545,10.4728
54.9896,10.4294
54.9462,10.3645
54.9310,10.2880
54.9310,9.8880
54.9462,9.8115
54.9896,9.7466
55.0545,9.7032
55.1310,9.6880
55.6810,9.6880
55.7575,9.7032
55.8224,9.7466
55.8658,9.8115
55.8810,9.8880
55.8810,10.2880
55.8658,10.3645
55.8224,10.4294
55.7575,10.4728
55.6810,10.4880
Z" /> 
<path style="fill:#D864FF; fill-opacity:0.4000; 
stroke:#D864FF; stroke-width:0.0000; stroke-opacity:1; 
stroke-linecap:round; stroke-linejoin:round;fill-rule:evenodd;"
d="M 55.1310,12.1380
55.0545,12.1228
54.9896,12.0794
54.9462,12.0145
54.9310,11.9380
54.9310,11.5380
54.9462,11.4615
54.9896,11.3966
55.0545,11.3532
55.1310,11.3380
55.6810,11.3380
55.7575,11.3532
55.8224,11.3966
55.8658,11.4615
55.8810,11.5380
55.8810,11.9380
55.8658,12.0145
55.8224,12.0794
55.7575,12.1228
55.6810,12.1380
Z" /> 
</g>
<g >
</g>
<g style="fill:#D864FF; fill-opacity:0.4000; 
stroke:#D864FF; stroke-width:0.0000; stroke-opacity:1; 
stroke-linecap:round; stroke-linejoin:round;">
<path style="fill:#D864FF; fill-opacity:0.4000; 
stroke:#D864FF; stroke-width:0.0000; stroke-opacity:1; 
stroke-linecap:round; stroke-linejoin:round;fill-rule:evenodd;"
d="M 52.0640,15.8360
52.0526,15.8934
52.0201,15.9421
51.9714,15.9746
51.9140,15.9860
50.7390,15.9860
50.6816,15.9746
50.6329,15.9421
50.6004,15.8934
50.5890,15.8360
50.5890,15.5360
50.6004,15.4786
50.6329,15.4299
50.6816,15.3974
50.7390,15.3860
51.9140,15.3860
51.9714,15.3974
52.0201,15.4299
52.0526,15.4786
52.0640,15.5360
Z" /> 
<path style="fill:#D864FF; fill-opacity:0.4000; 
stroke:#D864FF; stroke-width:0.0000; stroke-opacity:1; 
stroke-linecap:round; stroke-linejoin:round;fill-rule:evenodd;"
d="M 53.9390,14.8860
53.9276,14.9434
53.8951,14.9921
53.8464,15.0246
53.7890,15.0360
52.6140,15.0360
52.5566,15.0246
52.5079,14.9921
52.4754,14.9434
52.4640,14.8860
52.4640,14.5860
52.4754,14.5286
52.5079,14.4799
52.5566,14.4474
52.6140,14.4360
53.7890,14.4360
53.8464,14.4474
53.8951,14.4799
53.9276,14.5286
53.9390,14.5860
Z" /> 
<path style="fill:#D864FF; fill-opacity:0.4000; 
stroke:#D864FF; stroke-width:0.0000; stroke-opacity:1; 
stroke-linecap:round; stroke-linejoin:round;fill-rule:evenodd;"
d="M 53.9390,16.7860
53.9276,16.8434
53.8951,16.8921
53.8464,16.9246
53.7890,16.9360
52.6140,16.9360
52.5566,16.9246
52.5079,16.8921
52.4754,16.8434
52.4640,16.7860
52.4640,16.4860
52.4754,16.4286
52.5079,16.3799
52.5566,16.3474
52.6140,16.3360
53.7890,16.3360
53.8464,16.3474
53.8951,16.3799
53.9276,16.4286
53.9390,16.4860
Z" /> 
</g>
<g >
</g>
<g style="fill:#D864FF; fill-opacity:0.4000; 
stroke:#D864FF; stroke-width:0.0000; stroke-opacity:1; 
stroke-linecap:round; stroke-linejoin:round;">
<path style="fill:#D864FF; fill-opacity:0.4000; 
stroke:#D864FF; stroke-width:0.0000; stroke-opacity:1; 
stroke-linecap:round; stroke-linejoin:round;fill-rule:evenodd;"
d="M 47.6190,32.2120
47.6955,32.2272
47.7604,32.2706
47.8038,32.3355
47.8190,32.4120
47.8190,32.8120
47.8038,32.8885
47.7604,32.9534
47.6955,32.9968
47.6190,33.0120
47.0690,33.0120
46.9925,32.9968
46.9276,32.9534
46.8842,32.8885
46.8690,32.8120
46.8690,32.4120
46.8842,32.3355
46.9276,32.2706
46.9925,32.2272
47.0690,32.2120
Z" /> 
<path style="fill:#D864FF; fill-opacity:0.4000; 
stroke:#D864FF; stroke-width:0.0000; stroke-opacity:1; 
stroke-linecap:round; stroke-linejoin:round;fill-rule:evenodd;"
d="M 47.6190,30.5620
47.6955,30.5772
47.7604,30.6206
47.8038,30.6855
47.8190,30.7620
47.8190,31.1620
47.8038,31.2385
47.7604,31.3034
47.6955,31.3468
47.6190,31.3620
47.0690,31.3620
46.9925,31.3468
46.9276,31.3034
46.8842,31.2385
46.8690,31.1620
46.8690,30.7620
46.8842,30.6855
46.9276,30.6206
46.9925,30.5772
47.0690,30.5620
Z" /> 
</g>
<g >
</g>
<g style="fill:#D864FF; fill-opacity:0.4000; 
stroke:#D864FF; stroke-width:0.0000; stroke-opacity:1; 
stroke-linecap:round; stroke-linejoin:round;">
<path style="fill:#D864FF; fill-opacity:0.4000; 
stroke:#D864FF; stroke-width:0.0000; stroke-opacity:1; 
stroke-linecap:round; stroke-linejoin:round;fill-rule:evenodd;"
d="M 27.7750,18.6630
27.7598,18.7395
27.7164,18.8044
27.6515,18.8478
27.5750,18.8630
27.1750,18.8630
27.0985,18.8478
27.0336,18.8044
26.9902,18.7395
26.9750,18.6630
26.9750,18.1130
26.9902,18.0365
27.0336,17.9716
27.0985,17.9282
27.1750,17.9130
27.5750,17.9130
27.6515,17.9282
27.7164,17.9716
27.7598,18.0365
27.7750,18.1130
Z" /> 
<path style="fill:#D864FF; fill-opacity:0.4000; 
stroke:#D864FF; stroke-width:0.0000; stroke-opacity:1; 
stroke-linecap:round; stroke-linejoin:round;fill-rule:evenodd;"
d="M 29.4250,18.6630
29.4098,18.7395
29.3664,18.8044
29.3015,18.8478
29.2250,18.8630
28.8250,18.8630
28.7485,18.8478
28.6836,18.8044
28.6402,18.7395
28.6250,18.6630
28.6250,18.1130
28.6402,18.0365
28.6836,17.9716
28.7485,17.9282
28.8250,17.9130
29.2250,17.9130
29.3015,17.9282
29.3664,17.9716
29.4098,18.0365
29.4250,18.1130
Z" /> 
</g>
<g >
</g>
<g style="fill:#D864FF; fill-opacity:0.4000; 
stroke:#D864FF; stroke-width:0.0000; stroke-opacity:1; 
stroke-linecap:round; stroke-linejoin:round;">
<path style="fill:#D864FF; fill-opacity:0.4000; 
stroke:#D864FF; stroke-width:0.0000; stroke-opacity:1; 
stroke-linecap:round; stroke-linejoin:round;fill-rule:evenodd;"
d="M 25.3420,16.0998
25.3587,16.0160
25.4061,15.9451
25.4770,15.8977
25.5607,15.8810
25.9982,15.8810
26.0820,15.8977
26.1529,15.9451
26.2003,16.0160
26.2170,16.0998
26.2170,16.6122
26.2003,16.6960
26.1529,16.7669
26.0820,16.8143
25.9982,16.8310
25.5607,16.8310
25.4770,16.8143
25.4061,16.7669
25.3587,16.6960
25.3420,16.6122
Z" /> 
<path style="fill:#D864FF; fill-opacity:0.4000; 
stroke:#D864FF; stroke-width:0.0000; stroke-opacity:1; 
stroke-linecap:round; stroke-linejoin:round;fill-rule:evenodd;"
d="M 23.7670,16.0998
23.7837,16.0160
23.8311,15.9451
23.9020,15.8977
23.9857,15.8810
24.4232,15.8810
24.5070,15.8977
24.5779,15.9451
24.6253,16.0160
24.6420,16.0998
24.6420,16.6122
24.6253,16.6960
24.5779,16.7669
24.5070,16.8143
24.4232,16.8310
23.9857,16.8310
23.9020,16.8143
23.8311,16.7669
23.7837,16.6960
23.7670,16.6122
Z" /> 
</g>
<g >
</g>
<g style="fill:#D864FF; fill-opacity:0.4000; 
stroke:#D864FF; stroke-width:0.0000; stroke-opacity:1; 
stroke-linecap:round; stroke-linejoin:round;">
<path style="fill:#D864FF; fill-opacity:0.4000; 
stroke:#D864FF; stroke-width:0.0000; stroke-opacity:1; 
stroke-linecap:round; stroke-linejoin:round;fill-rule:evenodd;"
d="M 52.0795,20.6620
52.0681,20.7194
52.0356,20.7681
51.9869,20.8006
51.9295,20.8120
50.7545,20.8120
50.6971,20.8006
50.6484,20.7681
50.6159,20.7194
50.6045,20.6620
50.6045,20.3620
50.6159,20.3046
50.6484,20.2559
50.6971,20.2234
50.7545,20.2120
51.9295,20.2120
51.9869,20.2234
52.0356,20.2559
52.0681,20.3046
52.0795,20.3620
Z" /> 
<path style="fill:#D864FF; fill-opacity:0.4000; 
stroke:#D864FF; stroke-width:0.0000; stroke-opacity:1; 
stroke-linecap:round; stroke-linejoin:round;fill-rule:evenodd;"
d="M 53.9545,19.7120
53.9431,19.7694
53.9106,19.8181
53.8619,19.8506
53.8045,19.8620
52.6295,19.8620
52.5721,19.8506
52.5234,19.8181
52.4909,19.7694
52.4795,19.7120
52.4795,19.4120
52.4909,19.3546
52.5234,19.3059
52.5721,19.2734
52.6295,19.2620
53.8045,19.2620
53.8619,19.2734
53.9106,19.3059
53.9431,19.3546
53.9545,19.4120
Z" /> 
<path style="fill:#D864FF; fill-opacity:0.4000; 
stroke:#D864FF; stroke-width:0.0000; stroke-opacity:1; 
stroke-linecap:round; stroke-linejoin:round;fill-rule:evenodd;"
d="M 53.9545,21.6120
53.9431,21.6694
53.9106,21.7181
53.8619,21.7506
53.8045,21.7620
52.6295,21.7620
52.5721,21.7506
52.5234,21.7181
52.4909,21.6694
52.4795,21.6120
52.4795,21.3120
52.4909,21.2546
52.5234,21.2059
52.5721,21.1734
52.6295,21.1620
53.8045,21.1620
53.8619,21.1734
53.9106,21.2059
53.9431,21.2546
53.9545,21.3120
Z" /> 
</g>
<g >
</g>
<g style="fill:#D864FF; fill-opacity:0.4000; 
stroke:#D864FF; stroke-width:0.0000; stroke-opacity:1; 
stroke-linecap:round; stroke-linejoin:round;">
<path style="fill:#D864FF; fill-opacity:0.4000; 
stroke:#D864FF; stroke-width:0.0000; stroke-opacity:1; 
stroke-linecap:round; stroke-linejoin:round;fill-rule:evenodd;"
d="M 25.3635,17.9317
25.3821,17.8385
25.4349,17.7594
25.5140,17.7066
25.6073,17.6880
26.0947,17.6880
26.1880,17.7066
26.2671,17.7594
26.3199,17.8385
26.3385,17.9317
26.3385,18.8442
26.3199,18.9375
26.2671,19.0166
26.1880,19.0694
26.0947,19.0880
25.6073,19.0880
25.5140,19.0694
25.4349,19.0166
25.3821,18.9375
25.3635,18.8442
Z" /> 
<path style="fill:#D864FF; fill-opacity:0.4000; 
stroke:#D864FF; stroke-width:0.0000; stroke-opacity:1; 
stroke-linecap:round; stroke-linejoin:round;fill-rule:evenodd;"
d="M 23.4885,17.9317
23.5071,17.8385
23.5599,17.7594
23.6390,17.7066
23.7323,17.6880
24.2197,17.6880
24.3130,17.7066
24.3921,17.7594
24.4449,17.8385
24.4635,17.9317
24.4635,18.8442
24.4449,18.9375
24.3921,19.0166
24.3130,19.0694
24.2197,19.0880
23.7323,19.0880
23.6390,19.0694
23.5599,19.0166
23.5071,18.9375
23.4885,18.8442
Z" /> 
</g>
<g >
</g>
<g style="fill:#D864FF; fill-opacity:0.4000; 
stroke:#D864FF; stroke-width:0.0000; stroke-opacity:1; 
stroke-linecap:round; stroke-linejoin:round;">
<path style="fill:#D864FF; fill-opacity:0.4000; 
stroke:#D864FF; stroke-width:0.0000; stroke-opacity:1; 
stroke-linecap:round; stroke-linejoin:round;fill-rule:evenodd;"
d="M 29.8140,23.7930
29.9001,23.8101
29.9731,23.8589
30.0219,23.9319
30.0390,24.0180
30.0390,24.4680
30.0219,24.5541
29.9731,24.6271
29.9001,24.6759
29.8140,24.6930
29.3140,24.6930
29.2279,24.6759
29.1549,24.6271
29.1061,24.5541
29.0890,24.4680
29.0890,24.0180
29.1061,23.9319
29.1549,23.8589
29.2279,23.8101
29.3140,23.7930
Z" /> 
<path style="fill:#D864FF; fill-opacity:0.4000; 
stroke:#D864FF; stroke-width:0.0000; stroke-opacity:1; 
stroke-linecap:round; stroke-linejoin:round;fill-rule:evenodd;"
d="M 29.8140,22.2430
29.9001,22.2601
29.9731,22.3089
30.0219,22.3819
30.0390,22.4680
30.0390,22.9180
30.0219,23.0041
29.9731,23.0771
29.9001,23.1259
29.8140,23.1430
29.3140,23.1430
29.2279,23.1259
29.1549,23.0771
29.1061,23.0041
29.0890,22.9180
29.0890,22.4680
29.1061,22.3819
29.1549,22.3089
29.2279,22.2601
29.3140,22.2430
Z" /> 
</g>
<g >
</g>
<g style="fill:#D864FF; fill-opacity:0.4000; 
stroke:#D864FF; stroke-width:0.0000; stroke-opacity:1; 
stroke-linecap:round; stroke-linejoin:round;">
<path style="fill:#D864FF; fill-opacity:0.4000; 
stroke:#D864FF; stroke-width:0.0000; stroke-opacity:1; 
stroke-linecap:round; stroke-linejoin:round;fill-rule:evenodd;"
d="M 20.1380,17.3742
20.1213,17.4580
20.0739,17.5289
20.0030,17.5763
19.9192,17.5930
19.4817,17.5930
19.3980,17.5763
19.3271,17.5289
19.2797,17.4580
19.2630,17.3742
19.2630,16.8618
19.2797,16.7780
19.3271,16.7071
19.3980,16.6597
19.4817,16.6430
19.9192,16.6430
20.0030,16.6597
20.0739,16.7071
20.1213,16.7780
20.1380,16.8618
Z" /> 
<path style="fill:#D864FF; fill-opacity:0.4000; 
stroke:#D864FF; stroke-width:0.0000; stroke-opacity:1; 
stroke-linecap:round; stroke-linejoin:round;fill-rule:evenodd;"
d="M 21.7130,17.3742
21.6963,17.4580
21.6489,17.5289
21.5780,17.5763
21.4942,17.5930
21.0567,17.5930
20.9730,17.5763
20.9021,17.5289
20.8547,17.4580
20.8380,17.3742
20.8380,16.8618
20.8547,16.7780
20.9021,16.7071
20.9730,16.6597
21.0567,16.6430
21.4942,16.6430
21.5780,16.6597
21.6489,16.7071
21.6963,16.7780
21.7130,16.8618
Z" /> 
</g>
<g >
</g>
<g style="fill:#D864FF; fill-opacity:0.4000; 
stroke:#D864FF; stroke-width:0.0000; stroke-opacity:1; 
stroke-linecap:round; stroke-linejoin:round;">
<circle cx="66.8500" cy="36.8940" r="1.0000" /> 
</g>
<g style="fill:#D864FF; fill-opacity:0.4000; 
stroke:#D864FF; stroke-width:0.0212; stroke-opacity:1; 
stroke-linecap:round; stroke-linejoin:round;">
</g>
<g style="fill:#D864FF; fill-opacity:0.4000; 
stroke:#D864FF; stroke-width:0.0000; stroke-opacity:1; 
stroke-linecap:round; stroke-linejoin:round;">
<circle cx="60.3500" cy="36.8940" r="1.0000" /> 
</g>
<g style="fill:#D864FF; fill-opacity:0.4000; 
stroke:#D864FF; stroke-width:0.0212; stroke-opacity:1; 
stroke-linecap:round; stroke-linejoin:round;">
</g>
<g style="fill:#D864FF; fill-opacity:0.4000; 
stroke:#D864FF; stroke-width:0.0000; stroke-opacity:1; 
stroke-linecap:round; stroke-linejoin:round;">
<circle cx="66.8500" cy="32.3940" r="1.0000" /> 
</g>
<g style="fill:#D864FF; fill-opacity:0.4000; 
stroke:#D864FF; stroke-width:0.0212; stroke-opacity:1; 
stroke-linecap:round; stroke-linejoin:round;">
</g>
<g style="fill:#D864FF; fill-opacity:0.4000; 
stroke:#D864FF; stroke-width:0.0000; stroke-opacity:1; 
stroke-linecap:round; stroke-linejoin:round;">
<circle cx="60.3500" cy="32.3940" r="1.0000" /> 
</g>
<g style="fill:#D864FF; fill-opacity:0.4000; 
stroke:#D864FF; stroke-width:0.0212; stroke-opacity:1; 
stroke-linecap:round; stroke-linejoin:round;">
</g>
<g >
</g>
<g style="fill:#D864FF; fill-opacity:0.4000; 
stroke:#D864FF; stroke-width:0.0212; stroke-opacity:1; 
stroke-linecap:round; stroke-linejoin:round;">
</g>
<g style="fill:#D864FF; fill-opacity:0.4000; 
stroke:#D864FF; stroke-width:0.0000; stroke-opacity:1; 
stroke-linecap:round; stroke-linejoin:round;">
<path style="fill:#D864FF; fill-opacity:0.4000; 
stroke:#D864FF; stroke-width:0.0000; stroke-opacity:1; 
stroke-linecap:round; stroke-linejoin:round;fill-rule:evenodd;"
d="M 27.8060,16.6310
27.7908,16.7075
27.7474,16.7724
27.6825,16.8158
27.6060,16.8310
27.2060,16.8310
27.1295,16.8158
27.0646,16.7724
27.0212,16.7075
27.0060,16.6310
27.0060,16.0810
27.0212,16.0045
27.0646,15.9396
27.1295,15.8962
27.2060,15.8810
27.6060,15.8810
27.6825,15.8962
27.7474,15.9396
27.7908,16.0045
27.8060,16.0810
Z" /> 
<path style="fill:#D864FF; fill-opacity:0.4000; 
stroke:#D864FF; stroke-width:0.0000; stroke-opacity:1; 
stroke-linecap:round; stroke-linejoin:round;fill-rule:evenodd;"
d="M 29.4560,16.6310
29.4408,16.7075
29.3974,16.7724
29.3325,16.8158
29.2560,16.8310
28.8560,16.8310
28.7795,16.8158
28.7146,16.7724
28.6712,16.7075
28.6560,16.6310
28.6560,16.0810
28.6712,16.0045
28.7146,15.9396
28.7795,15.8962
28.8560,15.8810
29.2560,15.8810
29.3325,15.8962
29.3974,15.9396
29.4408,16.0045
29.4560,16.0810
Z" /> 
</g>
<g >
</g>
<g style="fill:#D864FF; fill-opacity:0.4000; 
stroke:#D864FF; stroke-width:0.0000; stroke-opacity:1; 
stroke-linecap:round; stroke-linejoin:round;">
<path style="fill:#D864FF; fill-opacity:0.4000; 
stroke:#D864FF; stroke-width:0.0000; stroke-opacity:1; 
stroke-linecap:round; stroke-linejoin:round;fill-rule:evenodd;"
d="M 55.1310,24.9760
55.0545,24.9608
54.9896,24.9174
54.9462,24.8525
54.9310,24.7760
54.9310,24.3760
54.9462,24.2995
54.9896,24.2346
55.0545,24.1912
55.1310,24.1760
55.6810,24.1760
55.7575,24.1912
55.8224,24.2346
55.8658,24.2995
55.8810,24.3760
55.8810,24.7760
55.8658,24.8525
55.8224,24.9174
55.7575,24.9608
55.6810,24.9760
Z" /> 
<path style="fill:#D864FF; fill-opacity:0.4000; 
stroke:#D864FF; stroke-width:0.0000; stroke-opacity:1; 
stroke-linecap:round; stroke-linejoin:round;fill-rule:evenodd;"
d="M 55.1310,26.6260
55.0545,26.6108
54.9896,26.5674
54.9462,26.5025
54.9310,26.4260
54.9310,26.0260
54.9462,25.9495
54.9896,25.8846
55.0545,25.8412
55.1310,25.8260
55.6810,25.8260
55.7575,25.8412
55.8224,25.8846
55.8658,25.9495
55.8810,26.0260
55.8810,26.4260
55.8658,26.5025
55.8224,26.5674
55.7575,26.6108
55.6810,26.6260
Z" /> 
</g>
<g >
</g>
<g style="fill:#D864FF; fill-opacity:0.4000; 
stroke:#D864FF; stroke-width:0.0000; stroke-opacity:1; 
stroke-linecap:round; stroke-linejoin:round;">
<path style="fill:#D864FF; fill-opacity:0.4000; 
stroke:#D864FF; stroke-width:0.0000; stroke-opacity:1; 
stroke-linecap:round; stroke-linejoin:round;fill-rule:evenodd;"
d="M 55.1310,20.0240
55.0545,20.0088
54.9896,19.9654
54.9462,19.9005
54.9310,19.8240
54.9310,19.4240
54.9462,19.3475
54.9896,19.2826
55.0545,19.2392
55.1310,19.2240
55.6810,19.2240
55.7575,19.2392
55.8224,19.2826
55.8658,19.3475
55.8810,19.4240
55.8810,19.8240
55.8658,19.9005
55.8224,19.9654
55.7575,20.0088
55.6810,20.0240
Z" /> 
<path style="fill:#D864FF; fill-opacity:0.4000; 
stroke:#D864FF; stroke-width:0.0000; stroke-opacity:1; 
stroke-linecap:round; stroke-linejoin:round;fill-rule:evenodd;"
d="M 55.1310,21.6740
55.0545,21.6588
54.9896,21.6154
54.9462,21.5505
54.9310,21.4740
54.9310,21.0740
54.9462,20.9975
54.9896,20.9326
55.0545,20.8892
55.1310,20.8740
55.6810,20.8740
55.7575,20.8892
55.8224,20.9326
55.8658,20.9975
55.8810,21.0740
55.8810,21.4740
55.8658,21.5505
55.8224,21.6154
55.7575,21.6588
55.6810,21.6740
Z" /> 
</g>
<g >
</g>
<g style="fill:#D864FF; fill-opacity:0.4000; 
stroke:#D864FF; stroke-width:0.0000; stroke-opacity:1; 
stroke-linecap:round; stroke-linejoin:round;">
<path style="fill:#D864FF; fill-opacity:0.4000; 
stroke:#D864FF; stroke-width:0.0000; stroke-opacity:1; 
stroke-linecap:round; stroke-linejoin:round;fill-rule:evenodd;"
d="M 16.6090,26.9100
16.5976,26.9674
16.5651,27.0161
16.5164,27.0486
16.4590,27.0600
15.2840,27.0600
15.2266,27.0486
15.1779,27.0161
15.1454,26.9674
15.1340,26.9100
15.1340,26.6100
15.1454,26.5526
15.1779,26.5039
15.2266,26.4714
15.2840,26.4600
16.4590,26.4600
16.5164,26.4714
16.5651,26.5039
16.5976,26.5526
16.6090,26.6100
Z" /> 
<path style="fill:#D864FF; fill-opacity:0.4000; 
stroke:#D864FF; stroke-width:0.0000; stroke-opacity:1; 
stroke-linecap:round; stroke-linejoin:round;fill-rule:evenodd;"
d="M 18.4840,25.9600
18.4726,26.0174
18.4401,26.0661
18.3914,26.0986
18.3340,26.1100
17.1590,26.1100
17.1016,26.0986
17.0529,26.0661
17.0204,26.0174
17.0090,25.9600
17.0090,25.6600
17.0204,25.6026
17.0529,25.5539
17.1016,25.5214
17.1590,25.5100
18.3340,25.5100
18.3914,25.5214
18.4401,25.5539
18.4726,25.6026
18.4840,25.6600
Z" /> 
<path style="fill:#D864FF; fill-opacity:0.4000; 
stroke:#D864FF; stroke-width:0.0000; stroke-opacity:1; 
stroke-linecap:round; stroke-linejoin:round;fill-rule:evenodd;"
d="M 18.4840,27.8600
18.4726,27.9174
18.4401,27.9661
18.3914,27.9986
18.3340,28.0100
17.1590,28.0100
17.1016,27.9986
17.0529,27.9661
17.0204,27.9174
17.0090,27.8600
17.0090,27.5600
17.0204,27.5026
17.0529,27.4539
17.1016,27.4214
17.1590,27.4100
18.3340,27.4100
18.3914,27.4214
18.4401,27.4539
18.4726,27.5026
18.4840,27.5600
Z" /> 
</g>
<g >
</g>
<g style="fill:#D864FF; fill-opacity:0.4000; 
stroke:#D864FF; stroke-width:0.0000; stroke-opacity:1; 
stroke-linecap:round; stroke-linejoin:round;">
<path style="fill:#D864FF; fill-opacity:0.4000; 
stroke:#D864FF; stroke-width:0.0000; stroke-opacity:1; 
stroke-linecap:round; stroke-linejoin:round;fill-rule:evenodd;"
d="M 26.6990,38.1960
26.6819,38.2821
26.6331,38.3551
26.5601,38.4039
26.4740,38.4210
26.0240,38.4210
25.9379,38.4039
25.8649,38.3551
25.8161,38.2821
25.7990,38.1960
25.7990,37.6960
25.8161,37.6099
25.8649,37.5369
25.9379,37.4881
26.0240,37.4710
26.4740,37.4710
26.5601,37.4881
26.6331,37.5369
26.6819,37.6099
26.6990,37.6960
Z" /> 
<path style="fill:#D864FF; fill-opacity:0.4000; 
stroke:#D864FF; stroke-width:0.0000; stroke-opacity:1; 
stroke-linecap:round; stroke-linejoin:round;fill-rule:evenodd;"
d="M 28.2490,38.1960
28.2319,38.2821
28.1831,38.3551
28.1101,38.4039
28.0240,38.4210
27.5740,38.4210
27.4879,38.4039
27.4149,38.3551
27.3661,38.2821
27.3490,38.1960
27.3490,37.6960
27.3661,37.6099
27.4149,37.5369
27.4879,37.4881
27.5740,37.4710
28.0240,37.4710
28.1101,37.4881
28.1831,37.5369
28.2319,37.6099
28.2490,37.6960
Z" /> 
</g>
<g >
</g>
<g style="fill:#D864FF; fill-opacity:0.4000; 
stroke:#D864FF; stroke-width:0.0000; stroke-opacity:1; 
stroke-linecap:round; stroke-linejoin:round;">
<path style="fill:#D864FF; fill-opacity:0.4000; 
stroke:#D864FF; stroke-width:0.0000; stroke-opacity:1; 
stroke-linecap:round; stroke-linejoin:round;fill-rule:evenodd;"
d="M 13.6465,27.2340
13.7422,27.2530
13.8233,27.3072
13.8775,27.3883
13.8965,27.4840
13.8965,29.4840
13.8775,29.5797
13.8233,29.6608
13.7422,29.7150
13.6465,29.7340
12.3465,29.7340
12.2508,29.7150
12.1697,29.6608
12.1155,29.5797
12.0965,29.4840
12.0965,27.4840
12.1155,27.3883
12.1697,27.3072
12.2508,27.2530
12.3465,27.2340
Z" /> 
<path style="fill:#D864FF; fill-opacity:0.4000; 
stroke:#D864FF; stroke-width:0.0000; stroke-opacity:1; 
stroke-linecap:round; stroke-linejoin:round;fill-rule:evenodd;"
d="M 13.6465,23.2340
13.7422,23.2530
13.8233,23.3072
13.8775,23.3883
13.8965,23.4840
13.8965,25.4840
13.8775,25.5797
13.8233,25.6608
13.7422,25.7150
13.6465,25.7340
12.3465,25.7340
12.2508,25.7150
12.1697,25.6608
12.1155,25.5797
12.0965,25.4840
12.0965,23.4840
12.1155,23.3883
12.1697,23.3072
12.2508,23.2530
12.3465,23.2340
Z" /> 
</g>
<g >
</g>
<g style="fill:#D864FF; fill-opacity:0.4000; 
stroke:#D864FF; stroke-width:0.0000; stroke-opacity:1; 
stroke-linecap:round; stroke-linejoin:round;">
<circle cx="6.1385" cy="19.6580" r="0.9525" /> 
</g>
<g style="fill:#D864FF; fill-opacity:0.4000; 
stroke:#D864FF; stroke-width:0.0212; stroke-opacity:1; 
stroke-linecap:round; stroke-linejoin:round;">
</g>
<g style="fill:#D864FF; fill-opacity:0.4000; 
stroke:#D864FF; stroke-width:0.0000; stroke-opacity:1; 
stroke-linecap:round; stroke-linejoin:round;">
<circle cx="6.1385" cy="16.2580" r="0.9525" /> 
</g>
<g style="fill:#D864FF; fill-opacity:0.4000; 
stroke:#D864FF; stroke-width:0.0212; stroke-opacity:1; 
stroke-linecap:round; stroke-linejoin:round;">
</g>
<g >
</g>
<g style="fill:#D864FF; fill-opacity:0.4000; 
stroke:#D864FF; stroke-width:0.0212; stroke-opacity:1; 
stroke-linecap:round; stroke-linejoin:round;">
</g>
<g style="fill:#D864FF; fill-opacity:0.4000; 
stroke:#D864FF; stroke-width:0.0000; stroke-opacity:1; 
stroke-linecap:round; stroke-linejoin:round;">
<path style="fill:#D864FF; fill-opacity:0.4000; 
stroke:#D864FF; stroke-width:0.0000; stroke-opacity:1; 
stroke-linecap:round; stroke-linejoin:round;fill-rule:evenodd;"
d="M 52.0795,25.4880
52.0681,25.5454
52.0356,25.5941
51.9869,25.6266
51.9295,25.6380
50.7545,25.6380
50.6971,25.6266
50.6484,25.5941
50.6159,25.5454
50.6045,25.4880
50.6045,25.1880
50.6159,25.1306
50.6484,25.0819
50.6971,25.0494
50.7545,25.0380
51.9295,25.0380
51.9869,25.0494
52.0356,25.0819
52.0681,25.1306
52.0795,25.1880
Z" /> 
<path style="fill:#D864FF; fill-opacity:0.4000; 
stroke:#D864FF; stroke-width:0.0000; stroke-opacity:1; 
stroke-linecap:round; stroke-linejoin:round;fill-rule:evenodd;"
d="M 53.9545,24.5380
53.9431,24.5954
53.9106,24.6441
53.8619,24.6766
53.8045,24.6880
52.6295,24.6880
52.5721,24.6766
52.5234,24.6441
52.4909,24.5954
52.4795,24.5380
52.4795,24.2380
52.4909,24.1806
52.5234,24.1319
52.5721,24.0994
52.6295,24.0880
53.8045,24.0880
53.8619,24.0994
53.9106,24.1319
53.9431,24.1806
53.9545,24.2380
Z" /> 
<path style="fill:#D864FF; fill-opacity:0.4000; 
stroke:#D864FF; stroke-width:0.0000; stroke-opacity:1; 
stroke-linecap:round; stroke-linejoin:round;fill-rule:evenodd;"
d="M 53.9545,26.4380
53.9431,26.4954
53.9106,26.5441
53.8619,26.5766
53.8045,26.5880
52.6295,26.5880
52.5721,26.5766
52.5234,26.5441
52.4909,26.4954
52.4795,26.4380
52.4795,26.1380
52.4909,26.0806
52.5234,26.0319
52.5721,25.9994
52.6295,25.9880
53.8045,25.9880
53.8619,25.9994
53.9106,26.0319
53.9431,26.0806
53.9545,26.1380
Z" /> 
</g>
<g >
</g>
<g style="fill:#D864FF; fill-opacity:0.4000; 
stroke:#D864FF; stroke-width:0.0000; stroke-opacity:1; 
stroke-linecap:round; stroke-linejoin:round;">
<path style="fill:#D864FF; fill-opacity:0.4000; 
stroke:#D864FF; stroke-width:0.0000; stroke-opacity:1; 
stroke-linecap:round; stroke-linejoin:round;fill-rule:evenodd;"
d="M 20.0955,26.2643
20.0788,26.3480
20.0314,26.4189
19.9605,26.4663
19.8767,26.4830
19.4392,26.4830
19.3555,26.4663
19.2846,26.4189
19.2372,26.3480
19.2205,26.2643
19.2205,25.7517
19.2372,25.6680
19.2846,25.5971
19.3555,25.5497
19.4392,25.5330
19.8767,25.5330
19.9605,25.5497
20.0314,25.5971
20.0788,25.6680
20.0955,25.7517
Z" /> 
<path style="fill:#D864FF; fill-opacity:0.4000; 
stroke:#D864FF; stroke-width:0.0000; stroke-opacity:1; 
stroke-linecap:round; stroke-linejoin:round;fill-rule:evenodd;"
d="M 21.6705,26.2643
21.6538,26.3480
21.6064,26.4189
21.5355,26.4663
21.4518,26.4830
21.0143,26.4830
20.9305,26.4663
20.8596,26.4189
20.8122,26.3480
20.7955,26.2643
20.7955,25.7517
20.8122,25.6680
20.8596,25.5971
20.9305,25.5497
21.0143,25.5330
21.4518,25.5330
21.5355,25.5497
21.6064,25.5971
21.6538,25.6680
21.6705,25.7517
Z" /> 
</g>
<g >
</g>
<g style="fill:#D864FF; fill-opacity:0.4000; 
stroke:#D864FF; stroke-width:0.0000; stroke-opacity:1; 
stroke-linecap:round; stroke-linejoin:round;">
<circle cx="44.8040" cy="30.0720" r="0.8520" /> 
</g>
<g style="fill:#D864FF; fill-opacity:0.4000; 
stroke:#D864FF; stroke-width:0.0212; stroke-opacity:1; 
stroke-linecap:round; stroke-linejoin:round;">
</g>
<g style="fill:#D864FF; fill-opacity:0.4000; 
stroke:#D864FF; stroke-width:0.0000; stroke-opacity:1; 
stroke-linecap:round; stroke-linejoin:round;">
<circle cx="44.8040" cy="32.6120" r="0.8520" /> 
</g>
<g style="fill:#D864FF; fill-opacity:0.4000; 
stroke:#D864FF; stroke-width:0.0212; stroke-opacity:1; 
stroke-linecap:round; stroke-linejoin:round;">
</g>
<g style="fill:#D864FF; fill-opacity:0.4000; 
stroke:#D864FF; stroke-width:0.0000; stroke-opacity:1; 
stroke-linecap:round; stroke-linejoin:round;">
<circle cx="44.8040" cy="35.1520" r="0.8520" /> 
</g>
<g style="fill:#D864FF; fill-opacity:0.4000; 
stroke:#D864FF; stroke-width:0.0212; stroke-opacity:1; 
stroke-linecap:round; stroke-linejoin:round;">
</g>
<g style="fill:#D864FF; fill-opacity:0.4000; 
stroke:#D864FF; stroke-width:0.0000; stroke-opacity:1; 
stroke-linecap:round; stroke-linejoin:round;">
<circle cx="44.8040" cy="37.6920" r="0.8520" /> 
</g>
<g style="fill:#D864FF; fill-opacity:0.4000; 
stroke:#D864FF; stroke-width:0.0212; stroke-opacity:1; 
stroke-linecap:round; stroke-linejoin:round;">
</g>
<g style="fill:#D864FF; fill-opacity:0.4000; 
stroke:#D864FF; stroke-width:0.0000; stroke-opacity:1; 
stroke-linecap:round; stroke-linejoin:round;">
<circle cx="42.2640" cy="30.0720" r="0.8520" /> 
</g>
<g style="fill:#D864FF; fill-opacity:0.4000; 
stroke:#D864FF; stroke-width:0.0212; stroke-opacity:1; 
stroke-linecap:round; stroke-linejoin:round;">
</g>
<g style="fill:#D864FF; fill-opacity:0.4000; 
stroke:#D864FF; stroke-width:0.0000; stroke-opacity:1; 
stroke-linecap:round; stroke-linejoin:round;">
<circle cx="42.2640" cy="32.6120" r="0.8520" /> 
</g>
<g style="fill:#D864FF; fill-opacity:0.4000; 
stroke:#D864FF; stroke-width:0.0212; stroke-opacity:1; 
stroke-linecap:round; stroke-linejoin:round;">
</g>
<g style="fill:#D864FF; fill-opacity:0.4000; 
stroke:#D864FF; stroke-width:0.0000; stroke-opacity:1; 
stroke-linecap:round; stroke-linejoin:round;">
<circle cx="42.2640" cy="35.1520" r="0.8520" /> 
</g>
<g style="fill:#D864FF; fill-opacity:0.4000; 
stroke:#D864FF; stroke-width:0.0212; stroke-opacity:1; 
stroke-linecap:round; stroke-linejoin:round;">
</g>
<g style="fill:#D864FF; fill-opacity:0.4000; 
stroke:#D864FF; stroke-width:0.0000; stroke-opacity:1; 
stroke-linecap:round; stroke-linejoin:round;">
<path style="fill:#D864FF; fill-opacity:0.4000; 
stroke:#D864FF; stroke-width:0.0000; stroke-opacity:1; 
stroke-linecap:round; stroke-linejoin:round;fill-rule:evenodd;"
d="M 41.5140,38.5440
41.4750,38.5362
41.4419,38.5141
41.4198,38.4810
41.4120,38.4420
41.4120,36.9420
41.4198,36.9030
41.4419,36.8699
41.4750,36.8478
41.5140,36.8400
43.0140,36.8400
43.0530,36.8478
43.0861,36.8699
43.1082,36.9030
43.1160,36.9420
43.1160,38.4420
43.1082,38.4810
43.0861,38.5141
43.0530,38.5362
43.0140,38.5440
Z" /> 
</g>
<g >
</g>
<g style="fill:#D864FF; fill-opacity:0.4000; 
stroke:#D864FF; stroke-width:0.0000; stroke-opacity:1; 
stroke-linecap:round; stroke-linejoin:round;">
<path style="fill:#D864FF; fill-opacity:0.4000; 
stroke:#D864FF; stroke-width:0.0000; stroke-opacity:1; 
stroke-linecap:round; stroke-linejoin:round;fill-rule:evenodd;"
d="M 33.0620,33.1160
33.0449,33.2021
32.9961,33.2751
32.9231,33.3239
32.8370,33.3410
32.3870,33.3410
32.3009,33.3239
32.2279,33.2751
32.1791,33.2021
32.1620,33.1160
32.1620,32.6160
32.1791,32.5299
32.2279,32.4569
32.3009,32.4081
32.3870,32.3910
32.8370,32.3910
32.9231,32.4081
32.9961,32.4569
33.0449,32.5299
33.0620,32.6160
Z" /> 
<path style="fill:#D864FF; fill-opacity:0.4000; 
stroke:#D864FF; stroke-width:0.0000; stroke-opacity:1; 
stroke-linecap:round; stroke-linejoin:round;fill-rule:evenodd;"
d="M 34.6120,33.1160
34.5949,33.2021
34.5461,33.2751
34.4731,33.3239
34.3870,33.3410
33.9370,33.3410
33.8509,33.3239
33.7779,33.2751
33.7291,33.2021
33.7120,33.1160
33.7120,32.6160
33.7291,32.5299
33.7779,32.4569
33.8509,32.4081
33.9370,32.3910
34.3870,32.3910
34.4731,32.4081
34.5461,32.4569
34.5949,32.5299
34.6120,32.6160
Z" /> 
</g>
<g >
</g>
<g style="fill:#D864FF; fill-opacity:0.4000; 
stroke:#D864FF; stroke-width:0.0000; stroke-opacity:1; 
stroke-linecap:round; stroke-linejoin:round;">
<path style="fill:#D864FF; fill-opacity:0.4000; 
stroke:#D864FF; stroke-width:0.0000; stroke-opacity:1; 
stroke-linecap:round; stroke-linejoin:round;fill-rule:evenodd;"
d="M 55.2390,33.3540
55.3155,33.3692
55.3804,33.4126
55.4238,33.4775
55.4390,33.5540
55.4390,33.9540
55.4238,34.0305
55.3804,34.0954
55.3155,34.1388
55.2390,34.1540
54.6890,34.1540
54.6125,34.1388
54.5476,34.0954
54.5042,34.0305
54.4890,33.9540
54.4890,33.5540
54.5042,33.4775
54.5476,33.4126
54.6125,33.3692
54.6890,33.3540
Z" /> 
<path style="fill:#D864FF; fill-opacity:0.4000; 
stroke:#D864FF; stroke-width:0.0000; stroke-opacity:1; 
stroke-linecap:round; stroke-linejoin:round;fill-rule:evenodd;"
d="M 55.2390,31.7040
55.3155,31.7192
55.3804,31.7626
55.4238,31.8275
55.4390,31.9040
55.4390,32.3040
55.4238,32.3805
55.3804,32.4454
55.3155,32.4888
55.2390,32.5040
54.6890,32.5040
54.6125,32.4888
54.5476,32.4454
54.5042,32.3805
54.4890,32.3040
54.4890,31.9040
54.5042,31.8275
54.5476,31.7626
54.6125,31.7192
54.6890,31.7040
Z" /> 
</g>
<g >
</g>
<g style="fill:#D864FF; fill-opacity:0.4000; 
stroke:#D864FF; stroke-width:0.0000; stroke-opacity:1; 
stroke-linecap:round; stroke-linejoin:round;">
<path style="fill:#D864FF; fill-opacity:0.4000; 
stroke:#D864FF; stroke-width:0.0000; stroke-opacity:1; 
stroke-linecap:round; stroke-linejoin:round;fill-rule:evenodd;"
d="M 52.0795,11.0100
52.0681,11.0674
52.0356,11.1161
51.9869,11.1486
51.9295,11.1600
50.7545,11.1600
50.6971,11.1486
50.6484,11.1161
50.6159,11.0674
50.6045,11.0100
50.6045,10.7100
50.6159,10.6526
50.6484,10.6039
50.6971,10.5714
50.7545,10.5600
51.9295,10.5600
51.9869,10.5714
52.0356,10.6039
52.0681,10.6526
52.0795,10.7100
Z" /> 
<path style="fill:#D864FF; fill-opacity:0.4000; 
stroke:#D864FF; stroke-width:0.0000; stroke-opacity:1; 
stroke-linecap:round; stroke-linejoin:round;fill-rule:evenodd;"
d="M 53.9545,10.0600
53.9431,10.1174
53.9106,10.1661
53.8619,10.1986
53.8045,10.2100
52.6295,10.2100
52.5721,10.1986
52.5234,10.1661
52.4909,10.1174
52.4795,10.0600
52.4795,9.7600
52.4909,9.7026
52.5234,9.6539
52.5721,9.6214
52.6295,9.6100
53.8045,9.6100
53.8619,9.6214
53.9106,9.6539
53.9431,9.7026
53.9545,9.7600
Z" /> 
<path style="fill:#D864FF; fill-opacity:0.4000; 
stroke:#D864FF; stroke-width:0.0000; stroke-opacity:1; 
stroke-linecap:round; stroke-linejoin:round;fill-rule:evenodd;"
d="M 53.9545,11.9600
53.9431,12.0174
53.9106,12.0661
53.8619,12.0986
53.8045,12.1100
52.6295,12.1100
52.5721,12.0986
52.5234,12.0661
52.4909,12.0174
52.4795,11.9600
52.4795,11.6600
52.4909,11.6026
52.5234,11.5539
52.5721,11.5214
52.6295,11.5100
53.8045,11.5100
53.8619,11.5214
53.9106,11.5539
53.9431,11.6026
53.9545,11.6600
Z" /> 
</g>
<g >
</g>
<g style="fill:#D864FF; fill-opacity:0.4000; 
stroke:#D864FF; stroke-width:0.0000; stroke-opacity:1; 
stroke-linecap:round; stroke-linejoin:round;">
<path style="fill:#D864FF; fill-opacity:0.4000; 
stroke:#D864FF; stroke-width:0.0000; stroke-opacity:1; 
stroke-linecap:round; stroke-linejoin:round;fill-rule:evenodd;"
d="M 29.2240,40.4880
29.2240,38.9880
31.2240,38.9880
31.2240,40.4880
Z" /> 
<path style="fill:#D864FF; fill-opacity:0.4000; 
stroke:#D864FF; stroke-width:0.0000; stroke-opacity:1; 
stroke-linecap:round; stroke-linejoin:round;fill-rule:evenodd;"
d="M 35.5240,39.3380
35.5240,35.5380
37.5240,35.5380
37.5240,39.3380
Z" /> 
<path style="fill:#D864FF; fill-opacity:0.4000; 
stroke:#D864FF; stroke-width:0.0000; stroke-opacity:1; 
stroke-linecap:round; stroke-linejoin:round;fill-rule:evenodd;"
d="M 29.2240,38.1880
29.2240,36.6880
31.2240,36.6880
31.2240,38.1880
Z" /> 
<path style="fill:#D864FF; fill-opacity:0.4000; 
stroke:#D864FF; stroke-width:0.0000; stroke-opacity:1; 
stroke-linecap:round; stroke-linejoin:round;fill-rule:evenodd;"
d="M 29.2240,35.8880
29.2240,34.3880
31.2240,34.3880
31.2240,35.8880
Z" /> 
</g>
<g >
</g>
<g style="fill:#D864FF; fill-opacity:0.4000; 
stroke:#D864FF; stroke-width:0.0000; stroke-opacity:1; 
stroke-linecap:round; stroke-linejoin:round;">
<path style="fill:#D864FF; fill-opacity:0.4000; 
stroke:#D864FF; stroke-width:0.0000; stroke-opacity:1; 
stroke-linecap:round; stroke-linejoin:round;fill-rule:evenodd;"
d="M 16.6850,17.9640
16.6736,18.0214
16.6411,18.0701
16.5924,18.1026
16.5350,18.1140
15.3600,18.1140
15.3026,18.1026
15.2539,18.0701
15.2214,18.0214
15.2100,17.9640
15.2100,17.6640
15.2214,17.6066
15.2539,17.5579
15.3026,17.5254
15.3600,17.5140
16.5350,17.5140
16.5924,17.5254
16.6411,17.5579
16.6736,17.6066
16.6850,17.6640
Z" /> 
<path style="fill:#D864FF; fill-opacity:0.4000; 
stroke:#D864FF; stroke-width:0.0000; stroke-opacity:1; 
stroke-linecap:round; stroke-linejoin:round;fill-rule:evenodd;"
d="M 18.5600,17.0140
18.5486,17.0714
18.5161,17.1201
18.4674,17.1526
18.4100,17.1640
17.2350,17.1640
17.1776,17.1526
17.1289,17.1201
17.0964,17.0714
17.0850,17.0140
17.0850,16.7140
17.0964,16.6566
17.1289,16.6079
17.1776,16.5754
17.2350,16.5640
18.4100,16.5640
18.4674,16.5754
18.5161,16.6079
18.5486,16.6566
18.5600,16.7140
Z" /> 
<path style="fill:#D864FF; fill-opacity:0.4000; 
stroke:#D864FF; stroke-width:0.0000; stroke-opacity:1; 
stroke-linecap:round; stroke-linejoin:round;fill-rule:evenodd;"
d="M 18.5600,18.9140
18.5486,18.9714
18.5161,19.0201
18.4674,19.0526
18.4100,19.0640
17.2350,19.0640
17.1776,19.0526
17.1289,19.0201
17.0964,18.9714
17.0850,18.9140
17.0850,18.6140
17.0964,18.5566
17.1289,18.5079
17.1776,18.4754
17.2350,18.4640
18.4100,18.4640
18.4674,18.4754
18.5161,18.5079
18.5486,18.5566
18.5600,18.6140
Z" /> 
</g>
<g >
</g>
<g style="fill:#D864FF; fill-opacity:0.4000; 
stroke:#D864FF; stroke-width:0.0000; stroke-opacity:1; 
stroke-linecap:round; stroke-linejoin:round;">
<circle cx="26.3640" cy="34.1206" r="0.6000" /> 
</g>
<g style="fill:#D864FF; fill-opacity:0.4000; 
stroke:#D864FF; stroke-width:0.0212; stroke-opacity:1; 
stroke-linecap:round; stroke-linejoin:round;">
</g>
<g style="fill:#D864FF; fill-opacity:0.4000; 
stroke:#D864FF; stroke-width:0.0000; stroke-opacity:1; 
stroke-linecap:round; stroke-linejoin:round;">
<path style="fill:#D864FF; fill-opacity:0.4000; 
stroke:#D864FF; stroke-width:0.0000; stroke-opacity:1; 
stroke-linecap:round; stroke-linejoin:round;fill-rule:evenodd;"
d="M 26.9640,36.2206
25.7640,36.2206
25.7640,35.0206
26.9640,35.0206
Z" /> 
</g>
<g >
</g>
<g style="fill:#D864FF; fill-opacity:0.4000; 
stroke:#D864FF; stroke-width:0.0000; stroke-opacity:1; 
stroke-linecap:round; stroke-linejoin:round;">
<path style="fill:#D864FF; fill-opacity:0.4000; 
stroke:#D864FF; stroke-width:0.0000; stroke-opacity:1; 
stroke-linecap:round; stroke-linejoin:round;fill-rule:evenodd;"
d="M 16.6065,35.1600
16.5951,35.2174
16.5626,35.2661
16.5139,35.2986
16.4565,35.3100
15.2815,35.3100
15.2241,35.2986
15.1754,35.2661
15.1429,35.2174
15.1315,35.1600
15.1315,34.8600
15.1429,34.8026
15.1754,34.7539
15.2241,34.7214
15.2815,34.7100
16.4565,34.7100
16.5139,34.7214
16.5626,34.7539
16.5951,34.8026
16.6065,34.8600
Z" /> 
<path style="fill:#D864FF; fill-opacity:0.4000; 
stroke:#D864FF; stroke-width:0.0000; stroke-opacity:1; 
stroke-linecap:round; stroke-linejoin:round;fill-rule:evenodd;"
d="M 18.4815,34.2100
18.4701,34.2674
18.4376,34.3161
18.3889,34.3486
18.3315,34.3600
17.1565,34.3600
17.0991,34.3486
17.0504,34.3161
17.0179,34.2674
17.0065,34.2100
17.0065,33.9100
17.0179,33.8526
17.0504,33.8039
17.0991,33.7714
17.1565,33.7600
18.3315,33.7600
18.3889,33.7714
18.4376,33.8039
18.4701,33.8526
18.4815,33.9100
Z" /> 
<path style="fill:#D864FF; fill-opacity:0.4000; 
stroke:#D864FF; stroke-width:0.0000; stroke-opacity:1; 
stroke-linecap:round; stroke-linejoin:round;fill-rule:evenodd;"
d="M 18.4815,36.1100
18.4701,36.1674
18.4376,36.2161
18.3889,36.2486
18.3315,36.2600
17.1565,36.2600
17.0991,36.2486
17.0504,36.2161
17.0179,36.1674
17.0065,36.1100
17.0065,35.8100
17.0179,35.7526
17.0504,35.7039
17.0991,35.6714
17.1565,35.6600
18.3315,35.6600
18.3889,35.6714
18.4376,35.7039
18.4701,35.7526
18.4815,35.8100
Z" /> 
</g>
<g >
</g>
<g style="fill:#D864FF; fill-opacity:0.4000; 
stroke:#D864FF; stroke-width:0.0000; stroke-opacity:1; 
stroke-linecap:round; stroke-linejoin:round;">
<path style="fill:#D864FF; fill-opacity:0.4000; 
stroke:#D864FF; stroke-width:0.0000; stroke-opacity:1; 
stroke-linecap:round; stroke-linejoin:round;fill-rule:evenodd;"
d="M 20.0005,36.4430
19.9853,36.5195
19.9419,36.5844
19.8770,36.6278
19.8005,36.6430
19.4005,36.6430
19.3240,36.6278
19.2591,36.5844
19.2157,36.5195
19.2005,36.4430
19.2005,35.8930
19.2157,35.8165
19.2591,35.7516
19.3240,35.7082
19.4005,35.6930
19.8005,35.6930
19.8770,35.7082
19.9419,35.7516
19.9853,35.8165
20.0005,35.8930
Z" /> 
<path style="fill:#D864FF; fill-opacity:0.4000; 
stroke:#D864FF; stroke-width:0.0000; stroke-opacity:1; 
stroke-linecap:round; stroke-linejoin:round;fill-rule:evenodd;"
d="M 21.6505,36.4430
21.6353,36.5195
21.5919,36.5844
21.5270,36.6278
21.4505,36.6430
21.0505,36.6430
20.9740,36.6278
20.9091,36.5844
20.8657,36.5195
20.8505,36.4430
20.8505,35.8930
20.8657,35.8165
20.9091,35.7516
20.9740,35.7082
21.0505,35.6930
21.4505,35.6930
21.5270,35.7082
21.5919,35.7516
21.6353,35.8165
21.6505,35.8930
Z" /> 
</g>
<g >
</g>
<g style="fill:#D864FF; fill-opacity:0.4000; 
stroke:#D864FF; stroke-width:0.0000; stroke-opacity:1; 
stroke-linecap:round; stroke-linejoin:round;">
<path style="fill:#D864FF; fill-opacity:0.4000; 
stroke:#D864FF; stroke-width:0.0000; stroke-opacity:1; 
stroke-linecap:round; stroke-linejoin:round;fill-rule:evenodd;"
d="M 20.1380,8.9923
20.1213,9.0760
20.0739,9.1469
20.0030,9.1943
19.9192,9.2110
19.4817,9.2110
19.3980,9.1943
19.3271,9.1469
19.2797,9.0760
19.2630,8.9923
19.2630,8.4797
19.2797,8.3960
19.3271,8.3251
19.3980,8.2777
19.4817,8.2610
19.9192,8.2610
20.0030,8.2777
20.0739,8.3251
20.1213,8.3960
20.1380,8.4797
Z" /> 
<path style="fill:#D864FF; fill-opacity:0.4000; 
stroke:#D864FF; stroke-width:0.0000; stroke-opacity:1; 
stroke-linecap:round; stroke-linejoin:round;fill-rule:evenodd;"
d="M 21.7130,8.9923
21.6963,9.0760
21.6489,9.1469
21.5780,9.1943
21.4942,9.2110
21.0567,9.2110
20.9730,9.1943
20.9021,9.1469
20.8547,9.0760
20.8380,8.9923
20.8380,8.4797
20.8547,8.3960
20.9021,8.3251
20.9730,8.2777
21.0567,8.2610
21.4942,8.2610
21.5780,8.2777
21.6489,8.3251
21.6963,8.3960
21.7130,8.4797
Z" /> 
</g>
<g >
</g>
<g style="fill:#D864FF; fill-opacity:0.4000; 
stroke:#D864FF; stroke-width:0.0000; stroke-opacity:1; 
stroke-linecap:round; stroke-linejoin:round;">
</g>
<g style="fill:#D864FF; fill-opacity:0.4000; 
stroke:#D864FF; stroke-width:1.7000; stroke-opacity:1; 
stroke-linecap:round; stroke-linejoin:round;">
</g>
<g style="fill:#D864FF; fill-opacity:0.0; 
stroke:#D864FF; stroke-width:1.7000; stroke-opacity:1; 
stroke-linecap:round; stroke-linejoin:round;">
<path d="M65.8460 14.9150
L65.8460 15.1650
" />
<path d="M63.3460 14.9150
L63.3460 15.1650
" />
</g>
<g style="fill:#D864FF; fill-opacity:0.0; 
stroke:#D864FF; stroke-width:0.0000; stroke-opacity:1; 
stroke-linecap:round; stroke-linejoin:round;">
</g>
<g style="fill:#D864FF; fill-opacity:0.4000; 
stroke:#D864FF; stroke-width:0.0000; stroke-opacity:1; 
stroke-linecap:round; stroke-linejoin:round;">
<path style="fill:#D864FF; fill-opacity:0.4000; 
stroke:#D864FF; stroke-width:0.0000; stroke-opacity:1; 
stroke-linecap:round; stroke-linejoin:round;fill-rule:evenodd;"
d="M 59.9960,14.3150
60.0150,14.2193
60.0692,14.1382
60.1503,14.0840
60.2460,14.0650
61.4460,14.0650
61.5417,14.0840
61.6228,14.1382
61.6770,14.2193
61.6960,14.3150
61.6960,15.7650
61.6770,15.8607
61.6228,15.9418
61.5417,15.9960
61.4460,16.0150
60.2460,16.0150
60.1503,15.9960
60.0692,15.9418
60.0150,15.8607
59.9960,15.7650
Z" /> 
</g>
<g >
</g>
<g style="fill:#D864FF; fill-opacity:0.4000; 
stroke:#D864FF; stroke-width:0.0000; stroke-opacity:1; 
stroke-linecap:round; stroke-linejoin:round;">
<path style="fill:#D864FF; fill-opacity:0.4000; 
stroke:#D864FF; stroke-width:0.0000; stroke-opacity:1; 
stroke-linecap:round; stroke-linejoin:round;fill-rule:evenodd;"
d="M 28.0360,23.7930
28.1221,23.8101
28.1951,23.8589
28.2439,23.9319
28.2610,24.0180
28.2610,24.4680
28.2439,24.5541
28.1951,24.6271
28.1221,24.6759
28.0360,24.6930
27.5360,24.6930
27.4499,24.6759
27.3769,24.6271
27.3281,24.5541
27.3110,24.4680
27.3110,24.0180
27.3281,23.9319
27.3769,23.8589
27.4499,23.8101
27.5360,23.7930
Z" /> 
<path style="fill:#D864FF; fill-opacity:0.4000; 
stroke:#D864FF; stroke-width:0.0000; stroke-opacity:1; 
stroke-linecap:round; stroke-linejoin:round;fill-rule:evenodd;"
d="M 28.0360,22.2430
28.1221,22.2601
28.1951,22.3089
28.2439,22.3819
28.2610,22.4680
28.2610,22.9180
28.2439,23.0041
28.1951,23.0771
28.1221,23.1259
28.0360,23.1430
27.5360,23.1430
27.4499,23.1259
27.3769,23.0771
27.3281,23.0041
27.3110,22.9180
27.3110,22.4680
27.3281,22.3819
27.3769,22.3089
27.4499,22.2601
27.5360,22.2430
Z" /> 
</g>
<g >
</g>
<g >
</g>
<g >
</g>
</g>
<g style="fill:#000000; fill-opacity:1.0000; 
stroke:#000000; stroke-width:0.0000; stroke-opacity:1; 
stroke-linecap:round; stroke-linejoin:round;">
</g>
<g style="fill:#D0D2CD; fill-opacity:1.0000; 
stroke:#D0D2CD; stroke-width:0.0000; stroke-opacity:1; 
stroke-linecap:round; stroke-linejoin:round;">
</g>
<g style="fill:#D0D2CD; fill-opacity:0.0; 
stroke:#D0D2CD; stroke-width:0.1000; stroke-opacity:1; 
stroke-linecap:round; stroke-linejoin:round;">
<circle cx="70.4580" cy="41.2480" r="1.6500" /> 
</g>
<g style="fill:#D0D2CD; fill-opacity:0.0; 
stroke:#D0D2CD; stroke-width:0.2000; stroke-opacity:1; 
stroke-linecap:round; stroke-linejoin:round;">
<path style="fill:#D0D2CD; fill-opacity:0.0; 
stroke:#D0D2CD; stroke-width:0.2000; stroke-opacity:1; 
stroke-linecap:round; stroke-linejoin:round;fill:none"
d="M 0.1000,0.1000
73.2520,0.1000
73.2520,44.0420
0.1000,44.0420
Z" /> 
</g>
<g style="fill:#D0D2CD; fill-opacity:0.0; 
stroke:#D0D2CD; stroke-width:0.1000; stroke-opacity:1; 
stroke-linecap:round; stroke-linejoin:round;">
<circle cx="2.8940" cy="2.8940" r="1.6500" /> 
<circle cx="25.8800" cy="30.3260" r="1.6500" /> 
<circle cx="25.8800" cy="8.9900" r="1.6500" /> 
<circle cx="46.8360" cy="8.9900" r="1.6500" /> 
<circle cx="70.4580" cy="2.8940" r="1.6500" /> 
<circle cx="2.8940" cy="41.2480" r="1.6500" /> 
<g >
</g>
<g >
</g>
<g >
</g>
<g >
</g>
<g >
</g>
<g >
</g>
<g >
</g>
<g >
</g>
<g >
</g>
<g >
</g>
<g >
</g>
<g >
</g>
<g >
</g>
<g >
</g>
<g >
</g>
<g >
</g>
<g >
</g>
<g >
</g>
<g >
</g>
<g >
</g>
<g >
</g>
<g >
</g>
<g >
</g>
<g >
</g>
<g >
</g>
<g >
</g>
<g >
</g>
<g >
</g>
<g >
</g>
<g >
</g>
<g >
</g>
<g >
</g>
<g >
</g>
<g >
</g>
<g >
</g>
<g >
</g>
<g >
</g>
<g >
</g>
<g >
</g>
<g >
</g>
<g >
</g>
<g >
</g>
<g >
</g>
<g >
</g>
<g >
</g>
<g >
</g>
<g >
</g>
<g >
</g>
<g >
</g>
<g >
</g>
<g >
</g>
<g >
</g>
<g >
</g>
<g >
</g>
</g> 
</svg>
