%TF.GenerationSoftware,KiCad,Pcbnew,9.0.3*%
%TF.CreationDate,2025-08-07T12:56:26+02:00*%
%TF.ProjectId,auto_irrigator,6175746f-5f69-4727-9269-6761746f722e,1*%
%TF.SameCoordinates,Original*%
%TF.FileFunction,Soldermask,Top*%
%TF.FilePolarity,Negative*%
%FSLAX46Y46*%
G04 Gerber Fmt 4.6, Leading zero omitted, Abs format (unit mm)*
G04 Created by KiCad (PCBNEW 9.0.3) date 2025-08-07 12:56:26*
%MOMM*%
%LPD*%
G01*
G04 APERTURE LIST*
G04 Aperture macros list*
%AMRoundRect*
0 Rectangle with rounded corners*
0 $1 Rounding radius*
0 $2 $3 $4 $5 $6 $7 $8 $9 X,Y pos of 4 corners*
0 Add a 4 corners polygon primitive as box body*
4,1,4,$2,$3,$4,$5,$6,$7,$8,$9,$2,$3,0*
0 Add four circle primitives for the rounded corners*
1,1,$1+$1,$2,$3*
1,1,$1+$1,$4,$5*
1,1,$1+$1,$6,$7*
1,1,$1+$1,$8,$9*
0 Add four rect primitives between the rounded corners*
20,1,$1+$1,$2,$3,$4,$5,0*
20,1,$1+$1,$4,$5,$6,$7,0*
20,1,$1+$1,$6,$7,$8,$9,0*
20,1,$1+$1,$8,$9,$2,$3,0*%
G04 Aperture macros list end*
%ADD10RoundRect,0.200000X0.200000X0.275000X-0.200000X0.275000X-0.200000X-0.275000X0.200000X-0.275000X0*%
%ADD11RoundRect,0.200000X-0.200000X-0.275000X0.200000X-0.275000X0.200000X0.275000X-0.200000X0.275000X0*%
%ADD12RoundRect,0.225000X-0.225000X-0.250000X0.225000X-0.250000X0.225000X0.250000X-0.225000X0.250000X0*%
%ADD13O,1.700000X1.950000*%
%ADD14RoundRect,0.250000X-0.600000X-0.725000X0.600000X-0.725000X0.600000X0.725000X-0.600000X0.725000X0*%
%ADD15RoundRect,0.200000X0.275000X-0.200000X0.275000X0.200000X-0.275000X0.200000X-0.275000X-0.200000X0*%
%ADD16RoundRect,0.150000X0.587500X0.150000X-0.587500X0.150000X-0.587500X-0.150000X0.587500X-0.150000X0*%
%ADD17C,1.524000*%
%ADD18RoundRect,0.250000X-0.650000X1.000000X-0.650000X-1.000000X0.650000X-1.000000X0.650000X1.000000X0*%
%ADD19C,1.905000*%
%ADD20RoundRect,0.218750X0.218750X0.256250X-0.218750X0.256250X-0.218750X-0.256250X0.218750X-0.256250X0*%
%ADD21RoundRect,0.100000X-0.637500X-0.100000X0.637500X-0.100000X0.637500X0.100000X-0.637500X0.100000X0*%
%ADD22RoundRect,0.200000X-0.275000X0.200000X-0.275000X-0.200000X0.275000X-0.200000X0.275000X0.200000X0*%
%ADD23RoundRect,0.218750X-0.256250X0.218750X-0.256250X-0.218750X0.256250X-0.218750X0.256250X0.218750X0*%
%ADD24RoundRect,0.243750X-0.456250X0.243750X-0.456250X-0.243750X0.456250X-0.243750X0.456250X0.243750X0*%
%ADD25RoundRect,0.225000X-0.250000X0.225000X-0.250000X-0.225000X0.250000X-0.225000X0.250000X0.225000X0*%
%ADD26C,2.000000*%
%ADD27RoundRect,0.225000X0.225000X0.250000X-0.225000X0.250000X-0.225000X-0.250000X0.225000X-0.250000X0*%
%ADD28RoundRect,0.102000X0.750000X-0.750000X0.750000X0.750000X-0.750000X0.750000X-0.750000X-0.750000X0*%
%ADD29C,1.704000*%
%ADD30R,2.000000X1.500000*%
%ADD31R,2.000000X3.800000*%
%ADD32R,1.200000X1.200000*%
%ADD33C,1.200000*%
G04 APERTURE END LIST*
D10*
%TO.C,R15*%
X179424000Y-78740000D03*
X177774000Y-78740000D03*
%TD*%
D11*
%TO.C,R14*%
X177774000Y-77246000D03*
X179424000Y-77246000D03*
%TD*%
D12*
%TO.C,C7*%
X177774000Y-80264000D03*
X179324000Y-80264000D03*
%TD*%
D13*
%TO.C,J12*%
X198120000Y-65024000D03*
X195620000Y-65024000D03*
D14*
X193120000Y-65024000D03*
%TD*%
D15*
%TO.C,R13*%
X187706000Y-65724000D03*
X187706000Y-64074000D03*
%TD*%
D16*
%TO.C,Q9*%
X185517000Y-65786000D03*
X185517000Y-63886000D03*
X183642000Y-64836000D03*
%TD*%
D13*
%TO.C,J9*%
X198146000Y-71120000D03*
X195646000Y-71120000D03*
D14*
X193146000Y-71120000D03*
%TD*%
D15*
%TO.C,R11*%
X187706000Y-70232000D03*
X187706000Y-71882000D03*
%TD*%
D16*
%TO.C,Q7*%
X183642000Y-71004000D03*
X185517000Y-70054000D03*
X185517000Y-71954000D03*
%TD*%
D14*
%TO.C,J7*%
X193146000Y-83312000D03*
D13*
X195646000Y-83312000D03*
X198146000Y-83312000D03*
%TD*%
D15*
%TO.C,R12*%
X187690500Y-77912000D03*
X187690500Y-76262000D03*
%TD*%
D16*
%TO.C,Q8*%
X185501500Y-78100000D03*
X185501500Y-76200000D03*
X183626500Y-77150000D03*
%TD*%
%TO.C,Q5*%
X185517000Y-84146000D03*
X185517000Y-82246000D03*
X183642000Y-83196000D03*
%TD*%
D15*
%TO.C,R7*%
X187706000Y-83958000D03*
X187706000Y-82308000D03*
%TD*%
D14*
%TO.C,J10*%
X193146000Y-77206000D03*
D13*
X195646000Y-77206000D03*
X198146000Y-77206000D03*
%TD*%
%TO.C,J8*%
X198146000Y-89444000D03*
X195646000Y-89444000D03*
D14*
X193146000Y-89444000D03*
%TD*%
D15*
%TO.C,R8*%
X187706000Y-88646000D03*
X187706000Y-90296000D03*
%TD*%
D16*
%TO.C,Q6*%
X183642000Y-89408000D03*
X185517000Y-88458000D03*
X185517000Y-90358000D03*
%TD*%
D17*
%TO.C,J11*%
X166878000Y-76454000D03*
X169418000Y-76454000D03*
X171958000Y-76454000D03*
X174498000Y-76454000D03*
%TD*%
D18*
%TO.C,D4*%
X145738500Y-73914000D03*
X145738500Y-77914000D03*
%TD*%
D19*
%TO.C,J2*%
X138880500Y-65610000D03*
X138880500Y-69010000D03*
%TD*%
D12*
%TO.C,C6*%
X200647000Y-93726000D03*
X202197000Y-93726000D03*
%TD*%
D19*
%TO.C,J4*%
X138880500Y-82804000D03*
X138880500Y-86204000D03*
%TD*%
D10*
%TO.C,R2*%
X154071000Y-77028000D03*
X152421000Y-77028000D03*
%TD*%
D14*
%TO.C,J6*%
X165434000Y-66802000D03*
D13*
X167934000Y-66802000D03*
X170434000Y-66802000D03*
X172934000Y-66802000D03*
%TD*%
D20*
%TO.C,D6*%
X153949500Y-92456000D03*
X152374500Y-92456000D03*
%TD*%
D10*
%TO.C,R3*%
X153995000Y-85852000D03*
X152345000Y-85852000D03*
%TD*%
D16*
%TO.C,Q1*%
X150564500Y-68514000D03*
X150564500Y-66614000D03*
X148689500Y-67564000D03*
%TD*%
D19*
%TO.C,J1*%
X183388000Y-96774000D03*
X186788000Y-96774000D03*
%TD*%
D21*
%TO.C,U1*%
X166555500Y-79625000D03*
X166555500Y-80275000D03*
X166555500Y-80925000D03*
X166555500Y-81575000D03*
X166555500Y-82225000D03*
X166555500Y-82875000D03*
X166555500Y-83525000D03*
X166555500Y-84175000D03*
X166555500Y-84825000D03*
X166555500Y-85475000D03*
X172280500Y-85475000D03*
X172280500Y-84825000D03*
X172280500Y-84175000D03*
X172280500Y-83525000D03*
X172280500Y-82875000D03*
X172280500Y-82225000D03*
X172280500Y-81575000D03*
X172280500Y-80925000D03*
X172280500Y-80275000D03*
X172280500Y-79625000D03*
%TD*%
D18*
%TO.C,D3*%
X145738500Y-65310000D03*
X145738500Y-69310000D03*
%TD*%
D10*
%TO.C,R1*%
X154071000Y-68580000D03*
X152421000Y-68580000D03*
%TD*%
D19*
%TO.C,J5*%
X138880500Y-91264000D03*
X138880500Y-94664000D03*
%TD*%
D18*
%TO.C,D8*%
X145738500Y-90964000D03*
X145738500Y-94964000D03*
%TD*%
D22*
%TO.C,R10*%
X180086000Y-89028000D03*
X180086000Y-90678000D03*
%TD*%
D15*
%TO.C,R6*%
X158496000Y-76600250D03*
X158496000Y-74950250D03*
%TD*%
D23*
%TO.C,D9*%
X160528000Y-71779750D03*
X160528000Y-73354750D03*
%TD*%
D24*
%TO.C,D10*%
X158496000Y-71551250D03*
X158496000Y-73426250D03*
%TD*%
D25*
%TO.C,C5*%
X162306000Y-80759000D03*
X162306000Y-82309000D03*
%TD*%
D20*
%TO.C,D2*%
X154017500Y-75184000D03*
X152442500Y-75184000D03*
%TD*%
D26*
%TO.C,SW1*%
X191874000Y-94488000D03*
X198374000Y-94488000D03*
X191874000Y-98988000D03*
X198374000Y-98988000D03*
%TD*%
D15*
%TO.C,R5*%
X160528000Y-76631250D03*
X160528000Y-74981250D03*
%TD*%
D16*
%TO.C,Q3*%
X150488500Y-85776000D03*
X150488500Y-83876000D03*
X148613500Y-84826000D03*
%TD*%
D27*
%TO.C,C1*%
X160541000Y-96012000D03*
X158991000Y-96012000D03*
%TD*%
D18*
%TO.C,D7*%
X145738500Y-82550000D03*
X145738500Y-86550000D03*
%TD*%
D19*
%TO.C,J3*%
X138880500Y-74324000D03*
X138880500Y-77724000D03*
%TD*%
D20*
%TO.C,D5*%
X153975000Y-84074000D03*
X152400000Y-84074000D03*
%TD*%
D28*
%TO.C,U3*%
X175006000Y-95758000D03*
D29*
X175006000Y-93218000D03*
X175006000Y-90678000D03*
X175006000Y-88138000D03*
X177546000Y-95758000D03*
X177546000Y-93218000D03*
X177546000Y-90678000D03*
X177546000Y-88138000D03*
%TD*%
D27*
%TO.C,C2*%
X166904000Y-90932000D03*
X165354000Y-90932000D03*
%TD*%
D10*
%TO.C,R9*%
X202247000Y-95187000D03*
X200597000Y-95187000D03*
%TD*%
D30*
%TO.C,U2*%
X162966000Y-93204000D03*
X162966000Y-95504000D03*
D31*
X169266000Y-95504000D03*
D30*
X162966000Y-97804000D03*
%TD*%
D16*
%TO.C,Q2*%
X150564500Y-76830000D03*
X150564500Y-74930000D03*
X148689500Y-75880000D03*
%TD*%
D32*
%TO.C,C3*%
X159106000Y-93686600D03*
D33*
X159106000Y-92186600D03*
%TD*%
D16*
%TO.C,Q4*%
X150486000Y-94026000D03*
X150486000Y-92126000D03*
X148611000Y-93076000D03*
%TD*%
D10*
%TO.C,R4*%
X153992500Y-94234000D03*
X152342500Y-94234000D03*
%TD*%
D20*
%TO.C,D1*%
X154017500Y-66802000D03*
X152442500Y-66802000D03*
%TD*%
D25*
%TO.C,C4*%
X160528000Y-80759000D03*
X160528000Y-82309000D03*
%TD*%
M02*
