M48
; DRILL file {KiCad 9.0.3} date 2025-08-07T12:55:23+0200
; FORMAT={-:-/ absolute / metric / decimal}
; #@! TF.CreationDate,2025-08-07T12:55:23+02:00
; #@! TF.GenerationSoftware,Kicad,Pcbnew,9.0.3
; #@! TF.FileFunction,Plated,1,2,PTH
FMAT,2
METRIC
; #@! TA.AperFunction,Plated,PTH,ViaDrill
T1C0.400
; #@! TA.AperFunction,Plated,PTH,ComponentDrill
T2C0.600
; #@! TA.AperFunction,Plated,PTH,ComponentDrill
T3C0.800
; #@! TA.AperFunction,Plated,PTH,ComponentDrill
T4C0.900
; #@! TA.AperFunction,Plated,PTH,ComponentDrill
T5C0.950
; #@! TA.AperFunction,Plated,PTH,ComponentDrill
T6C1.100
%
G90
G05
T1
X143.256Y-67.31
X143.256Y-71.628
X143.256Y-75.946
X143.256Y-80.264
X143.256Y-84.582
X143.256Y-88.9
X143.256Y-92.964
X150.622Y-71.628
X150.622Y-80.264
X150.622Y-88.9
X155.448Y-84.836
X157.734Y-80.264
X163.068Y-88.9
X166.116Y-93.218
X166.116Y-97.79
X167.894Y-63.754
X168.148Y-81.534
X169.164Y-71.628
X171.191Y-90.429
X172.027Y-90.977
X172.974Y-94.488
X172.979Y-90.165
X175.514Y-81.788
X177.8Y-82.15
X179.07Y-73.406
X179.07Y-81.788
X179.075Y-85.085
X179.324Y-76.0
X179.578Y-94.488
X179.837Y-91.953
X185.166Y-94.488
X189.23Y-68.58
X189.23Y-74.168
X189.23Y-92.202
X189.296Y-80.818
X189.296Y-86.396
X202.184Y-96.52
X202.438Y-91.44
T2
X159.106Y-92.187
X159.106Y-93.687
T3
X175.006Y-88.138
X175.006Y-90.678
X175.006Y-93.218
X175.006Y-95.758
X177.546Y-88.138
X177.546Y-90.678
X177.546Y-93.218
X177.546Y-95.758
T4
X138.88Y-65.61
X138.88Y-69.01
X138.88Y-74.324
X138.88Y-77.724
X138.88Y-82.804
X138.88Y-86.204
X138.88Y-91.264
X138.88Y-94.664
X183.388Y-96.774
X186.788Y-96.774
T5
X165.434Y-66.802
X166.878Y-76.454
X167.934Y-66.802
X169.418Y-76.454
X170.434Y-66.802
X171.958Y-76.454
X172.934Y-66.802
X174.498Y-76.454
X193.12Y-65.024
X193.146Y-71.12
X193.146Y-77.206
X193.146Y-83.312
X193.146Y-89.444
X195.62Y-65.024
X195.646Y-71.12
X195.646Y-77.206
X195.646Y-83.312
X195.646Y-89.444
X198.12Y-65.024
X198.146Y-71.12
X198.146Y-77.206
X198.146Y-83.312
X198.146Y-89.444
T6
X191.874Y-94.488
X191.874Y-98.988
X198.374Y-94.488
X198.374Y-98.988
M30
