%TF.GenerationSoftware,KiCad,Pcbnew,9.0.3*%
%TF.CreationDate,2025-08-07T12:56:26+02:00*%
%TF.ProjectId,auto_irrigator,6175746f-5f69-4727-9269-6761746f722e,1*%
%TF.SameCoordinates,Original*%
%TF.FileFunction,Legend,Top*%
%TF.FilePolarity,Positive*%
%FSLAX46Y46*%
G04 Gerber Fmt 4.6, Leading zero omitted, Abs format (unit mm)*
G04 Created by KiCad (PCBNEW 9.0.3) date 2025-08-07 12:56:26*
%MOMM*%
%LPD*%
G01*
G04 APERTURE LIST*
%ADD10C,0.150000*%
%ADD11C,0.100000*%
%ADD12C,0.120000*%
%ADD13C,0.254000*%
G04 APERTURE END LIST*
D10*
X168183160Y-73736200D02*
X168326017Y-73783819D01*
X168326017Y-73783819D02*
X168564112Y-73783819D01*
X168564112Y-73783819D02*
X168659350Y-73736200D01*
X168659350Y-73736200D02*
X168706969Y-73688580D01*
X168706969Y-73688580D02*
X168754588Y-73593342D01*
X168754588Y-73593342D02*
X168754588Y-73498104D01*
X168754588Y-73498104D02*
X168706969Y-73402866D01*
X168706969Y-73402866D02*
X168659350Y-73355247D01*
X168659350Y-73355247D02*
X168564112Y-73307628D01*
X168564112Y-73307628D02*
X168373636Y-73260009D01*
X168373636Y-73260009D02*
X168278398Y-73212390D01*
X168278398Y-73212390D02*
X168230779Y-73164771D01*
X168230779Y-73164771D02*
X168183160Y-73069533D01*
X168183160Y-73069533D02*
X168183160Y-72974295D01*
X168183160Y-72974295D02*
X168230779Y-72879057D01*
X168230779Y-72879057D02*
X168278398Y-72831438D01*
X168278398Y-72831438D02*
X168373636Y-72783819D01*
X168373636Y-72783819D02*
X168611731Y-72783819D01*
X168611731Y-72783819D02*
X168754588Y-72831438D01*
X169087922Y-72783819D02*
X169326017Y-73783819D01*
X169326017Y-73783819D02*
X169516493Y-73069533D01*
X169516493Y-73069533D02*
X169706969Y-73783819D01*
X169706969Y-73783819D02*
X169945065Y-72783819D01*
X170326017Y-73783819D02*
X170326017Y-72783819D01*
X170326017Y-72783819D02*
X170564112Y-72783819D01*
X170564112Y-72783819D02*
X170706969Y-72831438D01*
X170706969Y-72831438D02*
X170802207Y-72926676D01*
X170802207Y-72926676D02*
X170849826Y-73021914D01*
X170849826Y-73021914D02*
X170897445Y-73212390D01*
X170897445Y-73212390D02*
X170897445Y-73355247D01*
X170897445Y-73355247D02*
X170849826Y-73545723D01*
X170849826Y-73545723D02*
X170802207Y-73640961D01*
X170802207Y-73640961D02*
X170706969Y-73736200D01*
X170706969Y-73736200D02*
X170564112Y-73783819D01*
X170564112Y-73783819D02*
X170326017Y-73783819D01*
X180713142Y-79194819D02*
X180379809Y-78718628D01*
X180141714Y-79194819D02*
X180141714Y-78194819D01*
X180141714Y-78194819D02*
X180522666Y-78194819D01*
X180522666Y-78194819D02*
X180617904Y-78242438D01*
X180617904Y-78242438D02*
X180665523Y-78290057D01*
X180665523Y-78290057D02*
X180713142Y-78385295D01*
X180713142Y-78385295D02*
X180713142Y-78528152D01*
X180713142Y-78528152D02*
X180665523Y-78623390D01*
X180665523Y-78623390D02*
X180617904Y-78671009D01*
X180617904Y-78671009D02*
X180522666Y-78718628D01*
X180522666Y-78718628D02*
X180141714Y-78718628D01*
X181665523Y-79194819D02*
X181094095Y-79194819D01*
X181379809Y-79194819D02*
X181379809Y-78194819D01*
X181379809Y-78194819D02*
X181284571Y-78337676D01*
X181284571Y-78337676D02*
X181189333Y-78432914D01*
X181189333Y-78432914D02*
X181094095Y-78480533D01*
X182570285Y-78194819D02*
X182094095Y-78194819D01*
X182094095Y-78194819D02*
X182046476Y-78671009D01*
X182046476Y-78671009D02*
X182094095Y-78623390D01*
X182094095Y-78623390D02*
X182189333Y-78575771D01*
X182189333Y-78575771D02*
X182427428Y-78575771D01*
X182427428Y-78575771D02*
X182522666Y-78623390D01*
X182522666Y-78623390D02*
X182570285Y-78671009D01*
X182570285Y-78671009D02*
X182617904Y-78766247D01*
X182617904Y-78766247D02*
X182617904Y-79004342D01*
X182617904Y-79004342D02*
X182570285Y-79099580D01*
X182570285Y-79099580D02*
X182522666Y-79147200D01*
X182522666Y-79147200D02*
X182427428Y-79194819D01*
X182427428Y-79194819D02*
X182189333Y-79194819D01*
X182189333Y-79194819D02*
X182094095Y-79147200D01*
X182094095Y-79147200D02*
X182046476Y-79099580D01*
X177956142Y-76270819D02*
X177622809Y-75794628D01*
X177384714Y-76270819D02*
X177384714Y-75270819D01*
X177384714Y-75270819D02*
X177765666Y-75270819D01*
X177765666Y-75270819D02*
X177860904Y-75318438D01*
X177860904Y-75318438D02*
X177908523Y-75366057D01*
X177908523Y-75366057D02*
X177956142Y-75461295D01*
X177956142Y-75461295D02*
X177956142Y-75604152D01*
X177956142Y-75604152D02*
X177908523Y-75699390D01*
X177908523Y-75699390D02*
X177860904Y-75747009D01*
X177860904Y-75747009D02*
X177765666Y-75794628D01*
X177765666Y-75794628D02*
X177384714Y-75794628D01*
X178908523Y-76270819D02*
X178337095Y-76270819D01*
X178622809Y-76270819D02*
X178622809Y-75270819D01*
X178622809Y-75270819D02*
X178527571Y-75413676D01*
X178527571Y-75413676D02*
X178432333Y-75508914D01*
X178432333Y-75508914D02*
X178337095Y-75556533D01*
X179765666Y-75604152D02*
X179765666Y-76270819D01*
X179527571Y-75223200D02*
X179289476Y-75937485D01*
X179289476Y-75937485D02*
X179908523Y-75937485D01*
X178903333Y-82147580D02*
X178855714Y-82195200D01*
X178855714Y-82195200D02*
X178712857Y-82242819D01*
X178712857Y-82242819D02*
X178617619Y-82242819D01*
X178617619Y-82242819D02*
X178474762Y-82195200D01*
X178474762Y-82195200D02*
X178379524Y-82099961D01*
X178379524Y-82099961D02*
X178331905Y-82004723D01*
X178331905Y-82004723D02*
X178284286Y-81814247D01*
X178284286Y-81814247D02*
X178284286Y-81671390D01*
X178284286Y-81671390D02*
X178331905Y-81480914D01*
X178331905Y-81480914D02*
X178379524Y-81385676D01*
X178379524Y-81385676D02*
X178474762Y-81290438D01*
X178474762Y-81290438D02*
X178617619Y-81242819D01*
X178617619Y-81242819D02*
X178712857Y-81242819D01*
X178712857Y-81242819D02*
X178855714Y-81290438D01*
X178855714Y-81290438D02*
X178903333Y-81338057D01*
X179236667Y-81242819D02*
X179903333Y-81242819D01*
X179903333Y-81242819D02*
X179474762Y-82242819D01*
X194810476Y-61678819D02*
X194810476Y-62393104D01*
X194810476Y-62393104D02*
X194762857Y-62535961D01*
X194762857Y-62535961D02*
X194667619Y-62631200D01*
X194667619Y-62631200D02*
X194524762Y-62678819D01*
X194524762Y-62678819D02*
X194429524Y-62678819D01*
X195810476Y-62678819D02*
X195239048Y-62678819D01*
X195524762Y-62678819D02*
X195524762Y-61678819D01*
X195524762Y-61678819D02*
X195429524Y-61821676D01*
X195429524Y-61821676D02*
X195334286Y-61916914D01*
X195334286Y-61916914D02*
X195239048Y-61964533D01*
X196191429Y-61774057D02*
X196239048Y-61726438D01*
X196239048Y-61726438D02*
X196334286Y-61678819D01*
X196334286Y-61678819D02*
X196572381Y-61678819D01*
X196572381Y-61678819D02*
X196667619Y-61726438D01*
X196667619Y-61726438D02*
X196715238Y-61774057D01*
X196715238Y-61774057D02*
X196762857Y-61869295D01*
X196762857Y-61869295D02*
X196762857Y-61964533D01*
X196762857Y-61964533D02*
X196715238Y-62107390D01*
X196715238Y-62107390D02*
X196143810Y-62678819D01*
X196143810Y-62678819D02*
X196762857Y-62678819D01*
X201861009Y-67111333D02*
X201861009Y-67444666D01*
X202384819Y-67444666D02*
X201384819Y-67444666D01*
X201384819Y-67444666D02*
X201384819Y-66968476D01*
X202384819Y-66111333D02*
X202384819Y-66587523D01*
X202384819Y-66587523D02*
X201384819Y-66587523D01*
X201384819Y-65587523D02*
X201384819Y-65397047D01*
X201384819Y-65397047D02*
X201432438Y-65301809D01*
X201432438Y-65301809D02*
X201527676Y-65206571D01*
X201527676Y-65206571D02*
X201718152Y-65158952D01*
X201718152Y-65158952D02*
X202051485Y-65158952D01*
X202051485Y-65158952D02*
X202241961Y-65206571D01*
X202241961Y-65206571D02*
X202337200Y-65301809D01*
X202337200Y-65301809D02*
X202384819Y-65397047D01*
X202384819Y-65397047D02*
X202384819Y-65587523D01*
X202384819Y-65587523D02*
X202337200Y-65682761D01*
X202337200Y-65682761D02*
X202241961Y-65777999D01*
X202241961Y-65777999D02*
X202051485Y-65825618D01*
X202051485Y-65825618D02*
X201718152Y-65825618D01*
X201718152Y-65825618D02*
X201527676Y-65777999D01*
X201527676Y-65777999D02*
X201432438Y-65682761D01*
X201432438Y-65682761D02*
X201384819Y-65587523D01*
X201384819Y-64825618D02*
X202384819Y-64587523D01*
X202384819Y-64587523D02*
X201670533Y-64397047D01*
X201670533Y-64397047D02*
X202384819Y-64206571D01*
X202384819Y-64206571D02*
X201384819Y-63968476D01*
X201384819Y-63111333D02*
X201384819Y-63587523D01*
X201384819Y-63587523D02*
X201861009Y-63635142D01*
X201861009Y-63635142D02*
X201813390Y-63587523D01*
X201813390Y-63587523D02*
X201765771Y-63492285D01*
X201765771Y-63492285D02*
X201765771Y-63254190D01*
X201765771Y-63254190D02*
X201813390Y-63158952D01*
X201813390Y-63158952D02*
X201861009Y-63111333D01*
X201861009Y-63111333D02*
X201956247Y-63063714D01*
X201956247Y-63063714D02*
X202194342Y-63063714D01*
X202194342Y-63063714D02*
X202289580Y-63111333D01*
X202289580Y-63111333D02*
X202337200Y-63158952D01*
X202337200Y-63158952D02*
X202384819Y-63254190D01*
X202384819Y-63254190D02*
X202384819Y-63492285D01*
X202384819Y-63492285D02*
X202337200Y-63587523D01*
X202337200Y-63587523D02*
X202289580Y-63635142D01*
X189684819Y-65541857D02*
X189208628Y-65875190D01*
X189684819Y-66113285D02*
X188684819Y-66113285D01*
X188684819Y-66113285D02*
X188684819Y-65732333D01*
X188684819Y-65732333D02*
X188732438Y-65637095D01*
X188732438Y-65637095D02*
X188780057Y-65589476D01*
X188780057Y-65589476D02*
X188875295Y-65541857D01*
X188875295Y-65541857D02*
X189018152Y-65541857D01*
X189018152Y-65541857D02*
X189113390Y-65589476D01*
X189113390Y-65589476D02*
X189161009Y-65637095D01*
X189161009Y-65637095D02*
X189208628Y-65732333D01*
X189208628Y-65732333D02*
X189208628Y-66113285D01*
X189684819Y-64589476D02*
X189684819Y-65160904D01*
X189684819Y-64875190D02*
X188684819Y-64875190D01*
X188684819Y-64875190D02*
X188827676Y-64970428D01*
X188827676Y-64970428D02*
X188922914Y-65065666D01*
X188922914Y-65065666D02*
X188970533Y-65160904D01*
X188684819Y-64256142D02*
X188684819Y-63637095D01*
X188684819Y-63637095D02*
X189065771Y-63970428D01*
X189065771Y-63970428D02*
X189065771Y-63827571D01*
X189065771Y-63827571D02*
X189113390Y-63732333D01*
X189113390Y-63732333D02*
X189161009Y-63684714D01*
X189161009Y-63684714D02*
X189256247Y-63637095D01*
X189256247Y-63637095D02*
X189494342Y-63637095D01*
X189494342Y-63637095D02*
X189589580Y-63684714D01*
X189589580Y-63684714D02*
X189637200Y-63732333D01*
X189637200Y-63732333D02*
X189684819Y-63827571D01*
X189684819Y-63827571D02*
X189684819Y-64113285D01*
X189684819Y-64113285D02*
X189637200Y-64208523D01*
X189637200Y-64208523D02*
X189589580Y-64256142D01*
X184484261Y-67786057D02*
X184389023Y-67738438D01*
X184389023Y-67738438D02*
X184293785Y-67643200D01*
X184293785Y-67643200D02*
X184150928Y-67500342D01*
X184150928Y-67500342D02*
X184055690Y-67452723D01*
X184055690Y-67452723D02*
X183960452Y-67452723D01*
X184008071Y-67690819D02*
X183912833Y-67643200D01*
X183912833Y-67643200D02*
X183817595Y-67547961D01*
X183817595Y-67547961D02*
X183769976Y-67357485D01*
X183769976Y-67357485D02*
X183769976Y-67024152D01*
X183769976Y-67024152D02*
X183817595Y-66833676D01*
X183817595Y-66833676D02*
X183912833Y-66738438D01*
X183912833Y-66738438D02*
X184008071Y-66690819D01*
X184008071Y-66690819D02*
X184198547Y-66690819D01*
X184198547Y-66690819D02*
X184293785Y-66738438D01*
X184293785Y-66738438D02*
X184389023Y-66833676D01*
X184389023Y-66833676D02*
X184436642Y-67024152D01*
X184436642Y-67024152D02*
X184436642Y-67357485D01*
X184436642Y-67357485D02*
X184389023Y-67547961D01*
X184389023Y-67547961D02*
X184293785Y-67643200D01*
X184293785Y-67643200D02*
X184198547Y-67690819D01*
X184198547Y-67690819D02*
X184008071Y-67690819D01*
X184912833Y-67690819D02*
X185103309Y-67690819D01*
X185103309Y-67690819D02*
X185198547Y-67643200D01*
X185198547Y-67643200D02*
X185246166Y-67595580D01*
X185246166Y-67595580D02*
X185341404Y-67452723D01*
X185341404Y-67452723D02*
X185389023Y-67262247D01*
X185389023Y-67262247D02*
X185389023Y-66881295D01*
X185389023Y-66881295D02*
X185341404Y-66786057D01*
X185341404Y-66786057D02*
X185293785Y-66738438D01*
X185293785Y-66738438D02*
X185198547Y-66690819D01*
X185198547Y-66690819D02*
X185008071Y-66690819D01*
X185008071Y-66690819D02*
X184912833Y-66738438D01*
X184912833Y-66738438D02*
X184865214Y-66786057D01*
X184865214Y-66786057D02*
X184817595Y-66881295D01*
X184817595Y-66881295D02*
X184817595Y-67119390D01*
X184817595Y-67119390D02*
X184865214Y-67214628D01*
X184865214Y-67214628D02*
X184912833Y-67262247D01*
X184912833Y-67262247D02*
X185008071Y-67309866D01*
X185008071Y-67309866D02*
X185198547Y-67309866D01*
X185198547Y-67309866D02*
X185293785Y-67262247D01*
X185293785Y-67262247D02*
X185341404Y-67214628D01*
X185341404Y-67214628D02*
X185389023Y-67119390D01*
X195312666Y-68080819D02*
X195312666Y-68795104D01*
X195312666Y-68795104D02*
X195265047Y-68937961D01*
X195265047Y-68937961D02*
X195169809Y-69033200D01*
X195169809Y-69033200D02*
X195026952Y-69080819D01*
X195026952Y-69080819D02*
X194931714Y-69080819D01*
X195836476Y-69080819D02*
X196026952Y-69080819D01*
X196026952Y-69080819D02*
X196122190Y-69033200D01*
X196122190Y-69033200D02*
X196169809Y-68985580D01*
X196169809Y-68985580D02*
X196265047Y-68842723D01*
X196265047Y-68842723D02*
X196312666Y-68652247D01*
X196312666Y-68652247D02*
X196312666Y-68271295D01*
X196312666Y-68271295D02*
X196265047Y-68176057D01*
X196265047Y-68176057D02*
X196217428Y-68128438D01*
X196217428Y-68128438D02*
X196122190Y-68080819D01*
X196122190Y-68080819D02*
X195931714Y-68080819D01*
X195931714Y-68080819D02*
X195836476Y-68128438D01*
X195836476Y-68128438D02*
X195788857Y-68176057D01*
X195788857Y-68176057D02*
X195741238Y-68271295D01*
X195741238Y-68271295D02*
X195741238Y-68509390D01*
X195741238Y-68509390D02*
X195788857Y-68604628D01*
X195788857Y-68604628D02*
X195836476Y-68652247D01*
X195836476Y-68652247D02*
X195931714Y-68699866D01*
X195931714Y-68699866D02*
X196122190Y-68699866D01*
X196122190Y-68699866D02*
X196217428Y-68652247D01*
X196217428Y-68652247D02*
X196265047Y-68604628D01*
X196265047Y-68604628D02*
X196312666Y-68509390D01*
X201927009Y-73253333D02*
X201927009Y-73586666D01*
X202450819Y-73586666D02*
X201450819Y-73586666D01*
X201450819Y-73586666D02*
X201450819Y-73110476D01*
X202450819Y-72253333D02*
X202450819Y-72729523D01*
X202450819Y-72729523D02*
X201450819Y-72729523D01*
X201450819Y-71729523D02*
X201450819Y-71539047D01*
X201450819Y-71539047D02*
X201498438Y-71443809D01*
X201498438Y-71443809D02*
X201593676Y-71348571D01*
X201593676Y-71348571D02*
X201784152Y-71300952D01*
X201784152Y-71300952D02*
X202117485Y-71300952D01*
X202117485Y-71300952D02*
X202307961Y-71348571D01*
X202307961Y-71348571D02*
X202403200Y-71443809D01*
X202403200Y-71443809D02*
X202450819Y-71539047D01*
X202450819Y-71539047D02*
X202450819Y-71729523D01*
X202450819Y-71729523D02*
X202403200Y-71824761D01*
X202403200Y-71824761D02*
X202307961Y-71919999D01*
X202307961Y-71919999D02*
X202117485Y-71967618D01*
X202117485Y-71967618D02*
X201784152Y-71967618D01*
X201784152Y-71967618D02*
X201593676Y-71919999D01*
X201593676Y-71919999D02*
X201498438Y-71824761D01*
X201498438Y-71824761D02*
X201450819Y-71729523D01*
X201450819Y-70967618D02*
X202450819Y-70729523D01*
X202450819Y-70729523D02*
X201736533Y-70539047D01*
X201736533Y-70539047D02*
X202450819Y-70348571D01*
X202450819Y-70348571D02*
X201450819Y-70110476D01*
X201546057Y-69777142D02*
X201498438Y-69729523D01*
X201498438Y-69729523D02*
X201450819Y-69634285D01*
X201450819Y-69634285D02*
X201450819Y-69396190D01*
X201450819Y-69396190D02*
X201498438Y-69300952D01*
X201498438Y-69300952D02*
X201546057Y-69253333D01*
X201546057Y-69253333D02*
X201641295Y-69205714D01*
X201641295Y-69205714D02*
X201736533Y-69205714D01*
X201736533Y-69205714D02*
X201879390Y-69253333D01*
X201879390Y-69253333D02*
X202450819Y-69824761D01*
X202450819Y-69824761D02*
X202450819Y-69205714D01*
X189684819Y-71699857D02*
X189208628Y-72033190D01*
X189684819Y-72271285D02*
X188684819Y-72271285D01*
X188684819Y-72271285D02*
X188684819Y-71890333D01*
X188684819Y-71890333D02*
X188732438Y-71795095D01*
X188732438Y-71795095D02*
X188780057Y-71747476D01*
X188780057Y-71747476D02*
X188875295Y-71699857D01*
X188875295Y-71699857D02*
X189018152Y-71699857D01*
X189018152Y-71699857D02*
X189113390Y-71747476D01*
X189113390Y-71747476D02*
X189161009Y-71795095D01*
X189161009Y-71795095D02*
X189208628Y-71890333D01*
X189208628Y-71890333D02*
X189208628Y-72271285D01*
X189684819Y-70747476D02*
X189684819Y-71318904D01*
X189684819Y-71033190D02*
X188684819Y-71033190D01*
X188684819Y-71033190D02*
X188827676Y-71128428D01*
X188827676Y-71128428D02*
X188922914Y-71223666D01*
X188922914Y-71223666D02*
X188970533Y-71318904D01*
X189684819Y-69795095D02*
X189684819Y-70366523D01*
X189684819Y-70080809D02*
X188684819Y-70080809D01*
X188684819Y-70080809D02*
X188827676Y-70176047D01*
X188827676Y-70176047D02*
X188922914Y-70271285D01*
X188922914Y-70271285D02*
X188970533Y-70366523D01*
X184484261Y-73954057D02*
X184389023Y-73906438D01*
X184389023Y-73906438D02*
X184293785Y-73811200D01*
X184293785Y-73811200D02*
X184150928Y-73668342D01*
X184150928Y-73668342D02*
X184055690Y-73620723D01*
X184055690Y-73620723D02*
X183960452Y-73620723D01*
X184008071Y-73858819D02*
X183912833Y-73811200D01*
X183912833Y-73811200D02*
X183817595Y-73715961D01*
X183817595Y-73715961D02*
X183769976Y-73525485D01*
X183769976Y-73525485D02*
X183769976Y-73192152D01*
X183769976Y-73192152D02*
X183817595Y-73001676D01*
X183817595Y-73001676D02*
X183912833Y-72906438D01*
X183912833Y-72906438D02*
X184008071Y-72858819D01*
X184008071Y-72858819D02*
X184198547Y-72858819D01*
X184198547Y-72858819D02*
X184293785Y-72906438D01*
X184293785Y-72906438D02*
X184389023Y-73001676D01*
X184389023Y-73001676D02*
X184436642Y-73192152D01*
X184436642Y-73192152D02*
X184436642Y-73525485D01*
X184436642Y-73525485D02*
X184389023Y-73715961D01*
X184389023Y-73715961D02*
X184293785Y-73811200D01*
X184293785Y-73811200D02*
X184198547Y-73858819D01*
X184198547Y-73858819D02*
X184008071Y-73858819D01*
X184769976Y-72858819D02*
X185436642Y-72858819D01*
X185436642Y-72858819D02*
X185008071Y-73858819D01*
X195312666Y-80272819D02*
X195312666Y-80987104D01*
X195312666Y-80987104D02*
X195265047Y-81129961D01*
X195265047Y-81129961D02*
X195169809Y-81225200D01*
X195169809Y-81225200D02*
X195026952Y-81272819D01*
X195026952Y-81272819D02*
X194931714Y-81272819D01*
X195693619Y-80272819D02*
X196360285Y-80272819D01*
X196360285Y-80272819D02*
X195931714Y-81272819D01*
X201927009Y-85445333D02*
X201927009Y-85778666D01*
X202450819Y-85778666D02*
X201450819Y-85778666D01*
X201450819Y-85778666D02*
X201450819Y-85302476D01*
X202450819Y-84445333D02*
X202450819Y-84921523D01*
X202450819Y-84921523D02*
X201450819Y-84921523D01*
X201450819Y-83921523D02*
X201450819Y-83731047D01*
X201450819Y-83731047D02*
X201498438Y-83635809D01*
X201498438Y-83635809D02*
X201593676Y-83540571D01*
X201593676Y-83540571D02*
X201784152Y-83492952D01*
X201784152Y-83492952D02*
X202117485Y-83492952D01*
X202117485Y-83492952D02*
X202307961Y-83540571D01*
X202307961Y-83540571D02*
X202403200Y-83635809D01*
X202403200Y-83635809D02*
X202450819Y-83731047D01*
X202450819Y-83731047D02*
X202450819Y-83921523D01*
X202450819Y-83921523D02*
X202403200Y-84016761D01*
X202403200Y-84016761D02*
X202307961Y-84111999D01*
X202307961Y-84111999D02*
X202117485Y-84159618D01*
X202117485Y-84159618D02*
X201784152Y-84159618D01*
X201784152Y-84159618D02*
X201593676Y-84111999D01*
X201593676Y-84111999D02*
X201498438Y-84016761D01*
X201498438Y-84016761D02*
X201450819Y-83921523D01*
X201450819Y-83159618D02*
X202450819Y-82921523D01*
X202450819Y-82921523D02*
X201736533Y-82731047D01*
X201736533Y-82731047D02*
X202450819Y-82540571D01*
X202450819Y-82540571D02*
X201450819Y-82302476D01*
X201784152Y-81492952D02*
X202450819Y-81492952D01*
X201403200Y-81731047D02*
X202117485Y-81969142D01*
X202117485Y-81969142D02*
X202117485Y-81350095D01*
X189669319Y-77729857D02*
X189193128Y-78063190D01*
X189669319Y-78301285D02*
X188669319Y-78301285D01*
X188669319Y-78301285D02*
X188669319Y-77920333D01*
X188669319Y-77920333D02*
X188716938Y-77825095D01*
X188716938Y-77825095D02*
X188764557Y-77777476D01*
X188764557Y-77777476D02*
X188859795Y-77729857D01*
X188859795Y-77729857D02*
X189002652Y-77729857D01*
X189002652Y-77729857D02*
X189097890Y-77777476D01*
X189097890Y-77777476D02*
X189145509Y-77825095D01*
X189145509Y-77825095D02*
X189193128Y-77920333D01*
X189193128Y-77920333D02*
X189193128Y-78301285D01*
X189669319Y-76777476D02*
X189669319Y-77348904D01*
X189669319Y-77063190D02*
X188669319Y-77063190D01*
X188669319Y-77063190D02*
X188812176Y-77158428D01*
X188812176Y-77158428D02*
X188907414Y-77253666D01*
X188907414Y-77253666D02*
X188955033Y-77348904D01*
X188764557Y-76396523D02*
X188716938Y-76348904D01*
X188716938Y-76348904D02*
X188669319Y-76253666D01*
X188669319Y-76253666D02*
X188669319Y-76015571D01*
X188669319Y-76015571D02*
X188716938Y-75920333D01*
X188716938Y-75920333D02*
X188764557Y-75872714D01*
X188764557Y-75872714D02*
X188859795Y-75825095D01*
X188859795Y-75825095D02*
X188955033Y-75825095D01*
X188955033Y-75825095D02*
X189097890Y-75872714D01*
X189097890Y-75872714D02*
X189669319Y-76444142D01*
X189669319Y-76444142D02*
X189669319Y-75825095D01*
X184468761Y-80100057D02*
X184373523Y-80052438D01*
X184373523Y-80052438D02*
X184278285Y-79957200D01*
X184278285Y-79957200D02*
X184135428Y-79814342D01*
X184135428Y-79814342D02*
X184040190Y-79766723D01*
X184040190Y-79766723D02*
X183944952Y-79766723D01*
X183992571Y-80004819D02*
X183897333Y-79957200D01*
X183897333Y-79957200D02*
X183802095Y-79861961D01*
X183802095Y-79861961D02*
X183754476Y-79671485D01*
X183754476Y-79671485D02*
X183754476Y-79338152D01*
X183754476Y-79338152D02*
X183802095Y-79147676D01*
X183802095Y-79147676D02*
X183897333Y-79052438D01*
X183897333Y-79052438D02*
X183992571Y-79004819D01*
X183992571Y-79004819D02*
X184183047Y-79004819D01*
X184183047Y-79004819D02*
X184278285Y-79052438D01*
X184278285Y-79052438D02*
X184373523Y-79147676D01*
X184373523Y-79147676D02*
X184421142Y-79338152D01*
X184421142Y-79338152D02*
X184421142Y-79671485D01*
X184421142Y-79671485D02*
X184373523Y-79861961D01*
X184373523Y-79861961D02*
X184278285Y-79957200D01*
X184278285Y-79957200D02*
X184183047Y-80004819D01*
X184183047Y-80004819D02*
X183992571Y-80004819D01*
X184992571Y-79433390D02*
X184897333Y-79385771D01*
X184897333Y-79385771D02*
X184849714Y-79338152D01*
X184849714Y-79338152D02*
X184802095Y-79242914D01*
X184802095Y-79242914D02*
X184802095Y-79195295D01*
X184802095Y-79195295D02*
X184849714Y-79100057D01*
X184849714Y-79100057D02*
X184897333Y-79052438D01*
X184897333Y-79052438D02*
X184992571Y-79004819D01*
X184992571Y-79004819D02*
X185183047Y-79004819D01*
X185183047Y-79004819D02*
X185278285Y-79052438D01*
X185278285Y-79052438D02*
X185325904Y-79100057D01*
X185325904Y-79100057D02*
X185373523Y-79195295D01*
X185373523Y-79195295D02*
X185373523Y-79242914D01*
X185373523Y-79242914D02*
X185325904Y-79338152D01*
X185325904Y-79338152D02*
X185278285Y-79385771D01*
X185278285Y-79385771D02*
X185183047Y-79433390D01*
X185183047Y-79433390D02*
X184992571Y-79433390D01*
X184992571Y-79433390D02*
X184897333Y-79481009D01*
X184897333Y-79481009D02*
X184849714Y-79528628D01*
X184849714Y-79528628D02*
X184802095Y-79623866D01*
X184802095Y-79623866D02*
X184802095Y-79814342D01*
X184802095Y-79814342D02*
X184849714Y-79909580D01*
X184849714Y-79909580D02*
X184897333Y-79957200D01*
X184897333Y-79957200D02*
X184992571Y-80004819D01*
X184992571Y-80004819D02*
X185183047Y-80004819D01*
X185183047Y-80004819D02*
X185278285Y-79957200D01*
X185278285Y-79957200D02*
X185325904Y-79909580D01*
X185325904Y-79909580D02*
X185373523Y-79814342D01*
X185373523Y-79814342D02*
X185373523Y-79623866D01*
X185373523Y-79623866D02*
X185325904Y-79528628D01*
X185325904Y-79528628D02*
X185278285Y-79481009D01*
X185278285Y-79481009D02*
X185183047Y-79433390D01*
X184484261Y-86158057D02*
X184389023Y-86110438D01*
X184389023Y-86110438D02*
X184293785Y-86015200D01*
X184293785Y-86015200D02*
X184150928Y-85872342D01*
X184150928Y-85872342D02*
X184055690Y-85824723D01*
X184055690Y-85824723D02*
X183960452Y-85824723D01*
X184008071Y-86062819D02*
X183912833Y-86015200D01*
X183912833Y-86015200D02*
X183817595Y-85919961D01*
X183817595Y-85919961D02*
X183769976Y-85729485D01*
X183769976Y-85729485D02*
X183769976Y-85396152D01*
X183769976Y-85396152D02*
X183817595Y-85205676D01*
X183817595Y-85205676D02*
X183912833Y-85110438D01*
X183912833Y-85110438D02*
X184008071Y-85062819D01*
X184008071Y-85062819D02*
X184198547Y-85062819D01*
X184198547Y-85062819D02*
X184293785Y-85110438D01*
X184293785Y-85110438D02*
X184389023Y-85205676D01*
X184389023Y-85205676D02*
X184436642Y-85396152D01*
X184436642Y-85396152D02*
X184436642Y-85729485D01*
X184436642Y-85729485D02*
X184389023Y-85919961D01*
X184389023Y-85919961D02*
X184293785Y-86015200D01*
X184293785Y-86015200D02*
X184198547Y-86062819D01*
X184198547Y-86062819D02*
X184008071Y-86062819D01*
X185341404Y-85062819D02*
X184865214Y-85062819D01*
X184865214Y-85062819D02*
X184817595Y-85539009D01*
X184817595Y-85539009D02*
X184865214Y-85491390D01*
X184865214Y-85491390D02*
X184960452Y-85443771D01*
X184960452Y-85443771D02*
X185198547Y-85443771D01*
X185198547Y-85443771D02*
X185293785Y-85491390D01*
X185293785Y-85491390D02*
X185341404Y-85539009D01*
X185341404Y-85539009D02*
X185389023Y-85634247D01*
X185389023Y-85634247D02*
X185389023Y-85872342D01*
X185389023Y-85872342D02*
X185341404Y-85967580D01*
X185341404Y-85967580D02*
X185293785Y-86015200D01*
X185293785Y-86015200D02*
X185198547Y-86062819D01*
X185198547Y-86062819D02*
X184960452Y-86062819D01*
X184960452Y-86062819D02*
X184865214Y-86015200D01*
X184865214Y-86015200D02*
X184817595Y-85967580D01*
X189684819Y-83299666D02*
X189208628Y-83632999D01*
X189684819Y-83871094D02*
X188684819Y-83871094D01*
X188684819Y-83871094D02*
X188684819Y-83490142D01*
X188684819Y-83490142D02*
X188732438Y-83394904D01*
X188732438Y-83394904D02*
X188780057Y-83347285D01*
X188780057Y-83347285D02*
X188875295Y-83299666D01*
X188875295Y-83299666D02*
X189018152Y-83299666D01*
X189018152Y-83299666D02*
X189113390Y-83347285D01*
X189113390Y-83347285D02*
X189161009Y-83394904D01*
X189161009Y-83394904D02*
X189208628Y-83490142D01*
X189208628Y-83490142D02*
X189208628Y-83871094D01*
X188684819Y-82966332D02*
X188684819Y-82299666D01*
X188684819Y-82299666D02*
X189684819Y-82728237D01*
X194836476Y-74130819D02*
X194836476Y-74845104D01*
X194836476Y-74845104D02*
X194788857Y-74987961D01*
X194788857Y-74987961D02*
X194693619Y-75083200D01*
X194693619Y-75083200D02*
X194550762Y-75130819D01*
X194550762Y-75130819D02*
X194455524Y-75130819D01*
X195836476Y-75130819D02*
X195265048Y-75130819D01*
X195550762Y-75130819D02*
X195550762Y-74130819D01*
X195550762Y-74130819D02*
X195455524Y-74273676D01*
X195455524Y-74273676D02*
X195360286Y-74368914D01*
X195360286Y-74368914D02*
X195265048Y-74416533D01*
X196455524Y-74130819D02*
X196550762Y-74130819D01*
X196550762Y-74130819D02*
X196646000Y-74178438D01*
X196646000Y-74178438D02*
X196693619Y-74226057D01*
X196693619Y-74226057D02*
X196741238Y-74321295D01*
X196741238Y-74321295D02*
X196788857Y-74511771D01*
X196788857Y-74511771D02*
X196788857Y-74749866D01*
X196788857Y-74749866D02*
X196741238Y-74940342D01*
X196741238Y-74940342D02*
X196693619Y-75035580D01*
X196693619Y-75035580D02*
X196646000Y-75083200D01*
X196646000Y-75083200D02*
X196550762Y-75130819D01*
X196550762Y-75130819D02*
X196455524Y-75130819D01*
X196455524Y-75130819D02*
X196360286Y-75083200D01*
X196360286Y-75083200D02*
X196312667Y-75035580D01*
X196312667Y-75035580D02*
X196265048Y-74940342D01*
X196265048Y-74940342D02*
X196217429Y-74749866D01*
X196217429Y-74749866D02*
X196217429Y-74511771D01*
X196217429Y-74511771D02*
X196265048Y-74321295D01*
X196265048Y-74321295D02*
X196312667Y-74226057D01*
X196312667Y-74226057D02*
X196360286Y-74178438D01*
X196360286Y-74178438D02*
X196455524Y-74130819D01*
X201927009Y-79339333D02*
X201927009Y-79672666D01*
X202450819Y-79672666D02*
X201450819Y-79672666D01*
X201450819Y-79672666D02*
X201450819Y-79196476D01*
X202450819Y-78339333D02*
X202450819Y-78815523D01*
X202450819Y-78815523D02*
X201450819Y-78815523D01*
X201450819Y-77815523D02*
X201450819Y-77625047D01*
X201450819Y-77625047D02*
X201498438Y-77529809D01*
X201498438Y-77529809D02*
X201593676Y-77434571D01*
X201593676Y-77434571D02*
X201784152Y-77386952D01*
X201784152Y-77386952D02*
X202117485Y-77386952D01*
X202117485Y-77386952D02*
X202307961Y-77434571D01*
X202307961Y-77434571D02*
X202403200Y-77529809D01*
X202403200Y-77529809D02*
X202450819Y-77625047D01*
X202450819Y-77625047D02*
X202450819Y-77815523D01*
X202450819Y-77815523D02*
X202403200Y-77910761D01*
X202403200Y-77910761D02*
X202307961Y-78005999D01*
X202307961Y-78005999D02*
X202117485Y-78053618D01*
X202117485Y-78053618D02*
X201784152Y-78053618D01*
X201784152Y-78053618D02*
X201593676Y-78005999D01*
X201593676Y-78005999D02*
X201498438Y-77910761D01*
X201498438Y-77910761D02*
X201450819Y-77815523D01*
X201450819Y-77053618D02*
X202450819Y-76815523D01*
X202450819Y-76815523D02*
X201736533Y-76625047D01*
X201736533Y-76625047D02*
X202450819Y-76434571D01*
X202450819Y-76434571D02*
X201450819Y-76196476D01*
X201450819Y-75910761D02*
X201450819Y-75291714D01*
X201450819Y-75291714D02*
X201831771Y-75625047D01*
X201831771Y-75625047D02*
X201831771Y-75482190D01*
X201831771Y-75482190D02*
X201879390Y-75386952D01*
X201879390Y-75386952D02*
X201927009Y-75339333D01*
X201927009Y-75339333D02*
X202022247Y-75291714D01*
X202022247Y-75291714D02*
X202260342Y-75291714D01*
X202260342Y-75291714D02*
X202355580Y-75339333D01*
X202355580Y-75339333D02*
X202403200Y-75386952D01*
X202403200Y-75386952D02*
X202450819Y-75482190D01*
X202450819Y-75482190D02*
X202450819Y-75767904D01*
X202450819Y-75767904D02*
X202403200Y-75863142D01*
X202403200Y-75863142D02*
X202355580Y-75910761D01*
X195312666Y-86450819D02*
X195312666Y-87165104D01*
X195312666Y-87165104D02*
X195265047Y-87307961D01*
X195265047Y-87307961D02*
X195169809Y-87403200D01*
X195169809Y-87403200D02*
X195026952Y-87450819D01*
X195026952Y-87450819D02*
X194931714Y-87450819D01*
X195931714Y-86879390D02*
X195836476Y-86831771D01*
X195836476Y-86831771D02*
X195788857Y-86784152D01*
X195788857Y-86784152D02*
X195741238Y-86688914D01*
X195741238Y-86688914D02*
X195741238Y-86641295D01*
X195741238Y-86641295D02*
X195788857Y-86546057D01*
X195788857Y-86546057D02*
X195836476Y-86498438D01*
X195836476Y-86498438D02*
X195931714Y-86450819D01*
X195931714Y-86450819D02*
X196122190Y-86450819D01*
X196122190Y-86450819D02*
X196217428Y-86498438D01*
X196217428Y-86498438D02*
X196265047Y-86546057D01*
X196265047Y-86546057D02*
X196312666Y-86641295D01*
X196312666Y-86641295D02*
X196312666Y-86688914D01*
X196312666Y-86688914D02*
X196265047Y-86784152D01*
X196265047Y-86784152D02*
X196217428Y-86831771D01*
X196217428Y-86831771D02*
X196122190Y-86879390D01*
X196122190Y-86879390D02*
X195931714Y-86879390D01*
X195931714Y-86879390D02*
X195836476Y-86927009D01*
X195836476Y-86927009D02*
X195788857Y-86974628D01*
X195788857Y-86974628D02*
X195741238Y-87069866D01*
X195741238Y-87069866D02*
X195741238Y-87260342D01*
X195741238Y-87260342D02*
X195788857Y-87355580D01*
X195788857Y-87355580D02*
X195836476Y-87403200D01*
X195836476Y-87403200D02*
X195931714Y-87450819D01*
X195931714Y-87450819D02*
X196122190Y-87450819D01*
X196122190Y-87450819D02*
X196217428Y-87403200D01*
X196217428Y-87403200D02*
X196265047Y-87355580D01*
X196265047Y-87355580D02*
X196312666Y-87260342D01*
X196312666Y-87260342D02*
X196312666Y-87069866D01*
X196312666Y-87069866D02*
X196265047Y-86974628D01*
X196265047Y-86974628D02*
X196217428Y-86927009D01*
X196217428Y-86927009D02*
X196122190Y-86879390D01*
X201927009Y-91369333D02*
X201927009Y-91702666D01*
X202450819Y-91702666D02*
X201450819Y-91702666D01*
X201450819Y-91702666D02*
X201450819Y-91226476D01*
X202450819Y-90369333D02*
X202450819Y-90845523D01*
X202450819Y-90845523D02*
X201450819Y-90845523D01*
X201450819Y-89845523D02*
X201450819Y-89655047D01*
X201450819Y-89655047D02*
X201498438Y-89559809D01*
X201498438Y-89559809D02*
X201593676Y-89464571D01*
X201593676Y-89464571D02*
X201784152Y-89416952D01*
X201784152Y-89416952D02*
X202117485Y-89416952D01*
X202117485Y-89416952D02*
X202307961Y-89464571D01*
X202307961Y-89464571D02*
X202403200Y-89559809D01*
X202403200Y-89559809D02*
X202450819Y-89655047D01*
X202450819Y-89655047D02*
X202450819Y-89845523D01*
X202450819Y-89845523D02*
X202403200Y-89940761D01*
X202403200Y-89940761D02*
X202307961Y-90035999D01*
X202307961Y-90035999D02*
X202117485Y-90083618D01*
X202117485Y-90083618D02*
X201784152Y-90083618D01*
X201784152Y-90083618D02*
X201593676Y-90035999D01*
X201593676Y-90035999D02*
X201498438Y-89940761D01*
X201498438Y-89940761D02*
X201450819Y-89845523D01*
X201450819Y-89083618D02*
X202450819Y-88845523D01*
X202450819Y-88845523D02*
X201736533Y-88655047D01*
X201736533Y-88655047D02*
X202450819Y-88464571D01*
X202450819Y-88464571D02*
X201450819Y-88226476D01*
X202450819Y-87321714D02*
X202450819Y-87893142D01*
X202450819Y-87607428D02*
X201450819Y-87607428D01*
X201450819Y-87607428D02*
X201593676Y-87702666D01*
X201593676Y-87702666D02*
X201688914Y-87797904D01*
X201688914Y-87797904D02*
X201736533Y-87893142D01*
X189684819Y-89574666D02*
X189208628Y-89907999D01*
X189684819Y-90146094D02*
X188684819Y-90146094D01*
X188684819Y-90146094D02*
X188684819Y-89765142D01*
X188684819Y-89765142D02*
X188732438Y-89669904D01*
X188732438Y-89669904D02*
X188780057Y-89622285D01*
X188780057Y-89622285D02*
X188875295Y-89574666D01*
X188875295Y-89574666D02*
X189018152Y-89574666D01*
X189018152Y-89574666D02*
X189113390Y-89622285D01*
X189113390Y-89622285D02*
X189161009Y-89669904D01*
X189161009Y-89669904D02*
X189208628Y-89765142D01*
X189208628Y-89765142D02*
X189208628Y-90146094D01*
X189113390Y-89003237D02*
X189065771Y-89098475D01*
X189065771Y-89098475D02*
X189018152Y-89146094D01*
X189018152Y-89146094D02*
X188922914Y-89193713D01*
X188922914Y-89193713D02*
X188875295Y-89193713D01*
X188875295Y-89193713D02*
X188780057Y-89146094D01*
X188780057Y-89146094D02*
X188732438Y-89098475D01*
X188732438Y-89098475D02*
X188684819Y-89003237D01*
X188684819Y-89003237D02*
X188684819Y-88812761D01*
X188684819Y-88812761D02*
X188732438Y-88717523D01*
X188732438Y-88717523D02*
X188780057Y-88669904D01*
X188780057Y-88669904D02*
X188875295Y-88622285D01*
X188875295Y-88622285D02*
X188922914Y-88622285D01*
X188922914Y-88622285D02*
X189018152Y-88669904D01*
X189018152Y-88669904D02*
X189065771Y-88717523D01*
X189065771Y-88717523D02*
X189113390Y-88812761D01*
X189113390Y-88812761D02*
X189113390Y-89003237D01*
X189113390Y-89003237D02*
X189161009Y-89098475D01*
X189161009Y-89098475D02*
X189208628Y-89146094D01*
X189208628Y-89146094D02*
X189303866Y-89193713D01*
X189303866Y-89193713D02*
X189494342Y-89193713D01*
X189494342Y-89193713D02*
X189589580Y-89146094D01*
X189589580Y-89146094D02*
X189637200Y-89098475D01*
X189637200Y-89098475D02*
X189684819Y-89003237D01*
X189684819Y-89003237D02*
X189684819Y-88812761D01*
X189684819Y-88812761D02*
X189637200Y-88717523D01*
X189637200Y-88717523D02*
X189589580Y-88669904D01*
X189589580Y-88669904D02*
X189494342Y-88622285D01*
X189494342Y-88622285D02*
X189303866Y-88622285D01*
X189303866Y-88622285D02*
X189208628Y-88669904D01*
X189208628Y-88669904D02*
X189161009Y-88717523D01*
X189161009Y-88717523D02*
X189113390Y-88812761D01*
X186848761Y-92358057D02*
X186753523Y-92310438D01*
X186753523Y-92310438D02*
X186658285Y-92215200D01*
X186658285Y-92215200D02*
X186515428Y-92072342D01*
X186515428Y-92072342D02*
X186420190Y-92024723D01*
X186420190Y-92024723D02*
X186324952Y-92024723D01*
X186372571Y-92262819D02*
X186277333Y-92215200D01*
X186277333Y-92215200D02*
X186182095Y-92119961D01*
X186182095Y-92119961D02*
X186134476Y-91929485D01*
X186134476Y-91929485D02*
X186134476Y-91596152D01*
X186134476Y-91596152D02*
X186182095Y-91405676D01*
X186182095Y-91405676D02*
X186277333Y-91310438D01*
X186277333Y-91310438D02*
X186372571Y-91262819D01*
X186372571Y-91262819D02*
X186563047Y-91262819D01*
X186563047Y-91262819D02*
X186658285Y-91310438D01*
X186658285Y-91310438D02*
X186753523Y-91405676D01*
X186753523Y-91405676D02*
X186801142Y-91596152D01*
X186801142Y-91596152D02*
X186801142Y-91929485D01*
X186801142Y-91929485D02*
X186753523Y-92119961D01*
X186753523Y-92119961D02*
X186658285Y-92215200D01*
X186658285Y-92215200D02*
X186563047Y-92262819D01*
X186563047Y-92262819D02*
X186372571Y-92262819D01*
X187658285Y-91262819D02*
X187467809Y-91262819D01*
X187467809Y-91262819D02*
X187372571Y-91310438D01*
X187372571Y-91310438D02*
X187324952Y-91358057D01*
X187324952Y-91358057D02*
X187229714Y-91500914D01*
X187229714Y-91500914D02*
X187182095Y-91691390D01*
X187182095Y-91691390D02*
X187182095Y-92072342D01*
X187182095Y-92072342D02*
X187229714Y-92167580D01*
X187229714Y-92167580D02*
X187277333Y-92215200D01*
X187277333Y-92215200D02*
X187372571Y-92262819D01*
X187372571Y-92262819D02*
X187563047Y-92262819D01*
X187563047Y-92262819D02*
X187658285Y-92215200D01*
X187658285Y-92215200D02*
X187705904Y-92167580D01*
X187705904Y-92167580D02*
X187753523Y-92072342D01*
X187753523Y-92072342D02*
X187753523Y-91834247D01*
X187753523Y-91834247D02*
X187705904Y-91739009D01*
X187705904Y-91739009D02*
X187658285Y-91691390D01*
X187658285Y-91691390D02*
X187563047Y-91643771D01*
X187563047Y-91643771D02*
X187372571Y-91643771D01*
X187372571Y-91643771D02*
X187277333Y-91691390D01*
X187277333Y-91691390D02*
X187229714Y-91739009D01*
X187229714Y-91739009D02*
X187182095Y-91834247D01*
D11*
X163795419Y-77263523D02*
X164509704Y-77263523D01*
X164509704Y-77263523D02*
X164652561Y-77311142D01*
X164652561Y-77311142D02*
X164747800Y-77406380D01*
X164747800Y-77406380D02*
X164795419Y-77549237D01*
X164795419Y-77549237D02*
X164795419Y-77644475D01*
X164795419Y-76263523D02*
X164795419Y-76834951D01*
X164795419Y-76549237D02*
X163795419Y-76549237D01*
X163795419Y-76549237D02*
X163938276Y-76644475D01*
X163938276Y-76644475D02*
X164033514Y-76739713D01*
X164033514Y-76739713D02*
X164081133Y-76834951D01*
X164795419Y-75311142D02*
X164795419Y-75882570D01*
X164795419Y-75596856D02*
X163795419Y-75596856D01*
X163795419Y-75596856D02*
X163938276Y-75692094D01*
X163938276Y-75692094D02*
X164033514Y-75787332D01*
X164033514Y-75787332D02*
X164081133Y-75882570D01*
X174878419Y-74880115D02*
X173878419Y-74880115D01*
X173878419Y-74880115D02*
X173878419Y-74642020D01*
X173878419Y-74642020D02*
X173926038Y-74499163D01*
X173926038Y-74499163D02*
X174021276Y-74403925D01*
X174021276Y-74403925D02*
X174116514Y-74356306D01*
X174116514Y-74356306D02*
X174306990Y-74308687D01*
X174306990Y-74308687D02*
X174449847Y-74308687D01*
X174449847Y-74308687D02*
X174640323Y-74356306D01*
X174640323Y-74356306D02*
X174735561Y-74403925D01*
X174735561Y-74403925D02*
X174830800Y-74499163D01*
X174830800Y-74499163D02*
X174878419Y-74642020D01*
X174878419Y-74642020D02*
X174878419Y-74880115D01*
X172338419Y-74880115D02*
X171338419Y-74880115D01*
X172338419Y-74308687D02*
X171766990Y-74737258D01*
X171338419Y-74308687D02*
X171909847Y-74880115D01*
X166258419Y-74975353D02*
X166258419Y-74356306D01*
X166258419Y-74356306D02*
X166639371Y-74689639D01*
X166639371Y-74689639D02*
X166639371Y-74546782D01*
X166639371Y-74546782D02*
X166686990Y-74451544D01*
X166686990Y-74451544D02*
X166734609Y-74403925D01*
X166734609Y-74403925D02*
X166829847Y-74356306D01*
X166829847Y-74356306D02*
X167067942Y-74356306D01*
X167067942Y-74356306D02*
X167163180Y-74403925D01*
X167163180Y-74403925D02*
X167210800Y-74451544D01*
X167210800Y-74451544D02*
X167258419Y-74546782D01*
X167258419Y-74546782D02*
X167258419Y-74832496D01*
X167258419Y-74832496D02*
X167210800Y-74927734D01*
X167210800Y-74927734D02*
X167163180Y-74975353D01*
X168846038Y-74356306D02*
X168798419Y-74451544D01*
X168798419Y-74451544D02*
X168798419Y-74594401D01*
X168798419Y-74594401D02*
X168846038Y-74737258D01*
X168846038Y-74737258D02*
X168941276Y-74832496D01*
X168941276Y-74832496D02*
X169036514Y-74880115D01*
X169036514Y-74880115D02*
X169226990Y-74927734D01*
X169226990Y-74927734D02*
X169369847Y-74927734D01*
X169369847Y-74927734D02*
X169560323Y-74880115D01*
X169560323Y-74880115D02*
X169655561Y-74832496D01*
X169655561Y-74832496D02*
X169750800Y-74737258D01*
X169750800Y-74737258D02*
X169798419Y-74594401D01*
X169798419Y-74594401D02*
X169798419Y-74499163D01*
X169798419Y-74499163D02*
X169750800Y-74356306D01*
X169750800Y-74356306D02*
X169703180Y-74308687D01*
X169703180Y-74308687D02*
X169369847Y-74308687D01*
X169369847Y-74308687D02*
X169369847Y-74499163D01*
D10*
X143907319Y-74144094D02*
X142907319Y-74144094D01*
X142907319Y-74144094D02*
X142907319Y-73905999D01*
X142907319Y-73905999D02*
X142954938Y-73763142D01*
X142954938Y-73763142D02*
X143050176Y-73667904D01*
X143050176Y-73667904D02*
X143145414Y-73620285D01*
X143145414Y-73620285D02*
X143335890Y-73572666D01*
X143335890Y-73572666D02*
X143478747Y-73572666D01*
X143478747Y-73572666D02*
X143669223Y-73620285D01*
X143669223Y-73620285D02*
X143764461Y-73667904D01*
X143764461Y-73667904D02*
X143859700Y-73763142D01*
X143859700Y-73763142D02*
X143907319Y-73905999D01*
X143907319Y-73905999D02*
X143907319Y-74144094D01*
X143240652Y-72715523D02*
X143907319Y-72715523D01*
X142859700Y-72953618D02*
X143573985Y-73191713D01*
X143573985Y-73191713D02*
X143573985Y-72572666D01*
D11*
X143677080Y-69770666D02*
X142962795Y-69770666D01*
X142962795Y-69770666D02*
X142819938Y-69723047D01*
X142819938Y-69723047D02*
X142724700Y-69627809D01*
X142724700Y-69627809D02*
X142677080Y-69484952D01*
X142677080Y-69484952D02*
X142677080Y-69389714D01*
X143581842Y-70199238D02*
X143629461Y-70246857D01*
X143629461Y-70246857D02*
X143677080Y-70342095D01*
X143677080Y-70342095D02*
X143677080Y-70580190D01*
X143677080Y-70580190D02*
X143629461Y-70675428D01*
X143629461Y-70675428D02*
X143581842Y-70723047D01*
X143581842Y-70723047D02*
X143486604Y-70770666D01*
X143486604Y-70770666D02*
X143391366Y-70770666D01*
X143391366Y-70770666D02*
X143248509Y-70723047D01*
X143248509Y-70723047D02*
X142677080Y-70151619D01*
X142677080Y-70151619D02*
X142677080Y-70770666D01*
D10*
X134925680Y-64786190D02*
X133925680Y-65119523D01*
X133925680Y-65119523D02*
X134925680Y-65452856D01*
X134211395Y-65738571D02*
X134211395Y-66214761D01*
X133925680Y-65643333D02*
X134925680Y-65976666D01*
X134925680Y-65976666D02*
X133925680Y-66309999D01*
X133925680Y-67119523D02*
X133925680Y-66643333D01*
X133925680Y-66643333D02*
X134925680Y-66643333D01*
X134925680Y-67310000D02*
X133925680Y-67643333D01*
X133925680Y-67643333D02*
X134925680Y-67976666D01*
X134449490Y-68310000D02*
X134449490Y-68643333D01*
X133925680Y-68786190D02*
X133925680Y-68310000D01*
X133925680Y-68310000D02*
X134925680Y-68310000D01*
X134925680Y-68310000D02*
X134925680Y-68786190D01*
X133925680Y-69738571D02*
X133925680Y-69167143D01*
X133925680Y-69452857D02*
X134925680Y-69452857D01*
X134925680Y-69452857D02*
X134782823Y-69357619D01*
X134782823Y-69357619D02*
X134687585Y-69262381D01*
X134687585Y-69262381D02*
X134639966Y-69167143D01*
X203782333Y-94085580D02*
X203734714Y-94133200D01*
X203734714Y-94133200D02*
X203591857Y-94180819D01*
X203591857Y-94180819D02*
X203496619Y-94180819D01*
X203496619Y-94180819D02*
X203353762Y-94133200D01*
X203353762Y-94133200D02*
X203258524Y-94037961D01*
X203258524Y-94037961D02*
X203210905Y-93942723D01*
X203210905Y-93942723D02*
X203163286Y-93752247D01*
X203163286Y-93752247D02*
X203163286Y-93609390D01*
X203163286Y-93609390D02*
X203210905Y-93418914D01*
X203210905Y-93418914D02*
X203258524Y-93323676D01*
X203258524Y-93323676D02*
X203353762Y-93228438D01*
X203353762Y-93228438D02*
X203496619Y-93180819D01*
X203496619Y-93180819D02*
X203591857Y-93180819D01*
X203591857Y-93180819D02*
X203734714Y-93228438D01*
X203734714Y-93228438D02*
X203782333Y-93276057D01*
X204639476Y-93180819D02*
X204449000Y-93180819D01*
X204449000Y-93180819D02*
X204353762Y-93228438D01*
X204353762Y-93228438D02*
X204306143Y-93276057D01*
X204306143Y-93276057D02*
X204210905Y-93418914D01*
X204210905Y-93418914D02*
X204163286Y-93609390D01*
X204163286Y-93609390D02*
X204163286Y-93990342D01*
X204163286Y-93990342D02*
X204210905Y-94085580D01*
X204210905Y-94085580D02*
X204258524Y-94133200D01*
X204258524Y-94133200D02*
X204353762Y-94180819D01*
X204353762Y-94180819D02*
X204544238Y-94180819D01*
X204544238Y-94180819D02*
X204639476Y-94133200D01*
X204639476Y-94133200D02*
X204687095Y-94085580D01*
X204687095Y-94085580D02*
X204734714Y-93990342D01*
X204734714Y-93990342D02*
X204734714Y-93752247D01*
X204734714Y-93752247D02*
X204687095Y-93657009D01*
X204687095Y-93657009D02*
X204639476Y-93609390D01*
X204639476Y-93609390D02*
X204544238Y-93561771D01*
X204544238Y-93561771D02*
X204353762Y-93561771D01*
X204353762Y-93561771D02*
X204258524Y-93609390D01*
X204258524Y-93609390D02*
X204210905Y-93657009D01*
X204210905Y-93657009D02*
X204163286Y-93752247D01*
D11*
X143741080Y-87042666D02*
X143026795Y-87042666D01*
X143026795Y-87042666D02*
X142883938Y-86995047D01*
X142883938Y-86995047D02*
X142788700Y-86899809D01*
X142788700Y-86899809D02*
X142741080Y-86756952D01*
X142741080Y-86756952D02*
X142741080Y-86661714D01*
X143407747Y-87947428D02*
X142741080Y-87947428D01*
X143788700Y-87709333D02*
X143074414Y-87471238D01*
X143074414Y-87471238D02*
X143074414Y-88090285D01*
D10*
X134925680Y-81980190D02*
X133925680Y-82313523D01*
X133925680Y-82313523D02*
X134925680Y-82646856D01*
X134211395Y-82932571D02*
X134211395Y-83408761D01*
X133925680Y-82837333D02*
X134925680Y-83170666D01*
X134925680Y-83170666D02*
X133925680Y-83503999D01*
X133925680Y-84313523D02*
X133925680Y-83837333D01*
X133925680Y-83837333D02*
X134925680Y-83837333D01*
X134925680Y-84504000D02*
X133925680Y-84837333D01*
X133925680Y-84837333D02*
X134925680Y-85170666D01*
X134449490Y-85504000D02*
X134449490Y-85837333D01*
X133925680Y-85980190D02*
X133925680Y-85504000D01*
X133925680Y-85504000D02*
X134925680Y-85504000D01*
X134925680Y-85504000D02*
X134925680Y-85980190D01*
X134925680Y-86313524D02*
X134925680Y-86932571D01*
X134925680Y-86932571D02*
X134544728Y-86599238D01*
X134544728Y-86599238D02*
X134544728Y-86742095D01*
X134544728Y-86742095D02*
X134497109Y-86837333D01*
X134497109Y-86837333D02*
X134449490Y-86884952D01*
X134449490Y-86884952D02*
X134354252Y-86932571D01*
X134354252Y-86932571D02*
X134116157Y-86932571D01*
X134116157Y-86932571D02*
X134020919Y-86884952D01*
X134020919Y-86884952D02*
X133973300Y-86837333D01*
X133973300Y-86837333D02*
X133925680Y-86742095D01*
X133925680Y-86742095D02*
X133925680Y-86456381D01*
X133925680Y-86456381D02*
X133973300Y-86361143D01*
X133973300Y-86361143D02*
X134020919Y-86313524D01*
X153079333Y-78912819D02*
X152746000Y-78436628D01*
X152507905Y-78912819D02*
X152507905Y-77912819D01*
X152507905Y-77912819D02*
X152888857Y-77912819D01*
X152888857Y-77912819D02*
X152984095Y-77960438D01*
X152984095Y-77960438D02*
X153031714Y-78008057D01*
X153031714Y-78008057D02*
X153079333Y-78103295D01*
X153079333Y-78103295D02*
X153079333Y-78246152D01*
X153079333Y-78246152D02*
X153031714Y-78341390D01*
X153031714Y-78341390D02*
X152984095Y-78389009D01*
X152984095Y-78389009D02*
X152888857Y-78436628D01*
X152888857Y-78436628D02*
X152507905Y-78436628D01*
X153460286Y-78008057D02*
X153507905Y-77960438D01*
X153507905Y-77960438D02*
X153603143Y-77912819D01*
X153603143Y-77912819D02*
X153841238Y-77912819D01*
X153841238Y-77912819D02*
X153936476Y-77960438D01*
X153936476Y-77960438D02*
X153984095Y-78008057D01*
X153984095Y-78008057D02*
X154031714Y-78103295D01*
X154031714Y-78103295D02*
X154031714Y-78198533D01*
X154031714Y-78198533D02*
X153984095Y-78341390D01*
X153984095Y-78341390D02*
X153412667Y-78912819D01*
X153412667Y-78912819D02*
X154031714Y-78912819D01*
X168850666Y-63456819D02*
X168850666Y-64171104D01*
X168850666Y-64171104D02*
X168803047Y-64313961D01*
X168803047Y-64313961D02*
X168707809Y-64409200D01*
X168707809Y-64409200D02*
X168564952Y-64456819D01*
X168564952Y-64456819D02*
X168469714Y-64456819D01*
X169755428Y-63456819D02*
X169564952Y-63456819D01*
X169564952Y-63456819D02*
X169469714Y-63504438D01*
X169469714Y-63504438D02*
X169422095Y-63552057D01*
X169422095Y-63552057D02*
X169326857Y-63694914D01*
X169326857Y-63694914D02*
X169279238Y-63885390D01*
X169279238Y-63885390D02*
X169279238Y-64266342D01*
X169279238Y-64266342D02*
X169326857Y-64361580D01*
X169326857Y-64361580D02*
X169374476Y-64409200D01*
X169374476Y-64409200D02*
X169469714Y-64456819D01*
X169469714Y-64456819D02*
X169660190Y-64456819D01*
X169660190Y-64456819D02*
X169755428Y-64409200D01*
X169755428Y-64409200D02*
X169803047Y-64361580D01*
X169803047Y-64361580D02*
X169850666Y-64266342D01*
X169850666Y-64266342D02*
X169850666Y-64028247D01*
X169850666Y-64028247D02*
X169803047Y-63933009D01*
X169803047Y-63933009D02*
X169755428Y-63885390D01*
X169755428Y-63885390D02*
X169660190Y-63837771D01*
X169660190Y-63837771D02*
X169469714Y-63837771D01*
X169469714Y-63837771D02*
X169374476Y-63885390D01*
X169374476Y-63885390D02*
X169326857Y-63933009D01*
X169326857Y-63933009D02*
X169279238Y-64028247D01*
X168187810Y-70812819D02*
X168187810Y-69812819D01*
X168616381Y-69908057D02*
X168664000Y-69860438D01*
X168664000Y-69860438D02*
X168759238Y-69812819D01*
X168759238Y-69812819D02*
X168997333Y-69812819D01*
X168997333Y-69812819D02*
X169092571Y-69860438D01*
X169092571Y-69860438D02*
X169140190Y-69908057D01*
X169140190Y-69908057D02*
X169187809Y-70003295D01*
X169187809Y-70003295D02*
X169187809Y-70098533D01*
X169187809Y-70098533D02*
X169140190Y-70241390D01*
X169140190Y-70241390D02*
X168568762Y-70812819D01*
X168568762Y-70812819D02*
X169187809Y-70812819D01*
X170187809Y-70717580D02*
X170140190Y-70765200D01*
X170140190Y-70765200D02*
X169997333Y-70812819D01*
X169997333Y-70812819D02*
X169902095Y-70812819D01*
X169902095Y-70812819D02*
X169759238Y-70765200D01*
X169759238Y-70765200D02*
X169664000Y-70669961D01*
X169664000Y-70669961D02*
X169616381Y-70574723D01*
X169616381Y-70574723D02*
X169568762Y-70384247D01*
X169568762Y-70384247D02*
X169568762Y-70241390D01*
X169568762Y-70241390D02*
X169616381Y-70050914D01*
X169616381Y-70050914D02*
X169664000Y-69955676D01*
X169664000Y-69955676D02*
X169759238Y-69860438D01*
X169759238Y-69860438D02*
X169902095Y-69812819D01*
X169902095Y-69812819D02*
X169997333Y-69812819D01*
X169997333Y-69812819D02*
X170140190Y-69860438D01*
X170140190Y-69860438D02*
X170187809Y-69908057D01*
X152423905Y-91386819D02*
X152423905Y-90386819D01*
X152423905Y-90386819D02*
X152662000Y-90386819D01*
X152662000Y-90386819D02*
X152804857Y-90434438D01*
X152804857Y-90434438D02*
X152900095Y-90529676D01*
X152900095Y-90529676D02*
X152947714Y-90624914D01*
X152947714Y-90624914D02*
X152995333Y-90815390D01*
X152995333Y-90815390D02*
X152995333Y-90958247D01*
X152995333Y-90958247D02*
X152947714Y-91148723D01*
X152947714Y-91148723D02*
X152900095Y-91243961D01*
X152900095Y-91243961D02*
X152804857Y-91339200D01*
X152804857Y-91339200D02*
X152662000Y-91386819D01*
X152662000Y-91386819D02*
X152423905Y-91386819D01*
X153852476Y-90386819D02*
X153662000Y-90386819D01*
X153662000Y-90386819D02*
X153566762Y-90434438D01*
X153566762Y-90434438D02*
X153519143Y-90482057D01*
X153519143Y-90482057D02*
X153423905Y-90624914D01*
X153423905Y-90624914D02*
X153376286Y-90815390D01*
X153376286Y-90815390D02*
X153376286Y-91196342D01*
X153376286Y-91196342D02*
X153423905Y-91291580D01*
X153423905Y-91291580D02*
X153471524Y-91339200D01*
X153471524Y-91339200D02*
X153566762Y-91386819D01*
X153566762Y-91386819D02*
X153757238Y-91386819D01*
X153757238Y-91386819D02*
X153852476Y-91339200D01*
X153852476Y-91339200D02*
X153900095Y-91291580D01*
X153900095Y-91291580D02*
X153947714Y-91196342D01*
X153947714Y-91196342D02*
X153947714Y-90958247D01*
X153947714Y-90958247D02*
X153900095Y-90863009D01*
X153900095Y-90863009D02*
X153852476Y-90815390D01*
X153852476Y-90815390D02*
X153757238Y-90767771D01*
X153757238Y-90767771D02*
X153566762Y-90767771D01*
X153566762Y-90767771D02*
X153471524Y-90815390D01*
X153471524Y-90815390D02*
X153423905Y-90863009D01*
X153423905Y-90863009D02*
X153376286Y-90958247D01*
X153003333Y-87736819D02*
X152670000Y-87260628D01*
X152431905Y-87736819D02*
X152431905Y-86736819D01*
X152431905Y-86736819D02*
X152812857Y-86736819D01*
X152812857Y-86736819D02*
X152908095Y-86784438D01*
X152908095Y-86784438D02*
X152955714Y-86832057D01*
X152955714Y-86832057D02*
X153003333Y-86927295D01*
X153003333Y-86927295D02*
X153003333Y-87070152D01*
X153003333Y-87070152D02*
X152955714Y-87165390D01*
X152955714Y-87165390D02*
X152908095Y-87213009D01*
X152908095Y-87213009D02*
X152812857Y-87260628D01*
X152812857Y-87260628D02*
X152431905Y-87260628D01*
X153336667Y-86736819D02*
X153955714Y-86736819D01*
X153955714Y-86736819D02*
X153622381Y-87117771D01*
X153622381Y-87117771D02*
X153765238Y-87117771D01*
X153765238Y-87117771D02*
X153860476Y-87165390D01*
X153860476Y-87165390D02*
X153908095Y-87213009D01*
X153908095Y-87213009D02*
X153955714Y-87308247D01*
X153955714Y-87308247D02*
X153955714Y-87546342D01*
X153955714Y-87546342D02*
X153908095Y-87641580D01*
X153908095Y-87641580D02*
X153860476Y-87689200D01*
X153860476Y-87689200D02*
X153765238Y-87736819D01*
X153765238Y-87736819D02*
X153479524Y-87736819D01*
X153479524Y-87736819D02*
X153384286Y-87689200D01*
X153384286Y-87689200D02*
X153336667Y-87641580D01*
X149531761Y-70514057D02*
X149436523Y-70466438D01*
X149436523Y-70466438D02*
X149341285Y-70371200D01*
X149341285Y-70371200D02*
X149198428Y-70228342D01*
X149198428Y-70228342D02*
X149103190Y-70180723D01*
X149103190Y-70180723D02*
X149007952Y-70180723D01*
X149055571Y-70418819D02*
X148960333Y-70371200D01*
X148960333Y-70371200D02*
X148865095Y-70275961D01*
X148865095Y-70275961D02*
X148817476Y-70085485D01*
X148817476Y-70085485D02*
X148817476Y-69752152D01*
X148817476Y-69752152D02*
X148865095Y-69561676D01*
X148865095Y-69561676D02*
X148960333Y-69466438D01*
X148960333Y-69466438D02*
X149055571Y-69418819D01*
X149055571Y-69418819D02*
X149246047Y-69418819D01*
X149246047Y-69418819D02*
X149341285Y-69466438D01*
X149341285Y-69466438D02*
X149436523Y-69561676D01*
X149436523Y-69561676D02*
X149484142Y-69752152D01*
X149484142Y-69752152D02*
X149484142Y-70085485D01*
X149484142Y-70085485D02*
X149436523Y-70275961D01*
X149436523Y-70275961D02*
X149341285Y-70371200D01*
X149341285Y-70371200D02*
X149246047Y-70418819D01*
X149246047Y-70418819D02*
X149055571Y-70418819D01*
X150436523Y-70418819D02*
X149865095Y-70418819D01*
X150150809Y-70418819D02*
X150150809Y-69418819D01*
X150150809Y-69418819D02*
X150055571Y-69561676D01*
X150055571Y-69561676D02*
X149960333Y-69656914D01*
X149960333Y-69656914D02*
X149865095Y-69704533D01*
D11*
X184754666Y-91731419D02*
X184754666Y-92445704D01*
X184754666Y-92445704D02*
X184707047Y-92588561D01*
X184707047Y-92588561D02*
X184611809Y-92683800D01*
X184611809Y-92683800D02*
X184468952Y-92731419D01*
X184468952Y-92731419D02*
X184373714Y-92731419D01*
X185754666Y-92731419D02*
X185183238Y-92731419D01*
X185468952Y-92731419D02*
X185468952Y-91731419D01*
X185468952Y-91731419D02*
X185373714Y-91874276D01*
X185373714Y-91874276D02*
X185278476Y-91969514D01*
X185278476Y-91969514D02*
X185183238Y-92017133D01*
D10*
X182564190Y-100776438D02*
X182468952Y-100728819D01*
X182468952Y-100728819D02*
X182326095Y-100728819D01*
X182326095Y-100728819D02*
X182183238Y-100776438D01*
X182183238Y-100776438D02*
X182088000Y-100871676D01*
X182088000Y-100871676D02*
X182040381Y-100966914D01*
X182040381Y-100966914D02*
X181992762Y-101157390D01*
X181992762Y-101157390D02*
X181992762Y-101300247D01*
X181992762Y-101300247D02*
X182040381Y-101490723D01*
X182040381Y-101490723D02*
X182088000Y-101585961D01*
X182088000Y-101585961D02*
X182183238Y-101681200D01*
X182183238Y-101681200D02*
X182326095Y-101728819D01*
X182326095Y-101728819D02*
X182421333Y-101728819D01*
X182421333Y-101728819D02*
X182564190Y-101681200D01*
X182564190Y-101681200D02*
X182611809Y-101633580D01*
X182611809Y-101633580D02*
X182611809Y-101300247D01*
X182611809Y-101300247D02*
X182421333Y-101300247D01*
X183040381Y-101728819D02*
X183040381Y-100728819D01*
X183040381Y-100728819D02*
X183611809Y-101728819D01*
X183611809Y-101728819D02*
X183611809Y-100728819D01*
X184088000Y-101728819D02*
X184088000Y-100728819D01*
X184088000Y-100728819D02*
X184326095Y-100728819D01*
X184326095Y-100728819D02*
X184468952Y-100776438D01*
X184468952Y-100776438D02*
X184564190Y-100871676D01*
X184564190Y-100871676D02*
X184611809Y-100966914D01*
X184611809Y-100966914D02*
X184659428Y-101157390D01*
X184659428Y-101157390D02*
X184659428Y-101300247D01*
X184659428Y-101300247D02*
X184611809Y-101490723D01*
X184611809Y-101490723D02*
X184564190Y-101585961D01*
X184564190Y-101585961D02*
X184468952Y-101681200D01*
X184468952Y-101681200D02*
X184326095Y-101728819D01*
X184326095Y-101728819D02*
X184088000Y-101728819D01*
X186373714Y-101728819D02*
X185802286Y-101728819D01*
X186088000Y-101728819D02*
X186088000Y-100728819D01*
X186088000Y-100728819D02*
X185992762Y-100871676D01*
X185992762Y-100871676D02*
X185897524Y-100966914D01*
X185897524Y-100966914D02*
X185802286Y-101014533D01*
X186754667Y-100824057D02*
X186802286Y-100776438D01*
X186802286Y-100776438D02*
X186897524Y-100728819D01*
X186897524Y-100728819D02*
X187135619Y-100728819D01*
X187135619Y-100728819D02*
X187230857Y-100776438D01*
X187230857Y-100776438D02*
X187278476Y-100824057D01*
X187278476Y-100824057D02*
X187326095Y-100919295D01*
X187326095Y-100919295D02*
X187326095Y-101014533D01*
X187326095Y-101014533D02*
X187278476Y-101157390D01*
X187278476Y-101157390D02*
X186707048Y-101728819D01*
X186707048Y-101728819D02*
X187326095Y-101728819D01*
X187611810Y-100728819D02*
X187945143Y-101728819D01*
X187945143Y-101728819D02*
X188278476Y-100728819D01*
X168656095Y-77804819D02*
X168656095Y-78614342D01*
X168656095Y-78614342D02*
X168703714Y-78709580D01*
X168703714Y-78709580D02*
X168751333Y-78757200D01*
X168751333Y-78757200D02*
X168846571Y-78804819D01*
X168846571Y-78804819D02*
X169037047Y-78804819D01*
X169037047Y-78804819D02*
X169132285Y-78757200D01*
X169132285Y-78757200D02*
X169179904Y-78709580D01*
X169179904Y-78709580D02*
X169227523Y-78614342D01*
X169227523Y-78614342D02*
X169227523Y-77804819D01*
X170227523Y-78804819D02*
X169656095Y-78804819D01*
X169941809Y-78804819D02*
X169941809Y-77804819D01*
X169941809Y-77804819D02*
X169846571Y-77947676D01*
X169846571Y-77947676D02*
X169751333Y-78042914D01*
X169751333Y-78042914D02*
X169656095Y-78090533D01*
X143653319Y-66016094D02*
X142653319Y-66016094D01*
X142653319Y-66016094D02*
X142653319Y-65777999D01*
X142653319Y-65777999D02*
X142700938Y-65635142D01*
X142700938Y-65635142D02*
X142796176Y-65539904D01*
X142796176Y-65539904D02*
X142891414Y-65492285D01*
X142891414Y-65492285D02*
X143081890Y-65444666D01*
X143081890Y-65444666D02*
X143224747Y-65444666D01*
X143224747Y-65444666D02*
X143415223Y-65492285D01*
X143415223Y-65492285D02*
X143510461Y-65539904D01*
X143510461Y-65539904D02*
X143605700Y-65635142D01*
X143605700Y-65635142D02*
X143653319Y-65777999D01*
X143653319Y-65777999D02*
X143653319Y-66016094D01*
X142653319Y-65111332D02*
X142653319Y-64492285D01*
X142653319Y-64492285D02*
X143034271Y-64825618D01*
X143034271Y-64825618D02*
X143034271Y-64682761D01*
X143034271Y-64682761D02*
X143081890Y-64587523D01*
X143081890Y-64587523D02*
X143129509Y-64539904D01*
X143129509Y-64539904D02*
X143224747Y-64492285D01*
X143224747Y-64492285D02*
X143462842Y-64492285D01*
X143462842Y-64492285D02*
X143558080Y-64539904D01*
X143558080Y-64539904D02*
X143605700Y-64587523D01*
X143605700Y-64587523D02*
X143653319Y-64682761D01*
X143653319Y-64682761D02*
X143653319Y-64968475D01*
X143653319Y-64968475D02*
X143605700Y-65063713D01*
X143605700Y-65063713D02*
X143558080Y-65111332D01*
X153079333Y-70464819D02*
X152746000Y-69988628D01*
X152507905Y-70464819D02*
X152507905Y-69464819D01*
X152507905Y-69464819D02*
X152888857Y-69464819D01*
X152888857Y-69464819D02*
X152984095Y-69512438D01*
X152984095Y-69512438D02*
X153031714Y-69560057D01*
X153031714Y-69560057D02*
X153079333Y-69655295D01*
X153079333Y-69655295D02*
X153079333Y-69798152D01*
X153079333Y-69798152D02*
X153031714Y-69893390D01*
X153031714Y-69893390D02*
X152984095Y-69941009D01*
X152984095Y-69941009D02*
X152888857Y-69988628D01*
X152888857Y-69988628D02*
X152507905Y-69988628D01*
X154031714Y-70464819D02*
X153460286Y-70464819D01*
X153746000Y-70464819D02*
X153746000Y-69464819D01*
X153746000Y-69464819D02*
X153650762Y-69607676D01*
X153650762Y-69607676D02*
X153555524Y-69702914D01*
X153555524Y-69702914D02*
X153460286Y-69750533D01*
D11*
X143923080Y-92630666D02*
X143208795Y-92630666D01*
X143208795Y-92630666D02*
X143065938Y-92583047D01*
X143065938Y-92583047D02*
X142970700Y-92487809D01*
X142970700Y-92487809D02*
X142923080Y-92344952D01*
X142923080Y-92344952D02*
X142923080Y-92249714D01*
X143923080Y-93583047D02*
X143923080Y-93106857D01*
X143923080Y-93106857D02*
X143446890Y-93059238D01*
X143446890Y-93059238D02*
X143494509Y-93106857D01*
X143494509Y-93106857D02*
X143542128Y-93202095D01*
X143542128Y-93202095D02*
X143542128Y-93440190D01*
X143542128Y-93440190D02*
X143494509Y-93535428D01*
X143494509Y-93535428D02*
X143446890Y-93583047D01*
X143446890Y-93583047D02*
X143351652Y-93630666D01*
X143351652Y-93630666D02*
X143113557Y-93630666D01*
X143113557Y-93630666D02*
X143018319Y-93583047D01*
X143018319Y-93583047D02*
X142970700Y-93535428D01*
X142970700Y-93535428D02*
X142923080Y-93440190D01*
X142923080Y-93440190D02*
X142923080Y-93202095D01*
X142923080Y-93202095D02*
X142970700Y-93106857D01*
X142970700Y-93106857D02*
X143018319Y-93059238D01*
D10*
X134925680Y-90440190D02*
X133925680Y-90773523D01*
X133925680Y-90773523D02*
X134925680Y-91106856D01*
X134211395Y-91392571D02*
X134211395Y-91868761D01*
X133925680Y-91297333D02*
X134925680Y-91630666D01*
X134925680Y-91630666D02*
X133925680Y-91963999D01*
X133925680Y-92773523D02*
X133925680Y-92297333D01*
X133925680Y-92297333D02*
X134925680Y-92297333D01*
X134925680Y-92964000D02*
X133925680Y-93297333D01*
X133925680Y-93297333D02*
X134925680Y-93630666D01*
X134449490Y-93964000D02*
X134449490Y-94297333D01*
X133925680Y-94440190D02*
X133925680Y-93964000D01*
X133925680Y-93964000D02*
X134925680Y-93964000D01*
X134925680Y-93964000D02*
X134925680Y-94440190D01*
X134592347Y-95297333D02*
X133925680Y-95297333D01*
X134973300Y-95059238D02*
X134259014Y-94821143D01*
X134259014Y-94821143D02*
X134259014Y-95440190D01*
X143653319Y-91162094D02*
X142653319Y-91162094D01*
X142653319Y-91162094D02*
X142653319Y-90923999D01*
X142653319Y-90923999D02*
X142700938Y-90781142D01*
X142700938Y-90781142D02*
X142796176Y-90685904D01*
X142796176Y-90685904D02*
X142891414Y-90638285D01*
X142891414Y-90638285D02*
X143081890Y-90590666D01*
X143081890Y-90590666D02*
X143224747Y-90590666D01*
X143224747Y-90590666D02*
X143415223Y-90638285D01*
X143415223Y-90638285D02*
X143510461Y-90685904D01*
X143510461Y-90685904D02*
X143605700Y-90781142D01*
X143605700Y-90781142D02*
X143653319Y-90923999D01*
X143653319Y-90923999D02*
X143653319Y-91162094D01*
X143081890Y-90019237D02*
X143034271Y-90114475D01*
X143034271Y-90114475D02*
X142986652Y-90162094D01*
X142986652Y-90162094D02*
X142891414Y-90209713D01*
X142891414Y-90209713D02*
X142843795Y-90209713D01*
X142843795Y-90209713D02*
X142748557Y-90162094D01*
X142748557Y-90162094D02*
X142700938Y-90114475D01*
X142700938Y-90114475D02*
X142653319Y-90019237D01*
X142653319Y-90019237D02*
X142653319Y-89828761D01*
X142653319Y-89828761D02*
X142700938Y-89733523D01*
X142700938Y-89733523D02*
X142748557Y-89685904D01*
X142748557Y-89685904D02*
X142843795Y-89638285D01*
X142843795Y-89638285D02*
X142891414Y-89638285D01*
X142891414Y-89638285D02*
X142986652Y-89685904D01*
X142986652Y-89685904D02*
X143034271Y-89733523D01*
X143034271Y-89733523D02*
X143081890Y-89828761D01*
X143081890Y-89828761D02*
X143081890Y-90019237D01*
X143081890Y-90019237D02*
X143129509Y-90114475D01*
X143129509Y-90114475D02*
X143177128Y-90162094D01*
X143177128Y-90162094D02*
X143272366Y-90209713D01*
X143272366Y-90209713D02*
X143462842Y-90209713D01*
X143462842Y-90209713D02*
X143558080Y-90162094D01*
X143558080Y-90162094D02*
X143605700Y-90114475D01*
X143605700Y-90114475D02*
X143653319Y-90019237D01*
X143653319Y-90019237D02*
X143653319Y-89828761D01*
X143653319Y-89828761D02*
X143605700Y-89733523D01*
X143605700Y-89733523D02*
X143558080Y-89685904D01*
X143558080Y-89685904D02*
X143462842Y-89638285D01*
X143462842Y-89638285D02*
X143272366Y-89638285D01*
X143272366Y-89638285D02*
X143177128Y-89685904D01*
X143177128Y-89685904D02*
X143129509Y-89733523D01*
X143129509Y-89733523D02*
X143081890Y-89828761D01*
X181970819Y-90495857D02*
X181494628Y-90829190D01*
X181970819Y-91067285D02*
X180970819Y-91067285D01*
X180970819Y-91067285D02*
X180970819Y-90686333D01*
X180970819Y-90686333D02*
X181018438Y-90591095D01*
X181018438Y-90591095D02*
X181066057Y-90543476D01*
X181066057Y-90543476D02*
X181161295Y-90495857D01*
X181161295Y-90495857D02*
X181304152Y-90495857D01*
X181304152Y-90495857D02*
X181399390Y-90543476D01*
X181399390Y-90543476D02*
X181447009Y-90591095D01*
X181447009Y-90591095D02*
X181494628Y-90686333D01*
X181494628Y-90686333D02*
X181494628Y-91067285D01*
X181970819Y-89543476D02*
X181970819Y-90114904D01*
X181970819Y-89829190D02*
X180970819Y-89829190D01*
X180970819Y-89829190D02*
X181113676Y-89924428D01*
X181113676Y-89924428D02*
X181208914Y-90019666D01*
X181208914Y-90019666D02*
X181256533Y-90114904D01*
X180970819Y-88924428D02*
X180970819Y-88829190D01*
X180970819Y-88829190D02*
X181018438Y-88733952D01*
X181018438Y-88733952D02*
X181066057Y-88686333D01*
X181066057Y-88686333D02*
X181161295Y-88638714D01*
X181161295Y-88638714D02*
X181351771Y-88591095D01*
X181351771Y-88591095D02*
X181589866Y-88591095D01*
X181589866Y-88591095D02*
X181780342Y-88638714D01*
X181780342Y-88638714D02*
X181875580Y-88686333D01*
X181875580Y-88686333D02*
X181923200Y-88733952D01*
X181923200Y-88733952D02*
X181970819Y-88829190D01*
X181970819Y-88829190D02*
X181970819Y-88924428D01*
X181970819Y-88924428D02*
X181923200Y-89019666D01*
X181923200Y-89019666D02*
X181875580Y-89067285D01*
X181875580Y-89067285D02*
X181780342Y-89114904D01*
X181780342Y-89114904D02*
X181589866Y-89162523D01*
X181589866Y-89162523D02*
X181351771Y-89162523D01*
X181351771Y-89162523D02*
X181161295Y-89114904D01*
X181161295Y-89114904D02*
X181066057Y-89067285D01*
X181066057Y-89067285D02*
X181018438Y-89019666D01*
X181018438Y-89019666D02*
X180970819Y-88924428D01*
X157680819Y-75941916D02*
X157204628Y-76275249D01*
X157680819Y-76513344D02*
X156680819Y-76513344D01*
X156680819Y-76513344D02*
X156680819Y-76132392D01*
X156680819Y-76132392D02*
X156728438Y-76037154D01*
X156728438Y-76037154D02*
X156776057Y-75989535D01*
X156776057Y-75989535D02*
X156871295Y-75941916D01*
X156871295Y-75941916D02*
X157014152Y-75941916D01*
X157014152Y-75941916D02*
X157109390Y-75989535D01*
X157109390Y-75989535D02*
X157157009Y-76037154D01*
X157157009Y-76037154D02*
X157204628Y-76132392D01*
X157204628Y-76132392D02*
X157204628Y-76513344D01*
X156680819Y-75084773D02*
X156680819Y-75275249D01*
X156680819Y-75275249D02*
X156728438Y-75370487D01*
X156728438Y-75370487D02*
X156776057Y-75418106D01*
X156776057Y-75418106D02*
X156918914Y-75513344D01*
X156918914Y-75513344D02*
X157109390Y-75560963D01*
X157109390Y-75560963D02*
X157490342Y-75560963D01*
X157490342Y-75560963D02*
X157585580Y-75513344D01*
X157585580Y-75513344D02*
X157633200Y-75465725D01*
X157633200Y-75465725D02*
X157680819Y-75370487D01*
X157680819Y-75370487D02*
X157680819Y-75180011D01*
X157680819Y-75180011D02*
X157633200Y-75084773D01*
X157633200Y-75084773D02*
X157585580Y-75037154D01*
X157585580Y-75037154D02*
X157490342Y-74989535D01*
X157490342Y-74989535D02*
X157252247Y-74989535D01*
X157252247Y-74989535D02*
X157157009Y-75037154D01*
X157157009Y-75037154D02*
X157109390Y-75084773D01*
X157109390Y-75084773D02*
X157061771Y-75180011D01*
X157061771Y-75180011D02*
X157061771Y-75370487D01*
X157061771Y-75370487D02*
X157109390Y-75465725D01*
X157109390Y-75465725D02*
X157157009Y-75513344D01*
X157157009Y-75513344D02*
X157252247Y-75560963D01*
X162412819Y-73305344D02*
X161412819Y-73305344D01*
X161412819Y-73305344D02*
X161412819Y-73067249D01*
X161412819Y-73067249D02*
X161460438Y-72924392D01*
X161460438Y-72924392D02*
X161555676Y-72829154D01*
X161555676Y-72829154D02*
X161650914Y-72781535D01*
X161650914Y-72781535D02*
X161841390Y-72733916D01*
X161841390Y-72733916D02*
X161984247Y-72733916D01*
X161984247Y-72733916D02*
X162174723Y-72781535D01*
X162174723Y-72781535D02*
X162269961Y-72829154D01*
X162269961Y-72829154D02*
X162365200Y-72924392D01*
X162365200Y-72924392D02*
X162412819Y-73067249D01*
X162412819Y-73067249D02*
X162412819Y-73305344D01*
X162412819Y-72257725D02*
X162412819Y-72067249D01*
X162412819Y-72067249D02*
X162365200Y-71972011D01*
X162365200Y-71972011D02*
X162317580Y-71924392D01*
X162317580Y-71924392D02*
X162174723Y-71829154D01*
X162174723Y-71829154D02*
X161984247Y-71781535D01*
X161984247Y-71781535D02*
X161603295Y-71781535D01*
X161603295Y-71781535D02*
X161508057Y-71829154D01*
X161508057Y-71829154D02*
X161460438Y-71876773D01*
X161460438Y-71876773D02*
X161412819Y-71972011D01*
X161412819Y-71972011D02*
X161412819Y-72162487D01*
X161412819Y-72162487D02*
X161460438Y-72257725D01*
X161460438Y-72257725D02*
X161508057Y-72305344D01*
X161508057Y-72305344D02*
X161603295Y-72352963D01*
X161603295Y-72352963D02*
X161841390Y-72352963D01*
X161841390Y-72352963D02*
X161936628Y-72305344D01*
X161936628Y-72305344D02*
X161984247Y-72257725D01*
X161984247Y-72257725D02*
X162031866Y-72162487D01*
X162031866Y-72162487D02*
X162031866Y-71972011D01*
X162031866Y-71972011D02*
X161984247Y-71876773D01*
X161984247Y-71876773D02*
X161936628Y-71829154D01*
X161936628Y-71829154D02*
X161841390Y-71781535D01*
X157172819Y-73781535D02*
X156172819Y-73781535D01*
X156172819Y-73781535D02*
X156172819Y-73543440D01*
X156172819Y-73543440D02*
X156220438Y-73400583D01*
X156220438Y-73400583D02*
X156315676Y-73305345D01*
X156315676Y-73305345D02*
X156410914Y-73257726D01*
X156410914Y-73257726D02*
X156601390Y-73210107D01*
X156601390Y-73210107D02*
X156744247Y-73210107D01*
X156744247Y-73210107D02*
X156934723Y-73257726D01*
X156934723Y-73257726D02*
X157029961Y-73305345D01*
X157029961Y-73305345D02*
X157125200Y-73400583D01*
X157125200Y-73400583D02*
X157172819Y-73543440D01*
X157172819Y-73543440D02*
X157172819Y-73781535D01*
X157172819Y-72257726D02*
X157172819Y-72829154D01*
X157172819Y-72543440D02*
X156172819Y-72543440D01*
X156172819Y-72543440D02*
X156315676Y-72638678D01*
X156315676Y-72638678D02*
X156410914Y-72733916D01*
X156410914Y-72733916D02*
X156458533Y-72829154D01*
X156172819Y-71638678D02*
X156172819Y-71543440D01*
X156172819Y-71543440D02*
X156220438Y-71448202D01*
X156220438Y-71448202D02*
X156268057Y-71400583D01*
X156268057Y-71400583D02*
X156363295Y-71352964D01*
X156363295Y-71352964D02*
X156553771Y-71305345D01*
X156553771Y-71305345D02*
X156791866Y-71305345D01*
X156791866Y-71305345D02*
X156982342Y-71352964D01*
X156982342Y-71352964D02*
X157077580Y-71400583D01*
X157077580Y-71400583D02*
X157125200Y-71448202D01*
X157125200Y-71448202D02*
X157172819Y-71543440D01*
X157172819Y-71543440D02*
X157172819Y-71638678D01*
X157172819Y-71638678D02*
X157125200Y-71733916D01*
X157125200Y-71733916D02*
X157077580Y-71781535D01*
X157077580Y-71781535D02*
X156982342Y-71829154D01*
X156982342Y-71829154D02*
X156791866Y-71876773D01*
X156791866Y-71876773D02*
X156553771Y-71876773D01*
X156553771Y-71876773D02*
X156363295Y-71829154D01*
X156363295Y-71829154D02*
X156268057Y-71781535D01*
X156268057Y-71781535D02*
X156220438Y-71733916D01*
X156220438Y-71733916D02*
X156172819Y-71638678D01*
X162665580Y-79414666D02*
X162713200Y-79462285D01*
X162713200Y-79462285D02*
X162760819Y-79605142D01*
X162760819Y-79605142D02*
X162760819Y-79700380D01*
X162760819Y-79700380D02*
X162713200Y-79843237D01*
X162713200Y-79843237D02*
X162617961Y-79938475D01*
X162617961Y-79938475D02*
X162522723Y-79986094D01*
X162522723Y-79986094D02*
X162332247Y-80033713D01*
X162332247Y-80033713D02*
X162189390Y-80033713D01*
X162189390Y-80033713D02*
X161998914Y-79986094D01*
X161998914Y-79986094D02*
X161903676Y-79938475D01*
X161903676Y-79938475D02*
X161808438Y-79843237D01*
X161808438Y-79843237D02*
X161760819Y-79700380D01*
X161760819Y-79700380D02*
X161760819Y-79605142D01*
X161760819Y-79605142D02*
X161808438Y-79462285D01*
X161808438Y-79462285D02*
X161856057Y-79414666D01*
X161760819Y-78509904D02*
X161760819Y-78986094D01*
X161760819Y-78986094D02*
X162237009Y-79033713D01*
X162237009Y-79033713D02*
X162189390Y-78986094D01*
X162189390Y-78986094D02*
X162141771Y-78890856D01*
X162141771Y-78890856D02*
X162141771Y-78652761D01*
X162141771Y-78652761D02*
X162189390Y-78557523D01*
X162189390Y-78557523D02*
X162237009Y-78509904D01*
X162237009Y-78509904D02*
X162332247Y-78462285D01*
X162332247Y-78462285D02*
X162570342Y-78462285D01*
X162570342Y-78462285D02*
X162665580Y-78509904D01*
X162665580Y-78509904D02*
X162713200Y-78557523D01*
X162713200Y-78557523D02*
X162760819Y-78652761D01*
X162760819Y-78652761D02*
X162760819Y-78890856D01*
X162760819Y-78890856D02*
X162713200Y-78986094D01*
X162713200Y-78986094D02*
X162665580Y-79033713D01*
X152491905Y-74114819D02*
X152491905Y-73114819D01*
X152491905Y-73114819D02*
X152730000Y-73114819D01*
X152730000Y-73114819D02*
X152872857Y-73162438D01*
X152872857Y-73162438D02*
X152968095Y-73257676D01*
X152968095Y-73257676D02*
X153015714Y-73352914D01*
X153015714Y-73352914D02*
X153063333Y-73543390D01*
X153063333Y-73543390D02*
X153063333Y-73686247D01*
X153063333Y-73686247D02*
X153015714Y-73876723D01*
X153015714Y-73876723D02*
X152968095Y-73971961D01*
X152968095Y-73971961D02*
X152872857Y-74067200D01*
X152872857Y-74067200D02*
X152730000Y-74114819D01*
X152730000Y-74114819D02*
X152491905Y-74114819D01*
X153444286Y-73210057D02*
X153491905Y-73162438D01*
X153491905Y-73162438D02*
X153587143Y-73114819D01*
X153587143Y-73114819D02*
X153825238Y-73114819D01*
X153825238Y-73114819D02*
X153920476Y-73162438D01*
X153920476Y-73162438D02*
X153968095Y-73210057D01*
X153968095Y-73210057D02*
X154015714Y-73305295D01*
X154015714Y-73305295D02*
X154015714Y-73400533D01*
X154015714Y-73400533D02*
X153968095Y-73543390D01*
X153968095Y-73543390D02*
X153396667Y-74114819D01*
X153396667Y-74114819D02*
X154015714Y-74114819D01*
X193790667Y-92895200D02*
X193933524Y-92942819D01*
X193933524Y-92942819D02*
X194171619Y-92942819D01*
X194171619Y-92942819D02*
X194266857Y-92895200D01*
X194266857Y-92895200D02*
X194314476Y-92847580D01*
X194314476Y-92847580D02*
X194362095Y-92752342D01*
X194362095Y-92752342D02*
X194362095Y-92657104D01*
X194362095Y-92657104D02*
X194314476Y-92561866D01*
X194314476Y-92561866D02*
X194266857Y-92514247D01*
X194266857Y-92514247D02*
X194171619Y-92466628D01*
X194171619Y-92466628D02*
X193981143Y-92419009D01*
X193981143Y-92419009D02*
X193885905Y-92371390D01*
X193885905Y-92371390D02*
X193838286Y-92323771D01*
X193838286Y-92323771D02*
X193790667Y-92228533D01*
X193790667Y-92228533D02*
X193790667Y-92133295D01*
X193790667Y-92133295D02*
X193838286Y-92038057D01*
X193838286Y-92038057D02*
X193885905Y-91990438D01*
X193885905Y-91990438D02*
X193981143Y-91942819D01*
X193981143Y-91942819D02*
X194219238Y-91942819D01*
X194219238Y-91942819D02*
X194362095Y-91990438D01*
X194695429Y-91942819D02*
X194933524Y-92942819D01*
X194933524Y-92942819D02*
X195124000Y-92228533D01*
X195124000Y-92228533D02*
X195314476Y-92942819D01*
X195314476Y-92942819D02*
X195552572Y-91942819D01*
X196457333Y-92942819D02*
X195885905Y-92942819D01*
X196171619Y-92942819D02*
X196171619Y-91942819D01*
X196171619Y-91942819D02*
X196076381Y-92085676D01*
X196076381Y-92085676D02*
X195981143Y-92180914D01*
X195981143Y-92180914D02*
X195885905Y-92228533D01*
X193671618Y-101642819D02*
X193338285Y-101166628D01*
X193100190Y-101642819D02*
X193100190Y-100642819D01*
X193100190Y-100642819D02*
X193481142Y-100642819D01*
X193481142Y-100642819D02*
X193576380Y-100690438D01*
X193576380Y-100690438D02*
X193623999Y-100738057D01*
X193623999Y-100738057D02*
X193671618Y-100833295D01*
X193671618Y-100833295D02*
X193671618Y-100976152D01*
X193671618Y-100976152D02*
X193623999Y-101071390D01*
X193623999Y-101071390D02*
X193576380Y-101119009D01*
X193576380Y-101119009D02*
X193481142Y-101166628D01*
X193481142Y-101166628D02*
X193100190Y-101166628D01*
X194100190Y-101119009D02*
X194433523Y-101119009D01*
X194576380Y-101642819D02*
X194100190Y-101642819D01*
X194100190Y-101642819D02*
X194100190Y-100642819D01*
X194100190Y-100642819D02*
X194576380Y-100642819D01*
X194957333Y-101595200D02*
X195100190Y-101642819D01*
X195100190Y-101642819D02*
X195338285Y-101642819D01*
X195338285Y-101642819D02*
X195433523Y-101595200D01*
X195433523Y-101595200D02*
X195481142Y-101547580D01*
X195481142Y-101547580D02*
X195528761Y-101452342D01*
X195528761Y-101452342D02*
X195528761Y-101357104D01*
X195528761Y-101357104D02*
X195481142Y-101261866D01*
X195481142Y-101261866D02*
X195433523Y-101214247D01*
X195433523Y-101214247D02*
X195338285Y-101166628D01*
X195338285Y-101166628D02*
X195147809Y-101119009D01*
X195147809Y-101119009D02*
X195052571Y-101071390D01*
X195052571Y-101071390D02*
X195004952Y-101023771D01*
X195004952Y-101023771D02*
X194957333Y-100928533D01*
X194957333Y-100928533D02*
X194957333Y-100833295D01*
X194957333Y-100833295D02*
X195004952Y-100738057D01*
X195004952Y-100738057D02*
X195052571Y-100690438D01*
X195052571Y-100690438D02*
X195147809Y-100642819D01*
X195147809Y-100642819D02*
X195385904Y-100642819D01*
X195385904Y-100642819D02*
X195528761Y-100690438D01*
X195957333Y-101119009D02*
X196290666Y-101119009D01*
X196433523Y-101642819D02*
X195957333Y-101642819D01*
X195957333Y-101642819D02*
X195957333Y-100642819D01*
X195957333Y-100642819D02*
X196433523Y-100642819D01*
X196719238Y-100642819D02*
X197290666Y-100642819D01*
X197004952Y-101642819D02*
X197004952Y-100642819D01*
X162252819Y-76035916D02*
X161776628Y-76369249D01*
X162252819Y-76607344D02*
X161252819Y-76607344D01*
X161252819Y-76607344D02*
X161252819Y-76226392D01*
X161252819Y-76226392D02*
X161300438Y-76131154D01*
X161300438Y-76131154D02*
X161348057Y-76083535D01*
X161348057Y-76083535D02*
X161443295Y-76035916D01*
X161443295Y-76035916D02*
X161586152Y-76035916D01*
X161586152Y-76035916D02*
X161681390Y-76083535D01*
X161681390Y-76083535D02*
X161729009Y-76131154D01*
X161729009Y-76131154D02*
X161776628Y-76226392D01*
X161776628Y-76226392D02*
X161776628Y-76607344D01*
X161252819Y-75131154D02*
X161252819Y-75607344D01*
X161252819Y-75607344D02*
X161729009Y-75654963D01*
X161729009Y-75654963D02*
X161681390Y-75607344D01*
X161681390Y-75607344D02*
X161633771Y-75512106D01*
X161633771Y-75512106D02*
X161633771Y-75274011D01*
X161633771Y-75274011D02*
X161681390Y-75178773D01*
X161681390Y-75178773D02*
X161729009Y-75131154D01*
X161729009Y-75131154D02*
X161824247Y-75083535D01*
X161824247Y-75083535D02*
X162062342Y-75083535D01*
X162062342Y-75083535D02*
X162157580Y-75131154D01*
X162157580Y-75131154D02*
X162205200Y-75178773D01*
X162205200Y-75178773D02*
X162252819Y-75274011D01*
X162252819Y-75274011D02*
X162252819Y-75512106D01*
X162252819Y-75512106D02*
X162205200Y-75607344D01*
X162205200Y-75607344D02*
X162157580Y-75654963D01*
X149455761Y-87776057D02*
X149360523Y-87728438D01*
X149360523Y-87728438D02*
X149265285Y-87633200D01*
X149265285Y-87633200D02*
X149122428Y-87490342D01*
X149122428Y-87490342D02*
X149027190Y-87442723D01*
X149027190Y-87442723D02*
X148931952Y-87442723D01*
X148979571Y-87680819D02*
X148884333Y-87633200D01*
X148884333Y-87633200D02*
X148789095Y-87537961D01*
X148789095Y-87537961D02*
X148741476Y-87347485D01*
X148741476Y-87347485D02*
X148741476Y-87014152D01*
X148741476Y-87014152D02*
X148789095Y-86823676D01*
X148789095Y-86823676D02*
X148884333Y-86728438D01*
X148884333Y-86728438D02*
X148979571Y-86680819D01*
X148979571Y-86680819D02*
X149170047Y-86680819D01*
X149170047Y-86680819D02*
X149265285Y-86728438D01*
X149265285Y-86728438D02*
X149360523Y-86823676D01*
X149360523Y-86823676D02*
X149408142Y-87014152D01*
X149408142Y-87014152D02*
X149408142Y-87347485D01*
X149408142Y-87347485D02*
X149360523Y-87537961D01*
X149360523Y-87537961D02*
X149265285Y-87633200D01*
X149265285Y-87633200D02*
X149170047Y-87680819D01*
X149170047Y-87680819D02*
X148979571Y-87680819D01*
X149741476Y-86680819D02*
X150360523Y-86680819D01*
X150360523Y-86680819D02*
X150027190Y-87061771D01*
X150027190Y-87061771D02*
X150170047Y-87061771D01*
X150170047Y-87061771D02*
X150265285Y-87109390D01*
X150265285Y-87109390D02*
X150312904Y-87157009D01*
X150312904Y-87157009D02*
X150360523Y-87252247D01*
X150360523Y-87252247D02*
X150360523Y-87490342D01*
X150360523Y-87490342D02*
X150312904Y-87585580D01*
X150312904Y-87585580D02*
X150265285Y-87633200D01*
X150265285Y-87633200D02*
X150170047Y-87680819D01*
X150170047Y-87680819D02*
X149884333Y-87680819D01*
X149884333Y-87680819D02*
X149789095Y-87633200D01*
X149789095Y-87633200D02*
X149741476Y-87585580D01*
X156805333Y-96371580D02*
X156757714Y-96419200D01*
X156757714Y-96419200D02*
X156614857Y-96466819D01*
X156614857Y-96466819D02*
X156519619Y-96466819D01*
X156519619Y-96466819D02*
X156376762Y-96419200D01*
X156376762Y-96419200D02*
X156281524Y-96323961D01*
X156281524Y-96323961D02*
X156233905Y-96228723D01*
X156233905Y-96228723D02*
X156186286Y-96038247D01*
X156186286Y-96038247D02*
X156186286Y-95895390D01*
X156186286Y-95895390D02*
X156233905Y-95704914D01*
X156233905Y-95704914D02*
X156281524Y-95609676D01*
X156281524Y-95609676D02*
X156376762Y-95514438D01*
X156376762Y-95514438D02*
X156519619Y-95466819D01*
X156519619Y-95466819D02*
X156614857Y-95466819D01*
X156614857Y-95466819D02*
X156757714Y-95514438D01*
X156757714Y-95514438D02*
X156805333Y-95562057D01*
X157757714Y-96466819D02*
X157186286Y-96466819D01*
X157472000Y-96466819D02*
X157472000Y-95466819D01*
X157472000Y-95466819D02*
X157376762Y-95609676D01*
X157376762Y-95609676D02*
X157281524Y-95704914D01*
X157281524Y-95704914D02*
X157186286Y-95752533D01*
X143653319Y-82748094D02*
X142653319Y-82748094D01*
X142653319Y-82748094D02*
X142653319Y-82509999D01*
X142653319Y-82509999D02*
X142700938Y-82367142D01*
X142700938Y-82367142D02*
X142796176Y-82271904D01*
X142796176Y-82271904D02*
X142891414Y-82224285D01*
X142891414Y-82224285D02*
X143081890Y-82176666D01*
X143081890Y-82176666D02*
X143224747Y-82176666D01*
X143224747Y-82176666D02*
X143415223Y-82224285D01*
X143415223Y-82224285D02*
X143510461Y-82271904D01*
X143510461Y-82271904D02*
X143605700Y-82367142D01*
X143605700Y-82367142D02*
X143653319Y-82509999D01*
X143653319Y-82509999D02*
X143653319Y-82748094D01*
X142653319Y-81843332D02*
X142653319Y-81176666D01*
X142653319Y-81176666D02*
X143653319Y-81605237D01*
D11*
X143741080Y-78152666D02*
X143026795Y-78152666D01*
X143026795Y-78152666D02*
X142883938Y-78105047D01*
X142883938Y-78105047D02*
X142788700Y-78009809D01*
X142788700Y-78009809D02*
X142741080Y-77866952D01*
X142741080Y-77866952D02*
X142741080Y-77771714D01*
X143741080Y-78533619D02*
X143741080Y-79152666D01*
X143741080Y-79152666D02*
X143360128Y-78819333D01*
X143360128Y-78819333D02*
X143360128Y-78962190D01*
X143360128Y-78962190D02*
X143312509Y-79057428D01*
X143312509Y-79057428D02*
X143264890Y-79105047D01*
X143264890Y-79105047D02*
X143169652Y-79152666D01*
X143169652Y-79152666D02*
X142931557Y-79152666D01*
X142931557Y-79152666D02*
X142836319Y-79105047D01*
X142836319Y-79105047D02*
X142788700Y-79057428D01*
X142788700Y-79057428D02*
X142741080Y-78962190D01*
X142741080Y-78962190D02*
X142741080Y-78676476D01*
X142741080Y-78676476D02*
X142788700Y-78581238D01*
X142788700Y-78581238D02*
X142836319Y-78533619D01*
D10*
X134925680Y-73500190D02*
X133925680Y-73833523D01*
X133925680Y-73833523D02*
X134925680Y-74166856D01*
X134211395Y-74452571D02*
X134211395Y-74928761D01*
X133925680Y-74357333D02*
X134925680Y-74690666D01*
X134925680Y-74690666D02*
X133925680Y-75023999D01*
X133925680Y-75833523D02*
X133925680Y-75357333D01*
X133925680Y-75357333D02*
X134925680Y-75357333D01*
X134925680Y-76024000D02*
X133925680Y-76357333D01*
X133925680Y-76357333D02*
X134925680Y-76690666D01*
X134449490Y-77024000D02*
X134449490Y-77357333D01*
X133925680Y-77500190D02*
X133925680Y-77024000D01*
X133925680Y-77024000D02*
X134925680Y-77024000D01*
X134925680Y-77024000D02*
X134925680Y-77500190D01*
X134830442Y-77881143D02*
X134878061Y-77928762D01*
X134878061Y-77928762D02*
X134925680Y-78024000D01*
X134925680Y-78024000D02*
X134925680Y-78262095D01*
X134925680Y-78262095D02*
X134878061Y-78357333D01*
X134878061Y-78357333D02*
X134830442Y-78404952D01*
X134830442Y-78404952D02*
X134735204Y-78452571D01*
X134735204Y-78452571D02*
X134639966Y-78452571D01*
X134639966Y-78452571D02*
X134497109Y-78404952D01*
X134497109Y-78404952D02*
X133925680Y-77833524D01*
X133925680Y-77833524D02*
X133925680Y-78452571D01*
X152423905Y-83004819D02*
X152423905Y-82004819D01*
X152423905Y-82004819D02*
X152662000Y-82004819D01*
X152662000Y-82004819D02*
X152804857Y-82052438D01*
X152804857Y-82052438D02*
X152900095Y-82147676D01*
X152900095Y-82147676D02*
X152947714Y-82242914D01*
X152947714Y-82242914D02*
X152995333Y-82433390D01*
X152995333Y-82433390D02*
X152995333Y-82576247D01*
X152995333Y-82576247D02*
X152947714Y-82766723D01*
X152947714Y-82766723D02*
X152900095Y-82861961D01*
X152900095Y-82861961D02*
X152804857Y-82957200D01*
X152804857Y-82957200D02*
X152662000Y-83004819D01*
X152662000Y-83004819D02*
X152423905Y-83004819D01*
X153900095Y-82004819D02*
X153423905Y-82004819D01*
X153423905Y-82004819D02*
X153376286Y-82481009D01*
X153376286Y-82481009D02*
X153423905Y-82433390D01*
X153423905Y-82433390D02*
X153519143Y-82385771D01*
X153519143Y-82385771D02*
X153757238Y-82385771D01*
X153757238Y-82385771D02*
X153852476Y-82433390D01*
X153852476Y-82433390D02*
X153900095Y-82481009D01*
X153900095Y-82481009D02*
X153947714Y-82576247D01*
X153947714Y-82576247D02*
X153947714Y-82814342D01*
X153947714Y-82814342D02*
X153900095Y-82909580D01*
X153900095Y-82909580D02*
X153852476Y-82957200D01*
X153852476Y-82957200D02*
X153757238Y-83004819D01*
X153757238Y-83004819D02*
X153519143Y-83004819D01*
X153519143Y-83004819D02*
X153423905Y-82957200D01*
X153423905Y-82957200D02*
X153376286Y-82909580D01*
D11*
X172431419Y-92709904D02*
X173240942Y-92709904D01*
X173240942Y-92709904D02*
X173336180Y-92662285D01*
X173336180Y-92662285D02*
X173383800Y-92614666D01*
X173383800Y-92614666D02*
X173431419Y-92519428D01*
X173431419Y-92519428D02*
X173431419Y-92328952D01*
X173431419Y-92328952D02*
X173383800Y-92233714D01*
X173383800Y-92233714D02*
X173336180Y-92186095D01*
X173336180Y-92186095D02*
X173240942Y-92138476D01*
X173240942Y-92138476D02*
X172431419Y-92138476D01*
X172431419Y-91757523D02*
X172431419Y-91138476D01*
X172431419Y-91138476D02*
X172812371Y-91471809D01*
X172812371Y-91471809D02*
X172812371Y-91328952D01*
X172812371Y-91328952D02*
X172859990Y-91233714D01*
X172859990Y-91233714D02*
X172907609Y-91186095D01*
X172907609Y-91186095D02*
X173002847Y-91138476D01*
X173002847Y-91138476D02*
X173240942Y-91138476D01*
X173240942Y-91138476D02*
X173336180Y-91186095D01*
X173336180Y-91186095D02*
X173383800Y-91233714D01*
X173383800Y-91233714D02*
X173431419Y-91328952D01*
X173431419Y-91328952D02*
X173431419Y-91614666D01*
X173431419Y-91614666D02*
X173383800Y-91709904D01*
X173383800Y-91709904D02*
X173336180Y-91757523D01*
D10*
X165949333Y-90021580D02*
X165901714Y-90069200D01*
X165901714Y-90069200D02*
X165758857Y-90116819D01*
X165758857Y-90116819D02*
X165663619Y-90116819D01*
X165663619Y-90116819D02*
X165520762Y-90069200D01*
X165520762Y-90069200D02*
X165425524Y-89973961D01*
X165425524Y-89973961D02*
X165377905Y-89878723D01*
X165377905Y-89878723D02*
X165330286Y-89688247D01*
X165330286Y-89688247D02*
X165330286Y-89545390D01*
X165330286Y-89545390D02*
X165377905Y-89354914D01*
X165377905Y-89354914D02*
X165425524Y-89259676D01*
X165425524Y-89259676D02*
X165520762Y-89164438D01*
X165520762Y-89164438D02*
X165663619Y-89116819D01*
X165663619Y-89116819D02*
X165758857Y-89116819D01*
X165758857Y-89116819D02*
X165901714Y-89164438D01*
X165901714Y-89164438D02*
X165949333Y-89212057D01*
X166330286Y-89212057D02*
X166377905Y-89164438D01*
X166377905Y-89164438D02*
X166473143Y-89116819D01*
X166473143Y-89116819D02*
X166711238Y-89116819D01*
X166711238Y-89116819D02*
X166806476Y-89164438D01*
X166806476Y-89164438D02*
X166854095Y-89212057D01*
X166854095Y-89212057D02*
X166901714Y-89307295D01*
X166901714Y-89307295D02*
X166901714Y-89402533D01*
X166901714Y-89402533D02*
X166854095Y-89545390D01*
X166854095Y-89545390D02*
X166282667Y-90116819D01*
X166282667Y-90116819D02*
X166901714Y-90116819D01*
X203732333Y-95641819D02*
X203399000Y-95165628D01*
X203160905Y-95641819D02*
X203160905Y-94641819D01*
X203160905Y-94641819D02*
X203541857Y-94641819D01*
X203541857Y-94641819D02*
X203637095Y-94689438D01*
X203637095Y-94689438D02*
X203684714Y-94737057D01*
X203684714Y-94737057D02*
X203732333Y-94832295D01*
X203732333Y-94832295D02*
X203732333Y-94975152D01*
X203732333Y-94975152D02*
X203684714Y-95070390D01*
X203684714Y-95070390D02*
X203637095Y-95118009D01*
X203637095Y-95118009D02*
X203541857Y-95165628D01*
X203541857Y-95165628D02*
X203160905Y-95165628D01*
X204208524Y-95641819D02*
X204399000Y-95641819D01*
X204399000Y-95641819D02*
X204494238Y-95594200D01*
X204494238Y-95594200D02*
X204541857Y-95546580D01*
X204541857Y-95546580D02*
X204637095Y-95403723D01*
X204637095Y-95403723D02*
X204684714Y-95213247D01*
X204684714Y-95213247D02*
X204684714Y-94832295D01*
X204684714Y-94832295D02*
X204637095Y-94737057D01*
X204637095Y-94737057D02*
X204589476Y-94689438D01*
X204589476Y-94689438D02*
X204494238Y-94641819D01*
X204494238Y-94641819D02*
X204303762Y-94641819D01*
X204303762Y-94641819D02*
X204208524Y-94689438D01*
X204208524Y-94689438D02*
X204160905Y-94737057D01*
X204160905Y-94737057D02*
X204113286Y-94832295D01*
X204113286Y-94832295D02*
X204113286Y-95070390D01*
X204113286Y-95070390D02*
X204160905Y-95165628D01*
X204160905Y-95165628D02*
X204208524Y-95213247D01*
X204208524Y-95213247D02*
X204303762Y-95260866D01*
X204303762Y-95260866D02*
X204494238Y-95260866D01*
X204494238Y-95260866D02*
X204589476Y-95213247D01*
X204589476Y-95213247D02*
X204637095Y-95165628D01*
X204637095Y-95165628D02*
X204684714Y-95070390D01*
X162560095Y-90640819D02*
X162560095Y-91450342D01*
X162560095Y-91450342D02*
X162607714Y-91545580D01*
X162607714Y-91545580D02*
X162655333Y-91593200D01*
X162655333Y-91593200D02*
X162750571Y-91640819D01*
X162750571Y-91640819D02*
X162941047Y-91640819D01*
X162941047Y-91640819D02*
X163036285Y-91593200D01*
X163036285Y-91593200D02*
X163083904Y-91545580D01*
X163083904Y-91545580D02*
X163131523Y-91450342D01*
X163131523Y-91450342D02*
X163131523Y-90640819D01*
X163560095Y-90736057D02*
X163607714Y-90688438D01*
X163607714Y-90688438D02*
X163702952Y-90640819D01*
X163702952Y-90640819D02*
X163941047Y-90640819D01*
X163941047Y-90640819D02*
X164036285Y-90688438D01*
X164036285Y-90688438D02*
X164083904Y-90736057D01*
X164083904Y-90736057D02*
X164131523Y-90831295D01*
X164131523Y-90831295D02*
X164131523Y-90926533D01*
X164131523Y-90926533D02*
X164083904Y-91069390D01*
X164083904Y-91069390D02*
X163512476Y-91640819D01*
X163512476Y-91640819D02*
X164131523Y-91640819D01*
X149531761Y-78830057D02*
X149436523Y-78782438D01*
X149436523Y-78782438D02*
X149341285Y-78687200D01*
X149341285Y-78687200D02*
X149198428Y-78544342D01*
X149198428Y-78544342D02*
X149103190Y-78496723D01*
X149103190Y-78496723D02*
X149007952Y-78496723D01*
X149055571Y-78734819D02*
X148960333Y-78687200D01*
X148960333Y-78687200D02*
X148865095Y-78591961D01*
X148865095Y-78591961D02*
X148817476Y-78401485D01*
X148817476Y-78401485D02*
X148817476Y-78068152D01*
X148817476Y-78068152D02*
X148865095Y-77877676D01*
X148865095Y-77877676D02*
X148960333Y-77782438D01*
X148960333Y-77782438D02*
X149055571Y-77734819D01*
X149055571Y-77734819D02*
X149246047Y-77734819D01*
X149246047Y-77734819D02*
X149341285Y-77782438D01*
X149341285Y-77782438D02*
X149436523Y-77877676D01*
X149436523Y-77877676D02*
X149484142Y-78068152D01*
X149484142Y-78068152D02*
X149484142Y-78401485D01*
X149484142Y-78401485D02*
X149436523Y-78591961D01*
X149436523Y-78591961D02*
X149341285Y-78687200D01*
X149341285Y-78687200D02*
X149246047Y-78734819D01*
X149246047Y-78734819D02*
X149055571Y-78734819D01*
X149865095Y-77830057D02*
X149912714Y-77782438D01*
X149912714Y-77782438D02*
X150007952Y-77734819D01*
X150007952Y-77734819D02*
X150246047Y-77734819D01*
X150246047Y-77734819D02*
X150341285Y-77782438D01*
X150341285Y-77782438D02*
X150388904Y-77830057D01*
X150388904Y-77830057D02*
X150436523Y-77925295D01*
X150436523Y-77925295D02*
X150436523Y-78020533D01*
X150436523Y-78020533D02*
X150388904Y-78163390D01*
X150388904Y-78163390D02*
X149817476Y-78734819D01*
X149817476Y-78734819D02*
X150436523Y-78734819D01*
X161649580Y-90336666D02*
X161697200Y-90384285D01*
X161697200Y-90384285D02*
X161744819Y-90527142D01*
X161744819Y-90527142D02*
X161744819Y-90622380D01*
X161744819Y-90622380D02*
X161697200Y-90765237D01*
X161697200Y-90765237D02*
X161601961Y-90860475D01*
X161601961Y-90860475D02*
X161506723Y-90908094D01*
X161506723Y-90908094D02*
X161316247Y-90955713D01*
X161316247Y-90955713D02*
X161173390Y-90955713D01*
X161173390Y-90955713D02*
X160982914Y-90908094D01*
X160982914Y-90908094D02*
X160887676Y-90860475D01*
X160887676Y-90860475D02*
X160792438Y-90765237D01*
X160792438Y-90765237D02*
X160744819Y-90622380D01*
X160744819Y-90622380D02*
X160744819Y-90527142D01*
X160744819Y-90527142D02*
X160792438Y-90384285D01*
X160792438Y-90384285D02*
X160840057Y-90336666D01*
X160744819Y-90003332D02*
X160744819Y-89384285D01*
X160744819Y-89384285D02*
X161125771Y-89717618D01*
X161125771Y-89717618D02*
X161125771Y-89574761D01*
X161125771Y-89574761D02*
X161173390Y-89479523D01*
X161173390Y-89479523D02*
X161221009Y-89431904D01*
X161221009Y-89431904D02*
X161316247Y-89384285D01*
X161316247Y-89384285D02*
X161554342Y-89384285D01*
X161554342Y-89384285D02*
X161649580Y-89431904D01*
X161649580Y-89431904D02*
X161697200Y-89479523D01*
X161697200Y-89479523D02*
X161744819Y-89574761D01*
X161744819Y-89574761D02*
X161744819Y-89860475D01*
X161744819Y-89860475D02*
X161697200Y-89955713D01*
X161697200Y-89955713D02*
X161649580Y-90003332D01*
X149453261Y-96026057D02*
X149358023Y-95978438D01*
X149358023Y-95978438D02*
X149262785Y-95883200D01*
X149262785Y-95883200D02*
X149119928Y-95740342D01*
X149119928Y-95740342D02*
X149024690Y-95692723D01*
X149024690Y-95692723D02*
X148929452Y-95692723D01*
X148977071Y-95930819D02*
X148881833Y-95883200D01*
X148881833Y-95883200D02*
X148786595Y-95787961D01*
X148786595Y-95787961D02*
X148738976Y-95597485D01*
X148738976Y-95597485D02*
X148738976Y-95264152D01*
X148738976Y-95264152D02*
X148786595Y-95073676D01*
X148786595Y-95073676D02*
X148881833Y-94978438D01*
X148881833Y-94978438D02*
X148977071Y-94930819D01*
X148977071Y-94930819D02*
X149167547Y-94930819D01*
X149167547Y-94930819D02*
X149262785Y-94978438D01*
X149262785Y-94978438D02*
X149358023Y-95073676D01*
X149358023Y-95073676D02*
X149405642Y-95264152D01*
X149405642Y-95264152D02*
X149405642Y-95597485D01*
X149405642Y-95597485D02*
X149358023Y-95787961D01*
X149358023Y-95787961D02*
X149262785Y-95883200D01*
X149262785Y-95883200D02*
X149167547Y-95930819D01*
X149167547Y-95930819D02*
X148977071Y-95930819D01*
X150262785Y-95264152D02*
X150262785Y-95930819D01*
X150024690Y-94883200D02*
X149786595Y-95597485D01*
X149786595Y-95597485D02*
X150405642Y-95597485D01*
X153000833Y-96118819D02*
X152667500Y-95642628D01*
X152429405Y-96118819D02*
X152429405Y-95118819D01*
X152429405Y-95118819D02*
X152810357Y-95118819D01*
X152810357Y-95118819D02*
X152905595Y-95166438D01*
X152905595Y-95166438D02*
X152953214Y-95214057D01*
X152953214Y-95214057D02*
X153000833Y-95309295D01*
X153000833Y-95309295D02*
X153000833Y-95452152D01*
X153000833Y-95452152D02*
X152953214Y-95547390D01*
X152953214Y-95547390D02*
X152905595Y-95595009D01*
X152905595Y-95595009D02*
X152810357Y-95642628D01*
X152810357Y-95642628D02*
X152429405Y-95642628D01*
X153857976Y-95452152D02*
X153857976Y-96118819D01*
X153619881Y-95071200D02*
X153381786Y-95785485D01*
X153381786Y-95785485D02*
X154000833Y-95785485D01*
X152517405Y-65732819D02*
X152517405Y-64732819D01*
X152517405Y-64732819D02*
X152755500Y-64732819D01*
X152755500Y-64732819D02*
X152898357Y-64780438D01*
X152898357Y-64780438D02*
X152993595Y-64875676D01*
X152993595Y-64875676D02*
X153041214Y-64970914D01*
X153041214Y-64970914D02*
X153088833Y-65161390D01*
X153088833Y-65161390D02*
X153088833Y-65304247D01*
X153088833Y-65304247D02*
X153041214Y-65494723D01*
X153041214Y-65494723D02*
X152993595Y-65589961D01*
X152993595Y-65589961D02*
X152898357Y-65685200D01*
X152898357Y-65685200D02*
X152755500Y-65732819D01*
X152755500Y-65732819D02*
X152517405Y-65732819D01*
X154041214Y-65732819D02*
X153469786Y-65732819D01*
X153755500Y-65732819D02*
X153755500Y-64732819D01*
X153755500Y-64732819D02*
X153660262Y-64875676D01*
X153660262Y-64875676D02*
X153565024Y-64970914D01*
X153565024Y-64970914D02*
X153469786Y-65018533D01*
X160887580Y-79414666D02*
X160935200Y-79462285D01*
X160935200Y-79462285D02*
X160982819Y-79605142D01*
X160982819Y-79605142D02*
X160982819Y-79700380D01*
X160982819Y-79700380D02*
X160935200Y-79843237D01*
X160935200Y-79843237D02*
X160839961Y-79938475D01*
X160839961Y-79938475D02*
X160744723Y-79986094D01*
X160744723Y-79986094D02*
X160554247Y-80033713D01*
X160554247Y-80033713D02*
X160411390Y-80033713D01*
X160411390Y-80033713D02*
X160220914Y-79986094D01*
X160220914Y-79986094D02*
X160125676Y-79938475D01*
X160125676Y-79938475D02*
X160030438Y-79843237D01*
X160030438Y-79843237D02*
X159982819Y-79700380D01*
X159982819Y-79700380D02*
X159982819Y-79605142D01*
X159982819Y-79605142D02*
X160030438Y-79462285D01*
X160030438Y-79462285D02*
X160078057Y-79414666D01*
X160316152Y-78557523D02*
X160982819Y-78557523D01*
X159935200Y-78795618D02*
X160649485Y-79033713D01*
X160649485Y-79033713D02*
X160649485Y-78414666D01*
D12*
%TO.C,R15*%
X178836258Y-79262500D02*
X178361742Y-79262500D01*
X178836258Y-78217500D02*
X178361742Y-78217500D01*
%TO.C,R14*%
X178361742Y-76723500D02*
X178836258Y-76723500D01*
X178361742Y-77768500D02*
X178836258Y-77768500D01*
%TO.C,C7*%
X178408420Y-79754000D02*
X178689580Y-79754000D01*
X178408420Y-80774000D02*
X178689580Y-80774000D01*
%TO.C,J12*%
X200730000Y-67334000D02*
X200730000Y-63314000D01*
X200730000Y-65834000D02*
X199730000Y-65834000D01*
X200730000Y-63314000D02*
X190510000Y-63314000D01*
X200230000Y-65024000D02*
X200730000Y-65024000D01*
X200230000Y-63814000D02*
X200230000Y-65024000D01*
X199730000Y-65834000D02*
X199730000Y-67334000D01*
X191510000Y-65834000D02*
X191510000Y-67334000D01*
X191010000Y-65024000D02*
X191010000Y-63814000D01*
X191010000Y-63814000D02*
X200230000Y-63814000D01*
X190510000Y-67334000D02*
X200730000Y-67334000D01*
X190510000Y-65834000D02*
X191510000Y-65834000D01*
X190510000Y-65024000D02*
X191010000Y-65024000D01*
X190510000Y-63314000D02*
X190510000Y-67334000D01*
X190210000Y-67634000D02*
X192710000Y-67634000D01*
X190210000Y-65134000D02*
X190210000Y-67634000D01*
%TO.C,R13*%
X187183500Y-65136258D02*
X187183500Y-64661742D01*
X188228500Y-65136258D02*
X188228500Y-64661742D01*
%TO.C,Q9*%
X184579500Y-66396000D02*
X185229500Y-66396000D01*
X184579500Y-66396000D02*
X183929500Y-66396000D01*
X184579500Y-63276000D02*
X185229500Y-63276000D01*
X184579500Y-63276000D02*
X183929500Y-63276000D01*
X185982000Y-66676000D02*
X185502000Y-66676000D01*
X185742000Y-66346000D01*
X185982000Y-66676000D01*
G36*
X185982000Y-66676000D02*
G01*
X185502000Y-66676000D01*
X185742000Y-66346000D01*
X185982000Y-66676000D01*
G37*
%TO.C,J9*%
X200756000Y-73430000D02*
X200756000Y-69410000D01*
X200756000Y-71930000D02*
X199756000Y-71930000D01*
X200756000Y-69410000D02*
X190536000Y-69410000D01*
X200256000Y-71120000D02*
X200756000Y-71120000D01*
X200256000Y-69910000D02*
X200256000Y-71120000D01*
X199756000Y-71930000D02*
X199756000Y-73430000D01*
X191536000Y-71930000D02*
X191536000Y-73430000D01*
X191036000Y-71120000D02*
X191036000Y-69910000D01*
X191036000Y-69910000D02*
X200256000Y-69910000D01*
X190536000Y-73430000D02*
X200756000Y-73430000D01*
X190536000Y-71930000D02*
X191536000Y-71930000D01*
X190536000Y-71120000D02*
X191036000Y-71120000D01*
X190536000Y-69410000D02*
X190536000Y-73430000D01*
X190236000Y-73730000D02*
X192736000Y-73730000D01*
X190236000Y-71230000D02*
X190236000Y-73730000D01*
%TO.C,R11*%
X188228500Y-71294258D02*
X188228500Y-70819742D01*
X187183500Y-71294258D02*
X187183500Y-70819742D01*
%TO.C,Q7*%
X184579500Y-69444000D02*
X183929500Y-69444000D01*
X184579500Y-69444000D02*
X185229500Y-69444000D01*
X184579500Y-72564000D02*
X183929500Y-72564000D01*
X184579500Y-72564000D02*
X186254500Y-72564000D01*
%TO.C,J7*%
X190236000Y-83422000D02*
X190236000Y-85922000D01*
X190236000Y-85922000D02*
X192736000Y-85922000D01*
X190536000Y-81602000D02*
X190536000Y-85622000D01*
X190536000Y-83312000D02*
X191036000Y-83312000D01*
X190536000Y-84122000D02*
X191536000Y-84122000D01*
X190536000Y-85622000D02*
X200756000Y-85622000D01*
X191036000Y-82102000D02*
X200256000Y-82102000D01*
X191036000Y-83312000D02*
X191036000Y-82102000D01*
X191536000Y-84122000D02*
X191536000Y-85622000D01*
X199756000Y-84122000D02*
X199756000Y-85622000D01*
X200256000Y-82102000D02*
X200256000Y-83312000D01*
X200256000Y-83312000D02*
X200756000Y-83312000D01*
X200756000Y-81602000D02*
X190536000Y-81602000D01*
X200756000Y-84122000D02*
X199756000Y-84122000D01*
X200756000Y-85622000D02*
X200756000Y-81602000D01*
%TO.C,R12*%
X187168000Y-77324258D02*
X187168000Y-76849742D01*
X188213000Y-77324258D02*
X188213000Y-76849742D01*
%TO.C,Q8*%
X184564000Y-78710000D02*
X186239000Y-78710000D01*
X184564000Y-78710000D02*
X183914000Y-78710000D01*
X184564000Y-75590000D02*
X185214000Y-75590000D01*
X184564000Y-75590000D02*
X183914000Y-75590000D01*
%TO.C,Q5*%
X184579500Y-84756000D02*
X186254500Y-84756000D01*
X184579500Y-84756000D02*
X183929500Y-84756000D01*
X184579500Y-81636000D02*
X185229500Y-81636000D01*
X184579500Y-81636000D02*
X183929500Y-81636000D01*
%TO.C,R7*%
X187183500Y-83370258D02*
X187183500Y-82895742D01*
X188228500Y-83370258D02*
X188228500Y-82895742D01*
%TO.C,J10*%
X190236000Y-77316000D02*
X190236000Y-79816000D01*
X190236000Y-79816000D02*
X192736000Y-79816000D01*
X190536000Y-75496000D02*
X190536000Y-79516000D01*
X190536000Y-77206000D02*
X191036000Y-77206000D01*
X190536000Y-78016000D02*
X191536000Y-78016000D01*
X190536000Y-79516000D02*
X200756000Y-79516000D01*
X191036000Y-75996000D02*
X200256000Y-75996000D01*
X191036000Y-77206000D02*
X191036000Y-75996000D01*
X191536000Y-78016000D02*
X191536000Y-79516000D01*
X199756000Y-78016000D02*
X199756000Y-79516000D01*
X200256000Y-75996000D02*
X200256000Y-77206000D01*
X200256000Y-77206000D02*
X200756000Y-77206000D01*
X200756000Y-75496000D02*
X190536000Y-75496000D01*
X200756000Y-78016000D02*
X199756000Y-78016000D01*
X200756000Y-79516000D02*
X200756000Y-75496000D01*
%TO.C,J8*%
X200756000Y-91754000D02*
X200756000Y-87734000D01*
X200756000Y-90254000D02*
X199756000Y-90254000D01*
X200756000Y-87734000D02*
X190536000Y-87734000D01*
X200256000Y-89444000D02*
X200756000Y-89444000D01*
X200256000Y-88234000D02*
X200256000Y-89444000D01*
X199756000Y-90254000D02*
X199756000Y-91754000D01*
X191536000Y-90254000D02*
X191536000Y-91754000D01*
X191036000Y-89444000D02*
X191036000Y-88234000D01*
X191036000Y-88234000D02*
X200256000Y-88234000D01*
X190536000Y-91754000D02*
X200756000Y-91754000D01*
X190536000Y-90254000D02*
X191536000Y-90254000D01*
X190536000Y-89444000D02*
X191036000Y-89444000D01*
X190536000Y-87734000D02*
X190536000Y-91754000D01*
X190236000Y-92054000D02*
X192736000Y-92054000D01*
X190236000Y-89554000D02*
X190236000Y-92054000D01*
%TO.C,R8*%
X188228500Y-89708258D02*
X188228500Y-89233742D01*
X187183500Y-89708258D02*
X187183500Y-89233742D01*
%TO.C,Q6*%
X184579500Y-87848000D02*
X183929500Y-87848000D01*
X184579500Y-87848000D02*
X185229500Y-87848000D01*
X184579500Y-90968000D02*
X183929500Y-90968000D01*
X184579500Y-90968000D02*
X186254500Y-90968000D01*
%TO.C,D4*%
X147388500Y-72404000D02*
X144088500Y-72404000D01*
X147388500Y-72404000D02*
X147388500Y-77914000D01*
X144088500Y-72404000D02*
X144088500Y-77914000D01*
D13*
%TO.C,J2*%
X142380500Y-63810000D02*
X141618500Y-63810000D01*
X141618500Y-63810000D02*
X135380500Y-63810000D01*
X136880500Y-63810000D02*
X136880500Y-70810000D01*
X142380500Y-70810000D02*
X142380500Y-63810000D01*
X141618500Y-70810000D02*
X142380500Y-70810000D01*
X135380500Y-70810000D02*
X135380500Y-63810000D01*
X135380500Y-70810000D02*
X141618500Y-70810000D01*
D12*
%TO.C,C6*%
X201281420Y-93216000D02*
X201562580Y-93216000D01*
X201281420Y-94236000D02*
X201562580Y-94236000D01*
D13*
%TO.C,J4*%
X142380500Y-81004000D02*
X141618500Y-81004000D01*
X141618500Y-81004000D02*
X135380500Y-81004000D01*
X136880500Y-81004000D02*
X136880500Y-88004000D01*
X142380500Y-88004000D02*
X142380500Y-81004000D01*
X141618500Y-88004000D02*
X142380500Y-88004000D01*
X135380500Y-88004000D02*
X135380500Y-81004000D01*
X135380500Y-88004000D02*
X141618500Y-88004000D01*
D12*
%TO.C,R2*%
X153483258Y-77550500D02*
X153008742Y-77550500D01*
X153483258Y-76505500D02*
X153008742Y-76505500D01*
%TO.C,J6*%
X162524000Y-66912000D02*
X162524000Y-69412000D01*
X162524000Y-69412000D02*
X165024000Y-69412000D01*
X162824000Y-65092000D02*
X162824000Y-69112000D01*
X162824000Y-66802000D02*
X163324000Y-66802000D01*
X162824000Y-67612000D02*
X163824000Y-67612000D01*
X162824000Y-69112000D02*
X175544000Y-69112000D01*
X163324000Y-65592000D02*
X175044000Y-65592000D01*
X163324000Y-66802000D02*
X163324000Y-65592000D01*
X163824000Y-67612000D02*
X163824000Y-69112000D01*
X174544000Y-67612000D02*
X174544000Y-69112000D01*
X175044000Y-65592000D02*
X175044000Y-66802000D01*
X175044000Y-66802000D02*
X175544000Y-66802000D01*
X175544000Y-65092000D02*
X162824000Y-65092000D01*
X175544000Y-67612000D02*
X174544000Y-67612000D01*
X175544000Y-69112000D02*
X175544000Y-65092000D01*
%TO.C,D6*%
X154647000Y-93191000D02*
X154647000Y-91721000D01*
X154647000Y-91721000D02*
X152362000Y-91721000D01*
X152362000Y-93191000D02*
X154647000Y-93191000D01*
%TO.C,R3*%
X153407258Y-86374500D02*
X152932742Y-86374500D01*
X153407258Y-85329500D02*
X152932742Y-85329500D01*
%TO.C,Q1*%
X149627000Y-69124000D02*
X151302000Y-69124000D01*
X149627000Y-69124000D02*
X148977000Y-69124000D01*
X149627000Y-66004000D02*
X150277000Y-66004000D01*
X149627000Y-66004000D02*
X148977000Y-66004000D01*
D13*
%TO.C,J1*%
X181588000Y-93274000D02*
X181588000Y-94036000D01*
X181588000Y-94036000D02*
X181588000Y-100274000D01*
X181588000Y-98774000D02*
X188588000Y-98774000D01*
X188588000Y-93274000D02*
X181588000Y-93274000D01*
X188588000Y-94036000D02*
X188588000Y-93274000D01*
X188588000Y-100274000D02*
X181588000Y-100274000D01*
X188588000Y-100274000D02*
X188588000Y-94036000D01*
D12*
%TO.C,U1*%
X169418000Y-79165000D02*
X165818000Y-79165000D01*
X169418000Y-79165000D02*
X171618000Y-79165000D01*
X169418000Y-85935000D02*
X167218000Y-85935000D01*
X169418000Y-85935000D02*
X171618000Y-85935000D01*
%TO.C,D3*%
X147388500Y-63800000D02*
X144088500Y-63800000D01*
X147388500Y-63800000D02*
X147388500Y-69310000D01*
X144088500Y-63800000D02*
X144088500Y-69310000D01*
%TO.C,R1*%
X153483258Y-69102500D02*
X153008742Y-69102500D01*
X153483258Y-68057500D02*
X153008742Y-68057500D01*
D13*
%TO.C,J5*%
X142380500Y-89464000D02*
X141618500Y-89464000D01*
X141618500Y-89464000D02*
X135380500Y-89464000D01*
X136880500Y-89464000D02*
X136880500Y-96464000D01*
X142380500Y-96464000D02*
X142380500Y-89464000D01*
X141618500Y-96464000D02*
X142380500Y-96464000D01*
X135380500Y-96464000D02*
X135380500Y-89464000D01*
X135380500Y-96464000D02*
X141618500Y-96464000D01*
D12*
%TO.C,D8*%
X147388500Y-89454000D02*
X144088500Y-89454000D01*
X147388500Y-89454000D02*
X147388500Y-94964000D01*
X144088500Y-89454000D02*
X144088500Y-94964000D01*
%TO.C,R10*%
X180608500Y-89615742D02*
X180608500Y-90090258D01*
X179563500Y-89615742D02*
X179563500Y-90090258D01*
%TO.C,R6*%
X157973500Y-76012508D02*
X157973500Y-75537992D01*
X159018500Y-76012508D02*
X159018500Y-75537992D01*
%TO.C,D9*%
X161263000Y-71082250D02*
X159793000Y-71082250D01*
X159793000Y-71082250D02*
X159793000Y-73367250D01*
X161263000Y-73367250D02*
X161263000Y-71082250D01*
%TO.C,D10*%
X159456000Y-70803750D02*
X157536000Y-70803750D01*
X157536000Y-70803750D02*
X157536000Y-73488750D01*
X159456000Y-73488750D02*
X159456000Y-70803750D01*
%TO.C,C5*%
X162816000Y-81393420D02*
X162816000Y-81674580D01*
X161796000Y-81393420D02*
X161796000Y-81674580D01*
%TO.C,D2*%
X154715000Y-75919000D02*
X154715000Y-74449000D01*
X154715000Y-74449000D02*
X152430000Y-74449000D01*
X152430000Y-75919000D02*
X154715000Y-75919000D01*
%TO.C,SW1*%
X191624000Y-95988000D02*
X191624000Y-97488000D01*
X192874000Y-99988000D02*
X197374000Y-99988000D01*
X197374000Y-93488000D02*
X192874000Y-93488000D01*
X198624000Y-97488000D02*
X198624000Y-95988000D01*
%TO.C,R5*%
X160005500Y-76043508D02*
X160005500Y-75568992D01*
X161050500Y-76043508D02*
X161050500Y-75568992D01*
%TO.C,Q3*%
X149551000Y-86386000D02*
X151226000Y-86386000D01*
X149551000Y-86386000D02*
X148901000Y-86386000D01*
X149551000Y-83266000D02*
X150201000Y-83266000D01*
X149551000Y-83266000D02*
X148901000Y-83266000D01*
%TO.C,C1*%
X159906580Y-96522000D02*
X159625420Y-96522000D01*
X159906580Y-95502000D02*
X159625420Y-95502000D01*
%TO.C,D7*%
X147388500Y-81040000D02*
X144088500Y-81040000D01*
X147388500Y-81040000D02*
X147388500Y-86550000D01*
X144088500Y-81040000D02*
X144088500Y-86550000D01*
D13*
%TO.C,J3*%
X142380500Y-72524000D02*
X141618500Y-72524000D01*
X141618500Y-72524000D02*
X135380500Y-72524000D01*
X136880500Y-72524000D02*
X136880500Y-79524000D01*
X142380500Y-79524000D02*
X142380500Y-72524000D01*
X141618500Y-79524000D02*
X142380500Y-79524000D01*
X135380500Y-79524000D02*
X135380500Y-72524000D01*
X135380500Y-79524000D02*
X141618500Y-79524000D01*
D12*
%TO.C,D5*%
X154672500Y-84809000D02*
X154672500Y-83339000D01*
X154672500Y-83339000D02*
X152387500Y-83339000D01*
X152387500Y-84809000D02*
X154672500Y-84809000D01*
%TO.C,U3*%
D11*
X173736000Y-97028000D02*
X178816000Y-97028000D01*
X178816000Y-86868000D01*
X173736000Y-86868000D01*
X173736000Y-97028000D01*
D12*
%TO.C,C2*%
X166269580Y-91442000D02*
X165988420Y-91442000D01*
X166269580Y-90422000D02*
X165988420Y-90422000D01*
%TO.C,R9*%
X201659258Y-95709500D02*
X201184742Y-95709500D01*
X201659258Y-94664500D02*
X201184742Y-94664500D01*
%TO.C,U2*%
X162016000Y-92094000D02*
X168026000Y-92094000D01*
X164266000Y-98914000D02*
X168026000Y-98914000D01*
X168026000Y-92094000D02*
X168026000Y-93354000D01*
X168026000Y-98914000D02*
X168026000Y-97654000D01*
%TO.C,Q2*%
X149627000Y-77440000D02*
X151302000Y-77440000D01*
X149627000Y-77440000D02*
X148977000Y-77440000D01*
X149627000Y-74320000D02*
X150277000Y-74320000D01*
X149627000Y-74320000D02*
X148977000Y-74320000D01*
%TO.C,C3*%
X157911000Y-95206401D02*
X157911000Y-94806401D01*
X157711000Y-95006401D02*
X158111000Y-95006401D01*
X157026000Y-92936600D02*
X158266000Y-92936600D01*
X159946000Y-92936600D02*
X161186000Y-92936600D01*
X157026000Y-92896600D02*
X158266000Y-92896600D01*
X159946000Y-92896600D02*
X161186000Y-92896600D01*
X157027000Y-92856600D02*
X158266000Y-92856600D01*
X159946000Y-92856600D02*
X161185000Y-92856600D01*
X157029000Y-92816600D02*
X158266000Y-92816600D01*
X159946000Y-92816600D02*
X161183000Y-92816600D01*
X157032000Y-92776600D02*
X158266000Y-92776600D01*
X159946000Y-92776600D02*
X161180000Y-92776600D01*
X157035000Y-92736600D02*
X158266000Y-92736600D01*
X159946000Y-92736600D02*
X161177000Y-92736600D01*
X157039000Y-92696600D02*
X158266000Y-92696600D01*
X159946000Y-92696600D02*
X161173000Y-92696600D01*
X157044000Y-92656600D02*
X158266000Y-92656600D01*
X159946000Y-92656600D02*
X161168000Y-92656600D01*
X157050000Y-92616600D02*
X158266000Y-92616600D01*
X159946000Y-92616600D02*
X161162000Y-92616600D01*
X157056000Y-92576600D02*
X158266000Y-92576600D01*
X159946000Y-92576600D02*
X161156000Y-92576600D01*
X157064000Y-92536600D02*
X158266000Y-92536600D01*
X159946000Y-92536600D02*
X161148000Y-92536600D01*
X157072000Y-92496600D02*
X158266000Y-92496600D01*
X159946000Y-92496600D02*
X161140000Y-92496600D01*
X157081000Y-92456600D02*
X158266000Y-92456600D01*
X159946000Y-92456600D02*
X161131000Y-92456600D01*
X157090000Y-92416600D02*
X158266000Y-92416600D01*
X159946000Y-92416600D02*
X161122000Y-92416600D01*
X157101000Y-92376600D02*
X158266000Y-92376600D01*
X159946000Y-92376600D02*
X161111000Y-92376600D01*
X157112000Y-92336600D02*
X158266000Y-92336600D01*
X159946000Y-92336600D02*
X161100000Y-92336600D01*
X157124000Y-92296600D02*
X158266000Y-92296600D01*
X159946000Y-92296600D02*
X161088000Y-92296600D01*
X157138000Y-92256600D02*
X158266000Y-92256600D01*
X159946000Y-92256600D02*
X161074000Y-92256600D01*
X157152000Y-92215600D02*
X158266000Y-92215600D01*
X159946000Y-92215600D02*
X161060000Y-92215600D01*
X157166000Y-92175600D02*
X158266000Y-92175600D01*
X159946000Y-92175600D02*
X161046000Y-92175600D01*
X157182000Y-92135600D02*
X158266000Y-92135600D01*
X159946000Y-92135600D02*
X161030000Y-92135600D01*
X157199000Y-92095600D02*
X158266000Y-92095600D01*
X159946000Y-92095600D02*
X161013000Y-92095600D01*
X157217000Y-92055600D02*
X158266000Y-92055600D01*
X159946000Y-92055600D02*
X160995000Y-92055600D01*
X157236000Y-92015600D02*
X158266000Y-92015600D01*
X159946000Y-92015600D02*
X160976000Y-92015600D01*
X157255000Y-91975600D02*
X158266000Y-91975600D01*
X159946000Y-91975600D02*
X160957000Y-91975600D01*
X157276000Y-91935600D02*
X158266000Y-91935600D01*
X159946000Y-91935600D02*
X160936000Y-91935600D01*
X157298000Y-91895600D02*
X158266000Y-91895600D01*
X159946000Y-91895600D02*
X160914000Y-91895600D01*
X157321000Y-91855600D02*
X158266000Y-91855600D01*
X159946000Y-91855600D02*
X160891000Y-91855600D01*
X157346000Y-91815600D02*
X158266000Y-91815600D01*
X159946000Y-91815600D02*
X160866000Y-91815600D01*
X157371000Y-91775600D02*
X158266000Y-91775600D01*
X159946000Y-91775600D02*
X160841000Y-91775600D01*
X157398000Y-91735600D02*
X158266000Y-91735600D01*
X159946000Y-91735600D02*
X160814000Y-91735600D01*
X157426000Y-91695600D02*
X158266000Y-91695600D01*
X159946000Y-91695600D02*
X160786000Y-91695600D01*
X157456000Y-91655600D02*
X158266000Y-91655600D01*
X159946000Y-91655600D02*
X160756000Y-91655600D01*
X157487000Y-91615600D02*
X158266000Y-91615600D01*
X159946000Y-91615600D02*
X160725000Y-91615600D01*
X157519000Y-91575600D02*
X158266000Y-91575600D01*
X159946000Y-91575600D02*
X160693000Y-91575600D01*
X157554000Y-91535600D02*
X158266000Y-91535600D01*
X159946000Y-91535600D02*
X160658000Y-91535600D01*
X157590000Y-91495600D02*
X158266000Y-91495600D01*
X159946000Y-91495600D02*
X160622000Y-91495600D01*
X157628000Y-91455600D02*
X158266000Y-91455600D01*
X159946000Y-91455600D02*
X160584000Y-91455600D01*
X157668000Y-91415600D02*
X158266000Y-91415600D01*
X159946000Y-91415600D02*
X160544000Y-91415600D01*
X157710000Y-91375600D02*
X158266000Y-91375600D01*
X159946000Y-91375600D02*
X160502000Y-91375600D01*
X157755000Y-91335600D02*
X160457000Y-91335600D01*
X157802000Y-91295600D02*
X160410000Y-91295600D01*
X157852000Y-91255600D02*
X160360000Y-91255600D01*
X157906000Y-91215600D02*
X160306000Y-91215600D01*
X157964000Y-91175600D02*
X160248000Y-91175600D01*
X158026000Y-91135600D02*
X160186000Y-91135600D01*
X158093000Y-91095600D02*
X160119000Y-91095600D01*
X158166000Y-91055600D02*
X160046000Y-91055600D01*
X158247000Y-91015600D02*
X159965000Y-91015600D01*
X158338000Y-90975600D02*
X159874000Y-90975600D01*
X158442000Y-90935600D02*
X159770000Y-90935600D01*
X158569000Y-90895600D02*
X159643000Y-90895600D01*
X158736000Y-90855600D02*
X159476000Y-90855600D01*
X161226000Y-92936600D02*
G75*
G02*
X156986000Y-92936600I-2120000J0D01*
G01*
X156986000Y-92936600D02*
G75*
G02*
X161226000Y-92936600I2120000J0D01*
G01*
%TO.C,Q4*%
X149548500Y-94636000D02*
X151223500Y-94636000D01*
X149548500Y-94636000D02*
X148898500Y-94636000D01*
X149548500Y-91516000D02*
X150198500Y-91516000D01*
X149548500Y-91516000D02*
X148898500Y-91516000D01*
%TO.C,R4*%
X153404758Y-94756500D02*
X152930242Y-94756500D01*
X153404758Y-93711500D02*
X152930242Y-93711500D01*
%TO.C,D1*%
X154715000Y-67537000D02*
X154715000Y-66067000D01*
X154715000Y-66067000D02*
X152430000Y-66067000D01*
X152430000Y-67537000D02*
X154715000Y-67537000D01*
%TO.C,C4*%
X161038000Y-81393420D02*
X161038000Y-81674580D01*
X160018000Y-81393420D02*
X160018000Y-81674580D01*
%TD*%
M02*
