M48
; DRILL file {KiCad 7.0.10} date Sun Apr  6 19:51:53 2025
; FORMAT={-:-/ absolute / inch / decimal}
; #@! TF.CreationDate,2025-04-06T19:51:53+02:00
; #@! TF.GenerationSoftware,Kicad,Pcbnew,7.0.10
; #@! TF.FileFunction,Plated,1,2,PTH
FMAT,2
INCH
; #@! TA.AperFunction,Plated,PTH,ViaDrill
T1C0.0157
; #@! TA.AperFunction,Plated,PTH,ComponentDrill
T2C0.0236
; #@! TA.AperFunction,Plated,PTH,ComponentDrill
T3C0.0315
; #@! TA.AperFunction,Plated,PTH,ComponentDrill
T4C0.0354
; #@! TA.AperFunction,Plated,PTH,ComponentDrill
T5C0.0374
; #@! TA.AperFunction,Plated,PTH,ComponentDrill
T6C0.0433
%
G90
G05
T1
X5.64Y-2.65
X5.64Y-2.82
X5.64Y-2.99
X5.64Y-3.16
X5.64Y-3.33
X5.64Y-3.5
X5.64Y-3.66
X5.93Y-2.82
X5.93Y-3.16
X5.93Y-3.5
X6.21Y-3.16
X6.42Y-3.5
X6.54Y-3.67
X6.54Y-3.85
X6.61Y-2.51
X6.61Y-2.77
X6.62Y-3.21
X6.7398Y-3.5602
X6.81Y-3.72
X6.8102Y-3.5498
X6.99Y-3.39
X7.07Y-3.72
X7.29Y-3.72
X7.34Y-3.62
X7.47Y-2.81
X7.47Y-3.0
X7.47Y-3.2
X7.47Y-3.41
T2
X6.264Y-3.6294
X6.264Y-3.6884
T3
X6.89Y-3.47
X6.89Y-3.57
X6.89Y-3.67
X6.89Y-3.77
X6.99Y-3.47
X6.99Y-3.57
X6.99Y-3.67
X6.99Y-3.77
T4
X5.4677Y-2.5831
X5.4677Y-2.7169
X5.4677Y-2.9261
X5.4677Y-3.06
X5.4677Y-3.26
X5.4677Y-3.3939
X5.4677Y-3.5931
X5.4677Y-3.7269
X7.22Y-3.81
X7.3539Y-3.81
T5
X6.47Y-3.01
X6.5131Y-2.63
X6.57Y-3.01
X6.6116Y-2.63
X6.67Y-3.01
X6.71Y-2.63
X6.77Y-3.01
X6.8084Y-2.63
X6.87Y-3.01
X7.6216Y-2.6482
X7.6216Y-2.8782
X7.6216Y-3.0982
X7.6216Y-3.3164
X7.72Y-2.6482
X7.72Y-2.8782
X7.72Y-3.0982
X7.72Y-3.3164
X7.8184Y-2.6482
X7.8184Y-2.8782
X7.8184Y-3.0982
X7.8184Y-3.3164
T6
X7.602Y-3.5614
X7.602Y-3.7386
X7.858Y-3.5614
X7.858Y-3.7386
M30
