%TF.GenerationSoftware,KiCad,Pcbnew,7.0.10*%
%TF.CreationDate,2025-04-06T19:51:51+02:00*%
%TF.ProjectId,auto_irrigator,6175746f-5f69-4727-9269-6761746f722e,rev?*%
%TF.SameCoordinates,Original*%
%TF.FileFunction,Soldermask,Top*%
%TF.FilePolarity,Negative*%
%FSLAX46Y46*%
G04 Gerber Fmt 4.6, Leading zero omitted, Abs format (unit mm)*
G04 Created by KiCad (PCBNEW 7.0.10) date 2025-04-06 19:51:51*
%MOMM*%
%LPD*%
G01*
G04 APERTURE LIST*
G04 Aperture macros list*
%AMRoundRect*
0 Rectangle with rounded corners*
0 $1 Rounding radius*
0 $2 $3 $4 $5 $6 $7 $8 $9 X,Y pos of 4 corners*
0 Add a 4 corners polygon primitive as box body*
4,1,4,$2,$3,$4,$5,$6,$7,$8,$9,$2,$3,0*
0 Add four circle primitives for the rounded corners*
1,1,$1+$1,$2,$3*
1,1,$1+$1,$4,$5*
1,1,$1+$1,$6,$7*
1,1,$1+$1,$8,$9*
0 Add four rect primitives between the rounded corners*
20,1,$1+$1,$2,$3,$4,$5,0*
20,1,$1+$1,$4,$5,$6,$7,0*
20,1,$1+$1,$6,$7,$8,$9,0*
20,1,$1+$1,$8,$9,$2,$3,0*%
G04 Aperture macros list end*
%ADD10RoundRect,0.250000X-0.600000X-0.725000X0.600000X-0.725000X0.600000X0.725000X-0.600000X0.725000X0*%
%ADD11O,1.700000X1.950000*%
%ADD12RoundRect,0.250000X-0.650000X1.000000X-0.650000X-1.000000X0.650000X-1.000000X0.650000X1.000000X0*%
%ADD13C,1.905000*%
%ADD14C,1.524000*%
%ADD15RoundRect,0.225000X0.250000X-0.225000X0.250000X0.225000X-0.250000X0.225000X-0.250000X-0.225000X0*%
%ADD16RoundRect,0.200000X0.200000X0.275000X-0.200000X0.275000X-0.200000X-0.275000X0.200000X-0.275000X0*%
%ADD17RoundRect,0.218750X0.218750X0.256250X-0.218750X0.256250X-0.218750X-0.256250X0.218750X-0.256250X0*%
%ADD18RoundRect,0.150000X0.587500X0.150000X-0.587500X0.150000X-0.587500X-0.150000X0.587500X-0.150000X0*%
%ADD19RoundRect,0.100000X-0.637500X-0.100000X0.637500X-0.100000X0.637500X0.100000X-0.637500X0.100000X0*%
%ADD20RoundRect,0.200000X0.275000X-0.200000X0.275000X0.200000X-0.275000X0.200000X-0.275000X-0.200000X0*%
%ADD21RoundRect,0.200000X-0.275000X0.200000X-0.275000X-0.200000X0.275000X-0.200000X0.275000X0.200000X0*%
%ADD22RoundRect,0.218750X-0.218750X-0.256250X0.218750X-0.256250X0.218750X0.256250X-0.218750X0.256250X0*%
%ADD23RoundRect,0.243750X-0.243750X-0.456250X0.243750X-0.456250X0.243750X0.456250X-0.243750X0.456250X0*%
%ADD24RoundRect,0.225000X-0.250000X0.225000X-0.250000X-0.225000X0.250000X-0.225000X0.250000X0.225000X0*%
%ADD25C,2.000000*%
%ADD26RoundRect,0.225000X0.225000X0.250000X-0.225000X0.250000X-0.225000X-0.250000X0.225000X-0.250000X0*%
%ADD27RoundRect,0.102000X0.750000X-0.750000X0.750000X0.750000X-0.750000X0.750000X-0.750000X-0.750000X0*%
%ADD28C,1.704000*%
%ADD29R,2.000000X1.500000*%
%ADD30R,2.000000X3.800000*%
%ADD31R,1.200000X1.200000*%
%ADD32C,1.200000*%
G04 APERTURE END LIST*
D10*
%TO.C,J7*%
X193588000Y-78694000D03*
D11*
X196088000Y-78694000D03*
X198588000Y-78694000D03*
%TD*%
D12*
%TO.C,D4*%
X145738500Y-73914000D03*
X145738500Y-77914000D03*
%TD*%
D13*
%TO.C,J2*%
X138880500Y-65610000D03*
X138880500Y-69010000D03*
%TD*%
D14*
%TO.C,P1*%
X164338000Y-76454000D03*
X166878000Y-76454000D03*
X169418000Y-76454000D03*
X171958000Y-76454000D03*
X174498000Y-76454000D03*
%TD*%
D10*
%TO.C,J8*%
X193588000Y-84236000D03*
D11*
X196088000Y-84236000D03*
X198588000Y-84236000D03*
%TD*%
D15*
%TO.C,C6*%
X189230000Y-91820000D03*
X189230000Y-90270000D03*
%TD*%
D13*
%TO.C,J4*%
X138880500Y-82804000D03*
X138880500Y-86204000D03*
%TD*%
D16*
%TO.C,R2*%
X154071000Y-77028000D03*
X152421000Y-77028000D03*
%TD*%
D10*
%TO.C,J6*%
X165434000Y-66802000D03*
D11*
X167934000Y-66802000D03*
X170434000Y-66802000D03*
X172934000Y-66802000D03*
%TD*%
D17*
%TO.C,D6*%
X153949500Y-92456000D03*
X152374500Y-92456000D03*
%TD*%
D16*
%TO.C,R3*%
X153995000Y-85852000D03*
X152345000Y-85852000D03*
%TD*%
D18*
%TO.C,Q1*%
X150564500Y-68514000D03*
X150564500Y-66614000D03*
X148689500Y-67564000D03*
%TD*%
D13*
%TO.C,J1*%
X183388000Y-96774000D03*
X186788000Y-96774000D03*
%TD*%
D19*
%TO.C,U1*%
X166555500Y-79625000D03*
X166555500Y-80275000D03*
X166555500Y-80925000D03*
X166555500Y-81575000D03*
X166555500Y-82225000D03*
X166555500Y-82875000D03*
X166555500Y-83525000D03*
X166555500Y-84175000D03*
X166555500Y-84825000D03*
X166555500Y-85475000D03*
X172280500Y-85475000D03*
X172280500Y-84825000D03*
X172280500Y-84175000D03*
X172280500Y-83525000D03*
X172280500Y-82875000D03*
X172280500Y-82225000D03*
X172280500Y-81575000D03*
X172280500Y-80925000D03*
X172280500Y-80275000D03*
X172280500Y-79625000D03*
%TD*%
D12*
%TO.C,D3*%
X145738500Y-65310000D03*
X145738500Y-69310000D03*
%TD*%
D16*
%TO.C,R1*%
X154071000Y-68580000D03*
X152421000Y-68580000D03*
%TD*%
D10*
%TO.C,J9*%
X193588000Y-67264000D03*
D11*
X196088000Y-67264000D03*
X198588000Y-67264000D03*
%TD*%
D20*
%TO.C,R12*%
X188132500Y-74514000D03*
X188132500Y-72864000D03*
%TD*%
D13*
%TO.C,J5*%
X138880500Y-91264000D03*
X138880500Y-94664000D03*
%TD*%
D12*
%TO.C,D8*%
X145738500Y-90964000D03*
X145738500Y-94964000D03*
%TD*%
D20*
%TO.C,R11*%
X188148000Y-69804000D03*
X188148000Y-68154000D03*
%TD*%
D18*
%TO.C,Q8*%
X185943500Y-74702000D03*
X185943500Y-72802000D03*
X184068500Y-73752000D03*
%TD*%
D21*
%TO.C,R10*%
X180086000Y-89028000D03*
X180086000Y-90678000D03*
%TD*%
D16*
%TO.C,R6*%
X161767000Y-76454000D03*
X160117000Y-76454000D03*
%TD*%
D22*
%TO.C,D9*%
X156946500Y-74422000D03*
X158521500Y-74422000D03*
%TD*%
D18*
%TO.C,Q5*%
X185959000Y-79528000D03*
X185959000Y-77628000D03*
X184084000Y-78578000D03*
%TD*%
D23*
%TO.C,D10*%
X156718000Y-76454000D03*
X158593000Y-76454000D03*
%TD*%
D24*
%TO.C,C5*%
X162306000Y-80759000D03*
X162306000Y-82309000D03*
%TD*%
D17*
%TO.C,D2*%
X154017500Y-75184000D03*
X152442500Y-75184000D03*
%TD*%
D25*
%TO.C,SW1*%
X193092000Y-90460000D03*
X199592000Y-90460000D03*
X193092000Y-94960000D03*
X199592000Y-94960000D03*
%TD*%
D16*
%TO.C,R5*%
X161798000Y-74422000D03*
X160148000Y-74422000D03*
%TD*%
D20*
%TO.C,R8*%
X188148000Y-84292000D03*
X188148000Y-82642000D03*
%TD*%
%TO.C,R7*%
X188148000Y-79340000D03*
X188148000Y-77690000D03*
%TD*%
D18*
%TO.C,Q3*%
X150488500Y-85776000D03*
X150488500Y-83876000D03*
X148613500Y-84826000D03*
%TD*%
D26*
%TO.C,C1*%
X160541000Y-96012000D03*
X158991000Y-96012000D03*
%TD*%
D12*
%TO.C,D7*%
X145738500Y-82550000D03*
X145738500Y-86550000D03*
%TD*%
D13*
%TO.C,J3*%
X138880500Y-74324000D03*
X138880500Y-77724000D03*
%TD*%
D18*
%TO.C,Q6*%
X185959000Y-84354000D03*
X185959000Y-82454000D03*
X184084000Y-83404000D03*
%TD*%
D17*
%TO.C,D5*%
X153975000Y-84074000D03*
X152400000Y-84074000D03*
%TD*%
D27*
%TO.C,U3*%
X175006000Y-95758000D03*
D28*
X175006000Y-93218000D03*
X175006000Y-90678000D03*
X175006000Y-88138000D03*
X177546000Y-95758000D03*
X177546000Y-93218000D03*
X177546000Y-90678000D03*
X177546000Y-88138000D03*
%TD*%
D26*
%TO.C,C2*%
X166904000Y-90932000D03*
X165354000Y-90932000D03*
%TD*%
D21*
%TO.C,R9*%
X187706000Y-90170000D03*
X187706000Y-91820000D03*
%TD*%
D18*
%TO.C,Q7*%
X185959000Y-69876000D03*
X185959000Y-67976000D03*
X184084000Y-68926000D03*
%TD*%
D29*
%TO.C,U2*%
X162966000Y-93204000D03*
X162966000Y-95504000D03*
D30*
X169266000Y-95504000D03*
D29*
X162966000Y-97804000D03*
%TD*%
D18*
%TO.C,Q2*%
X150564500Y-76830000D03*
X150564500Y-74930000D03*
X148689500Y-75880000D03*
%TD*%
D31*
%TO.C,C3*%
X159106000Y-93686600D03*
D32*
X159106000Y-92186600D03*
%TD*%
D18*
%TO.C,Q4*%
X150486000Y-94026000D03*
X150486000Y-92126000D03*
X148611000Y-93076000D03*
%TD*%
D16*
%TO.C,R4*%
X153992500Y-94234000D03*
X152342500Y-94234000D03*
%TD*%
D17*
%TO.C,D1*%
X154017500Y-66802000D03*
X152442500Y-66802000D03*
%TD*%
D10*
%TO.C,J10*%
X193588000Y-73106000D03*
D11*
X196088000Y-73106000D03*
X198588000Y-73106000D03*
%TD*%
D24*
%TO.C,C4*%
X160528000Y-80759000D03*
X160528000Y-82309000D03*
%TD*%
M02*
