%TF.GenerationSoftware,KiCad,Pcbnew,9.0.3*%
%TF.CreationDate,2025-08-07T12:56:26+02:00*%
%TF.ProjectId,auto_irrigator,6175746f-5f69-4727-9269-6761746f722e,1*%
%TF.SameCoordinates,Original*%
%TF.FileFunction,Copper,L2,Bot*%
%TF.FilePolarity,Positive*%
%FSLAX46Y46*%
G04 Gerber Fmt 4.6, Leading zero omitted, Abs format (unit mm)*
G04 Created by KiCad (PCBNEW 9.0.3) date 2025-08-07 12:56:26*
%MOMM*%
%LPD*%
G01*
G04 APERTURE LIST*
G04 Aperture macros list*
%AMRoundRect*
0 Rectangle with rounded corners*
0 $1 Rounding radius*
0 $2 $3 $4 $5 $6 $7 $8 $9 X,Y pos of 4 corners*
0 Add a 4 corners polygon primitive as box body*
4,1,4,$2,$3,$4,$5,$6,$7,$8,$9,$2,$3,0*
0 Add four circle primitives for the rounded corners*
1,1,$1+$1,$2,$3*
1,1,$1+$1,$4,$5*
1,1,$1+$1,$6,$7*
1,1,$1+$1,$8,$9*
0 Add four rect primitives between the rounded corners*
20,1,$1+$1,$2,$3,$4,$5,0*
20,1,$1+$1,$4,$5,$6,$7,0*
20,1,$1+$1,$6,$7,$8,$9,0*
20,1,$1+$1,$8,$9,$2,$3,0*%
G04 Aperture macros list end*
%TA.AperFunction,ComponentPad*%
%ADD10O,1.700000X1.950000*%
%TD*%
%TA.AperFunction,ComponentPad*%
%ADD11RoundRect,0.250000X-0.600000X-0.725000X0.600000X-0.725000X0.600000X0.725000X-0.600000X0.725000X0*%
%TD*%
%TA.AperFunction,ComponentPad*%
%ADD12C,1.524000*%
%TD*%
%TA.AperFunction,ComponentPad*%
%ADD13C,1.905000*%
%TD*%
%TA.AperFunction,ComponentPad*%
%ADD14C,2.000000*%
%TD*%
%TA.AperFunction,ComponentPad*%
%ADD15R,1.500000X1.500000*%
%TD*%
%TA.AperFunction,ComponentPad*%
%ADD16C,1.500000*%
%TD*%
%TA.AperFunction,ComponentPad*%
%ADD17R,1.200000X1.200000*%
%TD*%
%TA.AperFunction,ComponentPad*%
%ADD18C,1.200000*%
%TD*%
%TA.AperFunction,ViaPad*%
%ADD19C,0.800000*%
%TD*%
%TA.AperFunction,Conductor*%
%ADD20C,0.250000*%
%TD*%
%TA.AperFunction,Conductor*%
%ADD21C,0.500000*%
%TD*%
G04 APERTURE END LIST*
D10*
%TO.P,J12,3,Pin_3*%
%TO.N,+12V*%
X198120000Y-65024000D03*
%TO.P,J12,2,Pin_2*%
%TO.N,Net-(J12-Pin_2)*%
X195620000Y-65024000D03*
D11*
%TO.P,J12,1,Pin_1*%
%TO.N,GND*%
X193120000Y-65024000D03*
%TD*%
D10*
%TO.P,J9,3,Pin_3*%
%TO.N,+12V*%
X198146000Y-71120000D03*
%TO.P,J9,2,Pin_2*%
%TO.N,Net-(J9-Pin_2)*%
X195646000Y-71120000D03*
D11*
%TO.P,J9,1,Pin_1*%
%TO.N,GND*%
X193146000Y-71120000D03*
%TD*%
%TO.P,J7,1,Pin_1*%
%TO.N,GND*%
X193146000Y-83312000D03*
D10*
%TO.P,J7,2,Pin_2*%
%TO.N,Net-(J7-Pin_2)*%
X195646000Y-83312000D03*
%TO.P,J7,3,Pin_3*%
%TO.N,+12V*%
X198146000Y-83312000D03*
%TD*%
D11*
%TO.P,J10,1,Pin_1*%
%TO.N,GND*%
X193146000Y-77206000D03*
D10*
%TO.P,J10,2,Pin_2*%
%TO.N,Net-(J10-Pin_2)*%
X195646000Y-77206000D03*
%TO.P,J10,3,Pin_3*%
%TO.N,+12V*%
X198146000Y-77206000D03*
%TD*%
%TO.P,J8,3,Pin_3*%
%TO.N,+12V*%
X198146000Y-89444000D03*
%TO.P,J8,2,Pin_2*%
%TO.N,Net-(J8-Pin_2)*%
X195646000Y-89444000D03*
D11*
%TO.P,J8,1,Pin_1*%
%TO.N,GND*%
X193146000Y-89444000D03*
%TD*%
D12*
%TO.P,J11,1,3V3*%
%TO.N,+3V3*%
X166878000Y-76454000D03*
%TO.P,J11,2,GND*%
%TO.N,GND*%
X169418000Y-76454000D03*
%TO.P,J11,3,SWCLK*%
%TO.N,SWCLK*%
X171958000Y-76454000D03*
%TO.P,J11,4,SWDIO*%
%TO.N,SWDIO*%
X174498000Y-76454000D03*
%TD*%
D13*
%TO.P,J2,1*%
%TO.N,+12V*%
X138880500Y-65610000D03*
%TO.P,J2,2*%
%TO.N,Net-(D3-A)*%
X138880500Y-69010000D03*
%TD*%
%TO.P,J4,1*%
%TO.N,+12V*%
X138880500Y-82804000D03*
%TO.P,J4,2*%
%TO.N,Net-(D7-A)*%
X138880500Y-86204000D03*
%TD*%
D11*
%TO.P,J6,1,Pin_1*%
%TO.N,+3V3*%
X165434000Y-66802000D03*
D10*
%TO.P,J6,2,Pin_2*%
%TO.N,GND*%
X167934000Y-66802000D03*
%TO.P,J6,3,Pin_3*%
%TO.N,SDA*%
X170434000Y-66802000D03*
%TO.P,J6,4,Pin_4*%
%TO.N,FLOW5*%
X172934000Y-66802000D03*
%TD*%
D13*
%TO.P,J1,1*%
%TO.N,GND*%
X183388000Y-96774000D03*
%TO.P,J1,2*%
%TO.N,+12V*%
X186788000Y-96774000D03*
%TD*%
%TO.P,J5,1*%
%TO.N,+12V*%
X138880500Y-91264000D03*
%TO.P,J5,2*%
%TO.N,Net-(D8-A)*%
X138880500Y-94664000D03*
%TD*%
D14*
%TO.P,SW1,1,A*%
%TO.N,GND*%
X191874000Y-94488000D03*
X198374000Y-94488000D03*
%TO.P,SW1,2,B*%
%TO.N,STMNRST*%
X191874000Y-98988000D03*
X198374000Y-98988000D03*
%TD*%
D13*
%TO.P,J3,1*%
%TO.N,+12V*%
X138880500Y-74324000D03*
%TO.P,J3,2*%
%TO.N,Net-(D4-A)*%
X138880500Y-77724000D03*
%TD*%
D15*
%TO.P,U3,1,GND*%
%TO.N,GND*%
X175006000Y-95758000D03*
D16*
%TO.P,U3,2,IO2*%
%TO.N,unconnected-(U3-IO2-Pad2)*%
X175006000Y-93218000D03*
%TO.P,U3,3,IO0*%
%TO.N,unconnected-(U3-IO0-Pad3)*%
X175006000Y-90678000D03*
%TO.P,U3,4,RXD*%
%TO.N,ESPRX*%
X175006000Y-88138000D03*
%TO.P,U3,5,TXD*%
%TO.N,ESPTX*%
X177546000Y-95758000D03*
%TO.P,U3,6,EN*%
%TO.N,Net-(U3-EN)*%
X177546000Y-93218000D03*
%TO.P,U3,7,~{RST}*%
%TO.N,ESPNRST*%
X177546000Y-90678000D03*
%TO.P,U3,8,VCC*%
%TO.N,+3V3*%
X177546000Y-88138000D03*
%TD*%
D17*
%TO.P,C3,1*%
%TO.N,+3V3*%
X159106000Y-93686600D03*
D18*
%TO.P,C3,2*%
%TO.N,GND*%
X159106000Y-92186600D03*
%TD*%
D19*
%TO.N,GND*%
X179070000Y-73406000D03*
%TO.N,+12V*%
X179324000Y-76000000D03*
%TO.N,GND*%
X179070000Y-81788000D03*
X175514000Y-81788000D03*
%TO.N,*%
X189230000Y-74168000D03*
%TO.N,GND*%
X179578000Y-94488000D03*
%TO.N,BAT_ADC*%
X179074653Y-85085347D03*
X177800000Y-82150000D03*
%TO.N,GND*%
X189230000Y-68580000D03*
%TO.N,+3V3*%
X202438000Y-91440000D03*
X202184000Y-96520000D03*
%TO.N,GND*%
X189296000Y-86396000D03*
X189296000Y-80818000D03*
X189230000Y-92202000D03*
X155448000Y-84836000D03*
%TO.N,+3V3*%
X171191347Y-90428653D03*
X168148000Y-81534000D03*
%TO.N,GND*%
X163068000Y-88900000D03*
X169164000Y-71628000D03*
X172974000Y-94488000D03*
X143256000Y-88900000D03*
X143256000Y-75946000D03*
X150622000Y-80264000D03*
X185166000Y-94488000D03*
X143256000Y-71628000D03*
X150622000Y-88900000D03*
X166116000Y-97790000D03*
X157734000Y-80264000D03*
X167894000Y-63754000D03*
X143256000Y-92964000D03*
X166116000Y-93218000D03*
X143256000Y-80264000D03*
X143256000Y-84582000D03*
X143256000Y-67310000D03*
X150622000Y-71628000D03*
%TO.N,STMNRST*%
X172027281Y-90977487D03*
%TO.N,ESPNRST*%
X172978653Y-90165347D03*
%TO.N,STMNRST*%
X179836653Y-91952653D03*
%TD*%
D20*
%TO.N,BAT_ADC*%
X177800000Y-83810694D02*
X177800000Y-82150000D01*
X179074653Y-85085347D02*
X177800000Y-83810694D01*
%TO.N,+3V3*%
X202184000Y-96520000D02*
X202184000Y-91694000D01*
X202184000Y-91694000D02*
X202438000Y-91440000D01*
%TO.N,+12V*%
X198146000Y-89444000D02*
X198146000Y-91922000D01*
X198146000Y-91922000D02*
X193294000Y-96774000D01*
X193294000Y-96774000D02*
X186788000Y-96774000D01*
%TO.N,STMNRST*%
X179836653Y-91952653D02*
X179832000Y-91948000D01*
X179832000Y-91948000D02*
X172997794Y-91948000D01*
X172997794Y-91948000D02*
X172027281Y-90977487D01*
%TO.N,+3V3*%
X171191347Y-90428653D02*
X171191347Y-88641347D01*
X168148000Y-85598000D02*
X168148000Y-81534000D01*
D21*
X171191347Y-88650653D02*
X173228000Y-86614000D01*
D20*
X166878000Y-80264000D02*
X166878000Y-76454000D01*
X171191347Y-88641347D02*
X168148000Y-85598000D01*
D21*
X173228000Y-86614000D02*
X176022000Y-86614000D01*
X171191347Y-90428653D02*
X171191347Y-88650653D01*
X176022000Y-86614000D02*
X177546000Y-88138000D01*
D20*
X168148000Y-81534000D02*
X166878000Y-80264000D01*
%TO.N,ESPNRST*%
X172978653Y-90165347D02*
X173736000Y-89408000D01*
X173736000Y-89408000D02*
X176276000Y-89408000D01*
X176276000Y-89408000D02*
X177546000Y-90678000D01*
%TO.N,+12V*%
X179324000Y-76000000D02*
X180394000Y-74930000D01*
X180394000Y-74930000D02*
X195870000Y-74930000D01*
X195870000Y-74930000D02*
X198146000Y-77206000D01*
%TD*%
%TA.AperFunction,Conductor*%
%TO.N,GND*%
G36*
X205683039Y-58439685D02*
G01*
X205728794Y-58492489D01*
X205740000Y-58544000D01*
X205740000Y-101730000D01*
X205720315Y-101797039D01*
X205667511Y-101842794D01*
X205616000Y-101854000D01*
X133220000Y-101854000D01*
X133152961Y-101834315D01*
X133107206Y-101781511D01*
X133096000Y-101730000D01*
X133096000Y-99184097D01*
X133985500Y-99184097D01*
X133985500Y-99443902D01*
X134026140Y-99700493D01*
X134106422Y-99947576D01*
X134187534Y-100106764D01*
X134224366Y-100179051D01*
X134377069Y-100389229D01*
X134560771Y-100572931D01*
X134770949Y-100725634D01*
X134918445Y-100800787D01*
X135002423Y-100843577D01*
X135002425Y-100843577D01*
X135002428Y-100843579D01*
X135249507Y-100923860D01*
X135381706Y-100944797D01*
X135506098Y-100964500D01*
X135506103Y-100964500D01*
X135765902Y-100964500D01*
X135879298Y-100946539D01*
X136022493Y-100923860D01*
X136269572Y-100843579D01*
X136501051Y-100725634D01*
X136711229Y-100572931D01*
X136894931Y-100389229D01*
X137047634Y-100179051D01*
X137165579Y-99947572D01*
X137245860Y-99700493D01*
X137268539Y-99557298D01*
X137286500Y-99443902D01*
X137286500Y-99184097D01*
X137264947Y-99048021D01*
X137245860Y-98927507D01*
X137165579Y-98680428D01*
X137165577Y-98680425D01*
X137165577Y-98680423D01*
X137122787Y-98596445D01*
X137047634Y-98448949D01*
X136894931Y-98238771D01*
X136711229Y-98055069D01*
X136501051Y-97902366D01*
X136461636Y-97882283D01*
X136269576Y-97784422D01*
X136022493Y-97704140D01*
X135765902Y-97663500D01*
X135765897Y-97663500D01*
X135506103Y-97663500D01*
X135506098Y-97663500D01*
X135249506Y-97704140D01*
X135002423Y-97784422D01*
X134770945Y-97902368D01*
X134560774Y-98055066D01*
X134560768Y-98055071D01*
X134377071Y-98238768D01*
X134377066Y-98238774D01*
X134224368Y-98448945D01*
X134106422Y-98680423D01*
X134026140Y-98927506D01*
X133985500Y-99184097D01*
X133096000Y-99184097D01*
X133096000Y-94549646D01*
X137427500Y-94549646D01*
X137427500Y-94778353D01*
X137463278Y-95004246D01*
X137463278Y-95004249D01*
X137533950Y-95221755D01*
X137560659Y-95274174D01*
X137637783Y-95425538D01*
X137772214Y-95610566D01*
X137933934Y-95772286D01*
X138118962Y-95906717D01*
X138206000Y-95951065D01*
X138322744Y-96010549D01*
X138540251Y-96081221D01*
X138540252Y-96081221D01*
X138540255Y-96081222D01*
X138766146Y-96117000D01*
X138766147Y-96117000D01*
X138994853Y-96117000D01*
X138994854Y-96117000D01*
X139220745Y-96081222D01*
X139220748Y-96081221D01*
X139220749Y-96081221D01*
X139438255Y-96010549D01*
X139438255Y-96010548D01*
X139438258Y-96010548D01*
X139642038Y-95906717D01*
X139827066Y-95772286D01*
X139988786Y-95610566D01*
X140123217Y-95425538D01*
X140227048Y-95221758D01*
X140253622Y-95139972D01*
X140297721Y-95004249D01*
X140297721Y-95004248D01*
X140297722Y-95004245D01*
X140333500Y-94778354D01*
X140333500Y-94549646D01*
X140297722Y-94323755D01*
X140297721Y-94323751D01*
X140297721Y-94323750D01*
X140227049Y-94106244D01*
X140189550Y-94032648D01*
X140123217Y-93902462D01*
X139988786Y-93717434D01*
X139827066Y-93555714D01*
X139642038Y-93421283D01*
X139438255Y-93317450D01*
X139220748Y-93246778D01*
X139051326Y-93219944D01*
X138994854Y-93211000D01*
X138766146Y-93211000D01*
X138690849Y-93222926D01*
X138540253Y-93246778D01*
X138540250Y-93246778D01*
X138322744Y-93317450D01*
X138118961Y-93421283D01*
X138013396Y-93497980D01*
X137933934Y-93555714D01*
X137933932Y-93555716D01*
X137933931Y-93555716D01*
X137772216Y-93717431D01*
X137772216Y-93717432D01*
X137772214Y-93717434D01*
X137714480Y-93796896D01*
X137637783Y-93902461D01*
X137533950Y-94106244D01*
X137463278Y-94323750D01*
X137463278Y-94323753D01*
X137427500Y-94549646D01*
X133096000Y-94549646D01*
X133096000Y-93038735D01*
X158005500Y-93038735D01*
X158005500Y-94334470D01*
X158005501Y-94334476D01*
X158011908Y-94394083D01*
X158062202Y-94528928D01*
X158062206Y-94528935D01*
X158148452Y-94644144D01*
X158148455Y-94644147D01*
X158263664Y-94730393D01*
X158263671Y-94730397D01*
X158398517Y-94780691D01*
X158398516Y-94780691D01*
X158405444Y-94781435D01*
X158458127Y-94787100D01*
X159753872Y-94787099D01*
X159813483Y-94780691D01*
X159948331Y-94730396D01*
X160063546Y-94644146D01*
X160149796Y-94528931D01*
X160200091Y-94394083D01*
X160206500Y-94334473D01*
X160206499Y-93038728D01*
X160200091Y-92979117D01*
X160179971Y-92925173D01*
X160149797Y-92844271D01*
X160149795Y-92844268D01*
X160130540Y-92818547D01*
X160110184Y-92791355D01*
X160085767Y-92725891D01*
X160098967Y-92660747D01*
X160125409Y-92608853D01*
X160178914Y-92444184D01*
X160206000Y-92273171D01*
X160206000Y-92100028D01*
X160178914Y-91929015D01*
X160125408Y-91764342D01*
X160046801Y-91610071D01*
X160042290Y-91603862D01*
X160042289Y-91603861D01*
X159400855Y-92245296D01*
X159406000Y-92226096D01*
X159406000Y-92147104D01*
X159385556Y-92070804D01*
X159346060Y-92002395D01*
X159290205Y-91946540D01*
X159221796Y-91907044D01*
X159145496Y-91886600D01*
X159066504Y-91886600D01*
X158990204Y-91907044D01*
X158921795Y-91946540D01*
X158865940Y-92002395D01*
X158826444Y-92070804D01*
X158806000Y-92147104D01*
X158806000Y-92226096D01*
X158811145Y-92245297D01*
X158169709Y-91603861D01*
X158169708Y-91603861D01*
X158165203Y-91610063D01*
X158165193Y-91610080D01*
X158086592Y-91764340D01*
X158033085Y-91929015D01*
X158006000Y-92100028D01*
X158006000Y-92273171D01*
X158033086Y-92444185D01*
X158033086Y-92444188D01*
X158086588Y-92608850D01*
X158113032Y-92660749D01*
X158125928Y-92729419D01*
X158101815Y-92791353D01*
X158062205Y-92844265D01*
X158062202Y-92844271D01*
X158011908Y-92979117D01*
X158006983Y-93024934D01*
X158005501Y-93038723D01*
X158005500Y-93038735D01*
X133096000Y-93038735D01*
X133096000Y-91149646D01*
X137427500Y-91149646D01*
X137427500Y-91378354D01*
X137431511Y-91403678D01*
X137463278Y-91604246D01*
X137463278Y-91604249D01*
X137533950Y-91821755D01*
X137616418Y-91983607D01*
X137637783Y-92025538D01*
X137772214Y-92210566D01*
X137933934Y-92372286D01*
X138118962Y-92506717D01*
X138319415Y-92608853D01*
X138322744Y-92610549D01*
X138540251Y-92681221D01*
X138540252Y-92681221D01*
X138540255Y-92681222D01*
X138766146Y-92717000D01*
X138766147Y-92717000D01*
X138994853Y-92717000D01*
X138994854Y-92717000D01*
X139220745Y-92681222D01*
X139220748Y-92681221D01*
X139220749Y-92681221D01*
X139438255Y-92610549D01*
X139438255Y-92610548D01*
X139438258Y-92610548D01*
X139642038Y-92506717D01*
X139827066Y-92372286D01*
X139988786Y-92210566D01*
X140123217Y-92025538D01*
X140227048Y-91821758D01*
X140269863Y-91689987D01*
X140297721Y-91604249D01*
X140297721Y-91604248D01*
X140297722Y-91604245D01*
X140333500Y-91378354D01*
X140333500Y-91250308D01*
X158523261Y-91250308D01*
X158523261Y-91250309D01*
X159106000Y-91833046D01*
X159106001Y-91833046D01*
X159688737Y-91250309D01*
X159682525Y-91245796D01*
X159528259Y-91167192D01*
X159363584Y-91113685D01*
X159192571Y-91086600D01*
X159019429Y-91086600D01*
X158848415Y-91113685D01*
X158683740Y-91167192D01*
X158529480Y-91245793D01*
X158529463Y-91245803D01*
X158523261Y-91250308D01*
X140333500Y-91250308D01*
X140333500Y-91149646D01*
X140297722Y-90923755D01*
X140297721Y-90923751D01*
X140297721Y-90923750D01*
X140227049Y-90706244D01*
X140191942Y-90637343D01*
X140123217Y-90502462D01*
X139988786Y-90317434D01*
X139827066Y-90155714D01*
X139642038Y-90021283D01*
X139592268Y-89995924D01*
X139438255Y-89917450D01*
X139220748Y-89846778D01*
X139025330Y-89815827D01*
X138994854Y-89811000D01*
X138766146Y-89811000D01*
X138735670Y-89815827D01*
X138540253Y-89846778D01*
X138540250Y-89846778D01*
X138322744Y-89917450D01*
X138118961Y-90021283D01*
X138042292Y-90076987D01*
X137933934Y-90155714D01*
X137933932Y-90155716D01*
X137933931Y-90155716D01*
X137772216Y-90317431D01*
X137772216Y-90317432D01*
X137772214Y-90317434D01*
X137746191Y-90353252D01*
X137637783Y-90502461D01*
X137533950Y-90706244D01*
X137463278Y-90923750D01*
X137463278Y-90923753D01*
X137437486Y-91086600D01*
X137427500Y-91149646D01*
X133096000Y-91149646D01*
X133096000Y-88262097D01*
X156971500Y-88262097D01*
X156971500Y-88521902D01*
X157012140Y-88778493D01*
X157092422Y-89025576D01*
X157210368Y-89257054D01*
X157363066Y-89467225D01*
X157363069Y-89467229D01*
X157546771Y-89650931D01*
X157756949Y-89803634D01*
X157874150Y-89863351D01*
X157988423Y-89921577D01*
X157988425Y-89921577D01*
X157988428Y-89921579D01*
X158235507Y-90001860D01*
X158366419Y-90022594D01*
X158492098Y-90042500D01*
X158492103Y-90042500D01*
X158751902Y-90042500D01*
X158865298Y-90024539D01*
X159008493Y-90001860D01*
X159255572Y-89921579D01*
X159487051Y-89803634D01*
X159697229Y-89650931D01*
X159880931Y-89467229D01*
X160033634Y-89257051D01*
X160151579Y-89025572D01*
X160231860Y-88778493D01*
X160256989Y-88619833D01*
X160272500Y-88521902D01*
X160272500Y-88262097D01*
X160250947Y-88126021D01*
X160231860Y-88005507D01*
X160151579Y-87758428D01*
X160151577Y-87758425D01*
X160151577Y-87758423D01*
X160100393Y-87657970D01*
X160033634Y-87526949D01*
X159880931Y-87316771D01*
X159697229Y-87133069D01*
X159487051Y-86980366D01*
X159365221Y-86918290D01*
X159255576Y-86862422D01*
X159008493Y-86782140D01*
X158751902Y-86741500D01*
X158751897Y-86741500D01*
X158492103Y-86741500D01*
X158492098Y-86741500D01*
X158235506Y-86782140D01*
X157988423Y-86862422D01*
X157756945Y-86980368D01*
X157546774Y-87133066D01*
X157546768Y-87133071D01*
X157363071Y-87316768D01*
X157363066Y-87316774D01*
X157210368Y-87526945D01*
X157092422Y-87758423D01*
X157012140Y-88005506D01*
X156971500Y-88262097D01*
X133096000Y-88262097D01*
X133096000Y-86089646D01*
X137427500Y-86089646D01*
X137427500Y-86318353D01*
X137463278Y-86544246D01*
X137463278Y-86544249D01*
X137533950Y-86761755D01*
X137581577Y-86855227D01*
X137637783Y-86965538D01*
X137772214Y-87150566D01*
X137933934Y-87312286D01*
X138118962Y-87446717D01*
X138282687Y-87530139D01*
X138322744Y-87550549D01*
X138540251Y-87621221D01*
X138540252Y-87621221D01*
X138540255Y-87621222D01*
X138766146Y-87657000D01*
X138766147Y-87657000D01*
X138994853Y-87657000D01*
X138994854Y-87657000D01*
X139220745Y-87621222D01*
X139220748Y-87621221D01*
X139220749Y-87621221D01*
X139438255Y-87550549D01*
X139438255Y-87550548D01*
X139438258Y-87550548D01*
X139642038Y-87446717D01*
X139827066Y-87312286D01*
X139988786Y-87150566D01*
X140123217Y-86965538D01*
X140227048Y-86761758D01*
X140297722Y-86544245D01*
X140333500Y-86318354D01*
X140333500Y-86089646D01*
X140297722Y-85863755D01*
X140297721Y-85863751D01*
X140297721Y-85863750D01*
X140227049Y-85646244D01*
X140158594Y-85511894D01*
X140123217Y-85442462D01*
X139988786Y-85257434D01*
X139827066Y-85095714D01*
X139642038Y-84961283D01*
X139438255Y-84857450D01*
X139220748Y-84786778D01*
X139015348Y-84754246D01*
X138994854Y-84751000D01*
X138766146Y-84751000D01*
X138690849Y-84762926D01*
X138540253Y-84786778D01*
X138540250Y-84786778D01*
X138322744Y-84857450D01*
X138118961Y-84961283D01*
X138070282Y-84996651D01*
X137933934Y-85095714D01*
X137933932Y-85095716D01*
X137933931Y-85095716D01*
X137772216Y-85257431D01*
X137772216Y-85257432D01*
X137772214Y-85257434D01*
X137750336Y-85287547D01*
X137637783Y-85442461D01*
X137533950Y-85646244D01*
X137463278Y-85863750D01*
X137463278Y-85863753D01*
X137427500Y-86089646D01*
X133096000Y-86089646D01*
X133096000Y-82689646D01*
X137427500Y-82689646D01*
X137427500Y-82918353D01*
X137463278Y-83144246D01*
X137463278Y-83144249D01*
X137533950Y-83361755D01*
X137617943Y-83526599D01*
X137637783Y-83565538D01*
X137772214Y-83750566D01*
X137933934Y-83912286D01*
X138118962Y-84046717D01*
X138294516Y-84136166D01*
X138322744Y-84150549D01*
X138540251Y-84221221D01*
X138540252Y-84221221D01*
X138540255Y-84221222D01*
X138766146Y-84257000D01*
X138766147Y-84257000D01*
X138994853Y-84257000D01*
X138994854Y-84257000D01*
X139220745Y-84221222D01*
X139220748Y-84221221D01*
X139220749Y-84221221D01*
X139438255Y-84150549D01*
X139438255Y-84150548D01*
X139438258Y-84150548D01*
X139642038Y-84046717D01*
X139827066Y-83912286D01*
X139988786Y-83750566D01*
X140123217Y-83565538D01*
X140227048Y-83361758D01*
X140297722Y-83144245D01*
X140333500Y-82918354D01*
X140333500Y-82689646D01*
X140297722Y-82463755D01*
X140297721Y-82463751D01*
X140297721Y-82463750D01*
X140227049Y-82246244D01*
X140198186Y-82189597D01*
X140123217Y-82042462D01*
X139988786Y-81857434D01*
X139827066Y-81695714D01*
X139642038Y-81561283D01*
X139485987Y-81481771D01*
X139438255Y-81457450D01*
X139220748Y-81386778D01*
X139051326Y-81359944D01*
X138994854Y-81351000D01*
X138766146Y-81351000D01*
X138690849Y-81362926D01*
X138540253Y-81386778D01*
X138540250Y-81386778D01*
X138322744Y-81457450D01*
X138118961Y-81561283D01*
X138034436Y-81622695D01*
X137933934Y-81695714D01*
X137933932Y-81695716D01*
X137933931Y-81695716D01*
X137772216Y-81857431D01*
X137772216Y-81857432D01*
X137772214Y-81857434D01*
X137739369Y-81902641D01*
X137637783Y-82042461D01*
X137533950Y-82246244D01*
X137463278Y-82463750D01*
X137463278Y-82463753D01*
X137427500Y-82689646D01*
X133096000Y-82689646D01*
X133096000Y-77609646D01*
X137427500Y-77609646D01*
X137427500Y-77838354D01*
X137429252Y-77849414D01*
X137463278Y-78064246D01*
X137463278Y-78064249D01*
X137533950Y-78281755D01*
X137637783Y-78485538D01*
X137772214Y-78670566D01*
X137933934Y-78832286D01*
X138118962Y-78966717D01*
X138322742Y-79070548D01*
X138322744Y-79070549D01*
X138540251Y-79141221D01*
X138540252Y-79141221D01*
X138540255Y-79141222D01*
X138766146Y-79177000D01*
X138766147Y-79177000D01*
X138994853Y-79177000D01*
X138994854Y-79177000D01*
X139220745Y-79141222D01*
X139220748Y-79141221D01*
X139220749Y-79141221D01*
X139438255Y-79070549D01*
X139438255Y-79070548D01*
X139438258Y-79070548D01*
X139642038Y-78966717D01*
X139827066Y-78832286D01*
X139988786Y-78670566D01*
X140123217Y-78485538D01*
X140227048Y-78281758D01*
X140227049Y-78281755D01*
X140297721Y-78064249D01*
X140297721Y-78064248D01*
X140297722Y-78064245D01*
X140333500Y-77838354D01*
X140333500Y-77609646D01*
X140297722Y-77383755D01*
X140297721Y-77383751D01*
X140297721Y-77383750D01*
X140227049Y-77166244D01*
X140220156Y-77152715D01*
X140123217Y-76962462D01*
X139988786Y-76777434D01*
X139827066Y-76615714D01*
X139642038Y-76481283D01*
X139560945Y-76439964D01*
X139438255Y-76377450D01*
X139368050Y-76354639D01*
X165615500Y-76354639D01*
X165615500Y-76553361D01*
X165631043Y-76651498D01*
X165646587Y-76749637D01*
X165707993Y-76938629D01*
X165707994Y-76938632D01*
X165780026Y-77080000D01*
X165798213Y-77115694D01*
X165915019Y-77276464D01*
X166055536Y-77416981D01*
X166178429Y-77506268D01*
X166201385Y-77522946D01*
X166244051Y-77578276D01*
X166252500Y-77623264D01*
X166252500Y-80325611D01*
X166276535Y-80446444D01*
X166276540Y-80446461D01*
X166323685Y-80560280D01*
X166323687Y-80560283D01*
X166323688Y-80560286D01*
X166357915Y-80611509D01*
X166392142Y-80662733D01*
X166479267Y-80749858D01*
X166479270Y-80749860D01*
X166486554Y-80757144D01*
X167211181Y-81481771D01*
X167244666Y-81543094D01*
X167247500Y-81569452D01*
X167247500Y-81622695D01*
X167282103Y-81796658D01*
X167282106Y-81796667D01*
X167349983Y-81960540D01*
X167349990Y-81960553D01*
X167448535Y-82108034D01*
X167448538Y-82108038D01*
X167486180Y-82145679D01*
X167519666Y-82207001D01*
X167522500Y-82233361D01*
X167522500Y-85659611D01*
X167546535Y-85780444D01*
X167546540Y-85780461D01*
X167593685Y-85894281D01*
X167593690Y-85894290D01*
X167611306Y-85920653D01*
X167611308Y-85920656D01*
X167615380Y-85926749D01*
X167662142Y-85996733D01*
X167749267Y-86083858D01*
X167749269Y-86083859D01*
X167759766Y-86094356D01*
X170404528Y-88739118D01*
X170438013Y-88800441D01*
X170440847Y-88826799D01*
X170440847Y-89893382D01*
X170421162Y-89960421D01*
X170419949Y-89962273D01*
X170393335Y-90002102D01*
X170393334Y-90002105D01*
X170325453Y-90165985D01*
X170325450Y-90165994D01*
X170290847Y-90339957D01*
X170290847Y-90517348D01*
X170325450Y-90691311D01*
X170325453Y-90691320D01*
X170393330Y-90855193D01*
X170393337Y-90855206D01*
X170491882Y-91002687D01*
X170491885Y-91002691D01*
X170617308Y-91128114D01*
X170617312Y-91128117D01*
X170764793Y-91226662D01*
X170764806Y-91226669D01*
X170887710Y-91277576D01*
X170928681Y-91294547D01*
X170928683Y-91294547D01*
X170928688Y-91294549D01*
X171102651Y-91329152D01*
X171102654Y-91329153D01*
X171102656Y-91329153D01*
X171115397Y-91329153D01*
X171182436Y-91348838D01*
X171225862Y-91398955D01*
X171226400Y-91398668D01*
X171227664Y-91401034D01*
X171228191Y-91401642D01*
X171229077Y-91403678D01*
X171229269Y-91404037D01*
X171327816Y-91551521D01*
X171327819Y-91551525D01*
X171453242Y-91676948D01*
X171453246Y-91676951D01*
X171600727Y-91775496D01*
X171600740Y-91775503D01*
X171712405Y-91821755D01*
X171764615Y-91843381D01*
X171764617Y-91843381D01*
X171764622Y-91843383D01*
X171938585Y-91877986D01*
X171938588Y-91877987D01*
X171938590Y-91877987D01*
X171991829Y-91877987D01*
X172058868Y-91897672D01*
X172079510Y-91914306D01*
X172599057Y-92433855D01*
X172599061Y-92433858D01*
X172701509Y-92502312D01*
X172740678Y-92518536D01*
X172815342Y-92549463D01*
X172835391Y-92553451D01*
X172909652Y-92568222D01*
X172936186Y-92573501D01*
X172936188Y-92573501D01*
X173065515Y-92573501D01*
X173065535Y-92573500D01*
X173729886Y-92573500D01*
X173796925Y-92593185D01*
X173842680Y-92645989D01*
X173852624Y-92715147D01*
X173847817Y-92735819D01*
X173847117Y-92737972D01*
X173847116Y-92737975D01*
X173834657Y-92776319D01*
X173786290Y-92925173D01*
X173755500Y-93119577D01*
X173755500Y-93316422D01*
X173786290Y-93510826D01*
X173847117Y-93698029D01*
X173936475Y-93873403D01*
X173936476Y-93873405D01*
X174052172Y-94032646D01*
X174191354Y-94171828D01*
X174315145Y-94261768D01*
X174345307Y-94283682D01*
X174387972Y-94339012D01*
X174393951Y-94408626D01*
X174361345Y-94470421D01*
X174300506Y-94504778D01*
X174272421Y-94508000D01*
X174208155Y-94508000D01*
X174148627Y-94514401D01*
X174148620Y-94514403D01*
X174013913Y-94564645D01*
X174013906Y-94564649D01*
X173898812Y-94650809D01*
X173898809Y-94650812D01*
X173812649Y-94765906D01*
X173812645Y-94765913D01*
X173762403Y-94900620D01*
X173762401Y-94900627D01*
X173756000Y-94960155D01*
X173756000Y-95508000D01*
X174690314Y-95508000D01*
X174685920Y-95512394D01*
X174633259Y-95603606D01*
X174606000Y-95705339D01*
X174606000Y-95810661D01*
X174633259Y-95912394D01*
X174685920Y-96003606D01*
X174690314Y-96008000D01*
X173756000Y-96008000D01*
X173756000Y-96555844D01*
X173762401Y-96615372D01*
X173762403Y-96615379D01*
X173812645Y-96750086D01*
X173812649Y-96750093D01*
X173898809Y-96865187D01*
X173898812Y-96865190D01*
X174013906Y-96951350D01*
X174013913Y-96951354D01*
X174148620Y-97001596D01*
X174148627Y-97001598D01*
X174208155Y-97007999D01*
X174208172Y-97008000D01*
X174756000Y-97008000D01*
X174756000Y-96073686D01*
X174760394Y-96078080D01*
X174851606Y-96130741D01*
X174953339Y-96158000D01*
X175058661Y-96158000D01*
X175160394Y-96130741D01*
X175251606Y-96078080D01*
X175256000Y-96073686D01*
X175256000Y-97008000D01*
X175803828Y-97008000D01*
X175803844Y-97007999D01*
X175863372Y-97001598D01*
X175863379Y-97001596D01*
X175998086Y-96951354D01*
X175998093Y-96951350D01*
X176113187Y-96865190D01*
X176113190Y-96865187D01*
X176199350Y-96750093D01*
X176199354Y-96750086D01*
X176249596Y-96615379D01*
X176249598Y-96615372D01*
X176255999Y-96555844D01*
X176256000Y-96555827D01*
X176256000Y-96491578D01*
X176275685Y-96424539D01*
X176328489Y-96378784D01*
X176397647Y-96368840D01*
X176461203Y-96397865D01*
X176480314Y-96418688D01*
X176592172Y-96572646D01*
X176731354Y-96711828D01*
X176890595Y-96827524D01*
X176964513Y-96865187D01*
X177065970Y-96916882D01*
X177065972Y-96916882D01*
X177065975Y-96916884D01*
X177157246Y-96946540D01*
X177253173Y-96977709D01*
X177447578Y-97008500D01*
X177447583Y-97008500D01*
X177644422Y-97008500D01*
X177838826Y-96977709D01*
X178026025Y-96916884D01*
X178201405Y-96827524D01*
X178360646Y-96711828D01*
X178412788Y-96659686D01*
X181935500Y-96659686D01*
X181935500Y-96888313D01*
X181971265Y-97114124D01*
X181971265Y-97114125D01*
X182041917Y-97331568D01*
X182145711Y-97535276D01*
X182199347Y-97609098D01*
X182199347Y-97609099D01*
X182945861Y-96862584D01*
X182968667Y-96947694D01*
X183027910Y-97050306D01*
X183111694Y-97134090D01*
X183214306Y-97193333D01*
X183299414Y-97216137D01*
X182552899Y-97962651D01*
X182626725Y-98016288D01*
X182626731Y-98016292D01*
X182830431Y-98120082D01*
X183047875Y-98190734D01*
X183273687Y-98226500D01*
X183502313Y-98226500D01*
X183728124Y-98190734D01*
X183728125Y-98190734D01*
X183945568Y-98120082D01*
X184149276Y-98016288D01*
X184223098Y-97962651D01*
X183476585Y-97216138D01*
X183561694Y-97193333D01*
X183664306Y-97134090D01*
X183748090Y-97050306D01*
X183807333Y-96947694D01*
X183830137Y-96862585D01*
X184576651Y-97609099D01*
X184576651Y-97609098D01*
X184630288Y-97535276D01*
X184734082Y-97331568D01*
X184804734Y-97114125D01*
X184804734Y-97114124D01*
X184840500Y-96888313D01*
X184840500Y-96659686D01*
X184840494Y-96659646D01*
X185335000Y-96659646D01*
X185335000Y-96888354D01*
X185339519Y-96916884D01*
X185370778Y-97114246D01*
X185370778Y-97114249D01*
X185441450Y-97331755D01*
X185512903Y-97471989D01*
X185545283Y-97535538D01*
X185679714Y-97720566D01*
X185841434Y-97882286D01*
X186026462Y-98016717D01*
X186110841Y-98059710D01*
X186230244Y-98120549D01*
X186447751Y-98191221D01*
X186447752Y-98191221D01*
X186447755Y-98191222D01*
X186673646Y-98227000D01*
X186673647Y-98227000D01*
X186902353Y-98227000D01*
X186902354Y-98227000D01*
X187128245Y-98191222D01*
X187128248Y-98191221D01*
X187128249Y-98191221D01*
X187345755Y-98120549D01*
X187345755Y-98120548D01*
X187345758Y-98120548D01*
X187549538Y-98016717D01*
X187734566Y-97882286D01*
X187896286Y-97720566D01*
X188030717Y-97535538D01*
X188065535Y-97467203D01*
X188113508Y-97416409D01*
X188176019Y-97399500D01*
X191169974Y-97399500D01*
X191237013Y-97419185D01*
X191282768Y-97471989D01*
X191292712Y-97541147D01*
X191263687Y-97604703D01*
X191226269Y-97633985D01*
X191087566Y-97704657D01*
X191065667Y-97720568D01*
X190896490Y-97843483D01*
X190896488Y-97843485D01*
X190896487Y-97843485D01*
X190729485Y-98010487D01*
X190729485Y-98010488D01*
X190729483Y-98010490D01*
X190669862Y-98092550D01*
X190590657Y-98201566D01*
X190483433Y-98412003D01*
X190410446Y-98636631D01*
X190373500Y-98869902D01*
X190373500Y-99106097D01*
X190410446Y-99339368D01*
X190483433Y-99563996D01*
X190590657Y-99774433D01*
X190729483Y-99965510D01*
X190896490Y-100132517D01*
X191087567Y-100271343D01*
X191186991Y-100322002D01*
X191298003Y-100378566D01*
X191298005Y-100378566D01*
X191298008Y-100378568D01*
X191418412Y-100417689D01*
X191522631Y-100451553D01*
X191755903Y-100488500D01*
X191755908Y-100488500D01*
X191992097Y-100488500D01*
X192225368Y-100451553D01*
X192449992Y-100378568D01*
X192660433Y-100271343D01*
X192851510Y-100132517D01*
X193018517Y-99965510D01*
X193157343Y-99774433D01*
X193264568Y-99563992D01*
X193337553Y-99339368D01*
X193362069Y-99184582D01*
X193374500Y-99106097D01*
X193374500Y-98869902D01*
X196873500Y-98869902D01*
X196873500Y-99106097D01*
X196910446Y-99339368D01*
X196983433Y-99563996D01*
X197090657Y-99774433D01*
X197229483Y-99965510D01*
X197396490Y-100132517D01*
X197587567Y-100271343D01*
X197686991Y-100322002D01*
X197798003Y-100378566D01*
X197798005Y-100378566D01*
X197798008Y-100378568D01*
X197918412Y-100417689D01*
X198022631Y-100451553D01*
X198255903Y-100488500D01*
X198255908Y-100488500D01*
X198492097Y-100488500D01*
X198725368Y-100451553D01*
X198949992Y-100378568D01*
X199160433Y-100271343D01*
X199351510Y-100132517D01*
X199518517Y-99965510D01*
X199657343Y-99774433D01*
X199764568Y-99563992D01*
X199837553Y-99339368D01*
X199862069Y-99184582D01*
X199862146Y-99184097D01*
X201549500Y-99184097D01*
X201549500Y-99443902D01*
X201590140Y-99700493D01*
X201670422Y-99947576D01*
X201751534Y-100106764D01*
X201788366Y-100179051D01*
X201941069Y-100389229D01*
X202124771Y-100572931D01*
X202334949Y-100725634D01*
X202482445Y-100800787D01*
X202566423Y-100843577D01*
X202566425Y-100843577D01*
X202566428Y-100843579D01*
X202813507Y-100923860D01*
X202945706Y-100944797D01*
X203070098Y-100964500D01*
X203070103Y-100964500D01*
X203329902Y-100964500D01*
X203443298Y-100946539D01*
X203586493Y-100923860D01*
X203833572Y-100843579D01*
X204065051Y-100725634D01*
X204275229Y-100572931D01*
X204458931Y-100389229D01*
X204611634Y-100179051D01*
X204729579Y-99947572D01*
X204809860Y-99700493D01*
X204832539Y-99557298D01*
X204850500Y-99443902D01*
X204850500Y-99184097D01*
X204828947Y-99048021D01*
X204809860Y-98927507D01*
X204729579Y-98680428D01*
X204729577Y-98680425D01*
X204729577Y-98680423D01*
X204686787Y-98596445D01*
X204611634Y-98448949D01*
X204458931Y-98238771D01*
X204275229Y-98055069D01*
X204221857Y-98016292D01*
X204065054Y-97902368D01*
X204065053Y-97902367D01*
X204065051Y-97902366D01*
X203992764Y-97865534D01*
X203833576Y-97784422D01*
X203586493Y-97704140D01*
X203329902Y-97663500D01*
X203329897Y-97663500D01*
X203070103Y-97663500D01*
X203070098Y-97663500D01*
X202813506Y-97704140D01*
X202566423Y-97784422D01*
X202334945Y-97902368D01*
X202124774Y-98055066D01*
X202124768Y-98055071D01*
X201941071Y-98238768D01*
X201941066Y-98238774D01*
X201788368Y-98448945D01*
X201670422Y-98680423D01*
X201590140Y-98927506D01*
X201549500Y-99184097D01*
X199862146Y-99184097D01*
X199865989Y-99159833D01*
X199874500Y-99106097D01*
X199874500Y-98869902D01*
X199837553Y-98636631D01*
X199776571Y-98448949D01*
X199764568Y-98412008D01*
X199764566Y-98412005D01*
X199764566Y-98412003D01*
X199676298Y-98238768D01*
X199657343Y-98201567D01*
X199518517Y-98010490D01*
X199351510Y-97843483D01*
X199160433Y-97704657D01*
X199159418Y-97704140D01*
X198949996Y-97597433D01*
X198725368Y-97524446D01*
X198492097Y-97487500D01*
X198492092Y-97487500D01*
X198255908Y-97487500D01*
X198255903Y-97487500D01*
X198022631Y-97524446D01*
X197798003Y-97597433D01*
X197587566Y-97704657D01*
X197565667Y-97720568D01*
X197396490Y-97843483D01*
X197396488Y-97843485D01*
X197396487Y-97843485D01*
X197229485Y-98010487D01*
X197229485Y-98010488D01*
X197229483Y-98010490D01*
X197169862Y-98092550D01*
X197090657Y-98201566D01*
X196983433Y-98412003D01*
X196910446Y-98636631D01*
X196873500Y-98869902D01*
X193374500Y-98869902D01*
X193337553Y-98636631D01*
X193276571Y-98448949D01*
X193264568Y-98412008D01*
X193264566Y-98412005D01*
X193264566Y-98412003D01*
X193176298Y-98238768D01*
X193157343Y-98201567D01*
X193018517Y-98010490D01*
X192851510Y-97843483D01*
X192660433Y-97704657D01*
X192521730Y-97633984D01*
X192470935Y-97586010D01*
X192454140Y-97518190D01*
X192476677Y-97452055D01*
X192531392Y-97408603D01*
X192578026Y-97399500D01*
X193355608Y-97399500D01*
X193355608Y-97399499D01*
X193424010Y-97385894D01*
X193476452Y-97375463D01*
X193509792Y-97361652D01*
X193590286Y-97328312D01*
X193641509Y-97294084D01*
X193692733Y-97259858D01*
X193779858Y-97172733D01*
X193779859Y-97172731D01*
X193786925Y-97165665D01*
X193786928Y-97165661D01*
X194521285Y-96431304D01*
X201283500Y-96431304D01*
X201283500Y-96608695D01*
X201318103Y-96782658D01*
X201318106Y-96782667D01*
X201385983Y-96946540D01*
X201385990Y-96946553D01*
X201484535Y-97094034D01*
X201484538Y-97094038D01*
X201609961Y-97219461D01*
X201609965Y-97219464D01*
X201757446Y-97318009D01*
X201757459Y-97318016D01*
X201862808Y-97361652D01*
X201921334Y-97385894D01*
X201921336Y-97385894D01*
X201921341Y-97385896D01*
X202095304Y-97420499D01*
X202095307Y-97420500D01*
X202095309Y-97420500D01*
X202272693Y-97420500D01*
X202272694Y-97420499D01*
X202332501Y-97408603D01*
X202446658Y-97385896D01*
X202446661Y-97385894D01*
X202446666Y-97385894D01*
X202610547Y-97318013D01*
X202758035Y-97219464D01*
X202883464Y-97094035D01*
X202982013Y-96946547D01*
X203049894Y-96782666D01*
X203056374Y-96750093D01*
X203074364Y-96659646D01*
X203084500Y-96608691D01*
X203084500Y-96431309D01*
X203084500Y-96431306D01*
X203084499Y-96431304D01*
X203049896Y-96257341D01*
X203049893Y-96257332D01*
X202982016Y-96093459D01*
X202982009Y-96093446D01*
X202883464Y-95945965D01*
X202883461Y-95945961D01*
X202845819Y-95908319D01*
X202812334Y-95846996D01*
X202809500Y-95820638D01*
X202809500Y-92341073D01*
X202829185Y-92274034D01*
X202864607Y-92237972D01*
X203012035Y-92139464D01*
X203137464Y-92014035D01*
X203236013Y-91866547D01*
X203303894Y-91702666D01*
X203306417Y-91689985D01*
X203333958Y-91551525D01*
X203338500Y-91528691D01*
X203338500Y-91351309D01*
X203338500Y-91351306D01*
X203338499Y-91351304D01*
X203303896Y-91177341D01*
X203303893Y-91177332D01*
X203236016Y-91013459D01*
X203236009Y-91013446D01*
X203137464Y-90865965D01*
X203137461Y-90865961D01*
X203012038Y-90740538D01*
X203012034Y-90740535D01*
X202864553Y-90641990D01*
X202864540Y-90641983D01*
X202700667Y-90574106D01*
X202700658Y-90574103D01*
X202526694Y-90539500D01*
X202526691Y-90539500D01*
X202349309Y-90539500D01*
X202349306Y-90539500D01*
X202175341Y-90574103D01*
X202175332Y-90574106D01*
X202011459Y-90641983D01*
X202011446Y-90641990D01*
X201863965Y-90740535D01*
X201863961Y-90740538D01*
X201738538Y-90865961D01*
X201738535Y-90865965D01*
X201639990Y-91013446D01*
X201639983Y-91013459D01*
X201572106Y-91177332D01*
X201572103Y-91177341D01*
X201537500Y-91351304D01*
X201537500Y-91528693D01*
X201542041Y-91551521D01*
X201553981Y-91611548D01*
X201556117Y-91622283D01*
X201558500Y-91646475D01*
X201558500Y-95820638D01*
X201538815Y-95887677D01*
X201522181Y-95908319D01*
X201484538Y-95945961D01*
X201484535Y-95945965D01*
X201385990Y-96093446D01*
X201385983Y-96093459D01*
X201318106Y-96257332D01*
X201318103Y-96257341D01*
X201283500Y-96431304D01*
X194521285Y-96431304D01*
X196662321Y-94290267D01*
X196723642Y-94256784D01*
X196793334Y-94261768D01*
X196849267Y-94303640D01*
X196873684Y-94369104D01*
X196874000Y-94377950D01*
X196874000Y-94606052D01*
X196910934Y-94839247D01*
X196983897Y-95063802D01*
X197091087Y-95274174D01*
X197151338Y-95357104D01*
X197151340Y-95357105D01*
X197850212Y-94658233D01*
X197861482Y-94700292D01*
X197933890Y-94825708D01*
X198036292Y-94928110D01*
X198161708Y-95000518D01*
X198203765Y-95011787D01*
X197504893Y-95710658D01*
X197587828Y-95770914D01*
X197798197Y-95878102D01*
X198022752Y-95951065D01*
X198022751Y-95951065D01*
X198255948Y-95988000D01*
X198492052Y-95988000D01*
X198725247Y-95951065D01*
X198949802Y-95878102D01*
X199160163Y-95770918D01*
X199160169Y-95770914D01*
X199243104Y-95710658D01*
X199243105Y-95710658D01*
X198544233Y-95011787D01*
X198586292Y-95000518D01*
X198711708Y-94928110D01*
X198814110Y-94825708D01*
X198886518Y-94700292D01*
X198897787Y-94658233D01*
X199596658Y-95357105D01*
X199596658Y-95357104D01*
X199656914Y-95274169D01*
X199656918Y-95274163D01*
X199764102Y-95063802D01*
X199837065Y-94839247D01*
X199874000Y-94606052D01*
X199874000Y-94369947D01*
X199837065Y-94136752D01*
X199764102Y-93912197D01*
X199656914Y-93701828D01*
X199596658Y-93618894D01*
X199596658Y-93618893D01*
X198897787Y-94317765D01*
X198886518Y-94275708D01*
X198814110Y-94150292D01*
X198711708Y-94047890D01*
X198586292Y-93975482D01*
X198544233Y-93964212D01*
X199243105Y-93265340D01*
X199243104Y-93265338D01*
X199160174Y-93205087D01*
X198949802Y-93097897D01*
X198725247Y-93024934D01*
X198725248Y-93024934D01*
X198492052Y-92988000D01*
X198263950Y-92988000D01*
X198196911Y-92968315D01*
X198151156Y-92915511D01*
X198141212Y-92846353D01*
X198170237Y-92782797D01*
X198176255Y-92776333D01*
X198544729Y-92407860D01*
X198544733Y-92407858D01*
X198631858Y-92320733D01*
X198700311Y-92218286D01*
X198747463Y-92104452D01*
X198760016Y-92041344D01*
X198771500Y-91983607D01*
X198771500Y-91860393D01*
X198771500Y-90841980D01*
X198791185Y-90774941D01*
X198839208Y-90731494D01*
X198853818Y-90724050D01*
X199025786Y-90599109D01*
X199025788Y-90599106D01*
X199025792Y-90599104D01*
X199176104Y-90448792D01*
X199176106Y-90448788D01*
X199176109Y-90448786D01*
X199301048Y-90276820D01*
X199301047Y-90276820D01*
X199301051Y-90276816D01*
X199397557Y-90087412D01*
X199463246Y-89885243D01*
X199496500Y-89675287D01*
X199496500Y-89212713D01*
X199463246Y-89002757D01*
X199397557Y-88800588D01*
X199301051Y-88611184D01*
X199301049Y-88611181D01*
X199301048Y-88611179D01*
X199176109Y-88439213D01*
X199025786Y-88288890D01*
X198853820Y-88163951D01*
X198664414Y-88067444D01*
X198664413Y-88067443D01*
X198664412Y-88067443D01*
X198462243Y-88001754D01*
X198462241Y-88001753D01*
X198462240Y-88001753D01*
X198300957Y-87976208D01*
X198252287Y-87968500D01*
X198039713Y-87968500D01*
X197991042Y-87976208D01*
X197829760Y-88001753D01*
X197627585Y-88067444D01*
X197438179Y-88163951D01*
X197266213Y-88288890D01*
X197115894Y-88439209D01*
X197115890Y-88439214D01*
X196996318Y-88603793D01*
X196940989Y-88646459D01*
X196871375Y-88652438D01*
X196809580Y-88619833D01*
X196795682Y-88603793D01*
X196676109Y-88439214D01*
X196676105Y-88439209D01*
X196525786Y-88288890D01*
X196353820Y-88163951D01*
X196164414Y-88067444D01*
X196164413Y-88067443D01*
X196164412Y-88067443D01*
X195962243Y-88001754D01*
X195962241Y-88001753D01*
X195962240Y-88001753D01*
X195800957Y-87976208D01*
X195752287Y-87968500D01*
X195539713Y-87968500D01*
X195491042Y-87976208D01*
X195329760Y-88001753D01*
X195127585Y-88067444D01*
X194938179Y-88163951D01*
X194766215Y-88288889D01*
X194627035Y-88428069D01*
X194565712Y-88461553D01*
X194496020Y-88456569D01*
X194440087Y-88414697D01*
X194433815Y-88405484D01*
X194338315Y-88250654D01*
X194214345Y-88126684D01*
X194065124Y-88034643D01*
X194065119Y-88034641D01*
X193898697Y-87979494D01*
X193898690Y-87979493D01*
X193795986Y-87969000D01*
X193396000Y-87969000D01*
X193396000Y-89039854D01*
X193329343Y-89001370D01*
X193208535Y-88969000D01*
X193083465Y-88969000D01*
X192962657Y-89001370D01*
X192896000Y-89039854D01*
X192896000Y-87969000D01*
X192496028Y-87969000D01*
X192496012Y-87969001D01*
X192393302Y-87979494D01*
X192226880Y-88034641D01*
X192226875Y-88034643D01*
X192077654Y-88126684D01*
X191953684Y-88250654D01*
X191861643Y-88399875D01*
X191861641Y-88399880D01*
X191806494Y-88566302D01*
X191806493Y-88566309D01*
X191796000Y-88669013D01*
X191796000Y-89194000D01*
X192741854Y-89194000D01*
X192703370Y-89260657D01*
X192671000Y-89381465D01*
X192671000Y-89506535D01*
X192703370Y-89627343D01*
X192741854Y-89694000D01*
X191796001Y-89694000D01*
X191796001Y-90218986D01*
X191806494Y-90321697D01*
X191861641Y-90488119D01*
X191861643Y-90488124D01*
X191953684Y-90637345D01*
X192077654Y-90761315D01*
X192226875Y-90853356D01*
X192226880Y-90853358D01*
X192393302Y-90908505D01*
X192393309Y-90908506D01*
X192496019Y-90918999D01*
X192895999Y-90918999D01*
X192896000Y-90918998D01*
X192896000Y-89848145D01*
X192962657Y-89886630D01*
X193083465Y-89919000D01*
X193208535Y-89919000D01*
X193329343Y-89886630D01*
X193396000Y-89848145D01*
X193396000Y-90918999D01*
X193795972Y-90918999D01*
X193795986Y-90918998D01*
X193898697Y-90908505D01*
X194065119Y-90853358D01*
X194065124Y-90853356D01*
X194214345Y-90761315D01*
X194338317Y-90637343D01*
X194433815Y-90482516D01*
X194485763Y-90435791D01*
X194554725Y-90424568D01*
X194618808Y-90452412D01*
X194627035Y-90459931D01*
X194766213Y-90599109D01*
X194938179Y-90724048D01*
X194938181Y-90724049D01*
X194938184Y-90724051D01*
X195127588Y-90820557D01*
X195329757Y-90886246D01*
X195539713Y-90919500D01*
X195539714Y-90919500D01*
X195752286Y-90919500D01*
X195752287Y-90919500D01*
X195962243Y-90886246D01*
X196164412Y-90820557D01*
X196353816Y-90724051D01*
X196398879Y-90691311D01*
X196525786Y-90599109D01*
X196525788Y-90599106D01*
X196525792Y-90599104D01*
X196676104Y-90448792D01*
X196795683Y-90284204D01*
X196851011Y-90241540D01*
X196920624Y-90235561D01*
X196982420Y-90268166D01*
X196996313Y-90284199D01*
X197069675Y-90385174D01*
X197115896Y-90448792D01*
X197266213Y-90599109D01*
X197438181Y-90724050D01*
X197452792Y-90731494D01*
X197503589Y-90779467D01*
X197520500Y-90841980D01*
X197520500Y-91611548D01*
X197500815Y-91678587D01*
X197484181Y-91699229D01*
X193071229Y-96112181D01*
X193009906Y-96145666D01*
X192983548Y-96148500D01*
X192400511Y-96148500D01*
X192333472Y-96128815D01*
X192287717Y-96076011D01*
X192277773Y-96006853D01*
X192306798Y-95943297D01*
X192362193Y-95906569D01*
X192449802Y-95878102D01*
X192660163Y-95770918D01*
X192660169Y-95770914D01*
X192743104Y-95710658D01*
X192743105Y-95710658D01*
X192044233Y-95011787D01*
X192086292Y-95000518D01*
X192211708Y-94928110D01*
X192314110Y-94825708D01*
X192386518Y-94700292D01*
X192397787Y-94658233D01*
X193096658Y-95357105D01*
X193096658Y-95357104D01*
X193156914Y-95274169D01*
X193156918Y-95274163D01*
X193264102Y-95063802D01*
X193337065Y-94839247D01*
X193374000Y-94606052D01*
X193374000Y-94369947D01*
X193337065Y-94136752D01*
X193264102Y-93912197D01*
X193156914Y-93701828D01*
X193096658Y-93618894D01*
X193096658Y-93618893D01*
X192397787Y-94317765D01*
X192386518Y-94275708D01*
X192314110Y-94150292D01*
X192211708Y-94047890D01*
X192086292Y-93975482D01*
X192044234Y-93964212D01*
X192743105Y-93265340D01*
X192743104Y-93265338D01*
X192660174Y-93205087D01*
X192449802Y-93097897D01*
X192225247Y-93024934D01*
X192225248Y-93024934D01*
X191992052Y-92988000D01*
X191755948Y-92988000D01*
X191522752Y-93024934D01*
X191298197Y-93097897D01*
X191087830Y-93205084D01*
X191004894Y-93265340D01*
X191703766Y-93964212D01*
X191661708Y-93975482D01*
X191536292Y-94047890D01*
X191433890Y-94150292D01*
X191361482Y-94275708D01*
X191350212Y-94317766D01*
X190651340Y-93618894D01*
X190591084Y-93701830D01*
X190483897Y-93912197D01*
X190410934Y-94136752D01*
X190374000Y-94369947D01*
X190374000Y-94606052D01*
X190410934Y-94839247D01*
X190483897Y-95063802D01*
X190591087Y-95274174D01*
X190651338Y-95357104D01*
X190651340Y-95357105D01*
X191350212Y-94658233D01*
X191361482Y-94700292D01*
X191433890Y-94825708D01*
X191536292Y-94928110D01*
X191661708Y-95000518D01*
X191703765Y-95011787D01*
X191004893Y-95710658D01*
X191087828Y-95770914D01*
X191298197Y-95878102D01*
X191385807Y-95906569D01*
X191443483Y-95946007D01*
X191470681Y-96010365D01*
X191458766Y-96079212D01*
X191411522Y-96130687D01*
X191347489Y-96148500D01*
X188176019Y-96148500D01*
X188108980Y-96128815D01*
X188065534Y-96080795D01*
X188064727Y-96079212D01*
X188030717Y-96012462D01*
X187896286Y-95827434D01*
X187734566Y-95665714D01*
X187549538Y-95531283D01*
X187512466Y-95512394D01*
X187345755Y-95427450D01*
X187128248Y-95356778D01*
X186958826Y-95329944D01*
X186902354Y-95321000D01*
X186673646Y-95321000D01*
X186598349Y-95332926D01*
X186447753Y-95356778D01*
X186447750Y-95356778D01*
X186230244Y-95427450D01*
X186026461Y-95531283D01*
X185958736Y-95580489D01*
X185841434Y-95665714D01*
X185841432Y-95665716D01*
X185841431Y-95665716D01*
X185679716Y-95827431D01*
X185679716Y-95827432D01*
X185679714Y-95827434D01*
X185635945Y-95887677D01*
X185545283Y-96012461D01*
X185441450Y-96216244D01*
X185370778Y-96433750D01*
X185370778Y-96433753D01*
X185343070Y-96608693D01*
X185335000Y-96659646D01*
X184840494Y-96659646D01*
X184804734Y-96433875D01*
X184804734Y-96433874D01*
X184734082Y-96216431D01*
X184630292Y-96012731D01*
X184630288Y-96012725D01*
X184576651Y-95938900D01*
X184576651Y-95938899D01*
X183830137Y-96685414D01*
X183807333Y-96600306D01*
X183748090Y-96497694D01*
X183664306Y-96413910D01*
X183561694Y-96354667D01*
X183476583Y-96331861D01*
X184223099Y-95585347D01*
X184149276Y-95531711D01*
X183945568Y-95427917D01*
X183728124Y-95357265D01*
X183502313Y-95321500D01*
X183273687Y-95321500D01*
X183047875Y-95357265D01*
X183047874Y-95357265D01*
X182830431Y-95427917D01*
X182626719Y-95531713D01*
X182552900Y-95585346D01*
X182552899Y-95585347D01*
X183299414Y-96331861D01*
X183214306Y-96354667D01*
X183111694Y-96413910D01*
X183027910Y-96497694D01*
X182968667Y-96600306D01*
X182945861Y-96685414D01*
X182199347Y-95938899D01*
X182199346Y-95938900D01*
X182145713Y-96012719D01*
X182041917Y-96216431D01*
X181971265Y-96433874D01*
X181971265Y-96433875D01*
X181935500Y-96659686D01*
X178412788Y-96659686D01*
X178499828Y-96572646D01*
X178615524Y-96413405D01*
X178704884Y-96238025D01*
X178765709Y-96050826D01*
X178771744Y-96012725D01*
X178796500Y-95856422D01*
X178796500Y-95659578D01*
X178795300Y-95652001D01*
X178795300Y-95651999D01*
X178765709Y-95465173D01*
X178704882Y-95277970D01*
X178615523Y-95102594D01*
X178611682Y-95097307D01*
X178499828Y-94943354D01*
X178360646Y-94804172D01*
X178259103Y-94730396D01*
X178201403Y-94688474D01*
X178024787Y-94598485D01*
X177973990Y-94550511D01*
X177957195Y-94482690D01*
X177979732Y-94416555D01*
X178024787Y-94377515D01*
X178109264Y-94334472D01*
X178201405Y-94287524D01*
X178360646Y-94171828D01*
X178499828Y-94032646D01*
X178615524Y-93873405D01*
X178704884Y-93698025D01*
X178765709Y-93510826D01*
X178779891Y-93421283D01*
X178796500Y-93316422D01*
X178796500Y-93119577D01*
X178765709Y-92925173D01*
X178731064Y-92818549D01*
X178704884Y-92737975D01*
X178704882Y-92737972D01*
X178704183Y-92735819D01*
X178702188Y-92665978D01*
X178738268Y-92606145D01*
X178800969Y-92575316D01*
X178822114Y-92573500D01*
X179132639Y-92573500D01*
X179199678Y-92593185D01*
X179220321Y-92609820D01*
X179262614Y-92652114D01*
X179262618Y-92652117D01*
X179410099Y-92750662D01*
X179410112Y-92750669D01*
X179508334Y-92791353D01*
X179573987Y-92818547D01*
X179573989Y-92818547D01*
X179573994Y-92818549D01*
X179747957Y-92853152D01*
X179747960Y-92853153D01*
X179747962Y-92853153D01*
X179925346Y-92853153D01*
X179925347Y-92853152D01*
X179983335Y-92841617D01*
X180099311Y-92818549D01*
X180099314Y-92818547D01*
X180099319Y-92818547D01*
X180263200Y-92750666D01*
X180410688Y-92652117D01*
X180536117Y-92526688D01*
X180634666Y-92379200D01*
X180702547Y-92215319D01*
X180703493Y-92210567D01*
X180737153Y-92041345D01*
X180737153Y-91863959D01*
X180737152Y-91863957D01*
X180702549Y-91689994D01*
X180702546Y-91689985D01*
X180634669Y-91526112D01*
X180634662Y-91526099D01*
X180536117Y-91378618D01*
X180536114Y-91378614D01*
X180410691Y-91253191D01*
X180410687Y-91253188D01*
X180263206Y-91154643D01*
X180263193Y-91154636D01*
X180099320Y-91086759D01*
X180099311Y-91086756D01*
X179925347Y-91052153D01*
X179925344Y-91052153D01*
X179747962Y-91052153D01*
X179747959Y-91052153D01*
X179573994Y-91086756D01*
X179573985Y-91086759D01*
X179410112Y-91154636D01*
X179410099Y-91154643D01*
X179262618Y-91253188D01*
X179262614Y-91253191D01*
X179229627Y-91286180D01*
X179168305Y-91319666D01*
X179141945Y-91322500D01*
X178822114Y-91322500D01*
X178755075Y-91302815D01*
X178709320Y-91250011D01*
X178699376Y-91180853D01*
X178704183Y-91160181D01*
X178705983Y-91154643D01*
X178765709Y-90970826D01*
X178766891Y-90963363D01*
X178796500Y-90776422D01*
X178796500Y-90579577D01*
X178765709Y-90385173D01*
X178730501Y-90276816D01*
X178704884Y-90197975D01*
X178704882Y-90197972D01*
X178704882Y-90197970D01*
X178625666Y-90042500D01*
X178615524Y-90022595D01*
X178499828Y-89863354D01*
X178360646Y-89724172D01*
X178253451Y-89646290D01*
X178201403Y-89608474D01*
X178024787Y-89518485D01*
X177973990Y-89470511D01*
X177957195Y-89402690D01*
X177979732Y-89336555D01*
X178024787Y-89297515D01*
X178201403Y-89207525D01*
X178201402Y-89207525D01*
X178201405Y-89207524D01*
X178360646Y-89091828D01*
X178499828Y-88952646D01*
X178615524Y-88793405D01*
X178704884Y-88618025D01*
X178765709Y-88430826D01*
X178770611Y-88399875D01*
X178796500Y-88236422D01*
X178796500Y-88039577D01*
X178765709Y-87845173D01*
X178704882Y-87657970D01*
X178650148Y-87550549D01*
X178615524Y-87482595D01*
X178499828Y-87323354D01*
X178360646Y-87184172D01*
X178201405Y-87068476D01*
X178026029Y-86979117D01*
X177838826Y-86918290D01*
X177644422Y-86887500D01*
X177644417Y-86887500D01*
X177447583Y-86887500D01*
X177431672Y-86890020D01*
X177362378Y-86881064D01*
X177324594Y-86855227D01*
X176500421Y-86031052D01*
X176500414Y-86031046D01*
X176426729Y-85981812D01*
X176426729Y-85981813D01*
X176377491Y-85948913D01*
X176240917Y-85892343D01*
X176240907Y-85892340D01*
X176095920Y-85863500D01*
X176095918Y-85863500D01*
X173301917Y-85863500D01*
X173154082Y-85863500D01*
X173154080Y-85863500D01*
X173009092Y-85892340D01*
X173009082Y-85892343D01*
X172872511Y-85948912D01*
X172872498Y-85948919D01*
X172749584Y-86031048D01*
X172749580Y-86031051D01*
X171195292Y-87585339D01*
X171133969Y-87618824D01*
X171064277Y-87613840D01*
X171019930Y-87585339D01*
X168809819Y-85375228D01*
X168776334Y-85313905D01*
X168773500Y-85287547D01*
X168773500Y-82233361D01*
X168779801Y-82211900D01*
X168781480Y-82189597D01*
X168790417Y-82175746D01*
X168793185Y-82166322D01*
X168798509Y-82158683D01*
X168803708Y-82151790D01*
X168847464Y-82108035D01*
X168878689Y-82061304D01*
X176899500Y-82061304D01*
X176899500Y-82238695D01*
X176934103Y-82412658D01*
X176934106Y-82412667D01*
X177001983Y-82576540D01*
X177001990Y-82576553D01*
X177100535Y-82724034D01*
X177100538Y-82724038D01*
X177138180Y-82761679D01*
X177171666Y-82823001D01*
X177174500Y-82849361D01*
X177174500Y-83872300D01*
X177191031Y-83955412D01*
X177195715Y-83978962D01*
X177198536Y-83993143D01*
X177198537Y-83993145D01*
X177245688Y-84106980D01*
X177270970Y-84144816D01*
X177314142Y-84209427D01*
X177401267Y-84296552D01*
X177401269Y-84296553D01*
X177411626Y-84306910D01*
X178137834Y-85033118D01*
X178171319Y-85094441D01*
X178174153Y-85120799D01*
X178174153Y-85174042D01*
X178208756Y-85348005D01*
X178208759Y-85348014D01*
X178276636Y-85511887D01*
X178276643Y-85511900D01*
X178375188Y-85659381D01*
X178375191Y-85659385D01*
X178500614Y-85784808D01*
X178500618Y-85784811D01*
X178648099Y-85883356D01*
X178648112Y-85883363D01*
X178738140Y-85920653D01*
X178811987Y-85951241D01*
X178811989Y-85951241D01*
X178811994Y-85951243D01*
X178985957Y-85985846D01*
X178985960Y-85985847D01*
X178985962Y-85985847D01*
X179163346Y-85985847D01*
X179163347Y-85985846D01*
X179221335Y-85974311D01*
X179337311Y-85951243D01*
X179337314Y-85951241D01*
X179337319Y-85951241D01*
X179501200Y-85883360D01*
X179648688Y-85784811D01*
X179774117Y-85659382D01*
X179872666Y-85511894D01*
X179940547Y-85348013D01*
X179975153Y-85174038D01*
X179975153Y-84996656D01*
X179975153Y-84996653D01*
X179975152Y-84996651D01*
X179940549Y-84822688D01*
X179940546Y-84822679D01*
X179872669Y-84658806D01*
X179872662Y-84658793D01*
X179774117Y-84511312D01*
X179774114Y-84511308D01*
X179648691Y-84385885D01*
X179648687Y-84385882D01*
X179501206Y-84287337D01*
X179501193Y-84287330D01*
X179337320Y-84219453D01*
X179337311Y-84219450D01*
X179163347Y-84184847D01*
X179163344Y-84184847D01*
X179110106Y-84184847D01*
X179043067Y-84165162D01*
X179022425Y-84148528D01*
X178461819Y-83587922D01*
X178428334Y-83526599D01*
X178425500Y-83500241D01*
X178425500Y-82849361D01*
X178445185Y-82782322D01*
X178461820Y-82761679D01*
X178499461Y-82724038D01*
X178499464Y-82724035D01*
X178598013Y-82576547D01*
X178598016Y-82576540D01*
X178614389Y-82537013D01*
X191796000Y-82537013D01*
X191796000Y-83062000D01*
X192741854Y-83062000D01*
X192703370Y-83128657D01*
X192671000Y-83249465D01*
X192671000Y-83374535D01*
X192703370Y-83495343D01*
X192741854Y-83562000D01*
X191796001Y-83562000D01*
X191796001Y-84086986D01*
X191806494Y-84189697D01*
X191861641Y-84356119D01*
X191861643Y-84356124D01*
X191953684Y-84505345D01*
X192077654Y-84629315D01*
X192226875Y-84721356D01*
X192226880Y-84721358D01*
X192393302Y-84776505D01*
X192393309Y-84776506D01*
X192496019Y-84786999D01*
X192895999Y-84786999D01*
X192896000Y-84786998D01*
X192896000Y-83716145D01*
X192962657Y-83754630D01*
X193083465Y-83787000D01*
X193208535Y-83787000D01*
X193329343Y-83754630D01*
X193396000Y-83716145D01*
X193396000Y-84786999D01*
X193795972Y-84786999D01*
X193795986Y-84786998D01*
X193898697Y-84776505D01*
X194065119Y-84721358D01*
X194065124Y-84721356D01*
X194214345Y-84629315D01*
X194338317Y-84505343D01*
X194433815Y-84350516D01*
X194485763Y-84303791D01*
X194554725Y-84292568D01*
X194618808Y-84320412D01*
X194627035Y-84327931D01*
X194766213Y-84467109D01*
X194938179Y-84592048D01*
X194938181Y-84592049D01*
X194938184Y-84592051D01*
X195127588Y-84688557D01*
X195329757Y-84754246D01*
X195539713Y-84787500D01*
X195539714Y-84787500D01*
X195752286Y-84787500D01*
X195752287Y-84787500D01*
X195962243Y-84754246D01*
X196164412Y-84688557D01*
X196353816Y-84592051D01*
X196375789Y-84576086D01*
X196525786Y-84467109D01*
X196525788Y-84467106D01*
X196525792Y-84467104D01*
X196676104Y-84316792D01*
X196795683Y-84152204D01*
X196851011Y-84109540D01*
X196920624Y-84103561D01*
X196982420Y-84136166D01*
X196996313Y-84152199D01*
X197046461Y-84221222D01*
X197115896Y-84316792D01*
X197266213Y-84467109D01*
X197438179Y-84592048D01*
X197438181Y-84592049D01*
X197438184Y-84592051D01*
X197627588Y-84688557D01*
X197829757Y-84754246D01*
X198039713Y-84787500D01*
X198039714Y-84787500D01*
X198252286Y-84787500D01*
X198252287Y-84787500D01*
X198462243Y-84754246D01*
X198664412Y-84688557D01*
X198853816Y-84592051D01*
X198875789Y-84576086D01*
X199025786Y-84467109D01*
X199025788Y-84467106D01*
X199025792Y-84467104D01*
X199176104Y-84316792D01*
X199176106Y-84316788D01*
X199176109Y-84316786D01*
X199301048Y-84144820D01*
X199301047Y-84144820D01*
X199301051Y-84144816D01*
X199397557Y-83955412D01*
X199463246Y-83753243D01*
X199496500Y-83543287D01*
X199496500Y-83080713D01*
X199463246Y-82870757D01*
X199397557Y-82668588D01*
X199301051Y-82479184D01*
X199301049Y-82479181D01*
X199301048Y-82479179D01*
X199176109Y-82307213D01*
X199025786Y-82156890D01*
X198853820Y-82031951D01*
X198664414Y-81935444D01*
X198664413Y-81935443D01*
X198664412Y-81935443D01*
X198462243Y-81869754D01*
X198462241Y-81869753D01*
X198462240Y-81869753D01*
X198300957Y-81844208D01*
X198252287Y-81836500D01*
X198039713Y-81836500D01*
X197991042Y-81844208D01*
X197829760Y-81869753D01*
X197627585Y-81935444D01*
X197438179Y-82031951D01*
X197266213Y-82156890D01*
X197115894Y-82307209D01*
X197115890Y-82307214D01*
X196996318Y-82471793D01*
X196940989Y-82514459D01*
X196871375Y-82520438D01*
X196809580Y-82487833D01*
X196795682Y-82471793D01*
X196676109Y-82307214D01*
X196676105Y-82307209D01*
X196525786Y-82156890D01*
X196353820Y-82031951D01*
X196164414Y-81935444D01*
X196164413Y-81935443D01*
X196164412Y-81935443D01*
X195962243Y-81869754D01*
X195962241Y-81869753D01*
X195962240Y-81869753D01*
X195800957Y-81844208D01*
X195752287Y-81836500D01*
X195539713Y-81836500D01*
X195491042Y-81844208D01*
X195329760Y-81869753D01*
X195127585Y-81935444D01*
X194938179Y-82031951D01*
X194766215Y-82156889D01*
X194627035Y-82296069D01*
X194565712Y-82329553D01*
X194496020Y-82324569D01*
X194440087Y-82282697D01*
X194433815Y-82273484D01*
X194338315Y-82118654D01*
X194214345Y-81994684D01*
X194065124Y-81902643D01*
X194065119Y-81902641D01*
X193898697Y-81847494D01*
X193898690Y-81847493D01*
X193795986Y-81837000D01*
X193396000Y-81837000D01*
X193396000Y-82907854D01*
X193329343Y-82869370D01*
X193208535Y-82837000D01*
X193083465Y-82837000D01*
X192962657Y-82869370D01*
X192896000Y-82907854D01*
X192896000Y-81837000D01*
X192496028Y-81837000D01*
X192496012Y-81837001D01*
X192393302Y-81847494D01*
X192226880Y-81902641D01*
X192226875Y-81902643D01*
X192077654Y-81994684D01*
X191953684Y-82118654D01*
X191861643Y-82267875D01*
X191861641Y-82267880D01*
X191806494Y-82434302D01*
X191806493Y-82434309D01*
X191796000Y-82537013D01*
X178614389Y-82537013D01*
X178635348Y-82486412D01*
X178656932Y-82434302D01*
X178665894Y-82412666D01*
X178700500Y-82238691D01*
X178700500Y-82061309D01*
X178700500Y-82061306D01*
X178700499Y-82061304D01*
X178665896Y-81887341D01*
X178665893Y-81887332D01*
X178598016Y-81723459D01*
X178598009Y-81723446D01*
X178499464Y-81575965D01*
X178499461Y-81575961D01*
X178374038Y-81450538D01*
X178374034Y-81450535D01*
X178226553Y-81351990D01*
X178226540Y-81351983D01*
X178062667Y-81284106D01*
X178062658Y-81284103D01*
X177888694Y-81249500D01*
X177888691Y-81249500D01*
X177711309Y-81249500D01*
X177711306Y-81249500D01*
X177537341Y-81284103D01*
X177537332Y-81284106D01*
X177373459Y-81351983D01*
X177373446Y-81351990D01*
X177225965Y-81450535D01*
X177225961Y-81450538D01*
X177100538Y-81575961D01*
X177100535Y-81575965D01*
X177001990Y-81723446D01*
X177001983Y-81723459D01*
X176934106Y-81887332D01*
X176934103Y-81887341D01*
X176899500Y-82061304D01*
X168878689Y-82061304D01*
X168946013Y-81960547D01*
X169013894Y-81796666D01*
X169028459Y-81723446D01*
X169048499Y-81622695D01*
X169048500Y-81622693D01*
X169048500Y-81445306D01*
X169048499Y-81445304D01*
X169013896Y-81271341D01*
X169013893Y-81271332D01*
X168946016Y-81107459D01*
X168946009Y-81107446D01*
X168847464Y-80959965D01*
X168847461Y-80959961D01*
X168722038Y-80834538D01*
X168722034Y-80834535D01*
X168574553Y-80735990D01*
X168574540Y-80735983D01*
X168410667Y-80668106D01*
X168410658Y-80668103D01*
X168236694Y-80633500D01*
X168236691Y-80633500D01*
X168183452Y-80633500D01*
X168116413Y-80613815D01*
X168095771Y-80597181D01*
X167539819Y-80041229D01*
X167506334Y-79979906D01*
X167503500Y-79953548D01*
X167503500Y-77623264D01*
X167523185Y-77556225D01*
X167554615Y-77522946D01*
X167577569Y-77506269D01*
X167700464Y-77416981D01*
X167840981Y-77276464D01*
X167957787Y-77115694D01*
X168037796Y-76958667D01*
X168085769Y-76907872D01*
X168153590Y-76891077D01*
X168219725Y-76913614D01*
X168258765Y-76958668D01*
X168338641Y-77115432D01*
X168365730Y-77152715D01*
X168365731Y-77152716D01*
X168955449Y-76562997D01*
X168975370Y-76637343D01*
X169037905Y-76745657D01*
X169126343Y-76834095D01*
X169234657Y-76896630D01*
X169309002Y-76916550D01*
X168719283Y-77506268D01*
X168719283Y-77506269D01*
X168756567Y-77533358D01*
X168933562Y-77623542D01*
X169122477Y-77684924D01*
X169318679Y-77716000D01*
X169517321Y-77716000D01*
X169713520Y-77684924D01*
X169713523Y-77684924D01*
X169902437Y-77623542D01*
X170079425Y-77533362D01*
X170116716Y-77506268D01*
X169526998Y-76916550D01*
X169601343Y-76896630D01*
X169709657Y-76834095D01*
X169798095Y-76745657D01*
X169860630Y-76637343D01*
X169880550Y-76562997D01*
X170470268Y-77152715D01*
X170497364Y-77115422D01*
X170577234Y-76958669D01*
X170625208Y-76907872D01*
X170693029Y-76891077D01*
X170759164Y-76913614D01*
X170798203Y-76958667D01*
X170878213Y-77115694D01*
X170995019Y-77276464D01*
X171135536Y-77416981D01*
X171296306Y-77533787D01*
X171340343Y-77556225D01*
X171473367Y-77624005D01*
X171473370Y-77624006D01*
X171567866Y-77654709D01*
X171662364Y-77685413D01*
X171858639Y-77716500D01*
X171858640Y-77716500D01*
X172057360Y-77716500D01*
X172057361Y-77716500D01*
X172253636Y-77685413D01*
X172442632Y-77624005D01*
X172619694Y-77533787D01*
X172780464Y-77416981D01*
X172920981Y-77276464D01*
X173037787Y-77115694D01*
X173117515Y-76959218D01*
X173165490Y-76908423D01*
X173233311Y-76891628D01*
X173299446Y-76914165D01*
X173338484Y-76959218D01*
X173418213Y-77115694D01*
X173535019Y-77276464D01*
X173675536Y-77416981D01*
X173836306Y-77533787D01*
X173880343Y-77556225D01*
X174013367Y-77624005D01*
X174013370Y-77624006D01*
X174107866Y-77654709D01*
X174202364Y-77685413D01*
X174398639Y-77716500D01*
X174398640Y-77716500D01*
X174597360Y-77716500D01*
X174597361Y-77716500D01*
X174793636Y-77685413D01*
X174982632Y-77624005D01*
X175159694Y-77533787D01*
X175320464Y-77416981D01*
X175460981Y-77276464D01*
X175577787Y-77115694D01*
X175668005Y-76938632D01*
X175729413Y-76749636D01*
X175760500Y-76553361D01*
X175760500Y-76354639D01*
X175729413Y-76158364D01*
X175683277Y-76016371D01*
X175668006Y-75969370D01*
X175668005Y-75969369D01*
X175668005Y-75969368D01*
X175638420Y-75911304D01*
X178423500Y-75911304D01*
X178423500Y-76088695D01*
X178458103Y-76262658D01*
X178458106Y-76262667D01*
X178525983Y-76426540D01*
X178525990Y-76426553D01*
X178624535Y-76574034D01*
X178624538Y-76574038D01*
X178749961Y-76699461D01*
X178749965Y-76699464D01*
X178897446Y-76798009D01*
X178897459Y-76798016D01*
X179020363Y-76848923D01*
X179061334Y-76865894D01*
X179061336Y-76865894D01*
X179061341Y-76865896D01*
X179235304Y-76900499D01*
X179235307Y-76900500D01*
X179235309Y-76900500D01*
X179412693Y-76900500D01*
X179412694Y-76900499D01*
X179470682Y-76888964D01*
X179586658Y-76865896D01*
X179586661Y-76865894D01*
X179586666Y-76865894D01*
X179750547Y-76798013D01*
X179898035Y-76699464D01*
X180023464Y-76574035D01*
X180122013Y-76426547D01*
X180189894Y-76262666D01*
X180198666Y-76218569D01*
X180224499Y-76088695D01*
X180224500Y-76088693D01*
X180224500Y-76035452D01*
X180244185Y-75968413D01*
X180260819Y-75947771D01*
X180616772Y-75591819D01*
X180678095Y-75558334D01*
X180704453Y-75555500D01*
X192186173Y-75555500D01*
X192253212Y-75575185D01*
X192298967Y-75627989D01*
X192308911Y-75697147D01*
X192279886Y-75760703D01*
X192232750Y-75792153D01*
X192233421Y-75793592D01*
X192226875Y-75796643D01*
X192077654Y-75888684D01*
X191953684Y-76012654D01*
X191861643Y-76161875D01*
X191861641Y-76161880D01*
X191806494Y-76328302D01*
X191806493Y-76328309D01*
X191796000Y-76431013D01*
X191796000Y-76956000D01*
X192741854Y-76956000D01*
X192703370Y-77022657D01*
X192671000Y-77143465D01*
X192671000Y-77268535D01*
X192703370Y-77389343D01*
X192741854Y-77456000D01*
X191796001Y-77456000D01*
X191796001Y-77980986D01*
X191806494Y-78083697D01*
X191861641Y-78250119D01*
X191861643Y-78250124D01*
X191953684Y-78399345D01*
X192077654Y-78523315D01*
X192226875Y-78615356D01*
X192226880Y-78615358D01*
X192393302Y-78670505D01*
X192393309Y-78670506D01*
X192496019Y-78680999D01*
X192895999Y-78680999D01*
X192896000Y-78680998D01*
X192896000Y-77610145D01*
X192962657Y-77648630D01*
X193083465Y-77681000D01*
X193208535Y-77681000D01*
X193329343Y-77648630D01*
X193396000Y-77610145D01*
X193396000Y-78680999D01*
X193795972Y-78680999D01*
X193795986Y-78680998D01*
X193898697Y-78670505D01*
X194065119Y-78615358D01*
X194065124Y-78615356D01*
X194214345Y-78523315D01*
X194338317Y-78399343D01*
X194433815Y-78244516D01*
X194485763Y-78197791D01*
X194554725Y-78186568D01*
X194618808Y-78214412D01*
X194627035Y-78221931D01*
X194766213Y-78361109D01*
X194938179Y-78486048D01*
X194938181Y-78486049D01*
X194938184Y-78486051D01*
X195127588Y-78582557D01*
X195329757Y-78648246D01*
X195539713Y-78681500D01*
X195539714Y-78681500D01*
X195752286Y-78681500D01*
X195752287Y-78681500D01*
X195962243Y-78648246D01*
X196164412Y-78582557D01*
X196353816Y-78486051D01*
X196375789Y-78470086D01*
X196525786Y-78361109D01*
X196525788Y-78361106D01*
X196525792Y-78361104D01*
X196676104Y-78210792D01*
X196795683Y-78046204D01*
X196851011Y-78003540D01*
X196920624Y-77997561D01*
X196982420Y-78030166D01*
X196996313Y-78046199D01*
X197023557Y-78083697D01*
X197115896Y-78210792D01*
X197266213Y-78361109D01*
X197438179Y-78486048D01*
X197438181Y-78486049D01*
X197438184Y-78486051D01*
X197627588Y-78582557D01*
X197829757Y-78648246D01*
X198039713Y-78681500D01*
X198039714Y-78681500D01*
X198252286Y-78681500D01*
X198252287Y-78681500D01*
X198462243Y-78648246D01*
X198664412Y-78582557D01*
X198853816Y-78486051D01*
X198875789Y-78470086D01*
X199025786Y-78361109D01*
X199025788Y-78361106D01*
X199025792Y-78361104D01*
X199176104Y-78210792D01*
X199176106Y-78210788D01*
X199176109Y-78210786D01*
X199301048Y-78038820D01*
X199301047Y-78038820D01*
X199301051Y-78038816D01*
X199397557Y-77849412D01*
X199463246Y-77647243D01*
X199496500Y-77437287D01*
X199496500Y-76974713D01*
X199463246Y-76764757D01*
X199397557Y-76562588D01*
X199301051Y-76373184D01*
X199301049Y-76373181D01*
X199301048Y-76373179D01*
X199176109Y-76201213D01*
X199025786Y-76050890D01*
X198853820Y-75925951D01*
X198664414Y-75829444D01*
X198664413Y-75829443D01*
X198664412Y-75829443D01*
X198462243Y-75763754D01*
X198462241Y-75763753D01*
X198462240Y-75763753D01*
X198292234Y-75736827D01*
X198252287Y-75730500D01*
X198039713Y-75730500D01*
X197999766Y-75736827D01*
X197829753Y-75763754D01*
X197719813Y-75799475D01*
X197649972Y-75801470D01*
X197593815Y-75769225D01*
X196363150Y-74538560D01*
X196355860Y-74531270D01*
X196355858Y-74531267D01*
X196268733Y-74444142D01*
X196217509Y-74409915D01*
X196166286Y-74375688D01*
X196166283Y-74375686D01*
X196166280Y-74375685D01*
X196092603Y-74345168D01*
X196092601Y-74345167D01*
X196085792Y-74342347D01*
X196052452Y-74328537D01*
X195992029Y-74316518D01*
X195987306Y-74315578D01*
X195987304Y-74315578D01*
X195931610Y-74304500D01*
X195931607Y-74304500D01*
X195931606Y-74304500D01*
X190254500Y-74304500D01*
X190187461Y-74284815D01*
X190141706Y-74232011D01*
X190130500Y-74180500D01*
X190130500Y-74079306D01*
X190130499Y-74079304D01*
X190095896Y-73905341D01*
X190095893Y-73905332D01*
X190028016Y-73741459D01*
X190028009Y-73741446D01*
X189929464Y-73593965D01*
X189929461Y-73593961D01*
X189804038Y-73468538D01*
X189804034Y-73468535D01*
X189656553Y-73369990D01*
X189656540Y-73369983D01*
X189492667Y-73302106D01*
X189492658Y-73302103D01*
X189318694Y-73267500D01*
X189318691Y-73267500D01*
X189141309Y-73267500D01*
X189141306Y-73267500D01*
X188967341Y-73302103D01*
X188967332Y-73302106D01*
X188803459Y-73369983D01*
X188803446Y-73369990D01*
X188655965Y-73468535D01*
X188655961Y-73468538D01*
X188530538Y-73593961D01*
X188530535Y-73593965D01*
X188431990Y-73741446D01*
X188431983Y-73741459D01*
X188364106Y-73905332D01*
X188364103Y-73905341D01*
X188329500Y-74079304D01*
X188329500Y-74180500D01*
X188309815Y-74247539D01*
X188257011Y-74293294D01*
X188205500Y-74304500D01*
X180461741Y-74304500D01*
X180461721Y-74304499D01*
X180455607Y-74304499D01*
X180332394Y-74304499D01*
X180231597Y-74324548D01*
X180231592Y-74324548D01*
X180211549Y-74328536D01*
X180211547Y-74328536D01*
X180164397Y-74348067D01*
X180097719Y-74375685D01*
X180097717Y-74375686D01*
X179995266Y-74444141D01*
X179995263Y-74444144D01*
X179376229Y-75063181D01*
X179314906Y-75096666D01*
X179288548Y-75099500D01*
X179235306Y-75099500D01*
X179061341Y-75134103D01*
X179061332Y-75134106D01*
X178897459Y-75201983D01*
X178897446Y-75201990D01*
X178749965Y-75300535D01*
X178749961Y-75300538D01*
X178624538Y-75425961D01*
X178624535Y-75425965D01*
X178525990Y-75573446D01*
X178525983Y-75573459D01*
X178458106Y-75737332D01*
X178458103Y-75737341D01*
X178423500Y-75911304D01*
X175638420Y-75911304D01*
X175577787Y-75792306D01*
X175460981Y-75631536D01*
X175320464Y-75491019D01*
X175159694Y-75374213D01*
X174982632Y-75283994D01*
X174982629Y-75283993D01*
X174793637Y-75222587D01*
X174663548Y-75201983D01*
X174597361Y-75191500D01*
X174398639Y-75191500D01*
X174333214Y-75201862D01*
X174202362Y-75222587D01*
X174013370Y-75283993D01*
X174013367Y-75283994D01*
X173836305Y-75374213D01*
X173675533Y-75491021D01*
X173535021Y-75631533D01*
X173418213Y-75792305D01*
X173338485Y-75948780D01*
X173290510Y-75999576D01*
X173222689Y-76016371D01*
X173156554Y-75993833D01*
X173117515Y-75948780D01*
X173056709Y-75829443D01*
X173037787Y-75792306D01*
X172920981Y-75631536D01*
X172780464Y-75491019D01*
X172619694Y-75374213D01*
X172442632Y-75283994D01*
X172442629Y-75283993D01*
X172253637Y-75222587D01*
X172123548Y-75201983D01*
X172057361Y-75191500D01*
X171858639Y-75191500D01*
X171793214Y-75201862D01*
X171662362Y-75222587D01*
X171473370Y-75283993D01*
X171473367Y-75283994D01*
X171296305Y-75374213D01*
X171135533Y-75491021D01*
X170995021Y-75631533D01*
X170878213Y-75792305D01*
X170798204Y-75949331D01*
X170750229Y-76000127D01*
X170682408Y-76016922D01*
X170616273Y-75994384D01*
X170577234Y-75949331D01*
X170497358Y-75792567D01*
X170470268Y-75755283D01*
X169880550Y-76345001D01*
X169860630Y-76270657D01*
X169798095Y-76162343D01*
X169709657Y-76073905D01*
X169601343Y-76011370D01*
X169526997Y-75991449D01*
X170116716Y-75401731D01*
X170116715Y-75401730D01*
X170079432Y-75374641D01*
X169902437Y-75284457D01*
X169713522Y-75223075D01*
X169517321Y-75192000D01*
X169318679Y-75192000D01*
X169122479Y-75223075D01*
X169122476Y-75223075D01*
X168933562Y-75284457D01*
X168756564Y-75374643D01*
X168719283Y-75401729D01*
X168719282Y-75401730D01*
X169309002Y-75991449D01*
X169234657Y-76011370D01*
X169126343Y-76073905D01*
X169037905Y-76162343D01*
X168975370Y-76270657D01*
X168955449Y-76345002D01*
X168365730Y-75755282D01*
X168365729Y-75755283D01*
X168338641Y-75792566D01*
X168258764Y-75949332D01*
X168210790Y-76000127D01*
X168142969Y-76016922D01*
X168076834Y-75994384D01*
X168037796Y-75949332D01*
X167957787Y-75792306D01*
X167840981Y-75631536D01*
X167700464Y-75491019D01*
X167539694Y-75374213D01*
X167362632Y-75283994D01*
X167362629Y-75283993D01*
X167173637Y-75222587D01*
X167043548Y-75201983D01*
X166977361Y-75191500D01*
X166778639Y-75191500D01*
X166713214Y-75201862D01*
X166582362Y-75222587D01*
X166393370Y-75283993D01*
X166393367Y-75283994D01*
X166216305Y-75374213D01*
X166055533Y-75491021D01*
X165915021Y-75631533D01*
X165798213Y-75792305D01*
X165707994Y-75969367D01*
X165707993Y-75969370D01*
X165646587Y-76158362D01*
X165643683Y-76176697D01*
X165615500Y-76354639D01*
X139368050Y-76354639D01*
X139220748Y-76306778D01*
X139051326Y-76279944D01*
X138994854Y-76271000D01*
X138766146Y-76271000D01*
X138690849Y-76282926D01*
X138540253Y-76306778D01*
X138540250Y-76306778D01*
X138322744Y-76377450D01*
X138118961Y-76481283D01*
X138019757Y-76553360D01*
X137933934Y-76615714D01*
X137933932Y-76615716D01*
X137933931Y-76615716D01*
X137772216Y-76777431D01*
X137772216Y-76777432D01*
X137772214Y-76777434D01*
X137736998Y-76825905D01*
X137637783Y-76962461D01*
X137533950Y-77166244D01*
X137463278Y-77383750D01*
X137463278Y-77383753D01*
X137443873Y-77506269D01*
X137427500Y-77609646D01*
X133096000Y-77609646D01*
X133096000Y-74209646D01*
X137427500Y-74209646D01*
X137427500Y-74438353D01*
X137463278Y-74664246D01*
X137463278Y-74664249D01*
X137533950Y-74881755D01*
X137637783Y-75085538D01*
X137772214Y-75270566D01*
X137933934Y-75432286D01*
X138118962Y-75566717D01*
X138246171Y-75631533D01*
X138322744Y-75670549D01*
X138540251Y-75741221D01*
X138540252Y-75741221D01*
X138540255Y-75741222D01*
X138766146Y-75777000D01*
X138766147Y-75777000D01*
X138994853Y-75777000D01*
X138994854Y-75777000D01*
X139220745Y-75741222D01*
X139220748Y-75741221D01*
X139220749Y-75741221D01*
X139438255Y-75670549D01*
X139438255Y-75670548D01*
X139438258Y-75670548D01*
X139642038Y-75566717D01*
X139827066Y-75432286D01*
X139988786Y-75270566D01*
X140123217Y-75085538D01*
X140227048Y-74881758D01*
X140297722Y-74664245D01*
X140333500Y-74438354D01*
X140333500Y-74209646D01*
X140297722Y-73983755D01*
X140297721Y-73983751D01*
X140297721Y-73983750D01*
X140227049Y-73766244D01*
X140214414Y-73741446D01*
X140123217Y-73562462D01*
X139988786Y-73377434D01*
X139827066Y-73215714D01*
X139642038Y-73081283D01*
X139438255Y-72977450D01*
X139220748Y-72906778D01*
X139051326Y-72879944D01*
X138994854Y-72871000D01*
X138766146Y-72871000D01*
X138690849Y-72882926D01*
X138540253Y-72906778D01*
X138540250Y-72906778D01*
X138322744Y-72977450D01*
X138118961Y-73081283D01*
X138013396Y-73157980D01*
X137933934Y-73215714D01*
X137933932Y-73215716D01*
X137933931Y-73215716D01*
X137772216Y-73377431D01*
X137772216Y-73377432D01*
X137772214Y-73377434D01*
X137714480Y-73456896D01*
X137637783Y-73562461D01*
X137533950Y-73766244D01*
X137463278Y-73983750D01*
X137463278Y-73983753D01*
X137427500Y-74209646D01*
X133096000Y-74209646D01*
X133096000Y-68895646D01*
X137427500Y-68895646D01*
X137427500Y-69124353D01*
X137463278Y-69350246D01*
X137463278Y-69350249D01*
X137533950Y-69567755D01*
X137606754Y-69710641D01*
X137637783Y-69771538D01*
X137772214Y-69956566D01*
X137933934Y-70118286D01*
X138118962Y-70252717D01*
X138255839Y-70322459D01*
X138322744Y-70356549D01*
X138540251Y-70427221D01*
X138540252Y-70427221D01*
X138540255Y-70427222D01*
X138766146Y-70463000D01*
X138766147Y-70463000D01*
X138994853Y-70463000D01*
X138994854Y-70463000D01*
X139220745Y-70427222D01*
X139220748Y-70427221D01*
X139220749Y-70427221D01*
X139438255Y-70356549D01*
X139438255Y-70356548D01*
X139438258Y-70356548D01*
X139460897Y-70345013D01*
X191796000Y-70345013D01*
X191796000Y-70870000D01*
X192741854Y-70870000D01*
X192703370Y-70936657D01*
X192671000Y-71057465D01*
X192671000Y-71182535D01*
X192703370Y-71303343D01*
X192741854Y-71370000D01*
X191796001Y-71370000D01*
X191796001Y-71894986D01*
X191806494Y-71997697D01*
X191861641Y-72164119D01*
X191861643Y-72164124D01*
X191953684Y-72313345D01*
X192077654Y-72437315D01*
X192226875Y-72529356D01*
X192226880Y-72529358D01*
X192393302Y-72584505D01*
X192393309Y-72584506D01*
X192496019Y-72594999D01*
X192895999Y-72594999D01*
X192896000Y-72594998D01*
X192896000Y-71524145D01*
X192962657Y-71562630D01*
X193083465Y-71595000D01*
X193208535Y-71595000D01*
X193329343Y-71562630D01*
X193396000Y-71524145D01*
X193396000Y-72594999D01*
X193795972Y-72594999D01*
X193795986Y-72594998D01*
X193898697Y-72584505D01*
X194065119Y-72529358D01*
X194065124Y-72529356D01*
X194214345Y-72437315D01*
X194338317Y-72313343D01*
X194433815Y-72158516D01*
X194485763Y-72111791D01*
X194554725Y-72100568D01*
X194618808Y-72128412D01*
X194627035Y-72135931D01*
X194766213Y-72275109D01*
X194938179Y-72400048D01*
X194938181Y-72400049D01*
X194938184Y-72400051D01*
X195127588Y-72496557D01*
X195329757Y-72562246D01*
X195539713Y-72595500D01*
X195539714Y-72595500D01*
X195752286Y-72595500D01*
X195752287Y-72595500D01*
X195962243Y-72562246D01*
X196164412Y-72496557D01*
X196353816Y-72400051D01*
X196375789Y-72384086D01*
X196525786Y-72275109D01*
X196525788Y-72275106D01*
X196525792Y-72275104D01*
X196676104Y-72124792D01*
X196795683Y-71960204D01*
X196851011Y-71917540D01*
X196920624Y-71911561D01*
X196982420Y-71944166D01*
X196996313Y-71960199D01*
X197023557Y-71997697D01*
X197115896Y-72124792D01*
X197266213Y-72275109D01*
X197438179Y-72400048D01*
X197438181Y-72400049D01*
X197438184Y-72400051D01*
X197627588Y-72496557D01*
X197829757Y-72562246D01*
X198039713Y-72595500D01*
X198039714Y-72595500D01*
X198252286Y-72595500D01*
X198252287Y-72595500D01*
X198462243Y-72562246D01*
X198664412Y-72496557D01*
X198853816Y-72400051D01*
X198875789Y-72384086D01*
X199025786Y-72275109D01*
X199025788Y-72275106D01*
X199025792Y-72275104D01*
X199176104Y-72124792D01*
X199176106Y-72124788D01*
X199176109Y-72124786D01*
X199301048Y-71952820D01*
X199301047Y-71952820D01*
X199301051Y-71952816D01*
X199397557Y-71763412D01*
X199463246Y-71561243D01*
X199496500Y-71351287D01*
X199496500Y-70888713D01*
X199463246Y-70678757D01*
X199397557Y-70476588D01*
X199301051Y-70287184D01*
X199301049Y-70287181D01*
X199301048Y-70287179D01*
X199176109Y-70115213D01*
X199025786Y-69964890D01*
X198853820Y-69839951D01*
X198664414Y-69743444D01*
X198664413Y-69743443D01*
X198664412Y-69743443D01*
X198462243Y-69677754D01*
X198462241Y-69677753D01*
X198462240Y-69677753D01*
X198300957Y-69652208D01*
X198252287Y-69644500D01*
X198039713Y-69644500D01*
X197991042Y-69652208D01*
X197829760Y-69677753D01*
X197627585Y-69743444D01*
X197438179Y-69839951D01*
X197266213Y-69964890D01*
X197115894Y-70115209D01*
X197115890Y-70115214D01*
X196996318Y-70279793D01*
X196940989Y-70322459D01*
X196871375Y-70328438D01*
X196809580Y-70295833D01*
X196795682Y-70279793D01*
X196676109Y-70115214D01*
X196676105Y-70115209D01*
X196525786Y-69964890D01*
X196353820Y-69839951D01*
X196164414Y-69743444D01*
X196164413Y-69743443D01*
X196164412Y-69743443D01*
X195962243Y-69677754D01*
X195962241Y-69677753D01*
X195962240Y-69677753D01*
X195800957Y-69652208D01*
X195752287Y-69644500D01*
X195539713Y-69644500D01*
X195491042Y-69652208D01*
X195329760Y-69677753D01*
X195127585Y-69743444D01*
X194938179Y-69839951D01*
X194766215Y-69964889D01*
X194627035Y-70104069D01*
X194565712Y-70137553D01*
X194496020Y-70132569D01*
X194440087Y-70090697D01*
X194433815Y-70081484D01*
X194338315Y-69926654D01*
X194214345Y-69802684D01*
X194065124Y-69710643D01*
X194065119Y-69710641D01*
X193898697Y-69655494D01*
X193898690Y-69655493D01*
X193795986Y-69645000D01*
X193396000Y-69645000D01*
X193396000Y-70715854D01*
X193329343Y-70677370D01*
X193208535Y-70645000D01*
X193083465Y-70645000D01*
X192962657Y-70677370D01*
X192896000Y-70715854D01*
X192896000Y-69645000D01*
X192496028Y-69645000D01*
X192496012Y-69645001D01*
X192393302Y-69655494D01*
X192226880Y-69710641D01*
X192226875Y-69710643D01*
X192077654Y-69802684D01*
X191953684Y-69926654D01*
X191861643Y-70075875D01*
X191861641Y-70075880D01*
X191806494Y-70242302D01*
X191806493Y-70242309D01*
X191796000Y-70345013D01*
X139460897Y-70345013D01*
X139642038Y-70252717D01*
X139827066Y-70118286D01*
X139988786Y-69956566D01*
X140123217Y-69771538D01*
X140227048Y-69567758D01*
X140297722Y-69350245D01*
X140333500Y-69124354D01*
X140333500Y-68895646D01*
X140297722Y-68669755D01*
X140297721Y-68669751D01*
X140297721Y-68669750D01*
X140227049Y-68452244D01*
X140227048Y-68452242D01*
X140123217Y-68248462D01*
X139988786Y-68063434D01*
X139827066Y-67901714D01*
X139642038Y-67767283D01*
X139438255Y-67663450D01*
X139220748Y-67592778D01*
X139051326Y-67565944D01*
X138994854Y-67557000D01*
X138766146Y-67557000D01*
X138690849Y-67568926D01*
X138540253Y-67592778D01*
X138540250Y-67592778D01*
X138322744Y-67663450D01*
X138118961Y-67767283D01*
X138049354Y-67817856D01*
X137933934Y-67901714D01*
X137933932Y-67901716D01*
X137933931Y-67901716D01*
X137772216Y-68063431D01*
X137772216Y-68063432D01*
X137772214Y-68063434D01*
X137714480Y-68142896D01*
X137637783Y-68248461D01*
X137533950Y-68452244D01*
X137463278Y-68669750D01*
X137463278Y-68669753D01*
X137427500Y-68895646D01*
X133096000Y-68895646D01*
X133096000Y-65495646D01*
X137427500Y-65495646D01*
X137427500Y-65724354D01*
X137433709Y-65763558D01*
X137463278Y-65950246D01*
X137463278Y-65950249D01*
X137533950Y-66167755D01*
X137603395Y-66304048D01*
X137637783Y-66371538D01*
X137772214Y-66556566D01*
X137933934Y-66718286D01*
X138118962Y-66852717D01*
X138322742Y-66956548D01*
X138322744Y-66956549D01*
X138540251Y-67027221D01*
X138540252Y-67027221D01*
X138540255Y-67027222D01*
X138766146Y-67063000D01*
X138766147Y-67063000D01*
X138994853Y-67063000D01*
X138994854Y-67063000D01*
X139220745Y-67027222D01*
X139220748Y-67027221D01*
X139220749Y-67027221D01*
X139438255Y-66956549D01*
X139438255Y-66956548D01*
X139438258Y-66956548D01*
X139498022Y-66926097D01*
X156971500Y-66926097D01*
X156971500Y-67185902D01*
X157012140Y-67442493D01*
X157092422Y-67689576D01*
X157157785Y-67817856D01*
X157200514Y-67901716D01*
X157210368Y-67921054D01*
X157264570Y-67995657D01*
X157363069Y-68131229D01*
X157546771Y-68314931D01*
X157756949Y-68467634D01*
X157904445Y-68542787D01*
X157988423Y-68585577D01*
X157988425Y-68585577D01*
X157988428Y-68585579D01*
X158235507Y-68665860D01*
X158367706Y-68686797D01*
X158492098Y-68706500D01*
X158492103Y-68706500D01*
X158751902Y-68706500D01*
X158865298Y-68688539D01*
X159008493Y-68665860D01*
X159255572Y-68585579D01*
X159487051Y-68467634D01*
X159697229Y-68314931D01*
X159880931Y-68131229D01*
X160033634Y-67921051D01*
X160151579Y-67689572D01*
X160231860Y-67442493D01*
X160263198Y-67244630D01*
X160272500Y-67185902D01*
X160272500Y-66926097D01*
X160242940Y-66739465D01*
X160231860Y-66669507D01*
X160151579Y-66422428D01*
X160151577Y-66422425D01*
X160151577Y-66422423D01*
X160033633Y-66190948D01*
X160033631Y-66190945D01*
X159914506Y-66026983D01*
X164083500Y-66026983D01*
X164083500Y-67577001D01*
X164083501Y-67577018D01*
X164094000Y-67679796D01*
X164094001Y-67679799D01*
X164097241Y-67689576D01*
X164149186Y-67846334D01*
X164241288Y-67995656D01*
X164365344Y-68119712D01*
X164514666Y-68211814D01*
X164681203Y-68266999D01*
X164783991Y-68277500D01*
X166084008Y-68277499D01*
X166186797Y-68266999D01*
X166353334Y-68211814D01*
X166502656Y-68119712D01*
X166626712Y-67995656D01*
X166718814Y-67846334D01*
X166718814Y-67846331D01*
X166722448Y-67840441D01*
X166774395Y-67793716D01*
X166843358Y-67782493D01*
X166907440Y-67810336D01*
X166915668Y-67817856D01*
X167054535Y-67956723D01*
X167054540Y-67956727D01*
X167226442Y-68081620D01*
X167415782Y-68178095D01*
X167617871Y-68243757D01*
X167684000Y-68254231D01*
X167684000Y-67206145D01*
X167750657Y-67244630D01*
X167871465Y-67277000D01*
X167996535Y-67277000D01*
X168117343Y-67244630D01*
X168184000Y-67206145D01*
X168184000Y-68254230D01*
X168250126Y-68243757D01*
X168250129Y-68243757D01*
X168452217Y-68178095D01*
X168641557Y-68081620D01*
X168813459Y-67956727D01*
X168813464Y-67956723D01*
X168963721Y-67806466D01*
X169083371Y-67641781D01*
X169138701Y-67599115D01*
X169208314Y-67593136D01*
X169270110Y-67625741D01*
X169284008Y-67641781D01*
X169403890Y-67806785D01*
X169403894Y-67806790D01*
X169554213Y-67957109D01*
X169726179Y-68082048D01*
X169726181Y-68082049D01*
X169726184Y-68082051D01*
X169915588Y-68178557D01*
X170117757Y-68244246D01*
X170327713Y-68277500D01*
X170327714Y-68277500D01*
X170540286Y-68277500D01*
X170540287Y-68277500D01*
X170750243Y-68244246D01*
X170952412Y-68178557D01*
X171141816Y-68082051D01*
X171167444Y-68063431D01*
X171313786Y-67957109D01*
X171313788Y-67957106D01*
X171313792Y-67957104D01*
X171464104Y-67806792D01*
X171583683Y-67642204D01*
X171639011Y-67599540D01*
X171708624Y-67593561D01*
X171770420Y-67626166D01*
X171784313Y-67642199D01*
X171875191Y-67767283D01*
X171903896Y-67806792D01*
X172054213Y-67957109D01*
X172226179Y-68082048D01*
X172226181Y-68082049D01*
X172226184Y-68082051D01*
X172415588Y-68178557D01*
X172617757Y-68244246D01*
X172827713Y-68277500D01*
X172827714Y-68277500D01*
X173040286Y-68277500D01*
X173040287Y-68277500D01*
X173250243Y-68244246D01*
X173452412Y-68178557D01*
X173641816Y-68082051D01*
X173667444Y-68063431D01*
X173813786Y-67957109D01*
X173813788Y-67957106D01*
X173813792Y-67957104D01*
X173964104Y-67806792D01*
X173964106Y-67806788D01*
X173964109Y-67806786D01*
X174089048Y-67634820D01*
X174089047Y-67634820D01*
X174089051Y-67634816D01*
X174185557Y-67445412D01*
X174251246Y-67243243D01*
X174284500Y-67033287D01*
X174284500Y-66926097D01*
X177927500Y-66926097D01*
X177927500Y-67185902D01*
X177968140Y-67442493D01*
X178048422Y-67689576D01*
X178113785Y-67817856D01*
X178156514Y-67901716D01*
X178166368Y-67921054D01*
X178220570Y-67995657D01*
X178319069Y-68131229D01*
X178502771Y-68314931D01*
X178712949Y-68467634D01*
X178860445Y-68542787D01*
X178944423Y-68585577D01*
X178944425Y-68585577D01*
X178944428Y-68585579D01*
X179191507Y-68665860D01*
X179323706Y-68686797D01*
X179448098Y-68706500D01*
X179448103Y-68706500D01*
X179707902Y-68706500D01*
X179821298Y-68688539D01*
X179964493Y-68665860D01*
X180211572Y-68585579D01*
X180443051Y-68467634D01*
X180653229Y-68314931D01*
X180836931Y-68131229D01*
X180989634Y-67921051D01*
X181107579Y-67689572D01*
X181187860Y-67442493D01*
X181219198Y-67244630D01*
X181228500Y-67185902D01*
X181228500Y-66926097D01*
X181198940Y-66739465D01*
X181187860Y-66669507D01*
X181107579Y-66422428D01*
X181107577Y-66422425D01*
X181107577Y-66422423D01*
X181058956Y-66327000D01*
X180989634Y-66190949D01*
X180836931Y-65980771D01*
X180653229Y-65797069D01*
X180450214Y-65649570D01*
X180443054Y-65644368D01*
X180443053Y-65644367D01*
X180443051Y-65644366D01*
X180370764Y-65607534D01*
X180211576Y-65526422D01*
X179964493Y-65446140D01*
X179707902Y-65405500D01*
X179707897Y-65405500D01*
X179448103Y-65405500D01*
X179448098Y-65405500D01*
X179191506Y-65446140D01*
X178944423Y-65526422D01*
X178712945Y-65644368D01*
X178502774Y-65797066D01*
X178502768Y-65797071D01*
X178319071Y-65980768D01*
X178319066Y-65980774D01*
X178166368Y-66190945D01*
X178048422Y-66422423D01*
X177968140Y-66669506D01*
X177927500Y-66926097D01*
X174284500Y-66926097D01*
X174284500Y-66570713D01*
X174251246Y-66360757D01*
X174185557Y-66158588D01*
X174089051Y-65969184D01*
X174089049Y-65969181D01*
X174089048Y-65969179D01*
X173964109Y-65797213D01*
X173813786Y-65646890D01*
X173641820Y-65521951D01*
X173452414Y-65425444D01*
X173452413Y-65425443D01*
X173452412Y-65425443D01*
X173250243Y-65359754D01*
X173250241Y-65359753D01*
X173250239Y-65359753D01*
X173157792Y-65345111D01*
X173106581Y-65337000D01*
X173040287Y-65326500D01*
X172827713Y-65326500D01*
X172779042Y-65334208D01*
X172617760Y-65359753D01*
X172415585Y-65425444D01*
X172226179Y-65521951D01*
X172054213Y-65646890D01*
X171903894Y-65797209D01*
X171903890Y-65797214D01*
X171784318Y-65961793D01*
X171728989Y-66004459D01*
X171659375Y-66010438D01*
X171597580Y-65977833D01*
X171583682Y-65961793D01*
X171464109Y-65797214D01*
X171464105Y-65797209D01*
X171313786Y-65646890D01*
X171141820Y-65521951D01*
X170952414Y-65425444D01*
X170952413Y-65425443D01*
X170952412Y-65425443D01*
X170750243Y-65359754D01*
X170750241Y-65359753D01*
X170750240Y-65359753D01*
X170588957Y-65334208D01*
X170540287Y-65326500D01*
X170327713Y-65326500D01*
X170279042Y-65334208D01*
X170117760Y-65359753D01*
X169915585Y-65425444D01*
X169726179Y-65521951D01*
X169554213Y-65646890D01*
X169403894Y-65797209D01*
X169403890Y-65797214D01*
X169284008Y-65962218D01*
X169228678Y-66004884D01*
X169159065Y-66010863D01*
X169097270Y-65978257D01*
X169083372Y-65962218D01*
X168963727Y-65797540D01*
X168963723Y-65797535D01*
X168813464Y-65647276D01*
X168813459Y-65647272D01*
X168641557Y-65522379D01*
X168452215Y-65425903D01*
X168250124Y-65360241D01*
X168184000Y-65349768D01*
X168184000Y-66397854D01*
X168117343Y-66359370D01*
X167996535Y-66327000D01*
X167871465Y-66327000D01*
X167750657Y-66359370D01*
X167684000Y-66397854D01*
X167684000Y-65349768D01*
X167683999Y-65349768D01*
X167617875Y-65360241D01*
X167415784Y-65425903D01*
X167226442Y-65522379D01*
X167054541Y-65647271D01*
X166915668Y-65786144D01*
X166854345Y-65819628D01*
X166784653Y-65814644D01*
X166728720Y-65772772D01*
X166722448Y-65763558D01*
X166665029Y-65670467D01*
X166626712Y-65608344D01*
X166502656Y-65484288D01*
X166353334Y-65392186D01*
X166186797Y-65337001D01*
X166186795Y-65337000D01*
X166084010Y-65326500D01*
X164783998Y-65326500D01*
X164783981Y-65326501D01*
X164681203Y-65337000D01*
X164681200Y-65337001D01*
X164514668Y-65392185D01*
X164514663Y-65392187D01*
X164365342Y-65484289D01*
X164241289Y-65608342D01*
X164149187Y-65757663D01*
X164149185Y-65757668D01*
X164144180Y-65772772D01*
X164094001Y-65924203D01*
X164094001Y-65924204D01*
X164094000Y-65924204D01*
X164083500Y-66026983D01*
X159914506Y-66026983D01*
X159880931Y-65980771D01*
X159697229Y-65797069D01*
X159494214Y-65649570D01*
X159487054Y-65644368D01*
X159487053Y-65644367D01*
X159487051Y-65644366D01*
X159414764Y-65607534D01*
X159255576Y-65526422D01*
X159008493Y-65446140D01*
X158751902Y-65405500D01*
X158751897Y-65405500D01*
X158492103Y-65405500D01*
X158492098Y-65405500D01*
X158235506Y-65446140D01*
X157988423Y-65526422D01*
X157756945Y-65644368D01*
X157546774Y-65797066D01*
X157546768Y-65797071D01*
X157363071Y-65980768D01*
X157363066Y-65980774D01*
X157210368Y-66190945D01*
X157092422Y-66422423D01*
X157012140Y-66669506D01*
X156971500Y-66926097D01*
X139498022Y-66926097D01*
X139642038Y-66852717D01*
X139827066Y-66718286D01*
X139988786Y-66556566D01*
X140123217Y-66371538D01*
X140227048Y-66167758D01*
X140230028Y-66158588D01*
X140297721Y-65950249D01*
X140297721Y-65950248D01*
X140297722Y-65950245D01*
X140333500Y-65724354D01*
X140333500Y-65495646D01*
X140297722Y-65269755D01*
X140297721Y-65269751D01*
X140297721Y-65269750D01*
X140227049Y-65052244D01*
X140123216Y-64848461D01*
X140117546Y-64840657D01*
X139988786Y-64663434D01*
X139827066Y-64501714D01*
X139656145Y-64377532D01*
X139642036Y-64367281D01*
X139620580Y-64356349D01*
X139620579Y-64356349D01*
X139438255Y-64263450D01*
X139393822Y-64249013D01*
X191770000Y-64249013D01*
X191770000Y-64774000D01*
X192715854Y-64774000D01*
X192677370Y-64840657D01*
X192645000Y-64961465D01*
X192645000Y-65086535D01*
X192677370Y-65207343D01*
X192715854Y-65274000D01*
X191770001Y-65274000D01*
X191770001Y-65798986D01*
X191780494Y-65901697D01*
X191835641Y-66068119D01*
X191835643Y-66068124D01*
X191927684Y-66217345D01*
X192051654Y-66341315D01*
X192200875Y-66433356D01*
X192200880Y-66433358D01*
X192367302Y-66488505D01*
X192367309Y-66488506D01*
X192470019Y-66498999D01*
X192869999Y-66498999D01*
X192870000Y-66498998D01*
X192870000Y-65428145D01*
X192936657Y-65466630D01*
X193057465Y-65499000D01*
X193182535Y-65499000D01*
X193303343Y-65466630D01*
X193370000Y-65428145D01*
X193370000Y-66498999D01*
X193769972Y-66498999D01*
X193769986Y-66498998D01*
X193872697Y-66488505D01*
X194039119Y-66433358D01*
X194039124Y-66433356D01*
X194188345Y-66341315D01*
X194312317Y-66217343D01*
X194407815Y-66062516D01*
X194459763Y-66015791D01*
X194528725Y-66004568D01*
X194592808Y-66032412D01*
X194601035Y-66039931D01*
X194740213Y-66179109D01*
X194912179Y-66304048D01*
X194912181Y-66304049D01*
X194912184Y-66304051D01*
X195101588Y-66400557D01*
X195303757Y-66466246D01*
X195513713Y-66499500D01*
X195513714Y-66499500D01*
X195726286Y-66499500D01*
X195726287Y-66499500D01*
X195936243Y-66466246D01*
X196138412Y-66400557D01*
X196327816Y-66304051D01*
X196349789Y-66288086D01*
X196499786Y-66179109D01*
X196499788Y-66179106D01*
X196499792Y-66179104D01*
X196650104Y-66028792D01*
X196769683Y-65864204D01*
X196825011Y-65821540D01*
X196894624Y-65815561D01*
X196956420Y-65848166D01*
X196970313Y-65864199D01*
X197055005Y-65980768D01*
X197089896Y-66028792D01*
X197240213Y-66179109D01*
X197412179Y-66304048D01*
X197412181Y-66304049D01*
X197412184Y-66304051D01*
X197601588Y-66400557D01*
X197803757Y-66466246D01*
X198013713Y-66499500D01*
X198013714Y-66499500D01*
X198226286Y-66499500D01*
X198226287Y-66499500D01*
X198436243Y-66466246D01*
X198638412Y-66400557D01*
X198827816Y-66304051D01*
X198849789Y-66288086D01*
X198999786Y-66179109D01*
X198999788Y-66179106D01*
X198999792Y-66179104D01*
X199150104Y-66028792D01*
X199150106Y-66028788D01*
X199150109Y-66028786D01*
X199275048Y-65856820D01*
X199275047Y-65856820D01*
X199275051Y-65856816D01*
X199371557Y-65667412D01*
X199437246Y-65465243D01*
X199470500Y-65255287D01*
X199470500Y-64792713D01*
X199437246Y-64582757D01*
X199371557Y-64380588D01*
X199275051Y-64191184D01*
X199275049Y-64191181D01*
X199275048Y-64191179D01*
X199150109Y-64019213D01*
X198999786Y-63868890D01*
X198827820Y-63743951D01*
X198638414Y-63647444D01*
X198638413Y-63647443D01*
X198638412Y-63647443D01*
X198436243Y-63581754D01*
X198436241Y-63581753D01*
X198436240Y-63581753D01*
X198274957Y-63556208D01*
X198226287Y-63548500D01*
X198013713Y-63548500D01*
X197965042Y-63556208D01*
X197803760Y-63581753D01*
X197601585Y-63647444D01*
X197412179Y-63743951D01*
X197240213Y-63868890D01*
X197089894Y-64019209D01*
X197089890Y-64019214D01*
X196970318Y-64183793D01*
X196914989Y-64226459D01*
X196845375Y-64232438D01*
X196783580Y-64199833D01*
X196769682Y-64183793D01*
X196650109Y-64019214D01*
X196650105Y-64019209D01*
X196499786Y-63868890D01*
X196327820Y-63743951D01*
X196138414Y-63647444D01*
X196138413Y-63647443D01*
X196138412Y-63647443D01*
X195936243Y-63581754D01*
X195936241Y-63581753D01*
X195936240Y-63581753D01*
X195774957Y-63556208D01*
X195726287Y-63548500D01*
X195513713Y-63548500D01*
X195465042Y-63556208D01*
X195303760Y-63581753D01*
X195101585Y-63647444D01*
X194912179Y-63743951D01*
X194740215Y-63868889D01*
X194601035Y-64008069D01*
X194539712Y-64041553D01*
X194470020Y-64036569D01*
X194414087Y-63994697D01*
X194407815Y-63985484D01*
X194312315Y-63830654D01*
X194188345Y-63706684D01*
X194039124Y-63614643D01*
X194039119Y-63614641D01*
X193872697Y-63559494D01*
X193872690Y-63559493D01*
X193769986Y-63549000D01*
X193370000Y-63549000D01*
X193370000Y-64619854D01*
X193303343Y-64581370D01*
X193182535Y-64549000D01*
X193057465Y-64549000D01*
X192936657Y-64581370D01*
X192870000Y-64619854D01*
X192870000Y-63549000D01*
X192470028Y-63549000D01*
X192470012Y-63549001D01*
X192367302Y-63559494D01*
X192200880Y-63614641D01*
X192200875Y-63614643D01*
X192051654Y-63706684D01*
X191927684Y-63830654D01*
X191835643Y-63979875D01*
X191835641Y-63979880D01*
X191780494Y-64146302D01*
X191780493Y-64146309D01*
X191770000Y-64249013D01*
X139393822Y-64249013D01*
X139220748Y-64192778D01*
X139051326Y-64165944D01*
X138994854Y-64157000D01*
X138766146Y-64157000D01*
X138690849Y-64168926D01*
X138540253Y-64192778D01*
X138540250Y-64192778D01*
X138322744Y-64263450D01*
X138118961Y-64367283D01*
X138013396Y-64443980D01*
X137933934Y-64501714D01*
X137933932Y-64501716D01*
X137933931Y-64501716D01*
X137772216Y-64663431D01*
X137772216Y-64663432D01*
X137772214Y-64663434D01*
X137722149Y-64732343D01*
X137637783Y-64848461D01*
X137533950Y-65052244D01*
X137463278Y-65269750D01*
X137463278Y-65269753D01*
X137443886Y-65392187D01*
X137427500Y-65495646D01*
X133096000Y-65495646D01*
X133096000Y-60830097D01*
X133985500Y-60830097D01*
X133985500Y-61089902D01*
X134026140Y-61346493D01*
X134106422Y-61593576D01*
X134187534Y-61752764D01*
X134224366Y-61825051D01*
X134377069Y-62035229D01*
X134560771Y-62218931D01*
X134770949Y-62371634D01*
X134918445Y-62446787D01*
X135002423Y-62489577D01*
X135002425Y-62489577D01*
X135002428Y-62489579D01*
X135249507Y-62569860D01*
X135381706Y-62590797D01*
X135506098Y-62610500D01*
X135506103Y-62610500D01*
X135765902Y-62610500D01*
X135879298Y-62592539D01*
X136022493Y-62569860D01*
X136269572Y-62489579D01*
X136501051Y-62371634D01*
X136711229Y-62218931D01*
X136894931Y-62035229D01*
X137047634Y-61825051D01*
X137165579Y-61593572D01*
X137245860Y-61346493D01*
X137268539Y-61203298D01*
X137286500Y-61089902D01*
X137286500Y-60830097D01*
X201549500Y-60830097D01*
X201549500Y-61089902D01*
X201590140Y-61346493D01*
X201670422Y-61593576D01*
X201751534Y-61752764D01*
X201788366Y-61825051D01*
X201941069Y-62035229D01*
X202124771Y-62218931D01*
X202334949Y-62371634D01*
X202482445Y-62446787D01*
X202566423Y-62489577D01*
X202566425Y-62489577D01*
X202566428Y-62489579D01*
X202813507Y-62569860D01*
X202945706Y-62590797D01*
X203070098Y-62610500D01*
X203070103Y-62610500D01*
X203329902Y-62610500D01*
X203443298Y-62592539D01*
X203586493Y-62569860D01*
X203833572Y-62489579D01*
X204065051Y-62371634D01*
X204275229Y-62218931D01*
X204458931Y-62035229D01*
X204611634Y-61825051D01*
X204729579Y-61593572D01*
X204809860Y-61346493D01*
X204832539Y-61203298D01*
X204850500Y-61089902D01*
X204850500Y-60830097D01*
X204828947Y-60694021D01*
X204809860Y-60573507D01*
X204729579Y-60326428D01*
X204729577Y-60326425D01*
X204729577Y-60326423D01*
X204686787Y-60242445D01*
X204611634Y-60094949D01*
X204458931Y-59884771D01*
X204275229Y-59701069D01*
X204065051Y-59548366D01*
X203992764Y-59511534D01*
X203833576Y-59430422D01*
X203586493Y-59350140D01*
X203329902Y-59309500D01*
X203329897Y-59309500D01*
X203070103Y-59309500D01*
X203070098Y-59309500D01*
X202813506Y-59350140D01*
X202566423Y-59430422D01*
X202334945Y-59548368D01*
X202124774Y-59701066D01*
X202124768Y-59701071D01*
X201941071Y-59884768D01*
X201941066Y-59884774D01*
X201788368Y-60094945D01*
X201670422Y-60326423D01*
X201590140Y-60573506D01*
X201549500Y-60830097D01*
X137286500Y-60830097D01*
X137264947Y-60694021D01*
X137245860Y-60573507D01*
X137165579Y-60326428D01*
X137165577Y-60326425D01*
X137165577Y-60326423D01*
X137122787Y-60242445D01*
X137047634Y-60094949D01*
X136894931Y-59884771D01*
X136711229Y-59701069D01*
X136501051Y-59548366D01*
X136428764Y-59511534D01*
X136269576Y-59430422D01*
X136022493Y-59350140D01*
X135765902Y-59309500D01*
X135765897Y-59309500D01*
X135506103Y-59309500D01*
X135506098Y-59309500D01*
X135249506Y-59350140D01*
X135002423Y-59430422D01*
X134770945Y-59548368D01*
X134560774Y-59701066D01*
X134560768Y-59701071D01*
X134377071Y-59884768D01*
X134377066Y-59884774D01*
X134224368Y-60094945D01*
X134106422Y-60326423D01*
X134026140Y-60573506D01*
X133985500Y-60830097D01*
X133096000Y-60830097D01*
X133096000Y-58544000D01*
X133115685Y-58476961D01*
X133168489Y-58431206D01*
X133220000Y-58420000D01*
X205616000Y-58420000D01*
X205683039Y-58439685D01*
G37*
%TD.AperFunction*%
%TD*%
M02*
