%TF.GenerationSoftware,KiCad,Pcbnew,7.0.10*%
%TF.CreationDate,2025-04-06T19:51:51+02:00*%
%TF.ProjectId,auto_irrigator,6175746f-5f69-4727-9269-6761746f722e,rev?*%
%TF.SameCoordinates,Original*%
%TF.FileFunction,Soldermask,Bot*%
%TF.FilePolarity,Negative*%
%FSLAX46Y46*%
G04 Gerber Fmt 4.6, Leading zero omitted, Abs format (unit mm)*
G04 Created by KiCad (PCBNEW 7.0.10) date 2025-04-06 19:51:51*
%MOMM*%
%LPD*%
G01*
G04 APERTURE LIST*
G04 Aperture macros list*
%AMRoundRect*
0 Rectangle with rounded corners*
0 $1 Rounding radius*
0 $2 $3 $4 $5 $6 $7 $8 $9 X,Y pos of 4 corners*
0 Add a 4 corners polygon primitive as box body*
4,1,4,$2,$3,$4,$5,$6,$7,$8,$9,$2,$3,0*
0 Add four circle primitives for the rounded corners*
1,1,$1+$1,$2,$3*
1,1,$1+$1,$4,$5*
1,1,$1+$1,$6,$7*
1,1,$1+$1,$8,$9*
0 Add four rect primitives between the rounded corners*
20,1,$1+$1,$2,$3,$4,$5,0*
20,1,$1+$1,$4,$5,$6,$7,0*
20,1,$1+$1,$6,$7,$8,$9,0*
20,1,$1+$1,$8,$9,$2,$3,0*%
G04 Aperture macros list end*
%ADD10RoundRect,0.250000X-0.600000X-0.725000X0.600000X-0.725000X0.600000X0.725000X-0.600000X0.725000X0*%
%ADD11O,1.700000X1.950000*%
%ADD12C,1.905000*%
%ADD13C,1.524000*%
%ADD14C,2.000000*%
%ADD15RoundRect,0.102000X0.750000X-0.750000X0.750000X0.750000X-0.750000X0.750000X-0.750000X-0.750000X0*%
%ADD16C,1.704000*%
%ADD17R,1.200000X1.200000*%
%ADD18C,1.200000*%
G04 APERTURE END LIST*
D10*
%TO.C,J7*%
X193588000Y-78694000D03*
D11*
X196088000Y-78694000D03*
X198588000Y-78694000D03*
%TD*%
D12*
%TO.C,J2*%
X138880500Y-65610000D03*
X138880500Y-69010000D03*
%TD*%
D13*
%TO.C,P1*%
X164338000Y-76454000D03*
X166878000Y-76454000D03*
X169418000Y-76454000D03*
X171958000Y-76454000D03*
X174498000Y-76454000D03*
%TD*%
D10*
%TO.C,J8*%
X193588000Y-84236000D03*
D11*
X196088000Y-84236000D03*
X198588000Y-84236000D03*
%TD*%
D12*
%TO.C,J4*%
X138880500Y-82804000D03*
X138880500Y-86204000D03*
%TD*%
D10*
%TO.C,J6*%
X165434000Y-66802000D03*
D11*
X167934000Y-66802000D03*
X170434000Y-66802000D03*
X172934000Y-66802000D03*
%TD*%
D12*
%TO.C,J1*%
X183388000Y-96774000D03*
X186788000Y-96774000D03*
%TD*%
D10*
%TO.C,J9*%
X193588000Y-67264000D03*
D11*
X196088000Y-67264000D03*
X198588000Y-67264000D03*
%TD*%
D12*
%TO.C,J5*%
X138880500Y-91264000D03*
X138880500Y-94664000D03*
%TD*%
D14*
%TO.C,SW1*%
X193092000Y-90460000D03*
X199592000Y-90460000D03*
X193092000Y-94960000D03*
X199592000Y-94960000D03*
%TD*%
D12*
%TO.C,J3*%
X138880500Y-74324000D03*
X138880500Y-77724000D03*
%TD*%
D15*
%TO.C,U3*%
X175006000Y-95758000D03*
D16*
X175006000Y-93218000D03*
X175006000Y-90678000D03*
X175006000Y-88138000D03*
X177546000Y-95758000D03*
X177546000Y-93218000D03*
X177546000Y-90678000D03*
X177546000Y-88138000D03*
%TD*%
D17*
%TO.C,C3*%
X159106000Y-93686600D03*
D18*
X159106000Y-92186600D03*
%TD*%
D10*
%TO.C,J10*%
X193588000Y-73106000D03*
D11*
X196088000Y-73106000D03*
X198588000Y-73106000D03*
%TD*%
M02*
